<?xml version="1.0" encoding="UTF-8" standalone="no"?>
<svg xmlns="http://www.w3.org/2000/svg" viewBox="0 0 612 408" class="theme-aware-illustration" data-illustration="cargo">
<path fill-opacity="0.745" d="M 162.989 124.250 C 161.900 126.037, 160.876 127.891, 160.714 128.368 C 160.553 128.846, 157.199 129.467, 153.262 129.749 C 143.208 130.468, 141.511 132.356, 141.505 142.826 C 141.502 147.047, 141.883 155.064, 142.350 160.643 L 143.200 170.787 134.471 171.145 C 126.564 171.470, 125.589 171.730, 124.121 173.914 C 122.096 176.925, 119.066 185.753, 119.028 188.750 C 119.012 190.060, 118.380 191, 117.516 191 C 116.699 191, 114.596 192.283, 112.840 193.851 C 110.052 196.343, 109.593 197.477, 109.206 202.833 C 108.773 208.813, 108.853 209.053, 112.485 212.685 C 115.747 215.947, 116.148 216.863, 115.717 220.077 C 115.446 222.094, 115.617 224.365, 116.097 225.123 C 116.658 226.009, 116.975 224.629, 116.985 221.250 C 116.996 217.209, 117.353 216, 118.531 216 C 120.821 216, 121.162 217.922, 120.242 225.628 C 119.105 235.145, 114.967 241.910, 110.250 241.963 L 107 242 107 248.378 C 107 256.540, 107.982 257.431, 116.266 256.786 L 122.500 256.300 124.500 260.383 C 126.804 265.087, 130.791 267.691, 136.500 268.220 L 140.500 268.591 141.139 276.045 C 144.205 311.850, 184.304 332.967, 217.500 316.261 C 223.690 313.146, 236.866 299.939, 239.361 294.349 L 241.214 290.199 251.150 288.982 C 258.531 288.077, 262.169 288.048, 265.293 288.869 C 267.607 289.476, 271.073 290.092, 272.996 290.236 C 276.019 290.464, 276.561 290.905, 277.005 293.500 C 277.434 295.999, 277.977 296.490, 280.260 296.438 C 296.615 296.064, 296 296.179, 296 293.500 C 296 291.147, 295.687 291, 290.691 291 C 284.558 291, 283.686 290.427, 278.518 283 C 276.413 279.975, 274.310 277.350, 273.845 277.167 C 273.380 276.983, 273 276.435, 273 275.948 C 273 273.880, 276.334 276.620, 279.932 281.645 C 283.560 286.711, 283.911 286.946, 285.486 285.371 C 287.835 283.023, 289 279.547, 289 274.891 C 289 271.328, 291.106 267.934, 309.195 242.347 C 331.268 211.126, 333.668 208.668, 337.929 212.929 C 339.128 214.128, 342.060 220.147, 344.443 226.305 C 359.797 265.966, 361.871 271.778, 361.363 273.718 C 359.939 279.166, 371.054 282.616, 374.443 277.777 C 377.671 273.169, 375.773 268.236, 370.104 266.504 C 367.978 265.855, 367.774 266.027, 368.298 268.030 C 369.564 272.873, 366.993 268.085, 363.717 259.500 C 361.829 254.550, 357.050 242.217, 353.098 232.094 C 349.147 221.970, 346.051 212.975, 346.218 212.106 C 346.428 211.018, 348.230 210.279, 351.994 209.737 C 364.701 207.908, 370.726 197.977, 366.461 185.890 C 364.406 180.064, 360.686 176.389, 354.901 174.467 C 352.274 173.595, 348.460 171.558, 346.425 169.940 C 344.390 168.323, 341.913 167, 340.922 167 C 339.930 167, 338.829 166.532, 338.475 165.960 C 338.075 165.312, 335.504 165.146, 331.666 165.518 C 321.408 166.514, 321 166.685, 321 170 C 321 173.191, 322.666 174.018, 328.402 173.674 C 332.377 173.436, 332.749 175.447, 329.016 176.993 C 327.334 177.690, 325.728 178.632, 325.447 179.086 C 325.167 179.539, 326.076 182.617, 327.469 185.925 C 328.861 189.233, 329.988 192.741, 329.974 193.720 C 329.955 195.044, 321.486 199.801, 296.930 212.282 C 278.770 221.512, 263.548 228.839, 263.104 228.564 C 262.660 228.290, 261.261 224.429, 259.996 219.985 C 258.259 213.886, 257.978 211.622, 258.848 210.752 C 260.547 209.053, 260.253 208, 258.080 208 C 256.642 208, 255.746 206.685, 254.504 202.750 C 253.592 199.863, 252.444 196.234, 251.953 194.686 C 251.128 192.088, 251.331 191.760, 254.607 190.391 C 256.558 189.576, 260.701 188.591, 263.814 188.202 C 267.963 187.684, 269.560 187.045, 269.798 185.811 C 270.497 182.181, 266.319 181.230, 247.599 180.755 C 231.167 180.339, 229.546 180.454, 227.849 182.151 C 225.626 184.374, 225.467 187.324, 227.463 189.320 C 228.267 190.124, 232.430 191.533, 236.713 192.451 C 240.996 193.368, 244.978 194.271, 245.563 194.456 C 246.148 194.642, 247.599 198.103, 248.787 202.147 C 250.674 208.564, 250.761 209.641, 249.475 210.610 C 247.576 212.040, 247.596 213, 249.525 213 C 251.672 213, 253.385 217.831, 251.881 219.644 C 251.241 220.414, 247.682 223.253, 243.972 225.952 L 237.225 230.859 228.363 225.435 L 219.500 220.012 209.250 220.006 C 199.669 220, 199 219.870, 199 218 C 199 216.242, 199.667 216, 204.500 216 C 210.946 216, 213.516 214.098, 214.556 208.556 C 214.922 206.600, 215.623 205, 216.111 205 C 216.600 205, 217 203.650, 217 202 C 217 200.350, 216.660 199, 216.245 199 C 215.202 199, 212.970 192.250, 212.597 187.968 C 212.428 186.026, 211.812 183.551, 211.228 182.468 C 210.644 181.386, 209.616 179.016, 208.943 177.203 C 207.577 173.524, 203.601 171, 199.172 171 C 196.287 171, 196.228 170.888, 195.086 163.250 C 194.450 158.988, 193.554 151.593, 193.095 146.817 C 191.859 133.937, 189.596 131.005, 179 128.562 C 177.625 128.245, 175.594 126.531, 174.487 124.754 C 173.379 122.976, 171.579 121.413, 170.487 121.279 C 169.184 121.119, 169.016 121.243, 170 121.638 C 171.623 122.290, 174.942 126.031, 174.978 127.250 C 174.990 127.662, 172.300 128, 169 128 C 164.850 128, 163.010 127.615, 163.032 126.750 C 163.074 125.077, 165.146 122.462, 167 121.741 C 168.192 121.278, 168.138 121.142, 166.735 121.079 C 165.764 121.035, 164.080 122.460, 162.989 124.250 M 157.299 131.106 C 152.730 132.427, 152.361 133.795, 155.753 136.834 C 157.390 138.300, 159.244 141.369, 159.875 143.653 C 160.506 145.937, 161.888 148.862, 162.946 150.153 C 164.679 152.267, 165.093 152.364, 167.123 151.124 C 169.137 149.894, 169.561 149.974, 171.099 151.874 C 172.489 153.591, 173.915 154, 178.504 154 C 183.434 154, 184.260 153.722, 184.736 151.903 C 185.175 150.222, 185.830 149.916, 188.045 150.359 C 190.345 150.819, 190.906 150.513, 191.406 148.519 C 192.373 144.665, 190.037 135.938, 187.378 133.474 C 186.064 132.256, 183.303 130.981, 181.244 130.641 C 175.803 129.741, 161.025 130.029, 157.299 131.106 M 151.373 150.503 C 151.746 157.929, 152.321 165.354, 152.651 167.003 C 153.221 169.855, 153.493 170, 158.273 170 L 163.295 170 162.626 161.291 C 162.257 156.501, 161.328 151.623, 160.560 150.451 C 159.792 149.278, 158.664 146.468, 158.055 144.205 C 156.832 139.662, 154.697 137, 152.276 137 C 150.880 137, 150.775 138.575, 151.373 150.503 M 186 153.500 C 186 155.189, 186.458 156.014, 187.250 155.750 C 187.938 155.521, 188.500 154.508, 188.500 153.500 C 188.500 152.492, 187.938 151.479, 187.250 151.250 C 186.458 150.986, 186 151.811, 186 153.500 M 167.688 152.646 C 166.272 154.061, 167.073 156, 169.073 156 C 170.471 156, 171.041 155.457, 170.823 154.333 C 170.466 152.492, 168.759 151.574, 167.688 152.646 M 190.710 160.198 C 191.279 168.146, 191.520 168.880, 193.056 167.344 C 194.398 166.002, 192.912 153.801, 191.344 153.280 C 190.508 153.002, 190.332 154.921, 190.710 160.198 M 164 156.160 C 164 161.262, 165.295 168, 166.275 168 C 167.596 168, 166.536 156.136, 165.084 154.684 C 164.305 153.905, 164 154.321, 164 156.160 M 172.011 159.250 C 172.017 161.037, 172.301 164.188, 172.642 166.250 L 173.262 170 179.770 170 L 186.278 170 185.740 164.068 C 185.444 160.805, 184.905 157.655, 184.542 157.068 C 184.179 156.481, 181.209 156, 177.941 156 L 172 156 172.011 159.250 M 168.531 163.636 C 169.308 171.089, 169.574 171.845, 170.930 170.433 C 172.267 169.040, 170.754 157.746, 169.158 157.217 C 168.078 156.859, 167.956 158.110, 168.531 163.636 M 186.320 159.250 C 186.615 160.488, 187.168 163.657, 187.548 166.293 C 187.929 168.930, 188.670 170.943, 189.195 170.768 C 190.392 170.369, 190.398 170.238, 189.578 162.986 C 189.073 158.521, 188.505 157, 187.342 157 C 186.233 157, 185.938 157.649, 186.320 159.250 M 339.490 170.032 C 338.613 172.794, 341.584 175.096, 345 174.301 C 348.508 173.484, 348.641 173.187, 346.444 171.077 C 343.254 168.012, 340.273 167.564, 339.490 170.032 M 126.251 173.537 C 119.870 178.006, 121.736 196, 128.580 196 C 131.559 196, 133.031 193.278, 133.629 186.664 C 134.173 180.649, 132.507 176.652, 129.260 176.185 C 127.579 175.943, 126.900 176.524, 126.336 178.685 C 124.412 186.053, 126.748 193.307, 129.750 189.290 C 131.246 187.288, 131.404 182.368, 130 181.500 C 129.404 181.131, 129 182.343, 129 184.500 C 129 186.657, 128.596 187.869, 128 187.500 C 126.565 186.613, 126.766 181.439, 128.284 180.180 C 131.443 177.557, 133.451 183.852, 131.458 190.132 C 130.667 192.623, 126.380 192.579, 125.035 190.066 C 123.472 187.144, 123.794 179.739, 125.597 177.165 C 127.717 174.138, 131.989 174.578, 133.712 178 C 135.213 180.982, 135.393 189.837, 134.025 193.435 C 132.836 196.560, 133.366 196.613, 140.135 194.041 C 142.972 192.963, 147.734 191.574, 150.719 190.954 L 156.147 189.828 155.503 185.664 C 154.682 180.349, 153.019 174.853, 151.747 173.250 C 150.201 171.302, 129.102 171.540, 126.251 173.537 M 155.042 178.250 C 156.037 181.688, 157.118 185.738, 157.444 187.250 C 157.771 188.762, 158.542 190, 159.157 190 C 159.940 190, 160.070 187.971, 159.589 183.250 C 158.572 173.249, 158.119 172, 155.508 172 L 153.234 172 155.042 178.250 M 159.396 173.750 C 159.688 174.713, 160.418 178.637, 161.018 182.471 C 161.618 186.305, 162.197 189.513, 162.305 189.600 C 162.412 189.687, 169.428 190.083, 177.895 190.481 L 193.290 191.205 192.777 184.807 C 192.494 181.288, 191.517 176.967, 190.606 175.205 L 188.949 172 173.907 172 C 160.046 172, 158.907 172.137, 159.396 173.750 M 191.534 173.670 C 191.979 174.677, 193.053 178.987, 193.921 183.249 C 195.166 189.359, 195.870 190.998, 197.250 190.999 C 198.720 191, 198.991 190.081, 198.944 185.250 C 198.860 176.722, 197.170 172.577, 193.612 172.170 C 191.136 171.888, 190.840 172.101, 191.534 173.670 M 199.007 175.750 C 199.443 177.813, 200.103 182.088, 200.472 185.250 C 201.112 190.724, 201.279 191, 203.950 191 C 205.493 191, 207.195 190.438, 207.733 189.750 C 212.030 184.258, 207.140 172, 200.652 172 C 198.359 172, 198.260 172.225, 199.007 175.750 M 343.926 175.187 C 343.885 175.359, 343.651 176.590, 343.406 177.922 C 342.726 181.617, 341.085 183, 337.378 183 C 333.025 183, 333.058 184.063, 337.703 193.451 C 341.121 200.358, 341.604 200.889, 343.953 200.328 C 354.540 197.799, 357.852 190.320, 352.850 180.237 C 350.855 176.215, 350.009 175.453, 347.250 175.187 C 345.462 175.014, 343.967 175.014, 343.926 175.187 M 352 175.540 C 352 175.837, 352.845 177.749, 353.878 179.790 C 356.456 184.883, 357.257 189.196, 356.159 192.076 C 354.710 195.879, 350.099 199.891, 346.377 200.589 C 342.181 201.376, 341.658 202.155, 343.139 205.406 C 344.578 208.563, 346.969 209.382, 352.381 208.570 C 364.983 206.680, 370.804 193.424, 363.676 182.847 C 360.516 178.158, 352 172.828, 352 175.540 M 210.489 192.500 C 212.746 199.416, 212.181 209.676, 209.389 212.468 C 208.547 213.311, 208.307 214, 208.857 214 C 209.407 214, 210.564 213.293, 211.429 212.429 C 213.664 210.194, 213.656 195.187, 211.418 192.441 C 209.859 190.527, 209.846 190.528, 210.489 192.500 M 115.250 193.989 C 111.308 196.393, 110.887 198.462, 114.750 196.447 C 116.263 195.658, 118.513 195.010, 119.750 195.006 C 121.081 195.003, 122 194.387, 122 193.500 C 122 191.423, 119.117 191.632, 115.250 193.989 M 144 194.803 C 137.067 197.003, 133.933 197.454, 127 197.251 C 122.325 197.114, 117.284 197.497, 115.799 198.102 C 109.636 200.613, 108.538 207.918, 113.712 211.988 C 116.867 214.470, 123.474 214.642, 130.898 212.438 L 136.160 210.875 133.768 207.773 C 130.728 203.831, 125.477 201, 121.207 201 C 119.245 201, 118.135 200.590, 118.500 200 C 120.405 196.918, 129.147 200.149, 134.790 206.021 C 137.858 209.215, 139.317 210.079, 140.684 209.513 C 141.683 209.100, 146.325 208.477, 151 208.131 L 159.500 207.500 159.811 203.742 C 160.033 201.052, 159.678 199.814, 158.561 199.385 C 157.702 199.056, 157 198.159, 157 197.393 C 157 195.281, 152.103 195.672, 143.288 198.487 C 134.908 201.164, 133 201.473, 133 200.158 C 133 199.290, 149.321 193.977, 152 193.972 C 152.825 193.971, 154.175 193.533, 155 193 C 157.826 191.173, 152.891 191.983, 144 194.803 M 164.100 192.433 C 164.338 192.672, 170.280 192.967, 177.305 193.091 C 184.329 193.214, 190.311 193.694, 190.597 194.157 C 190.884 194.621, 185.199 195, 177.965 195 C 165.654 195, 164.779 195.128, 164.290 197 C 164.002 198.100, 163.413 199, 162.980 199 C 162.547 199, 162.037 201.230, 161.847 203.955 L 161.500 208.910 165 209.414 C 168.626 209.935, 174.080 210.526, 184.677 211.547 C 190.175 212.077, 190.971 211.922, 191.927 210.137 C 193.884 206.480, 193.041 205.788, 189.874 208.452 C 185.276 212.322, 185.012 210.596, 189.500 206 C 194.169 201.219, 193.770 200.080, 188.692 203.692 C 183.322 207.514, 183.159 205.930, 188.475 201.574 C 193.195 197.706, 194.483 193.783, 191.418 192.607 C 189.640 191.924, 163.424 191.758, 164.100 192.433 M 195 200.566 C 195 204.727, 194.558 208.957, 194.018 209.966 C 193.310 211.290, 193.405 211.941, 194.359 212.308 C 197.474 213.503, 198.496 211.165, 198.849 202.037 C 199.183 193.413, 199.103 193, 197.099 193 C 195.152 193, 195 193.547, 195 200.566 M 200.776 202.750 C 200.521 208.113, 200.446 212.667, 200.610 212.870 C 200.773 213.074, 202.434 212.954, 204.300 212.603 C 208.448 211.825, 210 208.906, 210 201.887 C 210 195.070, 208.739 193, 204.584 193 L 201.239 193 200.776 202.750 M 291.500 221.165 C 277.200 228.347, 265.303 234.407, 265.063 234.632 C 264.555 235.107, 267.573 247.231, 269.997 254.455 C 271.530 259.022, 272.006 259.506, 276.080 260.635 C 278.511 261.309, 281.458 262.155, 282.628 262.515 C 284.473 263.082, 286.065 261.323, 294.558 249.335 C 299.949 241.726, 308.104 230.399, 312.680 224.164 C 320.974 212.864, 322.982 207.939, 319.250 208.054 C 318.288 208.083, 305.800 213.984, 291.500 221.165 M 147 218.500 C 147 223.175, 146.997 227.338, 146.993 227.750 C 146.989 228.162, 150.364 228.631, 154.493 228.792 L 162 229.084 162 220.173 L 162 211.262 158.250 210.642 C 156.188 210.301, 152.813 210.017, 150.750 210.011 L 147 210 147 218.500 M 139.714 211.696 C 138.135 212.107, 137.960 213.226, 138.214 221.330 C 138.497 230.394, 138.530 230.504, 141.119 230.804 C 144.390 231.183, 144.968 229.382, 144.986 218.750 C 145.001 210.521, 144.877 210.354, 139.714 211.696 M 164 212.500 C 164 213.325, 164.675 214, 165.500 214 C 166.325 214, 167 213.325, 167 212.500 C 167 211.675, 166.325 211, 165.500 211 C 164.675 211, 164 211.675, 164 212.500 M 168 213 C 168 213.550, 168.675 214, 169.500 214 C 170.325 214, 171 213.550, 171 213 C 171 212.450, 170.325 212, 169.500 212 C 168.675 212, 168 212.450, 168 213 M 172 220.333 C 172 224.367, 172.222 227.889, 172.494 228.161 C 173.620 229.286, 179.120 227.618, 181.472 225.438 C 183.219 223.819, 184 222.047, 184 219.703 C 184 215.196, 181.435 213, 176.171 213 L 172 213 172 220.333 M 128.750 215.162 C 126.586 215.953, 126 216.805, 126 219.160 C 126 222.699, 130.751 228, 133.923 228 C 135.828 228, 136 227.420, 136 221 C 136 214.384, 135.877 214.004, 133.750 214.079 C 132.512 214.122, 130.262 214.610, 128.750 215.162 M 194.079 217.583 C 194.127 218.748, 194.364 218.985, 194.683 218.188 C 194.972 217.466, 194.936 216.603, 194.604 216.271 C 194.272 215.939, 194.036 216.529, 194.079 217.583 M 298.355 221.992 C 297.175 222.468, 294.953 224.577, 293.416 226.679 C 291.879 228.780, 288.074 233.875, 284.962 238 C 276.313 249.462, 276.380 249.238, 280.045 254.565 C 281.764 257.065, 283.545 258.972, 284.003 258.805 C 285.120 258.395, 311 223, 311 221.881 C 311 220.759, 301.197 220.846, 298.355 221.992 M 194.410 223.854 C 194.700 224.324, 197.620 224.989, 200.899 225.332 C 208.389 226.114, 215.747 228.885, 222.834 233.591 C 228.092 237.082, 228.467 237.180, 230.898 235.705 C 232.300 234.854, 233.594 233.718, 233.773 233.181 C 233.952 232.643, 230.776 230.133, 226.715 227.602 L 219.332 223 206.607 223 C 199.608 223, 194.120 223.384, 194.410 223.854 M 353.004 223.750 C 353.008 224.749, 358.748 240.081, 359.338 240.671 C 359.592 240.925, 360.012 240.766, 360.271 240.317 C 360.884 239.254, 354.784 223, 353.772 223 C 353.348 223, 353.002 223.338, 353.004 223.750 M 243.664 232.720 C 237.829 236.999, 233.043 240.869, 233.028 241.320 C 233.012 241.771, 234.395 244.167, 236.100 246.645 C 237.804 249.123, 240.244 253.704, 241.520 256.825 L 243.841 262.500 254.170 262.137 C 259.852 261.937, 264.648 261.639, 264.829 261.475 C 265.010 261.310, 264.442 258.774, 263.568 255.838 C 262.693 252.902, 260.359 244.875, 258.381 238 C 256.403 231.125, 254.669 225.374, 254.529 225.220 C 254.389 225.066, 249.500 228.441, 243.664 232.720 M 358.387 225.616 C 357.606 225.938, 357.743 227.377, 358.846 230.444 L 360.417 234.812 365.458 234.309 C 371.180 233.737, 382.080 235.980, 387.824 238.910 C 394.611 242.373, 401.719 249.683, 405.219 256.801 C 408.249 262.963, 408.497 264.206, 408.463 273.082 C 408.430 281.826, 408.140 283.274, 405.237 289.171 C 403.228 293.252, 399.907 297.692, 396.269 301.162 C 376.639 319.886, 342.853 313.728, 330.791 289.228 C 327.768 283.087, 327.500 281.766, 327.500 273.021 C 327.500 264.621, 327.829 262.830, 330.296 257.806 C 333.107 252.082, 339.074 245.106, 344.325 241.406 L 347.150 239.415 345.466 235.208 C 344.540 232.893, 343.584 231, 343.342 231 C 341.829 231, 336.109 234.780, 332.277 238.312 C 318.648 250.875, 313.542 269.601, 318.964 287.145 C 329.832 322.311, 377.293 333.869, 403.890 307.825 C 431.449 280.838, 419.438 236.452, 381.869 226.453 C 376.903 225.131, 360.944 224.563, 358.387 225.616 M 120.736 229.930 C 120.446 232.091, 118.987 235.461, 117.494 237.419 C 115.237 240.378, 115.039 241.078, 116.317 241.568 C 117.163 241.893, 118.900 242.010, 120.177 241.829 C 122.349 241.521, 122.519 240.998, 122.792 233.750 C 123.095 225.709, 121.660 223.042, 120.736 229.930 M 164 228.563 C 164 230.853, 164.347 231.093, 167.250 230.813 C 169.741 230.573, 170.575 229.975, 170.820 228.250 C 171.100 226.277, 170.699 226, 167.570 226 C 164.405 226, 164 226.291, 164 228.563 M 127.850 232.215 C 127.512 241.812, 127.876 257.034, 128.488 258.963 C 129.682 262.725, 134.449 264.201, 145.906 264.356 L 156.500 264.500 156.805 259.750 C 156.972 257.137, 157.510 255, 158 255 C 158.490 255, 159.028 257.137, 159.195 259.750 L 159.500 264.500 165.500 264.371 C 168.800 264.300, 172.782 264.187, 174.350 264.121 C 176.173 264.044, 178.475 262.725, 180.738 260.462 L 184.277 256.923 183.555 242.712 C 183.159 234.896, 182.685 228.352, 182.503 228.169 C 182.320 227.987, 181.311 228.299, 180.259 228.862 C 179.207 229.425, 177.031 230.060, 175.423 230.273 C 172.589 230.649, 172.491 230.849, 172.202 236.830 L 171.905 243 167.520 243 C 164.093 243, 163.003 242.586, 162.533 241.104 C 162.202 240.061, 162 238.823, 162.084 238.354 C 162.168 237.884, 162.184 235.794, 162.118 233.709 L 162 229.919 157.750 230.043 C 155.412 230.112, 151.813 230.395, 149.750 230.672 L 146 231.176 146 237.143 L 146 243.110 141.250 242.805 L 136.500 242.500 136.202 236.250 C 135.940 230.746, 135.664 230, 133.887 230 C 132.777 230, 130.998 229.534, 129.934 228.965 C 128.170 228.021, 127.987 228.306, 127.850 232.215 M 138.250 233.250 C 138.479 233.938, 139.942 234.500, 141.500 234.500 C 143.058 234.500, 144.521 233.938, 144.750 233.250 C 145.033 232.402, 143.989 232, 141.500 232 C 139.011 232, 137.967 232.402, 138.250 233.250 M 164.250 233.250 C 164.479 233.938, 165.942 234.500, 167.500 234.500 C 169.058 234.500, 170.521 233.938, 170.750 233.250 C 171.033 232.402, 169.989 232, 167.500 232 C 165.011 232, 163.967 232.402, 164.250 233.250 M 194.979 234.662 C 194.734 244.517, 193.577 257.725, 192.894 258.450 C 190.019 261.505, 195.229 262.506, 198.776 259.581 C 200.274 258.346, 204.200 255.498, 207.500 253.253 C 210.800 251.008, 215.050 247.853, 216.944 246.242 L 220.389 243.312 215.912 240.688 C 208.665 236.441, 195.032 232.517, 194.979 234.662 M 138 238.764 C 138 241.955, 138.166 242.111, 141.250 241.813 C 143.919 241.556, 144.555 241.029, 144.805 238.866 C 145.077 236.519, 144.723 236.186, 141.555 235.817 C 138.104 235.414, 138 235.500, 138 238.764 M 164.201 238.445 C 164.461 241.106, 164.887 241.500, 167.500 241.500 C 169.997 241.500, 170.551 241.058, 170.805 238.866 C 171.078 236.513, 170.725 236.187, 167.506 235.811 C 164.012 235.403, 163.911 235.483, 164.201 238.445 M 108.688 243.646 C 107.838 244.496, 107.780 252.263, 108.607 254.418 C 108.941 255.288, 109.862 256, 110.655 256 C 111.786 256, 112.031 254.673, 111.798 249.829 C 111.524 244.149, 110.406 241.927, 108.688 243.646 M 122 249 C 122 254.794, 122.126 255.121, 124.250 254.820 C 126.272 254.532, 126.500 253.942, 126.500 249 C 126.500 244.058, 126.272 243.468, 124.250 243.180 C 122.126 242.879, 122 243.206, 122 249 M 212.788 255.742 C 206.925 260.009, 202.098 263.837, 202.063 264.250 C 202.029 264.663, 205.900 265, 210.667 265 C 215.433 265, 219.021 265.312, 218.639 265.694 C 218.257 266.076, 214.582 266.281, 210.472 266.150 C 206.363 266.019, 203 266.186, 203 266.521 C 203 266.857, 203.466 268.002, 204.035 269.066 C 204.986 270.842, 206.258 271, 219.602 271 L 234.133 271 233.816 268.250 C 233.511 265.599, 233.249 265.482, 226.522 265 L 219.544 264.500 223.740 263.398 C 226.047 262.791, 227.699 262.679, 227.409 263.148 C 227.119 263.616, 228.289 264, 230.008 264 C 232.777 264, 233.060 263.743, 232.483 261.750 C 231.644 258.854, 225.471 248.657, 224.325 248.275 C 223.844 248.115, 218.652 251.475, 212.788 255.742 M 367.185 261.750 C 367.395 262.854, 368.621 263.621, 370.509 263.827 C 374.904 264.309, 379 268.613, 379 272.753 C 379 276.489, 377.512 279.880, 375.087 281.673 C 368.200 286.763, 356.983 280.655, 358.301 272.532 C 358.827 269.290, 357.670 265.996, 356.438 267.228 C 356.070 267.597, 355.456 269.384, 355.074 271.199 C 353.325 279.517, 359.364 286.361, 368.529 286.449 C 374.752 286.509, 378.411 284.328, 381.474 278.733 C 383.249 275.491, 383.316 274.694, 382.148 270.814 C 381.433 268.441, 380.786 265.746, 380.710 264.823 C 380.634 263.901, 380.284 263.324, 379.934 263.541 C 379.583 263.758, 377.559 263.050, 375.436 261.968 C 370.487 259.444, 366.729 259.345, 367.185 261.750 M 250.190 263.742 L 243.881 264.099 244.190 267.299 C 244.499 270.489, 244.521 270.501, 250.750 270.798 C 255.497 271.024, 257 270.769, 257 269.736 C 257 268.989, 257.873 267.440, 258.940 266.295 C 261.005 264.078, 260.674 262.877, 258.083 263.193 C 257.212 263.299, 253.661 263.546, 250.190 263.742 M 269.313 266.102 C 261.999 268.219, 259.642 276.796, 264.923 282.077 C 266.531 283.685, 268.668 284.993, 269.673 284.985 C 271.094 284.974, 270.945 284.691, 269 283.711 C 267.625 283.019, 265.620 280.820, 264.545 278.824 C 262.927 275.822, 262.790 274.757, 263.749 272.651 C 265.374 269.086, 269.597 266.597, 273.872 266.686 C 276.661 266.745, 277.037 266.575, 275.500 265.951 C 273.074 264.968, 273.249 264.964, 269.313 266.102 M 187.655 267.750 C 186.814 269.111, 188.717 276.202, 190.178 277.152 C 191.972 278.318, 195.249 277.786, 195.756 276.247 C 196.021 275.441, 195.335 275.084, 193.834 275.247 C 191.737 275.474, 191.500 275.096, 191.500 271.515 C 191.500 268.602, 191.055 267.445, 189.843 267.210 C 188.932 267.034, 187.947 267.277, 187.655 267.750 M 164.500 268.954 L 151.500 269.500 151.194 272.140 C 150.834 275.252, 153.518 286.168, 155.665 290.320 C 156.493 291.920, 159.034 295.251, 161.312 297.723 C 178.804 316.699, 207.340 316.862, 224.307 298.082 C 229.747 292.061, 229.326 291.165, 221.250 291.564 L 214.500 291.897 221.942 290.956 C 226.035 290.439, 229.704 289.675, 230.096 289.258 C 230.487 288.841, 231.483 286.475, 232.309 284 C 233.419 280.675, 233.509 279.338, 232.655 278.878 C 232.020 278.536, 225.476 278.007, 218.113 277.702 L 204.727 277.148 201.495 280.574 C 199.718 282.458, 197.304 284, 196.132 284 C 194.959 284, 194 284.340, 194 284.756 C 194 286.143, 200.040 288.207, 202.380 287.619 C 204.036 287.204, 205.348 287.741, 207.019 289.520 C 208.300 290.884, 210.470 292, 211.841 292 C 217.607 292, 212.703 293.002, 204.812 293.436 C 195.105 293.971, 193.251 293.202, 191.467 287.901 C 190.839 286.037, 189.111 283.893, 187.531 283.017 C 183.591 280.834, 180.772 275.328, 181.506 271.250 C 182.033 268.321, 181.864 268.020, 179.795 268.204 C 178.533 268.316, 171.650 268.654, 164.500 268.954 M 349.750 274.662 C 350.438 274.940, 351.563 274.940, 352.250 274.662 C 352.938 274.385, 352.375 274.158, 351 274.158 C 349.625 274.158, 349.063 274.385, 349.750 274.662 M 329.750 275.662 C 330.438 275.940, 331.563 275.940, 332.250 275.662 C 332.938 275.385, 332.375 275.158, 331 275.158 C 329.625 275.158, 329.063 275.385, 329.750 275.662 M 244.122 281.250 C 243.666 282.488, 242.983 284.780, 242.603 286.345 C 241.922 289.157, 241.958 289.184, 245.707 288.624 C 247.793 288.313, 252.082 287.769, 255.237 287.416 L 260.974 286.773 258.785 283.636 C 255.788 279.341, 255.183 279.033, 249.725 279.015 C 245.679 279.002, 244.824 279.343, 244.122 281.250 M 205.500 291 C 205.840 291.550, 206.316 292, 206.559 292 C 206.802 292, 207 291.550, 207 291 C 207 290.450, 206.523 290, 205.941 290 C 205.359 290, 205.160 290.450, 205.500 291 M 461.500 290.491 C 460.950 290.675, 459.316 291.084, 457.869 291.402 C 456.344 291.736, 455.010 292.852, 454.695 294.060 C 454.198 295.960, 454.530 296.118, 458.487 295.875 C 461.150 295.711, 463.499 296.166, 464.575 297.054 C 466.199 298.394, 466.237 298.330, 465.084 296.167 C 464.037 294.203, 464.115 293.530, 465.575 291.917 C 467.240 290.078, 467.213 290.003, 464.905 290.079 C 463.582 290.122, 462.050 290.308, 461.500 290.491 M 474.453 294.154 C 471.993 296.740, 471.434 297.684, 472.973 296.654 C 475.974 294.646, 484.889 294.512, 490.167 296.398 C 493.643 297.639, 493.774 297.611, 492.677 295.854 C 491.791 294.435, 491.812 293.531, 492.768 292 C 493.977 290.064, 493.767 290, 486.211 290 L 478.406 290 474.453 294.154 M 498 297 C 497.099 297.582, 496.975 297.975, 497.691 297.985 C 498.346 297.993, 499.160 297.550, 499.500 297 C 500.267 295.758, 499.921 295.758, 498 297 M 467.813 298.683 C 468.534 298.972, 469.397 298.936, 469.729 298.604 C 470.061 298.272, 469.471 298.036, 468.417 298.079 C 467.252 298.127, 467.015 298.364, 467.813 298.683" stroke="none"  fill-rule="evenodd"/ class="illustration-path path-0"/>
<path fill-opacity="0.493" d="M 175.169 127.500 C 175.417 128.924, 176.379 129.552, 178.509 129.679 C 180.253 129.784, 180.666 129.644, 179.500 129.345 C 178.400 129.062, 176.897 128.082, 176.160 127.166 C 174.938 125.646, 174.851 125.675, 175.169 127.500 M 161 127.868 C 161 128.410, 160.213 129.059, 159.250 129.311 C 158.173 129.592, 158.558 129.813, 160.250 129.884 C 162.972 129.999, 163.931 128.693, 162 127.500 C 161.450 127.160, 161 127.326, 161 127.868 M 146.306 131.436 C 145.649 132.184, 144.567 132.978, 143.902 133.199 C 142.081 133.806, 141.316 142.488, 142.150 153.066 C 142.560 158.255, 143.031 164.300, 143.198 166.500 L 143.500 170.500 136.500 171.073 C 130.035 171.603, 130.360 171.667, 140.750 171.907 C 164.595 172.458, 171.946 172.198, 169.689 170.886 C 168.693 170.307, 167.181 170.100, 166.328 170.428 C 165.295 170.824, 164.950 170.571, 165.296 169.671 C 165.581 168.927, 165.413 167.684, 164.923 166.909 C 164.276 165.887, 164.026 166.269, 164.015 168.300 C 164 171.074, 163.947 171.097, 158.270 170.800 L 152.541 170.500 151.337 160 C 149.939 147.810, 149.675 137.310, 150.750 136.676 C 152.354 135.732, 156.072 138.076, 157.166 140.721 C 161.593 151.421, 163.049 154.088, 164.106 153.434 C 164.919 152.932, 164.804 152.470, 163.715 151.861 C 162.868 151.386, 160.970 147.847, 159.498 143.996 C 157.414 138.541, 156.290 136.860, 154.411 136.388 C 153.085 136.056, 152 135.468, 152 135.083 C 152 133.907, 154.411 131.262, 156 130.694 C 156.825 130.399, 155.250 130.139, 152.500 130.117 C 149.490 130.092, 147.025 130.617, 146.306 131.436 M 188.302 133.571 C 189.292 134.763, 190.491 137.035, 190.966 138.619 C 191.694 141.052, 191.841 141.152, 191.914 139.266 C 191.961 138.037, 190.762 135.765, 189.250 134.218 C 187.738 132.670, 187.311 132.379, 188.302 133.571 M 192.168 146.628 C 192.076 148.348, 191.325 150.315, 190.500 151 C 189.508 151.824, 189.057 153.811, 189.168 156.872 L 189.336 161.500 189.719 157.500 C 189.930 155.300, 190.784 152.979, 191.617 152.342 C 192.653 151.549, 193.006 149.969, 192.734 147.342 C 192.383 143.954, 192.316 143.870, 192.168 146.628 M 185.507 150.989 C 185.157 151.555, 185.558 151.723, 186.448 151.382 C 188.180 150.717, 188.497 150, 187.059 150 C 186.541 150, 185.843 150.445, 185.507 150.989 M 193.195 155.500 C 193.215 157.150, 193.439 157.704, 193.693 156.731 C 193.947 155.758, 193.930 154.408, 193.656 153.731 C 193.382 153.054, 193.175 153.850, 193.195 155.500 M 170.697 155.500 C 170.519 156.050, 170.686 157.850, 171.068 159.500 L 171.763 162.500 171.882 159.305 C 171.996 156.224, 172.170 156.098, 176.750 155.792 L 181.500 155.475 176.260 154.987 C 173.206 154.703, 170.886 154.917, 170.697 155.500 M 183.189 154.619 C 184.117 154.896, 185.104 155.883, 185.381 156.811 C 185.747 158.036, 185.829 157.954, 185.681 156.511 C 185.561 155.346, 184.654 154.439, 183.489 154.319 C 182.046 154.171, 181.964 154.253, 183.189 154.619 M 163.252 160.500 C 163.263 162.700, 163.468 163.482, 163.707 162.238 C 163.946 160.994, 163.937 159.194, 163.687 158.238 C 163.437 157.282, 163.241 158.300, 163.252 160.500 M 167.158 160 C 167.158 161.375, 167.385 161.938, 167.662 161.250 C 167.940 160.563, 167.940 159.438, 167.662 158.750 C 167.385 158.063, 167.158 158.625, 167.158 160 M 186.195 163.500 C 186.215 165.150, 186.439 165.704, 186.693 164.731 C 186.947 163.758, 186.930 162.408, 186.656 161.731 C 186.382 161.054, 186.175 161.850, 186.195 163.500 M 190.158 165 C 190.158 166.375, 190.385 166.938, 190.662 166.250 C 190.940 165.563, 190.940 164.438, 190.662 163.750 C 190.385 163.063, 190.158 163.625, 190.158 165 M 329.798 165.979 C 322.667 166.533, 320.597 167.652, 321.165 170.644 C 321.443 172.104, 322.584 172.566, 326.509 172.810 C 333.320 173.233, 333.973 174.361, 329.162 177.398 L 325.095 179.965 327.485 185.233 C 331.707 194.539, 331.670 195.205, 326.788 197.626 C 324.429 198.795, 318.225 201.907, 313 204.542 C 307.775 207.176, 298.885 211.655, 293.245 214.494 C 287.604 217.333, 283.329 220.030, 283.745 220.488 C 284.160 220.946, 283.978 221.022, 283.340 220.657 C 281.954 219.864, 278.820 220.899, 279.462 221.938 C 279.709 222.339, 279.344 222.667, 278.649 222.667 C 276.618 222.667, 268 227.261, 268 228.344 C 268 228.888, 267.716 229.049, 267.369 228.702 C 267.021 228.355, 265.924 228.506, 264.929 229.038 C 263.704 229.694, 262.898 229.643, 262.426 228.881 C 260.916 226.438, 257.302 210.931, 258.125 210.423 C 259.709 209.444, 259.038 208, 257 208 C 255.874 208, 255 207.333, 255 206.475 C 255 205.636, 254.100 202.389, 253 199.260 C 251.900 196.130, 251 193.040, 251 192.393 C 251 190.635, 258.435 188, 263.398 188 C 268.826 188, 271.226 185.799, 268.631 183.200 C 267.176 181.743, 264.205 181.455, 247.814 181.188 C 232.857 180.944, 228.514 181.161, 227.863 182.188 C 226.608 184.167, 226.836 188.624, 228.250 189.752 C 229.331 190.614, 238.504 192.692, 244.434 193.419 C 245.862 193.594, 246.973 195.450, 248.684 200.523 C 251.459 208.750, 251.561 210.703, 249.250 211.321 C 247.742 211.723, 247.799 211.885, 249.665 212.488 C 253.636 213.773, 253.852 221.277, 249.955 222.514 C 248.886 222.854, 247.447 223.664, 246.756 224.316 C 246.065 224.967, 243.596 226.793, 241.268 228.373 L 237.037 231.246 230.461 227.123 C 226.844 224.855, 223.516 223, 223.065 223 C 222.614 223, 221.697 222.340, 221.027 221.533 C 220.127 220.448, 217.032 219.992, 209.155 219.783 C 200.476 219.552, 198.500 219.222, 198.500 218 C 198.500 216.879, 199.925 216.425, 204.137 216.203 C 208.487 215.975, 210.200 215.404, 211.637 213.703 L 213.500 211.500 211.194 213.456 C 209.240 215.113, 208.579 215.218, 206.858 214.143 C 205.741 213.446, 201.966 212.875, 198.469 212.875 C 192.936 212.875, 192.188 212.656, 192.703 211.188 C 193.185 209.813, 193.045 209.732, 191.947 210.750 C 191.206 211.438, 188.408 212, 185.729 212 C 181.300 212, 181 212.143, 182.429 213.571 C 183.997 215.140, 184.481 220.608, 183.405 224.616 C 183.038 225.981, 181.494 227.135, 179.052 227.866 C 172.019 229.973, 172 229.954, 172 220.566 C 172 212.134, 172 212.133, 174.750 211.716 C 177.033 211.370, 176.882 211.274, 173.861 211.150 C 171.043 211.034, 170.254 211.370, 170.361 212.642 C 170.438 213.546, 169.938 214.483, 169.250 214.726 C 168.459 215.005, 168 214.219, 168 212.583 C 168 210.432, 167.540 210, 165.250 209.998 L 162.500 209.995 162.824 217.918 L 163.147 225.840 166.990 225.566 L 170.834 225.292 170.800 232.696 C 170.781 236.767, 171.043 240.377, 171.383 240.716 C 171.722 241.056, 172 238.841, 172 235.794 L 172 230.256 175.750 229.628 C 177.813 229.283, 180.513 228.723, 181.750 228.384 L 184 227.767 184 243.209 C 184 257.949, 183.898 258.745, 181.750 260.701 C 177.831 264.270, 175.338 265, 167.066 265 L 159 265 159 260 C 159 257.250, 158.550 255, 158 255 C 157.450 255, 157 257.250, 157 260 L 157 265 146.968 265 C 136.492 265, 131.813 263.813, 128.251 260.251 C 127.193 259.193, 126.469 257.398, 126.642 256.263 C 126.890 254.637, 126.537 254.308, 124.979 254.716 C 122.577 255.344, 122.524 256.178, 124.624 260.240 C 126.881 264.604, 129.820 266.768, 134.500 267.511 C 141.666 268.649, 141.490 268.456, 141.616 275.327 C 141.738 282.021, 144.345 290.429, 148.521 297.600 C 150.922 301.723, 162.299 313, 164.057 313 C 164.576 313, 165.225 313, 165.500 313 C 165.775 313, 166.935 313.935, 168.077 315.077 C 169.220 316.220, 170.818 316.900, 171.629 316.589 C 172.458 316.271, 172.836 316.456, 172.493 317.011 C 172.157 317.555, 172.739 318, 173.787 318 C 174.835 318, 177.181 318.743, 179 319.650 C 181.413 320.853, 185.176 321.319, 192.904 321.372 C 202.239 321.435, 204.366 321.108, 210.776 318.624 C 214.778 317.074, 218.699 315.158, 219.490 314.367 C 220.281 313.576, 221.057 313.053, 221.214 313.206 C 221.371 313.358, 223.247 312.150, 225.383 310.521 C 229.870 307.099, 238.783 295.714, 239.636 292.315 C 240.015 290.804, 240.961 289.995, 242.358 289.985 C 243.776 289.975, 244.083 289.705, 243.268 289.187 C 242.396 288.633, 242.257 287.100, 242.792 283.952 L 243.549 279.500 250.024 279.258 C 256.333 279.022, 256.551 279.098, 258.500 282.220 C 261.723 287.384, 266.471 290, 272.623 290 L 277.950 290 277.377 292.867 L 276.803 295.733 285.902 295.917 L 295 296.101 295 293.551 C 295 291.126, 294.716 290.994, 289.250 290.882 C 286.087 290.816, 283.050 290.854, 282.500 290.965 C 281.950 291.076, 281.817 290.850, 282.205 290.462 C 283.076 289.590, 275.378 278.082, 273.421 277.331 C 272.639 277.031, 272 276.384, 272 275.893 C 272 274.662, 275.736 274.764, 276.510 276.016 C 276.856 276.575, 277.627 276.731, 278.224 276.362 C 278.890 275.950, 279.020 276.159, 278.559 276.904 C 277.814 278.110, 282.551 286, 284.021 286 C 285.837 286, 288.449 280.129, 288.618 275.670 C 288.817 270.395, 290.037 268.181, 301.380 252.500 C 304.961 247.550, 308.253 243.050, 308.695 242.500 C 309.138 241.950, 310.850 239.475, 312.500 237 C 314.150 234.525, 315.950 231.954, 316.500 231.286 C 317.050 230.619, 320.366 226.092, 323.869 221.228 C 330.141 212.518, 335.824 207.971, 336.796 210.887 C 337.020 211.561, 337.984 212.874, 338.937 213.806 C 340.543 215.375, 342.940 221.110, 353.021 247.500 C 355.122 253, 358.002 260.502, 359.420 264.171 C 360.839 267.839, 362 272.157, 362 273.766 C 362 279.010, 368.727 282.131, 372.310 278.548 C 373.108 277.749, 374.019 277.352, 374.332 277.666 C 375.203 278.536, 376.298 273.219, 375.615 271.439 C 375.284 270.578, 374.612 270.122, 374.120 270.426 C 373.628 270.730, 373.288 270.196, 373.363 269.240 C 373.449 268.144, 372.668 267.383, 371.250 267.181 C 369.486 266.930, 368.985 267.362, 368.932 269.180 L 368.865 271.500 367.780 269.250 C 367.183 268.012, 366.409 267, 366.060 267 C 365.711 267, 365.359 266.117, 365.278 265.038 C 365.197 263.959, 364.466 261.597, 363.653 259.788 C 362.841 257.980, 360.079 251.100, 357.515 244.500 C 354.951 237.900, 352.389 231.375, 351.821 230 C 348.025 220.804, 345.275 212.173, 345.846 211.249 C 346.215 210.652, 348.089 209.973, 350.009 209.741 C 353.061 209.373, 352.916 209.300, 348.859 209.160 L 344.218 209 339.976 199.250 C 337.643 193.887, 335.399 189.050, 334.989 188.500 C 334.580 187.950, 333.934 186.488, 333.555 185.250 C 332.933 183.221, 333.201 183, 336.278 183 C 341.797 183, 345.732 176.606, 341.522 174.477 C 340.273 173.845, 339.382 172.249, 339.192 170.302 C 339.023 168.568, 338.348 166.769, 337.692 166.304 C 337.036 165.839, 333.484 165.693, 329.798 165.979 M 186.823 168.750 C 186.244 170.799, 185.531 171.016, 178.844 171.175 L 171.500 171.351 181 171.925 C 186.225 172.241, 192.300 172.219, 194.500 171.875 C 196.700 171.532, 197.990 171.194, 197.367 171.125 C 196.743 171.056, 195.989 170.066, 195.691 168.925 C 195.231 167.169, 194.830 167.021, 193.074 167.960 C 191.933 168.571, 191 169.505, 191 170.035 C 191 172.050, 188.123 170.895, 187.799 168.750 L 187.459 166.500 186.823 168.750 M 192 170 C 192 170.550, 192.675 171, 193.500 171 C 194.325 171, 195 170.550, 195 170 C 195 169.450, 194.325 169, 193.500 169 C 192.675 169, 192 169.450, 192 170 M 348 172.144 C 348 172.444, 349.178 173.996, 350.617 175.594 C 352.057 177.193, 352.899 177.887, 352.489 177.138 C 352.059 176.352, 352.327 175.407, 353.122 174.904 C 354.168 174.241, 354.006 174.027, 352.450 174.015 C 351.322 174.007, 349.860 173.460, 349.200 172.800 C 348.540 172.140, 348 171.845, 348 172.144 M 122.980 175.524 C 122.284 176.362, 121.909 177.242, 122.145 177.479 C 122.382 177.715, 123.125 177.030, 123.796 175.955 C 125.248 173.630, 124.764 173.375, 122.980 175.524 M 131 176.378 C 131 176.585, 131.685 177.324, 132.523 178.019 C 133.796 179.076, 133.943 179.014, 133.416 177.641 C 132.878 176.240, 131 175.257, 131 176.378 M 199.195 181.500 C 199.215 183.150, 199.439 183.704, 199.693 182.731 C 199.947 181.758, 199.930 180.408, 199.656 179.731 C 199.382 179.054, 199.175 179.850, 199.195 181.500 M 128.079 181.677 C 128.124 182.727, 128.372 182.970, 128.662 182.250 C 129.659 179.780, 130.893 181.074, 131.291 185.007 L 131.696 189.015 131.598 184.766 C 131.524 181.561, 131.070 180.436, 129.750 180.185 C 128.583 179.964, 128.026 180.460, 128.079 181.677 M 119.972 184.052 C 119.368 185.181, 119.075 186.869, 119.321 187.802 C 119.632 188.985, 119.803 188.799, 119.884 187.191 C 119.948 185.921, 120.423 185.143, 120.939 185.463 C 121.456 185.782, 121.810 185.134, 121.727 184.022 C 121.536 181.496, 121.338 181.499, 119.972 184.052 M 134.252 185.500 C 134.263 187.700, 134.468 188.482, 134.707 187.238 C 134.946 185.994, 134.937 184.194, 134.687 183.238 C 134.437 182.282, 134.241 183.300, 134.252 185.500 M 160.195 184.500 C 160.215 186.150, 160.439 186.704, 160.693 185.731 C 160.947 184.758, 160.930 183.408, 160.656 182.731 C 160.382 182.054, 160.175 182.850, 160.195 184.500 M 210.185 185.805 C 210.434 187.504, 210.270 188.667, 209.819 188.388 C 209.369 188.110, 209 188.373, 209 188.973 C 209 189.573, 207.988 190.471, 206.750 190.969 C 205.105 191.630, 204.957 191.890, 206.200 191.937 C 207.135 191.971, 208.379 192.787, 208.964 193.750 C 209.810 195.142, 209.892 194.903, 209.364 192.586 C 208.809 190.147, 208.970 189.774, 210.350 190.304 C 211.684 190.816, 212 190.285, 212 187.528 C 212 185.652, 211.490 183.803, 210.866 183.417 C 210.082 182.932, 209.871 183.670, 210.185 185.805 M 156.158 187 C 156.158 188.375, 156.385 188.938, 156.662 188.250 C 156.940 187.563, 156.940 186.438, 156.662 185.750 C 156.385 185.063, 156.158 185.625, 156.158 187 M 119.500 191.005 C 117.754 191.759, 117.840 191.850, 120.178 191.722 C 121.651 191.642, 122.637 191.221, 122.369 190.788 C 122.101 190.355, 121.796 190.032, 121.691 190.070 C 121.586 190.109, 120.600 190.529, 119.500 191.005 M 154.500 191 C 152.592 191.820, 152.603 191.863, 154.750 191.930 C 158.647 192.051, 157.192 193.702, 152.636 194.326 C 148.833 194.848, 135.241 198.765, 134.083 199.673 C 133.854 199.853, 133.908 200.241, 134.203 200.537 C 134.498 200.832, 137.050 200.163, 139.873 199.050 C 142.696 197.937, 147.592 196.608, 150.753 196.097 C 156.042 195.241, 156.638 195.339, 158.228 197.333 C 159.302 198.680, 159.964 201.278, 159.978 204.198 L 160 208.895 154.750 209.263 L 149.500 209.630 155.152 209.815 L 160.804 210 161.489 204.095 C 161.908 200.487, 162.901 197.410, 164.042 196.185 C 165.648 194.461, 165.697 194.098, 164.392 193.597 C 163.557 193.276, 163.124 192.608, 163.431 192.112 C 164.633 190.167, 158.279 189.376, 154.500 191 M 367.195 192.500 C 367.215 194.150, 367.439 194.704, 367.693 193.731 C 367.947 192.758, 367.930 191.408, 367.656 190.731 C 367.382 190.054, 367.175 190.850, 367.195 192.500 M 174.776 191.733 C 177.128 191.945, 180.728 191.942, 182.776 191.727 C 184.824 191.512, 182.900 191.339, 178.500 191.343 C 174.100 191.346, 172.424 191.522, 174.776 191.733 M 193.500 192 C 193.160 192.550, 193.359 193, 193.941 193 C 194.523 193, 195 192.550, 195 192 C 195 191.450, 194.802 191, 194.559 191 C 194.316 191, 193.840 191.450, 193.500 192 M 199 192 C 199 192.550, 199.450 193, 200 193 C 200.550 193, 201 192.550, 201 192 C 201 191.450, 200.550 191, 200 191 C 199.450 191, 199 191.450, 199 192 M 123 194.218 C 123 195.080, 123.739 196.070, 124.643 196.417 C 126.965 197.308, 127.029 196.795, 124.871 194.575 C 123.324 192.983, 123 192.921, 123 194.218 M 172.789 194.741 C 176.248 194.937, 181.648 194.936, 184.789 194.738 C 187.930 194.540, 185.100 194.380, 178.500 194.382 C 171.900 194.384, 169.330 194.546, 172.789 194.741 M 352.405 196.250 L 350.500 198.500 352.750 196.595 C 354.864 194.805, 355.455 194, 354.655 194 C 354.465 194, 353.453 195.012, 352.405 196.250 M 116.352 195.993 C 115.171 196.470, 113.907 197.341, 113.543 197.930 C 112.449 199.700, 110.732 199.142, 111.452 197.250 C 111.930 195.995, 111.812 195.804, 111.033 196.577 C 110.435 197.169, 109.792 199.869, 109.603 202.577 C 109.414 205.284, 109.451 206.073, 109.685 204.329 C 110.108 201.186, 112.463 198.920, 118 196.331 C 120.892 194.979, 119.548 194.704, 116.352 195.993 M 129 197 C 127.707 197.835, 127.734 197.971, 129.191 197.985 C 130.121 197.993, 131.160 197.550, 131.500 197 C 132.282 195.734, 130.958 195.734, 129 197 M 193.710 198 C 193.423 199.100, 193.595 200, 194.094 200 C 194.592 200, 195 199.100, 195 198 C 195 196.900, 194.827 196, 194.617 196 C 194.406 196, 193.998 196.900, 193.710 198 M 214.006 202.559 C 214.012 208.442, 214.027 208.472, 215.506 205.636 C 217.344 202.111, 217.339 201.032, 215.468 198.559 C 214.124 196.782, 214.001 197.121, 214.006 202.559 M 126.500 201.389 C 128.150 202.110, 131.075 203.983, 133 205.552 L 136.500 208.404 134 205.607 C 131.342 202.633, 126.949 199.974, 124.800 200.039 C 124.085 200.061, 124.850 200.668, 126.500 201.389 M 215.158 202 C 215.158 203.375, 215.385 203.938, 215.662 203.250 C 215.940 202.563, 215.940 201.438, 215.662 200.750 C 215.385 200.063, 215.158 200.625, 215.158 202 M 191.037 205.335 C 187.801 209.226, 187.773 209.318, 190.606 206.736 C 192.274 205.216, 193.945 204.278, 194.319 204.653 C 194.694 205.027, 195 204.358, 195 203.167 C 195 201.975, 194.887 201.038, 194.750 201.085 C 194.613 201.131, 192.941 203.044, 191.037 205.335 M 291.197 220.909 C 277.280 227.948, 265.465 234.135, 264.941 234.659 C 264.338 235.262, 264.496 237.241, 265.371 240.056 C 266.130 242.500, 267.759 247.897, 268.989 252.048 L 271.226 259.597 277.863 261.709 L 284.500 263.821 286.290 261.661 C 287.275 260.472, 290.035 256.575, 292.425 253 C 296.118 247.474, 303.754 237.109, 306.837 233.437 C 307.328 232.852, 308.308 231.277, 309.014 229.937 C 309.721 228.597, 310.609 227.275, 310.988 227 C 311.367 226.725, 314.054 223.029, 316.960 218.786 C 322.433 210.794, 322.915 207.955, 318.781 208.056 C 317.527 208.087, 305.113 213.871, 291.197 220.909 M 354.813 208.683 C 355.534 208.972, 356.397 208.936, 356.729 208.604 C 357.061 208.272, 356.471 208.036, 355.417 208.079 C 354.252 208.127, 354.015 208.364, 354.813 208.683 M 110 209.711 C 110 210.285, 110.787 211.373, 111.750 212.128 C 113.369 213.397, 113.390 213.350, 112.033 211.500 C 111.226 210.400, 110.439 209.313, 110.283 209.083 C 110.127 208.854, 110 209.137, 110 209.711 M 144.621 222.039 C 144.688 229.209, 145.025 235.359, 145.371 235.705 C 145.717 236.050, 146 234.908, 146 233.167 L 146 230 154.500 230 L 163 230 163.168 236.750 L 163.336 243.500 163.918 237.500 C 164.492 231.581, 164.064 225.319, 163.251 227.750 C 162.961 228.618, 160.260 229, 154.417 229 L 146 229 146 219.573 C 146 211.436, 146.239 210.084, 147.750 209.689 C 148.936 209.379, 148.694 209.195, 147 209.117 L 144.500 209.002 144.621 222.039 M 133 212.486 L 129.500 213.821 133.062 213.565 C 135.021 213.425, 137.496 212.804, 138.562 212.185 C 140.464 211.082, 140.463 211.062, 138.500 211.106 C 137.400 211.132, 134.925 211.753, 133 212.486 M 164 213 C 164 214.111, 164.667 215, 165.500 215 C 166.333 215, 167 214.111, 167 213 C 167 211.889, 166.333 211, 165.500 211 C 164.667 211, 164 211.889, 164 213 M 207.507 211.989 C 207.157 212.555, 207.558 212.723, 208.448 212.382 C 210.180 211.717, 210.497 211, 209.059 211 C 208.541 211, 207.843 211.445, 207.507 211.989 M 116.185 219.750 L 116.370 225.500 116.738 220.224 C 116.983 216.708, 117.474 215.175, 118.208 215.628 C 118.871 216.038, 119.025 215.850, 118.595 215.155 C 116.969 212.523, 116.011 214.348, 116.185 219.750 M 123 214.691 C 120.635 215.060, 120.519 215.376, 120.843 220.541 C 121.031 223.543, 121.593 226, 122.093 226 C 122.592 226, 123 229.600, 123 234 L 123 242 119 242 C 116.483 242, 114.989 241.537, 114.970 240.750 C 114.953 240.063, 114.475 240.297, 113.908 241.271 C 113.341 242.245, 112.567 242.849, 112.189 242.613 C 111.810 242.378, 111.654 245.129, 111.841 248.727 C 112.086 253.412, 111.802 255.510, 110.841 256.119 C 109.990 256.659, 111.144 256.969, 114 256.969 C 120.092 256.969, 121.120 256.095, 121.130 250.904 C 121.143 244.490, 121.790 243, 124.567 243 C 126.930 243, 127 242.783, 127 235.421 L 127 227.841 130.250 228.493 L 133.500 229.145 130.225 227.072 C 125.364 223.995, 123.624 218.519, 126.571 215.571 C 128.225 213.918, 128.115 213.891, 123 214.691 M 193 216.941 C 193 218.931, 194.304 220.363, 195.252 219.415 C 196.036 218.631, 194.911 215, 193.883 215 C 193.398 215, 193 215.873, 193 216.941 M 166.667 219.667 C 165.629 220.704, 165.883 224, 167 224 C 167.550 224, 168 222.875, 168 221.500 C 168 218.882, 167.769 218.564, 166.667 219.667 M 302 221.892 C 300.075 222.226, 297.825 222.950, 297 223.500 C 294.822 224.952, 282.669 241.274, 282.668 242.750 C 282.667 243.438, 282.438 243.771, 282.159 243.492 C 281.442 242.776, 278.015 248.180, 278.007 250.038 C 278.003 250.884, 279.318 253.134, 280.929 255.038 L 283.859 258.500 286.889 255 C 288.555 253.075, 289.937 251.156, 289.959 250.736 C 289.982 250.316, 291.913 247.566, 294.250 244.626 C 302.332 234.459, 306.028 228.854, 305.361 227.775 C 304.976 227.153, 305.154 226.977, 305.777 227.362 C 306.940 228.081, 310 224.397, 310 222.277 C 310 220.952, 307.972 220.854, 302 221.892 M 193.667 222.667 C 192.203 224.130, 193.161 225.001, 196.250 225.015 C 204.614 225.053, 215.790 229.047, 224.799 235.219 C 229.295 238.298, 229.541 238.273, 233.746 234.321 C 235.591 232.588, 235.419 232.330, 230.500 229.447 C 228.025 227.997, 226 226.403, 226 225.905 C 226 225.407, 225.662 225.093, 225.250 225.206 C 224.838 225.319, 223.060 224.644, 221.300 223.706 C 218.800 222.373, 215.498 222, 206.216 222 C 199.681 222, 194.033 222.300, 193.667 222.667 M 353 223.151 C 353 224.820, 355.327 230, 356.076 230 C 356.561 230, 356.431 228.762, 355.789 227.250 C 354.618 224.495, 353 222.117, 353 223.151 M 251.821 226.250 C 247.628 230.217, 235.713 237.949, 234.695 237.365 C 234.038 236.988, 233.838 237.052, 234.252 237.509 C 234.666 237.965, 234.333 239.079, 233.513 239.986 C 232.175 241.464, 232.354 242.088, 235.249 246.023 C 237.024 248.437, 237.807 250.017, 236.988 249.534 C 235.959 248.927, 236.041 249.275, 237.252 250.659 C 238.216 251.761, 238.666 253.035, 238.252 253.491 C 237.838 253.948, 238.040 254.011, 238.699 253.633 C 239.491 253.178, 240.504 254.652, 241.684 257.972 C 243.008 261.701, 243.990 263.016, 245.485 263.063 C 247.452 263.125, 247.450 263.147, 245.410 263.972 C 243.757 264.640, 243.415 265.465, 243.773 267.909 C 244.226 270.995, 244.237 271, 250.638 271 C 256.360 271, 257.144 270.758, 257.929 268.750 C 258.939 266.165, 262.299 262.400, 264.144 261.785 C 265.068 261.477, 264.150 256.943, 260.672 244.634 C 258.071 235.430, 256.251 227.403, 256.626 226.796 C 257.038 226.129, 256.851 225.974, 256.155 226.405 C 255.520 226.797, 255 226.641, 255 226.059 C 255 224.628, 253.437 224.722, 251.821 226.250 M 359.750 225.689 C 357.637 226.241, 357.640 226.202, 359.449 230.532 C 360.874 233.943, 360.996 234, 366.900 234 C 379.932 234, 389.597 237.744, 397.768 245.957 C 403.917 252.140, 407.517 258.797, 408.469 265.751 C 408.896 268.869, 409.596 270.749, 410.194 270.380 C 410.794 270.009, 410.757 270.586, 410.100 271.814 C 409.495 272.944, 409 274.929, 409 276.224 C 409 279.770, 406.040 290.453, 404.953 290.833 C 404.429 291.017, 404 291.616, 404 292.165 C 404 296.015, 387.576 310, 383.055 310 C 381.925 310, 381 310.400, 381 310.889 C 381 311.378, 380.438 311.733, 379.750 311.678 C 379.063 311.623, 375.936 311.947, 372.803 312.398 C 369.171 312.920, 365.003 312.798, 361.303 312.061 C 358.111 311.425, 354.503 310.836, 353.283 310.752 C 352.064 310.668, 351.265 310.402, 351.507 310.160 C 351.749 309.918, 350.272 308.825, 348.224 307.732 C 342.773 304.824, 335.146 298.182, 333.418 294.841 C 332.591 293.242, 331.489 292.198, 330.969 292.519 C 330.430 292.852, 330.306 292.365, 330.681 291.388 C 331.164 290.132, 330.985 289.891, 330.015 290.490 C 329.125 291.041, 328.929 290.923, 329.418 290.132 C 329.818 289.485, 329.475 286.828, 328.656 284.228 C 326.286 276.706, 325.909 272.757, 327.004 266.939 C 328.894 256.899, 334.309 248.664, 343.952 241.162 C 346.306 239.331, 346.349 239.089, 345.042 235.127 C 344.293 232.857, 343.495 231, 343.270 231 C 343.045 231, 340.754 232.432, 338.180 234.182 C 324.136 243.729, 315.905 260.231, 317.343 275.958 C 318.230 285.668, 318.859 288.201, 321.173 291.393 C 322.327 292.984, 322.724 293.947, 322.055 293.534 C 321.386 293.121, 321.879 294.369, 323.150 296.308 C 324.421 298.247, 325.877 299.576, 326.385 299.262 C 326.893 298.948, 326.991 299.205, 326.603 299.833 C 325.632 301.405, 332.173 308.257, 338.918 312.734 C 348.510 319.101, 355.913 321.263, 368 321.229 C 384.198 321.183, 393.854 317.313, 404.492 306.604 C 407.281 303.797, 410.851 299.284, 412.426 296.575 C 415.798 290.775, 418.966 279.356, 418.966 273 C 418.966 267.419, 415.981 255.757, 413.267 250.731 C 411.316 247.117, 402 235.998, 402 237.283 C 402 237.625, 400.762 236.754, 399.250 235.348 C 392.708 229.266, 379.512 224.952, 368 225.131 C 364.425 225.186, 360.712 225.438, 359.750 225.689 M 134.986 229.030 C 133.729 229.824, 133.770 229.972, 135.250 229.985 C 136.213 229.993, 137 230.525, 137 231.167 C 137 231.808, 137.266 232.067, 137.592 231.742 C 137.917 231.416, 137.798 230.462, 137.327 229.620 C 136.730 228.553, 136.023 228.374, 134.986 229.030 M 357.293 235.029 C 357.981 237.404, 359.090 239.530, 359.758 239.753 C 360.553 240.018, 360.340 238.745, 359.141 236.067 C 356.586 230.359, 355.816 229.926, 357.293 235.029 M 193.818 244.586 C 194.026 251.651, 193.721 256.152, 192.935 257.621 C 190.073 262.968, 195.119 264.133, 199.706 259.184 C 200.968 257.822, 202 257.002, 202 257.361 C 202 258.281, 219.325 245.013, 220.311 243.337 C 220.757 242.579, 220.757 242.064, 220.311 242.192 C 219.865 242.320, 218.510 241.785, 217.301 241.003 C 215.509 239.846, 215.324 239.297, 216.301 238.041 C 217.329 236.720, 217.271 236.679, 215.890 237.756 C 214.575 238.782, 213.479 238.658, 209.890 237.077 C 207.476 236.013, 202.800 234.839, 199.500 234.468 L 193.500 233.794 193.818 244.586 M 144.738 239.893 C 144.215 241.896, 143.622 242.175, 140.633 241.826 C 138.712 241.601, 137.360 241.774, 137.629 242.209 C 137.898 242.644, 139.681 243, 141.590 243 C 145.052 243, 146.637 241.411, 145.770 238.809 C 145.539 238.117, 145.075 238.605, 144.738 239.893 M 168.813 242.683 C 169.534 242.972, 170.397 242.936, 170.729 242.604 C 171.061 242.272, 170.471 242.036, 169.417 242.079 C 168.252 242.127, 168.015 242.364, 168.813 242.683 M 107.300 249 C 107.300 252.025, 107.487 253.262, 107.716 251.750 C 107.945 250.238, 107.945 247.762, 107.716 246.250 C 107.487 244.738, 107.300 245.975, 107.300 249 M 127.079 248.583 C 127.127 249.748, 127.364 249.985, 127.683 249.188 C 127.972 248.466, 127.936 247.603, 127.604 247.271 C 127.272 246.939, 127.036 247.529, 127.079 248.583 M 214.500 254.068 C 209.550 257.822, 204.932 261.391, 204.237 261.998 C 203.543 262.605, 202.536 262.831, 201.999 262.499 C 201.446 262.158, 201.281 262.569, 201.618 263.448 C 201.946 264.302, 202.953 265.007, 203.857 265.015 C 205.010 265.026, 205.139 265.260, 204.288 265.801 C 203.616 266.228, 203.328 267.539, 203.642 268.739 C 204.189 270.829, 204.766 270.917, 219.887 271.203 L 235.564 271.500 234.174 267 C 231.155 257.230, 229.617 253.899, 226.621 250.638 L 223.500 247.242 214.500 254.068 M 368.143 260.898 C 366.524 261.915, 367.386 262.526, 371.762 263.464 C 375.624 264.293, 379.565 269.073, 380.200 273.697 C 380.441 275.456, 380.352 276.718, 380.003 276.502 C 379.653 276.286, 378.603 277.401, 377.670 278.981 C 374.368 284.571, 365.736 285.265, 360.450 280.366 C 358.169 278.252, 357.759 277.079, 357.853 272.928 C 357.916 270.109, 357.519 268, 356.923 268 C 356.350 268, 356.160 268.450, 356.500 269 C 356.840 269.550, 356.641 270, 356.059 270 C 354.535 270, 354.756 275.171, 356.452 279.232 C 357.251 281.143, 359.035 283.448, 360.417 284.354 C 363.470 286.354, 372.528 286.682, 371.367 284.750 C 370.857 283.901, 371.158 283.940, 372.308 284.872 C 373.501 285.841, 374 285.897, 374 285.063 C 374 284.414, 374.350 284.098, 374.778 284.363 C 376.157 285.215, 379.881 281.602, 381.336 278 C 383.615 272.358, 381.827 266.723, 376.699 263.389 C 372.436 260.617, 369.808 259.852, 368.143 260.898 M 223.484 264.085 C 221.973 264.675, 222.394 264.876, 225.250 264.930 C 227.313 264.968, 229 264.827, 229 264.617 C 229 263.726, 225.313 263.370, 223.484 264.085 M 208.750 265.723 C 210.537 265.945, 213.463 265.945, 215.250 265.723 C 217.037 265.502, 215.575 265.320, 212 265.320 C 208.425 265.320, 206.963 265.502, 208.750 265.723 M 267.487 266.391 C 265.830 267.113, 263.583 269.358, 262.494 271.380 C 260.520 275.046, 260.520 275.067, 262.507 278.697 C 264.932 283.126, 269.078 286.346, 271.620 285.774 C 273.107 285.439, 272.726 284.966, 269.796 283.512 C 265.865 281.561, 262.932 276.974, 263.711 273.996 C 263.970 273.009, 265.458 270.978, 267.018 269.483 C 269.895 266.726, 273.076 266.435, 278.500 268.431 C 280.229 269.068, 280.180 268.885, 278.139 267.084 C 275.454 264.714, 271.871 264.481, 267.487 266.391 M 177.691 267.642 C 177.292 268.042, 172.585 268.305, 167.232 268.226 C 161.880 268.148, 156.037 268.340, 154.250 268.653 C 151.246 269.179, 151 269.514, 151 273.063 C 151 275.174, 151.666 279.458, 152.479 282.581 C 153.292 285.704, 153.670 288.763, 153.319 289.379 C 152.967 289.996, 153.040 290.174, 153.480 289.776 C 153.921 289.378, 155.490 290.958, 156.968 293.288 C 159.966 298.016, 167.481 304.667, 173.386 307.819 C 175.523 308.960, 180.579 310.673, 184.621 311.626 C 190.982 313.126, 192.812 313.190, 198.235 312.103 C 201.681 311.412, 205.510 310.696, 206.745 310.512 C 209.162 310.152, 218.031 304.984, 221.009 302.201 C 224.870 298.593, 229.050 292.574, 228.568 291.316 C 228.289 290.590, 228.732 290, 229.556 290 C 230.416 290, 231.305 288.726, 231.650 287 C 231.980 285.350, 232.531 283.999, 232.875 283.998 C 233.219 283.997, 233.594 282.647, 233.710 280.998 C 233.917 278.032, 233.864 277.999, 228.710 277.931 C 225.844 277.893, 222.150 277.672, 220.500 277.441 C 217.130 276.967, 210.813 276.708, 206.903 276.884 C 205.402 276.951, 202.787 278.476, 200.703 280.500 C 198.721 282.425, 196.177 284, 195.050 284 C 193.922 284, 193.004 284.337, 193.008 284.750 C 193.021 285.977, 198.178 288, 201.293 288 C 203.346 288, 204.339 288.581, 204.710 290 C 205.019 291.180, 206.074 292, 207.283 292 C 208.411 292, 209.085 292.248, 208.782 292.552 C 208.478 292.855, 205.415 293.117, 201.974 293.133 C 194.751 293.168, 191.796 291.182, 191.611 286.169 C 191.550 284.520, 191.275 283.207, 191 283.250 C 190.725 283.293, 189.343 283.001, 187.928 282.600 C 184.282 281.569, 181.784 276.857, 182.160 271.720 C 182.422 268.123, 182.169 267.457, 180.443 267.208 C 179.329 267.047, 178.091 267.243, 177.691 267.642 M 187.291 270.750 C 188.078 276.920, 188.870 278, 192.607 278 C 195.249 278, 196 277.588, 196 276.139 C 196 274.671, 195.447 274.383, 193.389 274.777 C 190.831 275.265, 190.792 275.190, 191.477 271.138 C 192.152 267.142, 192.084 267, 189.495 267 C 186.978 267, 186.843 267.230, 187.291 270.750 M 217.507 274.989 C 217.157 275.555, 217.558 275.723, 218.448 275.382 C 220.180 274.717, 220.497 274, 219.059 274 C 218.541 274, 217.843 274.445, 217.507 274.989 M 249.269 288.693 C 250.242 288.947, 251.592 288.930, 252.269 288.656 C 252.946 288.382, 252.150 288.175, 250.500 288.195 C 248.850 288.215, 248.296 288.439, 249.269 288.693 M 464.856 290.477 C 464.370 290.964, 460.561 291.791, 458.191 291.926 C 457.416 291.970, 457.189 292.510, 457.633 293.250 C 458.230 294.245, 458.072 294.248, 456.859 293.266 C 455.622 292.266, 455.333 292.313, 455.333 293.516 C 455.333 295.331, 459.619 295.532, 460.338 293.750 C 460.741 292.750, 460.858 292.750, 460.921 293.750 C 460.964 294.438, 461.675 295, 462.500 295 C 464.316 295, 464.491 293.365, 462.750 292.662 C 461.980 292.352, 462.150 292.128, 463.191 292.079 C 464.121 292.036, 465.160 291.550, 465.500 291 C 466.135 289.973, 465.708 289.626, 464.856 290.477 M 476.924 292.661 C 475.591 294.125, 475.127 294.958, 475.894 294.513 C 476.661 294.068, 478.573 293.740, 480.144 293.785 C 482.471 293.851, 482.979 293.462, 482.884 291.683 C 482.799 290.078, 482.650 289.949, 482.321 291.195 C 482.063 292.175, 481.272 292.658, 480.443 292.340 C 479.656 292.038, 479.260 291.388, 479.565 290.895 C 480.645 289.148, 479.314 290.038, 476.924 292.661 M 491.613 290.720 C 491.217 291.116, 489.302 291.304, 487.357 291.136 C 484.383 290.880, 483.877 291.123, 484.177 292.666 C 484.373 293.675, 485.200 294.512, 486.016 294.526 C 486.832 294.541, 488.027 294.883, 488.672 295.287 C 489.398 295.742, 490.413 294.879, 491.345 293.011 C 492.862 289.969, 492.928 289.405, 491.613 290.720 M 218.269 291.693 C 219.242 291.947, 220.592 291.930, 221.269 291.656 C 221.946 291.382, 221.150 291.175, 219.500 291.195 C 217.850 291.215, 217.296 291.439, 218.269 291.693 M 485.813 292.683 C 486.534 292.972, 487.397 292.936, 487.729 292.604 C 488.061 292.272, 487.471 292.036, 486.417 292.079 C 485.252 292.127, 485.015 292.364, 485.813 292.683" stroke="none"  fill-rule="evenodd"/ class="illustration-path path-1"/>
</svg>