<svg xmlns="http://www.w3.org/2000/svg" width="612" height="408" viewBox="0 0 612 408" version="1.1">
	<path fill="#e8e4de" d="M 162.989 124.250 C 161.899 126.037, 161.006 127.799, 161.004 128.165 C 161.002 128.530, 157.657 129.143, 153.570 129.526 C 143.059 130.511, 141.500 132.294, 141.500 143.329 C 141.500 147.823, 141.891 155.887, 142.369 161.250 L 143.238 171 135.073 171 C 127.800 171, 126.648 171.261, 124.521 173.388 C 123.207 174.702, 121.827 177.407, 121.453 179.399 C 121.079 181.392, 120.374 183.269, 119.887 183.570 C 119.399 183.871, 119 185.666, 119 187.559 C 119 190.047, 118.557 191, 117.400 191 C 116.520 191, 114.270 192.530, 112.400 194.400 C 109.343 197.457, 109 198.365, 109 203.397 C 109 208.345, 109.391 209.429, 112.373 212.747 C 115.096 215.777, 115.655 217.109, 115.273 219.660 C 115.013 221.397, 115.281 223.647, 115.869 224.660 C 116.729 226.138, 116.945 225.467, 116.970 221.250 C 116.993 217.264, 117.361 216, 118.500 216 C 119.704 216, 120 217.528, 120 223.756 C 120 230.769, 119.689 232.011, 116.750 236.729 C 113.925 241.265, 113.075 241.950, 110.250 241.973 L 107 242 107 248.378 C 107 256.582, 107.963 257.437, 116.438 256.757 C 122.489 256.271, 122.876 256.370, 123.422 258.544 C 124.342 262.209, 128.792 266.802, 132.027 267.426 C 141.922 269.335, 141 268.611, 141 274.474 C 141 290.371, 152.152 307.453, 168.081 315.958 C 184.182 324.553, 205.769 323.966, 220.517 314.532 C 227.363 310.153, 235.384 301.709, 238.683 295.408 L 241.386 290.245 251.735 289.019 C 259.001 288.158, 262.891 288.099, 264.792 288.824 C 266.281 289.391, 269.584 290.132, 272.132 290.471 C 274.778 290.823, 276.746 291.604, 276.724 292.294 C 276.567 297.126, 276.492 297.091, 286.250 296.788 L 295.500 296.500 295.816 293.750 C 296.124 291.075, 295.996 291, 291.148 291 C 288.407 291, 285.480 290.738, 284.645 290.417 C 282.871 289.737, 274.472 277.195, 275.262 276.405 C 275.556 276.111, 277.599 278.386, 279.801 281.461 C 283.475 286.593, 283.936 286.921, 285.409 285.448 C 288.170 282.687, 289.167 279.977, 289.167 275.229 C 289.167 270.896, 290.108 269.311, 305.896 247.069 C 315.098 234.106, 324.100 221.336, 325.901 218.692 C 327.702 216.047, 330.676 213.168, 332.509 212.294 C 335.780 210.734, 335.887 210.757, 338.259 213.515 C 339.588 215.060, 343.065 222.664, 345.986 230.412 C 348.906 238.161, 353.682 250.613, 356.597 258.085 C 359.549 265.648, 361.670 272.544, 361.383 273.642 C 360.526 276.919, 364.013 280.200, 368.351 280.200 C 377.391 280.200, 379.120 269.669, 370.580 266.618 C 369.510 266.236, 368.356 266.424, 367.973 267.044 C 367.595 267.655, 364.932 262.157, 362.055 254.827 C 359.178 247.497, 354.368 235.248, 351.366 227.606 C 348.364 219.965, 346.048 212.990, 346.218 212.106 C 346.434 210.983, 348.085 210.309, 351.708 209.866 C 358.618 209.020, 363.780 205.694, 366.096 200.595 C 370.818 190.198, 365.905 178.348, 355.324 174.614 C 353.059 173.815, 349.291 171.775, 346.952 170.081 C 344.614 168.386, 341.957 167, 341.050 167 C 340.142 167, 338.935 166.535, 338.366 165.966 C 337.693 165.293, 334.573 165.206, 329.416 165.716 L 321.500 166.500 321.500 170 L 321.500 173.500 326.417 173.500 C 332.443 173.500, 333.241 175.038, 328.411 177.341 C 324.422 179.243, 324.434 178.792, 328.130 188.411 L 330.401 194.322 328.023 195.911 C 322.896 199.337, 263.797 228.993, 263.035 228.522 C 262.589 228.246, 261.238 224.363, 260.031 219.892 C 258.459 214.065, 258.144 211.456, 258.919 210.681 C 260.546 209.054, 260.224 208, 258.097 208 C 256.613 208, 255.733 206.481, 254.097 201.095 C 252.944 197.297, 252 193.507, 252 192.672 C 252 190.911, 256.216 189.358, 263.989 188.255 C 269.848 187.423, 271.417 185.560, 268.615 182.758 C 267.452 181.595, 263.155 181.159, 248.815 180.748 C 229.140 180.185, 226 180.782, 226 185.089 C 226 189.573, 227.682 190.726, 236.957 192.601 L 245.961 194.421 248.463 201.863 C 250.754 208.676, 250.827 209.406, 249.330 210.501 C 247.666 211.718, 248.366 214.510, 250.071 213.456 C 250.816 212.996, 253 216.787, 253 218.541 C 253 219.469, 238.213 230, 236.911 230 C 236.135 230, 231.988 227.750, 227.696 225 L 219.893 220 209.446 220 C 199.667 220, 199 219.872, 199 218 C 199 216.253, 199.667 216, 204.277 216 C 210.832 216, 213.698 214.127, 214.614 209.246 C 214.995 207.213, 215.913 204.944, 216.653 204.204 C 218.327 202.530, 218.349 201.512, 216.750 199.821 C 214.875 197.839, 212.772 191.850, 212.901 188.860 C 213.059 185.211, 207.593 173.387, 205.142 172.076 C 204.036 171.484, 201.573 171, 199.669 171 L 196.207 171 195.089 162.750 C 194.475 158.213, 193.542 150.504, 193.016 145.621 C 192.484 140.675, 191.348 135.654, 190.452 134.287 C 188.789 131.748, 183.460 129, 180.199 129 C 179.174 129, 176.888 127.200, 175.120 125 C 172.485 121.720, 171.281 121, 168.438 121 C 165.599 121, 164.611 121.589, 162.989 124.250 M 164.655 123.829 C 161.691 127.104, 162.624 128, 169 128 C 172.300 128, 175 127.759, 175 127.465 C 175 127.170, 174.273 125.820, 173.385 124.465 C 171.430 121.482, 167.067 121.164, 164.655 123.829 M 156.750 131.596 C 154.688 132.486, 153 133.531, 153 133.919 C 153 134.307, 154.289 135.577, 155.863 136.741 C 157.767 138.148, 159.114 140.396, 159.883 143.448 C 161.229 148.794, 164.594 152.806, 166.300 151.100 C 168.078 149.322, 171.143 149.832, 171.710 152 C 172.160 153.719, 173.074 154, 178.210 154 C 183.432 154, 184.256 153.736, 184.734 151.910 C 185.145 150.336, 185.871 149.933, 187.676 150.278 C 191.098 150.932, 192.282 148.222, 191.026 142.615 C 188.640 131.970, 186.853 130.846, 171.500 130.341 C 162.961 130.059, 159.661 130.340, 156.750 131.596 M 151.327 138.590 C 150.711 140.196, 151.584 157.682, 152.679 165.672 L 153.272 170 158.226 170 L 163.180 170 162.459 161.250 C 162.063 156.438, 161.111 151.600, 160.344 150.500 C 159.578 149.400, 158.470 146.700, 157.882 144.500 C 156.227 138.302, 152.669 135.094, 151.327 138.590 M 186.166 153.139 C 186.350 154.437, 186.950 155.387, 187.500 155.250 C 188.976 154.881, 188.716 151.739, 187.166 151.222 C 186.251 150.917, 185.937 151.520, 186.166 153.139 M 167.688 152.646 C 166.272 154.061, 167.073 156, 169.073 156 C 170.471 156, 171.041 155.457, 170.823 154.333 C 170.466 152.492, 168.759 151.574, 167.688 152.646 M 191.201 160.001 C 191.383 164.576, 191.890 167.305, 192.500 167 C 193.740 166.380, 193.203 154.877, 191.870 153.501 C 191.244 152.855, 191.008 155.153, 191.201 160.001 M 164.500 160 C 164.886 163.575, 165.662 166.950, 166.223 167.500 C 166.915 168.179, 167.021 166.414, 166.553 162 C 166.173 158.425, 165.398 155.050, 164.830 154.500 C 164.121 153.813, 164.018 155.537, 164.500 160 M 172.011 159.250 C 172.017 161.037, 172.301 164.188, 172.642 166.250 L 173.262 170 179.729 170 L 186.196 170 185.484 163.750 C 185.093 160.313, 184.572 157.162, 184.327 156.750 C 184.082 156.338, 181.209 156, 177.941 156 L 172 156 172.011 159.250 M 168.074 159.167 C 168.241 164.418, 169.560 170.468, 170.436 170 C 171.270 169.554, 171.346 164.566, 170.596 159.456 C 170.190 156.686, 167.987 156.433, 168.074 159.167 M 186.646 160.250 C 188.219 168.822, 188.559 170.099, 189.253 170.051 C 190.279 169.981, 190.286 169.773, 189.499 162.989 C 189.025 158.907, 188.365 157, 187.427 157 C 186.418 157, 186.209 157.868, 186.646 160.250 M 339.477 170.073 C 338.619 172.777, 341.281 174.759, 345.032 174.209 C 348.505 173.699, 348.011 171.574, 343.928 169.463 C 340.318 167.596, 340.261 167.604, 339.477 170.073 M 125.571 174.338 C 122.039 177.870, 121.269 185.560, 123.861 191.419 C 125.310 194.694, 126.467 196, 127.921 196 C 130.639 196, 133.083 192.044, 133.611 186.788 C 133.934 183.570, 133.805 182.999, 133.092 184.500 C 132.570 185.600, 131.877 187.738, 131.552 189.250 C 131.118 191.274, 130.359 192, 128.681 192 C 125.246 192, 124 190.100, 124 184.865 C 124 177.763, 125.359 175, 128.853 175 C 130.449 175, 132.335 175.699, 133.044 176.553 C 135.173 179.118, 135.901 187.011, 134.453 191.823 C 133.263 195.775, 133.296 196.100, 134.824 195.508 C 138.257 194.177, 153.275 190, 154.624 190 C 156.152 190, 155.781 184.729, 153.780 178 C 152.030 172.114, 151.755 172, 139.332 172 C 128.691 172, 127.749 172.160, 125.571 174.338 M 153.833 173.750 C 154.329 174.713, 155.284 177.975, 155.955 181 C 157.794 189.293, 158.047 190, 159.184 190 C 159.883 190, 159.994 187.765, 159.515 183.299 C 158.580 174.569, 157.552 172, 154.990 172 C 153.350 172, 153.114 172.357, 153.833 173.750 M 159.396 173.750 C 159.688 174.713, 160.418 178.637, 161.018 182.471 C 161.618 186.305, 162.197 189.509, 162.305 189.591 C 162.412 189.672, 169.420 189.974, 177.878 190.260 L 193.256 190.782 192.760 184.596 C 192.487 181.193, 191.517 176.967, 190.606 175.205 L 188.949 172 173.907 172 C 160.046 172, 158.907 172.137, 159.396 173.750 M 191.534 173.750 C 193.019 177.226, 195 185.496, 195 188.218 C 195 190.396, 195.466 191, 197.144 191 C 199.194 191, 199.264 190.674, 198.728 183.591 C 198.051 174.634, 196.830 172, 193.358 172 C 191.290 172, 190.933 172.343, 191.534 173.750 M 198.999 173.250 C 198.998 173.938, 199.516 178.213, 200.150 182.750 C 201.377 191.533, 202.313 192.508, 207.066 189.965 C 211.008 187.855, 208.826 175.583, 204.055 173.030 C 201.436 171.628, 199 171.734, 198.999 173.250 M 343.642 178.315 C 341.940 182.387, 340.964 183.106, 336.987 183.219 C 335.344 183.266, 334 183.703, 334 184.191 C 334 184.679, 335.621 188.625, 337.603 192.960 L 341.206 200.842 345.853 199.456 C 352.041 197.609, 355.008 194.108, 354.972 188.694 C 354.932 182.711, 351.107 175.589, 347.717 175.187 C 345.530 174.928, 344.834 175.462, 343.642 178.315 M 353.882 179.225 C 356.959 186.404, 357.313 189.537, 355.483 193.395 C 353.617 197.326, 350.423 199.765, 345.975 200.655 C 342.159 201.418, 341.688 202.220, 343.159 205.449 C 346.430 212.629, 361.788 207.987, 365.505 198.695 C 369.103 189.705, 363.514 178.190, 354.258 175.517 L 352.015 174.870 353.882 179.225 M 127.088 177.394 C 125.815 178.927, 125.349 187.137, 126.434 188.894 C 126.810 189.502, 127.746 190, 128.514 190 C 130.339 190, 131.653 183.253, 130.125 181.725 C 129.292 180.892, 129 181.574, 129 184.359 C 129 186.610, 128.599 187.870, 128 187.500 C 126.887 186.812, 126.672 183.019, 127.607 180.582 C 128.412 178.483, 130.650 178.571, 131.920 180.750 C 132.847 182.342, 132.942 182.348, 132.970 180.821 C 133.001 179.095, 130.485 176, 129.051 176 C 128.608 176, 127.724 176.627, 127.088 177.394 M 210.565 192.500 C 212.164 196.892, 212.213 206.555, 210.654 210.286 C 208.943 214.381, 209.085 214.772, 211.429 212.429 C 213.664 210.194, 213.656 195.187, 211.418 192.441 C 209.859 190.528, 209.847 190.529, 210.565 192.500 M 116.327 193.553 C 112.846 195.078, 110.226 197.939, 113.586 196.546 C 114.639 196.110, 116.816 195.459, 118.425 195.101 C 120.034 194.742, 121.534 193.898, 121.759 193.224 C 122.277 191.668, 120.366 191.784, 116.327 193.553 M 151 193 C 148.990 193.644, 148.892 193.806, 150.500 193.830 C 151.600 193.846, 153.400 193.473, 154.500 193 C 157.048 191.905, 154.419 191.905, 151 193 M 168.250 192.735 C 170.863 192.941, 175.137 192.941, 177.750 192.735 C 180.363 192.529, 178.225 192.360, 173 192.360 C 167.775 192.360, 165.637 192.529, 168.250 192.735 M 191.250 194.250 C 191.442 195.212, 188.502 195.426, 178.500 195.179 L 165.500 194.857 163.750 198.010 C 162.787 199.743, 162 202.857, 162 204.929 L 162 208.697 170.250 209.850 C 183.151 211.652, 183.883 211.531, 188.712 206.792 C 193.854 201.746, 194.360 199.725, 189.567 203.381 C 186.180 205.964, 183.963 206.714, 184.039 205.250 C 184.060 204.838, 186.085 203.023, 188.539 201.218 C 191.729 198.872, 193 197.233, 193 195.468 C 193 194.111, 192.550 193, 192 193 C 191.450 193, 191.113 193.563, 191.250 194.250 M 195.679 193.750 C 195.437 194.162, 195.191 197.200, 195.131 200.500 C 195.072 203.800, 194.757 207.738, 194.432 209.250 C 193.988 211.318, 194.224 212, 195.385 212 C 197.918 212, 199 208.576, 199 200.566 C 199 194.645, 198.687 193, 197.559 193 C 196.766 193, 195.920 193.338, 195.679 193.750 M 200.850 201.500 C 200.767 206.175, 200.655 210.563, 200.600 211.250 C 200.435 213.311, 206.318 212.291, 208.250 209.923 C 210.209 207.523, 210.626 199.778, 209.025 195.565 C 208.232 193.481, 207.388 193, 204.525 193 L 201 193 200.850 201.500 M 145.813 194.683 C 146.534 194.972, 147.397 194.936, 147.729 194.604 C 148.061 194.272, 147.471 194.036, 146.417 194.079 C 145.252 194.127, 145.015 194.364, 145.813 194.683 M 136.003 197.171 C 131.460 198.821, 129.877 198.980, 126.887 198.084 C 124.896 197.488, 122.323 197, 121.168 197 C 117.760 197, 112.279 200.091, 111.101 202.679 C 109.551 206.080, 112.018 211.668, 115.702 213.101 C 118.956 214.367, 128.542 213.625, 132.901 211.770 C 135.829 210.523, 135.851 210.460, 134.087 208.318 C 130.922 204.475, 124.878 201, 121.360 201 C 119.512 201, 118 200.550, 118 200 C 118 198.543, 124.530 198.777, 128.343 200.370 C 130.146 201.123, 133.204 203.589, 135.139 205.849 C 138.479 209.752, 138.829 209.909, 142.072 208.979 C 143.950 208.441, 148.479 208, 152.136 208 C 157.277 208, 158.924 207.641, 159.393 206.418 C 160.487 203.566, 160.029 199.949, 158.500 199.362 C 157.675 199.045, 157 198.108, 157 197.279 C 157 196.050, 156.126 195.902, 152.250 196.476 C 149.637 196.862, 145.041 198.039, 142.035 199.089 C 136.346 201.078, 130.869 201.675, 132.550 200.123 C 133.072 199.641, 135.863 198.479, 138.750 197.543 C 141.637 196.606, 144 195.650, 144 195.420 C 144 194.627, 141.492 195.177, 136.003 197.171 M 189.234 209.083 C 186.449 211.571, 186.262 212, 187.961 212 C 189.057 212, 190.700 210.861, 191.612 209.469 C 193.980 205.855, 193.020 205.699, 189.234 209.083 M 291.879 221.156 C 277.545 228.392, 265.602 234.873, 265.339 235.558 C 265.076 236.243, 266.369 241.864, 268.212 248.049 L 271.562 259.295 276.031 260.552 C 278.489 261.244, 281.414 262.104, 282.531 262.464 C 284.261 263.022, 286.186 260.849, 295.515 247.809 C 301.539 239.389, 309.737 228.060, 313.734 222.633 C 320.828 212.999, 322.788 208, 319.470 208 C 318.629 208, 306.213 213.920, 291.879 221.156 M 147.424 211.338 C 147.141 212.075, 147.043 216.237, 147.205 220.588 L 147.500 228.500 154.750 228.500 L 161.999 228.500 162 219.889 L 162 211.279 156.750 210.648 C 149.232 209.745, 148 209.836, 147.424 211.338 M 140.250 212.031 C 138.163 212.870, 138 213.554, 138 221.468 L 138 230 140.875 230 C 144.256 230, 145 227.724, 145 217.375 C 145 210.669, 144.642 210.266, 140.250 212.031 M 164 212.417 C 164 213.287, 164.713 214, 165.583 214 C 167.349 214, 167.042 211.847, 165.188 211.229 C 164.534 211.011, 164 211.546, 164 212.417 M 168 213 C 168 213.550, 168.423 214, 168.941 214 C 169.459 214, 170.160 213.550, 170.500 213 C 170.840 212.450, 170.416 212, 169.559 212 C 168.702 212, 168 212.450, 168 213 M 172 220.500 L 172 228 175.077 228 C 178.833 228, 184 223.251, 184 219.799 C 184 215.388, 181.346 213, 176.443 213 L 172 213 172 220.500 M 130.500 214.724 C 127.391 215.488, 126 217.026, 126 219.699 C 126 222.701, 131.058 228, 133.923 228 C 135.828 228, 136 227.420, 136 221 C 136 213.543, 135.877 213.402, 130.500 214.724 M 296.630 223.250 C 293.475 226.111, 278.317 246.426, 277.562 248.806 C 277.014 250.531, 282.280 259, 283.901 259 C 284.993 259, 311 223.446, 311 221.953 C 311 221.429, 308.325 221, 305.056 221 C 300.293 221, 298.618 221.447, 296.630 223.250 M 194.334 223.667 C 194.701 224.035, 197.364 224.659, 200.251 225.054 C 210.512 226.460, 213.988 227.898, 226.609 235.958 C 228.437 237.125, 229.067 237.051, 231.325 235.403 C 232.759 234.356, 233.816 233.106, 233.674 232.624 C 233.532 232.142, 230.285 229.805, 226.458 227.431 L 219.500 223.114 206.583 223.057 C 199.479 223.026, 193.967 223.300, 194.334 223.667 M 353 223.915 C 353 226.104, 359.272 241, 360.195 241 C 360.755 241, 361.021 240.438, 360.785 239.750 C 356.463 227.169, 353 220.124, 353 223.915 M 364 224.780 C 357.015 225.562, 357.069 225.502, 358.870 230.513 L 360.500 235.047 364.540 234.442 C 369.849 233.646, 379.527 235.459, 386.552 238.565 C 393.804 241.773, 402.274 250.210, 405.792 257.732 C 408.141 262.753, 408.485 264.730, 408.455 273 C 408.426 281.113, 408.035 283.335, 405.780 288.218 C 400.860 298.874, 391.130 307.221, 379.987 310.345 C 352.422 318.072, 325.270 297.348, 327.228 270.075 C 328.001 259.321, 334.516 248.359, 344.242 241.448 C 346.857 239.591, 346.929 239.320, 345.791 235.641 C 345.135 233.519, 344.038 231.568, 343.354 231.306 C 340.252 230.115, 327.565 241.673, 322.764 250.063 C 318 258.389, 316.706 264.286, 317.201 275.419 C 317.610 284.613, 318.005 286.301, 321.404 293.367 C 336.415 324.577, 380.036 332.029, 404.335 307.535 C 430.055 281.609, 420.499 239.944, 385.967 227.448 C 381.467 225.819, 368.635 224.261, 364 224.780 M 243.772 232.737 C 237.877 237.007, 233.041 240.876, 233.026 241.337 C 233.012 241.797, 234.366 244.076, 236.036 246.401 C 237.706 248.726, 240.161 253.300, 241.491 256.564 L 243.910 262.500 253.705 262.147 C 259.092 261.953, 263.797 261.503, 264.161 261.147 C 264.660 260.659, 257.970 235.409, 254.905 226.214 C 254.648 225.444, 250.424 227.919, 243.772 232.737 M 120.744 229.869 C 120.450 232.064, 118.987 235.461, 117.494 237.419 C 115.237 240.378, 115.039 241.078, 116.317 241.568 C 117.163 241.893, 118.900 242.010, 120.177 241.829 C 122.317 241.526, 122.524 240.955, 122.799 234.599 C 123.131 226.948, 121.607 223.440, 120.744 229.869 M 164 228.563 C 164 230.853, 164.347 231.093, 167.250 230.813 C 169.741 230.573, 170.575 229.975, 170.820 228.250 C 171.100 226.277, 170.699 226, 167.570 226 C 164.405 226, 164 226.291, 164 228.563 M 179 229.690 C 177.075 230.348, 174.713 230.913, 173.750 230.944 C 172.282 230.991, 172 231.976, 172 237.055 L 172 243.110 167.250 242.805 L 162.500 242.500 162.200 236.750 L 161.900 231 153.950 231 L 146 231 146 237.055 L 146 243.110 141.250 242.805 L 136.500 242.500 136.205 236.374 L 135.911 230.247 132.258 229.654 C 130.249 229.328, 128.464 229.203, 128.292 229.375 C 128.120 229.547, 127.935 236.113, 127.883 243.965 C 127.788 258.100, 127.813 258.267, 130.413 260.871 C 132.911 263.371, 133.629 263.516, 145.020 263.834 L 157 264.167 157 259.084 C 157 256.288, 157.450 254, 158 254 C 158.550 254, 159 256.250, 159 259 L 159 264 167.923 264 C 176.039 264, 177.122 263.768, 179.889 261.440 C 183.819 258.133, 184.310 255.130, 183.315 240.491 L 182.500 228.493 179 229.690 M 138.250 233.250 C 138.479 233.938, 139.942 234.500, 141.500 234.500 C 143.058 234.500, 144.521 233.938, 144.750 233.250 C 145.033 232.402, 143.989 232, 141.500 232 C 139.011 232, 137.967 232.402, 138.250 233.250 M 164 232.941 C 164 234.513, 165.978 235.222, 168.557 234.575 C 172.193 233.663, 171.510 232, 167.500 232 C 165.575 232, 164 232.423, 164 232.941 M 195 244.947 C 195 253.502, 194.627 256.639, 193.385 258.535 C 191.790 260.969, 191.809 261, 194.812 261 C 196.940 261, 198.505 260.173, 200.018 258.250 C 201.208 256.738, 202.411 255.676, 202.692 255.892 C 203.262 256.329, 217.404 246.424, 219.062 244.426 C 220.924 242.182, 208.860 236.166, 199.237 234.540 L 195 233.824 195 244.947 M 164.201 238.445 C 164.461 241.106, 164.887 241.500, 167.500 241.500 C 169.997 241.500, 170.551 241.058, 170.805 238.866 C 171.078 236.513, 170.725 236.187, 167.506 235.811 C 164.012 235.403, 163.911 235.483, 164.201 238.445 M 138.184 238.750 C 138.450 241.069, 138.971 241.500, 141.500 241.500 C 144.029 241.500, 144.550 241.069, 144.816 238.750 C 145.110 236.197, 144.873 236, 141.500 236 C 138.127 236, 137.890 236.197, 138.184 238.750 M 371.158 239 C 371.158 240.375, 371.385 240.938, 371.662 240.250 C 371.940 239.563, 371.940 238.438, 371.662 237.750 C 371.385 237.063, 371.158 237.625, 371.158 239 M 108.667 243.667 C 107.833 244.500, 107.790 252.289, 108.607 254.418 C 108.941 255.288, 109.874 256, 110.681 256 C 111.815 256, 112.093 254.808, 111.906 250.750 C 111.571 243.500, 110.712 241.622, 108.667 243.667 M 122 249 C 122 254.794, 122.126 255.121, 124.250 254.820 C 126.272 254.532, 126.500 253.942, 126.500 249 C 126.500 244.058, 126.272 243.468, 124.250 243.180 C 122.126 242.879, 122 243.206, 122 249 M 380.624 246.539 C 379.659 249.053, 379.943 249.702, 381.122 247.675 C 381.706 246.671, 381.973 245.639, 381.715 245.382 C 381.458 245.124, 380.966 245.645, 380.624 246.539 M 212.500 256.274 L 201.500 264.500 207.403 264.804 C 213.068 265.097, 223.305 263.919, 227.500 262.492 C 229.113 261.943, 229.210 262.020, 228 262.890 C 226.806 263.749, 227.163 263.972, 229.750 263.985 C 231.537 263.993, 233 263.830, 233 263.622 C 233 261.255, 225.435 247.972, 224.117 248.024 C 223.778 248.038, 218.550 251.750, 212.500 256.274 M 340.500 253 C 341.495 254.100, 342.535 255, 342.810 255 C 343.085 255, 342.495 254.100, 341.500 253 C 340.505 251.900, 339.465 251, 339.190 251 C 338.915 251, 339.505 251.900, 340.500 253 M 346 257.378 C 346 257.585, 346.788 258.373, 347.750 259.128 C 349.336 260.371, 349.371 260.336, 348.128 258.750 C 346.821 257.084, 346 256.555, 346 257.378 M 367.157 261.606 C 367.404 262.909, 368.517 263.597, 370.720 263.811 C 374.922 264.218, 379 268.962, 379 273.442 C 379 280.427, 371.134 285.336, 364.431 282.536 C 360.457 280.875, 357.631 275.959, 358.465 272.158 C 358.827 270.509, 358.488 268.691, 357.592 267.481 C 356.207 265.608, 356.089 265.729, 355.444 269.696 C 354.831 273.463, 354.442 273.931, 351.631 274.285 L 348.500 274.680 351.671 274.840 C 354.295 274.972, 354.950 275.495, 355.472 277.874 C 355.820 279.455, 357.093 281.675, 358.302 282.808 C 368.277 292.152, 384.502 284.502, 382.535 271.382 C 382.177 268.998, 381.430 266.766, 380.874 266.422 C 380.318 266.079, 380.114 265.145, 380.420 264.347 C 380.749 263.489, 380.547 263.162, 379.926 263.546 C 379.347 263.903, 378.103 263.498, 377.161 262.646 C 376.219 261.793, 373.502 260.784, 371.123 260.404 C 367.232 259.782, 366.834 259.902, 367.157 261.606 M 250.690 263.743 L 243.880 264.094 244.190 267.297 C 244.495 270.444, 244.599 270.505, 250.124 270.796 C 255.639 271.087, 255.789 271.022, 257.874 267.489 C 260.351 263.291, 260.424 262.934, 258.750 263.196 C 258.063 263.304, 254.436 263.550, 250.690 263.743 M 219.702 265.631 C 219.310 266.023, 215.402 266.256, 211.018 266.148 C 203.114 265.954, 203.054 265.971, 203.887 268.226 C 204.701 270.432, 205.167 270.508, 219.432 270.777 L 234.138 271.054 233.819 268.277 C 233.510 265.591, 233.285 265.490, 226.958 265.209 C 223.359 265.049, 220.094 265.239, 219.702 265.631 M 269.313 266.102 C 261.289 268.424, 259.311 279.491, 266.273 283.113 L 268.500 284.271 266.324 281.886 C 263.136 278.390, 262.445 274.495, 264.468 271.409 C 266.489 268.324, 271.759 265.925, 275.092 266.573 C 277.246 266.992, 277.289 266.941, 275.500 266.091 C 273.102 264.951, 273.293 264.951, 269.313 266.102 M 187.620 267.805 C 187.107 268.636, 188.463 275.797, 189.291 276.624 C 190.359 277.692, 195.316 277.403, 195.724 276.249 C 196.008 275.448, 195.594 275.219, 194.571 275.611 C 191.914 276.631, 189.956 274.246, 191.061 271.339 C 191.585 269.960, 191.760 268.420, 191.448 267.916 C 190.749 266.785, 188.295 266.714, 187.620 267.805 M 177.002 268.750 C 177.003 269.163, 171.393 269.362, 164.535 269.193 C 152.129 268.888, 152.064 268.899, 151.470 271.264 C 150.665 274.472, 153.548 286.501, 156.181 290.924 C 168.422 311.481, 195.522 318.119, 215.554 305.467 C 220.628 302.263, 228 294.602, 228 292.533 C 228 291.751, 225.582 291.655, 219.750 292.205 C 197.160 294.336, 196.223 294.314, 193.500 291.591 C 192.125 290.216, 191 288.215, 191 287.144 C 191 286, 189.632 284.391, 187.680 283.239 C 183.613 280.839, 180.573 274.884, 181.373 270.884 C 181.885 268.327, 181.670 268, 179.475 268 C 178.114 268, 177.001 268.337, 177.002 268.750 M 329.762 275.707 C 331.006 275.946, 332.806 275.937, 333.762 275.687 C 334.718 275.437, 333.700 275.241, 331.500 275.252 C 329.300 275.263, 328.518 275.468, 329.762 275.707 M 200.729 281.210 C 198.260 283.639, 196.360 284.730, 195.229 284.367 C 194.125 284.014, 194.404 284.562, 196 285.885 C 198.733 288.148, 203 288.709, 203 286.804 C 203 286.146, 204.495 287.057, 206.323 288.828 L 209.645 292.048 219.547 290.944 C 224.994 290.337, 229.737 289.663, 230.088 289.446 C 231.340 288.672, 233.290 279.890, 232.395 279.055 C 231.903 278.595, 225.425 278.057, 218 277.859 L 204.500 277.500 200.729 281.210 M 244.069 281.319 C 243.584 282.595, 243.032 284.732, 242.843 286.069 C 242.462 288.767, 241.854 288.691, 254.210 287.497 L 260.920 286.849 258.737 283.519 C 257.164 281.120, 255.568 280.026, 253.027 279.606 C 246.667 278.553, 244.999 278.872, 244.069 281.319 M 462.255 290.427 C 455.623 291.733, 454.735 292.197, 454.393 294.529 C 454.229 295.646, 455.310 296, 458.888 296 C 461.480 296, 464.195 296.563, 464.922 297.250 C 466.011 298.279, 466.053 298.127, 465.161 296.388 C 463.953 294.034, 465.008 292.065, 468.500 290.155 C 470.934 288.823, 470.237 288.854, 462.255 290.427 M 486.050 289.747 C 477.877 290.076, 477.499 290.200, 474.550 293.494 C 472.872 295.368, 470.375 297.345, 469 297.887 C 467.625 298.429, 467.175 298.899, 468 298.930 C 468.825 298.961, 470.850 298.093, 472.500 297 C 476.138 294.591, 482.687 294.395, 489.591 296.489 C 495.616 298.317, 495.830 298.327, 493.582 296.684 C 489.661 293.816, 494.096 288.333, 498.247 290.918 C 500.310 292.203, 500.384 292.181, 499.128 290.661 C 498.373 289.747, 497.023 289.092, 496.128 289.204 C 495.232 289.315, 490.697 289.560, 486.050 289.747 M 205.500 291 C 205.840 291.550, 206.316 292, 206.559 292 C 206.802 292, 207 291.550, 207 291 C 207 290.450, 206.523 290, 205.941 290 C 205.359 290, 205.160 290.450, 205.500 291 M 495.166 293.876 C 494.079 294.565, 494.107 294.827, 495.318 295.292 C 496.864 295.885, 498 295.267, 498 293.833 C 498 292.775, 496.876 292.792, 495.166 293.876 M 498 297 C 497.099 297.582, 496.975 297.975, 497.691 297.985 C 498.346 297.993, 499.160 297.550, 499.500 297 C 500.267 295.758, 499.921 295.758, 498 297" stroke="none" fill="black" fill-rule="evenodd"/>
	<path fill="#b8a898" d="M 162.803 124.920 C 160.419 129.063, 158.229 130, 150.931 130 C 148.338 130, 146.213 130.773, 144.315 132.406 C 141.696 134.658, 141.517 135.312, 141.509 142.656 C 141.504 146.970, 141.892 155.064, 142.371 160.642 L 143.242 170.785 134.564 171.142 C 126.699 171.467, 125.706 171.734, 123.965 174 C 122.909 175.375, 122.063 177.175, 122.086 178 C 122.110 178.882, 122.483 178.617, 122.992 177.357 C 124.793 172.893, 127.652 172, 140.142 172 L 151.839 172 153.472 176.915 C 154.370 179.619, 155.194 183.759, 155.302 186.115 L 155.500 190.399 151.069 191.178 C 148.631 191.607, 143.765 192.913, 140.255 194.082 C 136.744 195.250, 133.663 195.997, 133.408 195.741 C 133.153 195.486, 133.407 194.061, 133.972 192.574 C 135.382 188.866, 135.238 181.030, 133.706 178 C 132.788 176.187, 131.633 175.500, 129.500 175.500 C 125.966 175.500, 124.037 178.600, 124.015 184.316 C 123.989 190.859, 127.442 194.158, 130.800 190.800 C 132.608 188.992, 132.352 180.349, 130.470 179.627 C 128.481 178.864, 126.418 183.176, 127.570 185.686 C 128.245 187.156, 128.471 186.881, 128.766 184.231 C 129.228 180.073, 131 181.029, 131 185.437 C 131 188.822, 128.864 191.652, 127.121 190.575 C 125.406 189.515, 124.847 184.280, 125.994 180.021 C 126.916 176.599, 127.490 175.930, 129.280 176.188 C 133.659 176.818, 135.426 185.651, 132.551 192.532 C 131.439 195.193, 130.514 196, 128.574 196 C 125.096 196, 122.753 192.065, 122.190 185.276 L 121.730 179.736 120.365 182.983 C 119.614 184.769, 119 187.294, 119 188.596 C 119 190.261, 118.287 191.141, 116.595 191.566 C 115.272 191.898, 113.134 193.292, 111.845 194.665 C 109.881 196.755, 109.500 198.219, 109.500 203.663 C 109.500 209.713, 109.722 210.362, 112.696 213.019 C 115.386 215.424, 115.949 216.714, 116.261 221.187 L 116.630 226.500 116.815 221.250 C 116.978 216.611, 117.249 216, 119.138 216 C 121.183 216, 121.253 216.338, 120.756 223.750 C 120.470 228.012, 120.438 230.262, 120.685 228.750 C 121.604 223.109, 123 226.274, 123 234 L 123 242 118.893 242 C 115.416 242, 114.880 241.732, 115.395 240.250 C 115.976 238.583, 115.940 238.583, 114.642 240.250 C 113.859 241.256, 111.944 242, 110.140 242 L 107 242 107 248.378 C 107 256.552, 107.979 257.436, 116.290 256.769 L 122.549 256.267 124.158 260.034 C 126.158 264.718, 129.963 267.287, 135.914 267.972 L 140.500 268.500 141.170 275.500 C 142.407 288.439, 147.236 298.522, 156.495 307.500 C 173.691 324.175, 202.634 326.668, 222.259 313.166 C 228.155 309.109, 236.718 299.634, 239.311 294.298 C 240.912 291.002, 241.993 289.968, 243.949 289.864 C 246.406 289.733, 246.414 289.711, 244.174 289.284 C 242.730 289.009, 242.044 288.329, 242.365 287.491 C 242.650 286.749, 243.184 284.535, 243.553 282.571 L 244.223 279 249.978 279 C 255.586 279, 255.803 279.103, 258.381 283 L 261.028 287 258.264 287.141 C 255.680 287.272, 259.460 288.024, 271.500 289.774 C 275.999 290.427, 276.532 290.776, 276.816 293.250 L 277.133 296 286.566 296 C 295.962 296, 296 295.990, 296 293.500 C 296 291.113, 295.731 291, 290.037 291 L 284.075 291 280.072 285.106 C 277.871 281.865, 275.326 278.469, 274.416 277.559 C 273.506 276.649, 273.030 275.637, 273.357 275.310 C 274.237 274.429, 276.789 276.832, 280.132 281.692 C 281.762 284.062, 283.531 286, 284.063 286 C 286.057 286, 288.993 279.457, 288.997 275 C 289.001 270.761, 290.152 268.877, 308.854 242.500 C 326.574 217.506, 332.878 210, 336.148 210 C 336.617 210, 337 210.689, 337 211.531 C 337 212.374, 337.613 213.298, 338.363 213.586 C 339.112 213.873, 341.866 219.597, 344.482 226.304 C 347.099 233.012, 349.617 239.400, 350.079 240.500 C 355.169 252.625, 361.267 270.293, 361.428 273.378 C 361.666 277.957, 363.907 280, 368.691 280 C 374.886 280, 378.116 273.705, 374.250 269.167 C 371.797 266.288, 368.395 265.869, 368.834 268.500 C 369.595 273.063, 366.919 267.803, 361.713 254.500 C 348.579 220.941, 345.758 213.072, 346.330 211.582 C 346.674 210.687, 348.094 210, 349.603 210 C 354.796 210, 360.071 207.663, 363.537 203.828 C 365.441 201.719, 366.993 199.208, 366.984 198.247 C 366.974 197.223, 366.042 198.133, 364.733 200.444 C 361.904 205.438, 357.556 207.984, 350.634 208.698 C 345.309 209.248, 345.149 209.189, 343.552 206.101 C 341.606 202.338, 341.993 201.451, 345.923 200.665 C 347.553 200.339, 350.172 198.819, 351.742 197.286 C 353.312 195.754, 353.675 195.231, 352.548 196.125 C 349.878 198.244, 347.141 199.570, 343.785 200.372 C 341.205 200.988, 340.894 200.640, 337.535 193.369 C 333.236 184.066, 333.162 183, 336.809 183 C 340.443 183, 342.870 181.137, 343.325 178 C 343.606 176.059, 344.356 175.433, 346.679 175.199 C 350.210 174.844, 351.459 176.118, 354.028 182.693 C 355.061 185.337, 355.927 186.695, 355.953 185.710 C 355.979 184.726, 355.069 182.095, 353.930 179.863 C 352.792 177.632, 352.141 175.526, 352.484 175.183 C 352.826 174.840, 355.139 175.638, 357.623 176.956 C 362.706 179.653, 365.731 184.485, 366.990 191.920 C 367.613 195.605, 367.788 195.889, 367.882 193.376 C 368.049 188.941, 365.382 182.008, 362.252 178.741 C 360.783 177.207, 357.387 175.301, 354.705 174.505 C 352.023 173.709, 348.277 171.694, 346.380 170.029 C 344.483 168.363, 342.136 167, 341.165 167 C 340.194 167, 338.972 166.582, 338.450 166.071 C 337.907 165.540, 334.329 165.432, 330.105 165.821 C 322.002 166.565, 319.459 168.342, 321.620 171.750 C 322.476 173.100, 323.790 173.422, 327.365 173.160 C 330.998 172.893, 332 173.149, 332 174.343 C 332 175.180, 331.212 176.133, 330.250 176.459 C 329.287 176.786, 327.702 177.661, 326.728 178.403 C 325.051 179.681, 325.115 180.151, 327.921 187.127 C 329.552 191.182, 330.575 194.778, 330.194 195.117 C 329.812 195.457, 314.722 203.269, 296.661 212.478 C 276.618 222.697, 263.462 228.862, 262.899 228.299 C 261.282 226.682, 257.954 213.033, 258.574 210.560 C 259.011 208.821, 258.718 208.088, 257.489 207.840 C 256.376 207.615, 254.995 204.957, 253.416 200 C 252.102 195.875, 251.021 192.399, 251.013 192.276 C 250.949 191.198, 258.378 188.727, 263.323 188.180 C 267.954 187.668, 269.554 187.083, 269.798 185.813 C 270.507 182.123, 266.359 181.178, 248.500 180.962 C 239.150 180.849, 230.728 180.811, 229.785 180.878 C 227.452 181.044, 225.815 184.414, 226.582 187.471 C 227.253 190.143, 228.964 190.859, 240.418 193.266 L 246.337 194.510 248.806 201.918 C 251.069 208.706, 251.138 209.426, 249.638 210.523 C 247.607 212.008, 247.538 213, 249.465 213 C 251.017 213, 253.026 215.980, 252.961 218.184 C 252.925 219.391, 248.487 223.069, 240.275 228.696 L 237.051 230.905 228.186 225.453 L 219.320 220 209.160 220 C 199.667 220, 199 219.869, 199 218 C 199 216.242, 199.667 216, 204.500 216 C 210.946 216, 213.516 214.098, 214.556 208.556 C 214.922 206.600, 215.623 205, 216.111 205 C 216.600 205, 217 203.650, 217 202 C 217 200.350, 216.621 199, 216.158 199 C 215.141 199, 212.715 191.613, 212.429 187.643 C 212.233 184.926, 211.780 183.687, 208.301 176.368 C 206.655 172.906, 203.385 171, 199.090 171 C 196.367 171, 196.237 170.763, 195.130 163.750 C 194.501 159.762, 193.570 152.376, 193.062 147.335 C 192.554 142.294, 191.403 136.746, 190.503 135.006 C 188.786 131.685, 183.893 129, 179.558 129 C 177.796 129, 176.600 128.127, 175.533 126.063 C 174.698 124.448, 173.514 122.818, 172.903 122.440 C 172.292 122.063, 172.575 122.948, 173.532 124.408 C 174.488 125.868, 175.097 127.235, 174.885 127.445 C 174.673 127.656, 172.027 127.959, 169.005 128.118 C 162.724 128.450, 161.516 126.970, 165.008 123.221 C 166.147 122, 166.624 121, 166.069 121 C 165.514 121, 164.044 122.764, 162.803 124.920 M 157.054 131.104 C 152.169 133.054, 151.693 134.135, 154.866 136.065 C 156.925 137.317, 158.298 139.412, 159.522 143.170 C 161.929 150.563, 163.528 152.179, 167.668 151.403 C 169.671 151.027, 171 151.183, 171 151.795 C 171 152.355, 170.100 152.577, 169 152.290 C 167.465 151.888, 167 152.259, 167 153.883 C 167 155.333, 167.630 156, 169 156 C 170.100 156, 171.002 155.662, 171.004 155.250 C 171.010 154.287, 185.981 153.819, 186.058 154.779 C 186.344 158.365, 187.043 164.182, 187.561 167.301 C 188.297 171.727, 190.680 171.813, 190.158 167.395 C 189.970 165.803, 189.515 161.575, 189.147 158 C 188.599 152.667, 188.166 151.525, 186.739 151.639 C 185.783 151.715, 185 151.322, 185 150.764 C 185 150.175, 186.234 149.997, 187.944 150.339 C 191.550 151.060, 192.506 148.987, 191.463 142.708 C 189.698 132.085, 186.156 129.970, 170.282 130.063 C 164.352 130.098, 158.399 130.566, 157.054 131.104 M 151.341 152.083 C 151.700 160.379, 152.413 167.916, 152.926 168.833 C 153.571 169.985, 155.272 170.528, 158.430 170.591 L 163 170.682 162.976 164.591 C 162.949 157.754, 162.200 154.320, 158.737 145.164 C 156.374 138.914, 154.850 137.045, 152.094 137.015 C 150.919 137.003, 150.795 139.477, 151.341 152.083 M 190.511 160.250 C 191.296 168.229, 191.532 168.868, 193.108 167.292 C 194.785 165.615, 193.173 153, 191.282 153 C 190.040 153, 189.914 154.184, 190.511 160.250 M 164.118 158.250 C 164.282 164.138, 165.284 168.263, 166.662 168.722 C 167.798 169.099, 167.728 165.964, 166.403 157.250 C 165.685 152.521, 163.980 153.268, 164.118 158.250 M 178.250 155.798 L 172 156.095 171.850 161.298 L 171.700 166.500 171.100 162.078 C 170.770 159.645, 169.938 157.470, 169.250 157.244 C 167.841 156.781, 167.741 158.196, 168.648 165.750 C 169.320 171.347, 170.497 172.411, 171.969 168.750 C 172.865 166.521, 172.874 166.520, 172.937 168.646 C 172.995 170.622, 173.497 170.781, 179.250 170.646 L 185.500 170.500 185.768 167 C 185.916 165.075, 185.691 161.700, 185.268 159.500 L 184.500 155.500 178.250 155.798 M 339.236 170.419 C 339.109 171.959, 339.708 173.309, 340.774 173.879 C 342.640 174.878, 348 174.254, 348 173.038 C 348 171.742, 344.568 169.173, 341.972 168.525 C 339.800 167.984, 339.416 168.250, 339.236 170.419 M 154.100 174.750 C 154.679 176.262, 155.694 180.167, 156.356 183.427 C 157.794 190.501, 160 192.139, 160 186.133 C 160 183.914, 159.513 179.826, 158.917 177.049 C 157.983 172.692, 157.506 172, 155.442 172 C 153.244 172, 153.135 172.223, 154.100 174.750 M 159.472 174.250 C 159.752 175.488, 160.420 179.372, 160.957 182.882 C 161.493 186.393, 162.102 189.435, 162.310 189.643 C 162.518 189.851, 169.771 190.313, 178.429 190.671 L 194.171 191.320 193.504 186.410 C 192.710 180.556, 191.117 174.976, 189.747 173.250 C 189.033 172.350, 184.580 172, 173.859 172 L 158.962 172 159.472 174.250 M 191 172.374 C 191 172.580, 191.619 174.502, 192.375 176.644 C 193.131 178.787, 194.073 182.894, 194.468 185.770 C 195.068 190.127, 195.527 191, 197.222 191 C 199.136 191, 199.230 190.529, 198.797 183.056 C 198.300 174.475, 197.087 172, 193.378 172 C 192.070 172, 191 172.168, 191 172.374 M 198.418 173.646 C 199.041 175.271, 200.942 187.262, 200.980 189.813 C 201.017 192.233, 207.278 190.787, 208.829 188 C 211.795 182.669, 206.200 172, 200.438 172 C 198.387 172, 197.929 172.373, 198.418 173.646 M 120.079 188.583 C 120.127 189.748, 120.364 189.985, 120.683 189.188 C 120.972 188.466, 120.936 187.603, 120.604 187.271 C 120.272 186.939, 120.036 187.529, 120.079 188.583 M 355.624 189.539 C 355.281 190.432, 355.029 191.689, 355.063 192.332 C 355.098 192.974, 355.558 192.422, 356.085 191.105 C 356.612 189.787, 356.864 188.531, 356.645 188.312 C 356.426 188.093, 355.966 188.645, 355.624 189.539 M 210.700 195.250 C 212.442 200.302, 211.654 209.563, 209.253 212.250 C 207.830 213.844, 207.842 214, 209.396 214 C 210.408 214, 211.711 212.543, 212.599 210.417 C 214.913 204.880, 213.113 191, 210.082 191 C 209.615 191, 209.893 192.912, 210.700 195.250 M 116.500 192.927 C 114.564 193.737, 110.137 198, 111.231 198 C 111.528 198, 113.060 197.328, 114.636 196.506 C 116.211 195.685, 118.775 195.010, 120.333 195.006 C 122.151 195.002, 123.019 194.552, 122.755 193.750 C 122.248 192.210, 119.177 191.806, 116.500 192.927 M 143.500 194.774 C 136.882 196.956, 133.930 197.374, 126.413 197.196 C 118.391 197.005, 116.925 197.249, 113.913 199.272 C 109.146 202.473, 108.748 206.902, 112.859 211.013 C 115.399 213.553, 116.614 214, 120.980 214 C 126.740 214, 134.726 212.253, 135.626 210.796 C 136.365 209.601, 131.417 204.301, 127.800 202.411 C 126.314 201.635, 123.727 201, 122.050 201 C 120.372 201, 119 200.550, 119 200 C 119 198.575, 123.500 198.764, 127.282 200.347 C 129.052 201.088, 132.226 203.607, 134.335 205.944 L 138.170 210.194 144.433 209.013 C 147.877 208.363, 152.677 207.982, 155.098 208.165 L 159.500 208.500 159.805 204.305 C 160.040 201.069, 159.614 199.614, 157.941 197.941 C 156.075 196.075, 155.081 195.864, 150.810 196.431 C 148.081 196.793, 143.565 197.989, 140.774 199.089 C 134.528 201.551, 130.739 201.131, 136.500 198.615 C 141.414 196.469, 150.620 194, 153.710 194 C 154.970 194, 156 193.550, 156 193 C 156 191.392, 152.062 191.951, 143.500 194.774 M 175 193.091 C 192.316 194.348, 192.844 194.686, 177.750 194.850 C 164.918 194.990, 164 195.128, 164 196.917 C 164 197.971, 163.615 198.983, 163.144 199.167 C 162.673 199.350, 162.054 201.625, 161.770 204.223 C 161.145 209.922, 160.280 209.545, 177.439 211.060 C 189.487 212.124, 190.469 212.080, 191.689 210.410 C 192.410 209.424, 193 207.959, 193 207.154 C 193 205.884, 192.769 205.889, 191.250 207.193 C 190.287 208.019, 188.825 209.076, 188 209.540 C 186.667 210.290, 186.667 210.173, 188 208.485 C 188.825 207.441, 190.287 205.780, 191.250 204.793 C 192.946 203.055, 193.587 201, 192.433 201 C 192.122 201, 190.309 202.188, 188.406 203.639 C 186.503 205.091, 184.705 206.039, 184.412 205.745 C 184.118 205.452, 185.952 203.722, 188.487 201.902 C 192.451 199.055, 193.055 198.166, 192.798 195.546 L 192.500 192.500 178 192.378 L 163.500 192.257 175 193.091 M 203.250 192.706 C 201.208 193.099, 200.999 193.709, 200.989 199.320 C 200.983 202.719, 200.699 207.188, 200.358 209.250 C 199.752 212.917, 199.808 213, 202.869 213 C 204.667 213, 206.852 212.148, 208 211 C 211.593 207.407, 210.239 191.547, 206.390 192.136 C 205.900 192.211, 204.488 192.467, 203.250 192.706 M 195 199.935 C 195 203.749, 194.555 208.040, 194.011 209.471 C 193.217 211.559, 193.344 212.195, 194.656 212.698 C 197.616 213.834, 199 210.207, 199 201.309 C 199 193.667, 198.840 193, 197 193 C 195.192 193, 195 193.667, 195 199.935 M 290.891 221.487 L 264.281 234.867 267.836 247.243 L 271.390 259.619 275.945 260.769 C 278.450 261.402, 281.448 262.198, 282.607 262.539 C 284.329 263.045, 285.483 262.094, 288.923 257.329 C 291.237 254.123, 299.005 243.400, 306.184 233.500 C 321.919 211.800, 323.911 207.903, 319.191 208.054 C 318.261 208.084, 305.526 214.129, 290.891 221.487 M 146.802 218.750 C 146.613 223.563, 146.606 227.838, 146.788 228.250 C 146.969 228.662, 150.466 229, 154.559 229 C 158.652 229, 162.034 228.662, 162.075 228.250 C 162.116 227.838, 162.242 223.976, 162.356 219.668 C 162.599 210.423, 162.196 210, 153.139 210 L 147.147 210 146.802 218.750 M 139.750 211.689 C 138.239 212.084, 138 213.436, 138 221.573 L 138 231 140.893 231 C 144.577 231, 145 229.808, 145 219.418 C 145 210.469, 144.913 210.340, 139.750 211.689 M 164 212.500 C 164 213.325, 164.675 214, 165.500 214 C 166.325 214, 167 213.325, 167 212.500 C 167 211.675, 166.325 211, 165.500 211 C 164.675 211, 164 211.675, 164 212.500 M 168 213 C 168 213.550, 168.675 214, 169.500 214 C 170.325 214, 171 213.550, 171 213 C 171 212.450, 170.325 212, 169.500 212 C 168.675 212, 168 212.450, 168 213 M 172.448 212.885 C 171.674 213.659, 171.962 229, 172.750 228.994 C 175.671 228.973, 181.201 226.552, 182.471 224.739 C 184.320 222.098, 184.464 216.976, 182.750 214.782 C 181.608 213.320, 173.505 211.828, 172.448 212.885 M 130.500 214.353 C 126.914 215.429, 126.469 215.919, 126.201 219.091 C 125.968 221.837, 126.502 223.229, 128.587 225.314 C 130.064 226.791, 132.336 228, 133.636 228 C 135.911 228, 136 227.718, 136 220.500 C 136 216.375, 135.662 213.035, 135.250 213.077 C 134.838 213.119, 132.700 213.693, 130.500 214.353 M 193 217.441 C 193 218.234, 193.450 219.160, 194 219.500 C 194.550 219.840, 195 219.191, 195 218.059 C 195 216.927, 194.550 216, 194 216 C 193.450 216, 193 216.648, 193 217.441 M 299.204 221.712 C 296.470 222.235, 278.096 246.373, 278.037 249.518 C 277.999 251.598, 282.516 259.024, 283.786 258.969 C 284.179 258.951, 285.223 257.939, 286.107 256.719 C 286.991 255.498, 292.761 247.589, 298.930 239.142 C 305.099 230.695, 310.386 223.158, 310.680 222.392 C 311.095 221.310, 310.132 221.030, 306.357 221.136 C 303.686 221.211, 300.467 221.470, 299.204 221.712 M 193.500 224 C 193.840 224.550, 195.554 225.007, 197.309 225.015 C 203.902 225.045, 213.124 228.055, 220.679 232.641 C 227.931 237.043, 228.509 237.225, 230.932 235.865 C 232.344 235.072, 233.500 233.806, 233.500 233.051 C 233.500 232.296, 230.361 229.726, 226.525 227.339 L 219.550 223 206.216 223 C 197.581 223, 193.100 223.352, 193.500 224 M 353.032 223.628 C 353.014 224.248, 353.602 226.273, 354.338 228.128 C 355.074 229.983, 356.462 233.640, 357.423 236.256 C 358.384 238.872, 359.560 240.772, 360.037 240.477 C 360.514 240.182, 360.096 238.042, 359.110 235.721 C 358.123 233.399, 357.039 230.375, 356.701 229 C 356.008 226.179, 353.081 221.894, 353.032 223.628 M 164 228.264 C 164 230.891, 164.267 231.101, 167.250 230.813 C 169.682 230.579, 170.577 229.963, 170.804 228.366 C 171.058 226.590, 170.512 226.162, 167.554 225.817 C 164.213 225.426, 164 225.573, 164 228.264 M 242.802 233.153 L 232.105 241.141 235.427 245.821 C 238.958 250.795, 243 259.283, 243 261.723 C 243 262.969, 244.637 263.084, 253.750 262.478 C 259.663 262.084, 264.637 261.642, 264.804 261.494 C 265.038 261.288, 259.098 239.388, 255.380 226.750 C 255.097 225.787, 254.558 225.037, 254.183 225.082 C 253.807 225.128, 248.686 228.760, 242.802 233.153 M 358.761 225.687 C 357.174 226.103, 357.152 226.393, 358.511 229.022 C 359.330 230.605, 360 232.577, 360 233.403 C 360 234.607, 360.944 234.795, 364.750 234.350 C 380.263 232.533, 397.892 242.149, 405.328 256.484 C 408.207 262.033, 408.451 263.277, 408.475 272.521 C 408.498 281.861, 408.276 282.997, 405.203 289.239 C 398.437 302.984, 387.366 310.369, 370.477 312.403 C 355.928 314.156, 337.901 303.613, 330.779 289.185 C 322.990 273.406, 327.342 255.037, 341.618 243.435 L 346.737 239.276 345.461 235.563 C 344.759 233.522, 343.935 231.602, 343.630 231.297 C 342.625 230.292, 333.044 237.143, 328.950 241.794 C 326.740 244.305, 323.284 249.694, 321.270 253.769 C 318.078 260.226, 317.553 262.323, 317.182 270.077 C 316.938 275.180, 317.266 281.008, 317.951 283.738 C 322.217 300.738, 334.970 314.024, 352.302 319.524 C 371.315 325.558, 391.357 320.629, 404.821 306.608 C 419.916 290.888, 423.125 269.993, 413.392 250.787 C 408.104 240.351, 394.332 229.772, 381.632 226.390 C 376.823 225.110, 362.633 224.674, 358.761 225.687 M 127.618 230.388 C 127.323 231.560, 127.261 238.523, 127.478 245.861 C 127.790 256.372, 128.218 259.584, 129.498 260.998 C 131.827 263.571, 138.590 265, 148.443 265 L 157 265 157 260 C 157 253.638, 158.790 253.434, 159.195 259.750 L 159.500 264.500 165.719 264.797 C 179.178 265.439, 183.994 261.670, 183.990 250.500 C 183.989 247.200, 183.697 240.766, 183.342 236.201 C 182.791 229.117, 182.462 228.003, 181.098 228.586 C 180.219 228.962, 177.925 229.553, 176 229.898 L 172.500 230.527 172.202 236.763 L 171.905 243 167.452 243 L 163 243 162.874 239.250 C 162.548 229.572, 163.460 230.534, 154.299 230.210 L 146.097 229.921 145.799 236.210 L 145.500 242.500 141 242.500 L 136.500 242.500 136.395 236.579 L 136.291 230.659 132.222 229.457 C 128.408 228.331, 128.119 228.390, 127.618 230.388 M 138 237.063 L 138 242.127 141.250 241.813 C 144.402 241.509, 144.503 241.357, 144.586 236.750 C 144.672 232.015, 144.662 232, 141.336 232 L 138 232 138 237.063 M 164 232.950 C 164 233.473, 164.787 234.407, 165.750 235.026 C 167.417 236.097, 167.417 236.125, 165.750 235.607 C 164.311 235.159, 164 235.690, 164 238.595 C 164 241.977, 164.138 242.113, 167.250 241.813 C 169.958 241.552, 170.553 241.041, 170.816 238.750 C 171.058 236.651, 170.703 235.993, 169.316 235.970 C 167.604 235.941, 167.600 235.881, 169.250 234.920 C 172.053 233.287, 171.281 232, 167.500 232 C 165.575 232, 164 232.428, 164 232.950 M 194.740 234.642 C 194.460 235.114, 194.153 240.450, 194.058 246.500 C 193.964 252.550, 193.462 257.928, 192.943 258.450 C 189.399 262.019, 195.254 262.880, 199.278 259.381 C 200.617 258.216, 202.161 257.091, 202.707 256.881 C 204.508 256.190, 219.880 244.515, 219.940 243.792 C 220.025 242.793, 211.567 237.961, 206.946 236.370 C 201.514 234.498, 195.346 233.625, 194.740 234.642 M 116.872 236.750 C 115.629 238.336, 115.664 238.371, 117.250 237.128 C 118.916 235.821, 119.445 235, 118.622 235 C 118.415 235, 117.627 235.787, 116.872 236.750 M 139.750 235.662 C 140.438 235.940, 141.563 235.940, 142.250 235.662 C 142.938 235.385, 142.375 235.158, 141 235.158 C 139.625 235.158, 139.063 235.385, 139.750 235.662 M 108.441 244.294 C 108.133 245.097, 108.020 247.943, 108.190 250.618 C 108.429 254.360, 108.915 255.561, 110.300 255.824 C 111.902 256.128, 112.067 255.480, 111.800 249.912 C 111.511 243.889, 109.736 240.920, 108.441 244.294 M 122 249 C 122 254.794, 122.126 255.121, 124.250 254.820 C 126.272 254.532, 126.500 253.942, 126.500 249 C 126.500 244.058, 126.272 243.468, 124.250 243.180 C 122.126 242.879, 122 243.206, 122 249 M 212.779 255.750 C 206.895 260.012, 202.062 263.837, 202.040 264.250 C 202.018 264.663, 205.938 265.092, 210.750 265.204 L 219.500 265.407 211.250 265.744 C 206.713 265.929, 203 266.317, 203 266.606 C 203 266.895, 203.466 268.002, 204.035 269.066 C 204.985 270.841, 206.258 271, 219.535 271 L 234 271 234 268 L 234 265 227.250 264.930 C 222.920 264.885, 221.216 264.580, 222.496 264.080 C 223.594 263.652, 226.457 263.523, 228.859 263.793 C 233.085 264.270, 233.202 264.209, 232.486 261.893 C 230.932 256.862, 225.627 248, 224.171 248 C 223.789 248, 218.663 251.488, 212.779 255.750 M 367 261.330 C 367 262.335, 368.238 263.142, 370.402 263.548 C 380.513 265.444, 382.398 278.210, 373.211 282.570 C 370.318 283.943, 369.054 284.033, 365.910 283.091 C 360.551 281.486, 358 277.865, 358 271.865 C 358 266.230, 356.395 265.376, 355.434 270.500 C 354.327 276.398, 355.697 280.667, 359.667 283.695 C 367.406 289.598, 379.416 286.020, 382.116 277.007 C 384.485 269.099, 379.546 262.177, 370.250 260.379 C 367.690 259.883, 367 260.085, 367 261.330 M 249.250 263.737 C 244.003 264.104, 244 264.106, 244 267.552 L 244 271 250.500 271 C 255.278 271, 257 270.644, 257 269.655 C 257 268.915, 257.900 267.495, 259 266.500 C 260.100 265.505, 261 264.310, 261 263.845 C 261 263.015, 259.745 263.003, 249.250 263.737 M 268 266.752 C 263.386 269.056, 260.794 274.111, 262.183 278.095 C 263.408 281.609, 267.476 285.015, 270.385 284.961 C 272.054 284.930, 271.828 284.629, 269.315 283.536 C 264.818 281.580, 262.451 276.740, 264.075 272.820 C 265.929 268.343, 269.187 266.648, 274.737 267.274 C 279.122 267.768, 279.271 267.712, 276.968 266.437 C 273.685 264.619, 272.161 264.673, 268 266.752 M 187.655 267.750 C 186.812 269.114, 188.719 276.206, 190.178 277.131 C 192.379 278.527, 196 278.134, 196 276.500 C 196 275.555, 195.047 275, 193.422 275 C 191.054 275, 190.870 274.697, 191.172 271.275 C 191.422 268.437, 191.105 267.471, 189.843 267.220 C 188.932 267.038, 187.947 267.277, 187.655 267.750 M 164.500 268.954 L 151.500 269.500 151.604 275 C 151.728 281.533, 155.456 291.433, 159.618 296.280 C 177.422 317.012, 208.501 317.435, 225.250 297.173 C 228.406 293.355, 228.772 291.052, 226.250 290.882 C 225.287 290.817, 225.821 290.479, 227.435 290.132 C 229.862 289.609, 230.670 288.635, 232.110 284.500 C 233.068 281.750, 233.547 279.216, 233.176 278.869 C 232.804 278.521, 226.192 277.933, 218.481 277.560 L 204.463 276.883 202.266 279.854 C 201.056 281.490, 198.705 283.126, 197.034 283.492 C 193.924 284.176, 192.808 286, 195.500 286 C 196.325 286, 197 286.450, 197 287 C 197 287.550, 198.767 288, 200.927 288 C 203.870 288, 204.938 288.438, 205.190 289.748 C 205.375 290.710, 206.196 291.541, 207.013 291.596 C 207.831 291.651, 209.812 291.764, 211.417 291.848 C 216.840 292.131, 213.408 292.972, 204.991 293.422 C 200.389 293.668, 195.863 293.462, 194.932 292.964 C 194.002 292.466, 192.522 290.262, 191.643 288.067 C 190.675 285.647, 188.909 283.487, 187.158 282.582 C 183.444 280.661, 180.644 274.897, 181.510 270.953 C 182.091 268.308, 181.916 268.021, 179.829 268.204 C 178.548 268.316, 171.650 268.654, 164.500 268.954 M 248.750 288.706 C 249.988 288.944, 252.012 288.944, 253.250 288.706 C 254.488 288.467, 253.475 288.272, 251 288.272 C 248.525 288.272, 247.512 288.467, 248.750 288.706 M 459.250 291.166 C 456.160 291.858, 455 292.613, 455 293.933 C 455 295.436, 455.773 295.727, 459.494 295.624 C 462.203 295.549, 463.990 295.032, 463.994 294.321 C 463.997 293.673, 464.707 292.436, 465.571 291.571 C 467 290.143, 466.977 290.010, 465.321 290.107 C 464.320 290.166, 461.587 290.642, 459.250 291.166 M 474.453 294.225 C 472.279 296.548, 471.502 297.613, 472.726 296.592 C 474.596 295.031, 476.114 294.816, 482.226 295.248 C 486.227 295.531, 490.175 296.046, 491 296.392 C 492.168 296.883, 492.500 296.245, 492.500 293.511 L 492.500 290 485.453 290 C 478.459 290, 478.376 290.032, 474.453 294.225 M 217.750 291.706 C 218.988 291.944, 221.012 291.944, 222.250 291.706 C 223.488 291.467, 222.475 291.272, 220 291.272 C 217.525 291.272, 216.512 291.467, 217.750 291.706 M 467.813 298.683 C 468.534 298.972, 469.397 298.936, 469.729 298.604 C 470.061 298.272, 469.471 298.036, 468.417 298.079 C 467.252 298.127, 467.015 298.364, 467.813 298.683" stroke="none" fill="black" fill-rule="evenodd"/>
	<path fill="#d4c5b0" d="M 175.169 127.500 C 175.417 128.924, 176.379 129.552, 178.509 129.679 C 180.253 129.784, 180.666 129.644, 179.500 129.345 C 178.400 129.062, 176.897 128.082, 176.160 127.166 C 174.938 125.646, 174.851 125.675, 175.169 127.500 M 161 127.868 C 161 128.410, 160.213 129.059, 159.250 129.311 C 158.173 129.592, 158.558 129.813, 160.250 129.884 C 162.972 129.999, 163.931 128.693, 162 127.500 C 161.450 127.160, 161 127.326, 161 127.868 M 146.306 131.436 C 145.649 132.184, 144.567 132.978, 143.902 133.199 C 142.081 133.806, 141.316 142.488, 142.150 153.066 C 142.560 158.255, 143.031 164.300, 143.198 166.500 L 143.500 170.500 136.500 171.073 C 130.035 171.603, 130.360 171.667, 140.750 171.907 C 164.595 172.458, 171.946 172.198, 169.689 170.886 C 168.693 170.307, 167.181 170.100, 166.328 170.428 C 165.295 170.824, 164.950 170.571, 165.296 169.671 C 165.581 168.927, 165.413 167.684, 164.923 166.909 C 164.276 165.887, 164.026 166.269, 164.015 168.300 C 164 171.074, 163.947 171.097, 158.270 170.800 L 152.541 170.500 151.337 160 C 149.939 147.810, 149.675 137.310, 150.750 136.676 C 152.354 135.732, 156.072 138.076, 157.166 140.721 C 161.593 151.421, 163.049 154.088, 164.106 153.434 C 164.919 152.932, 164.804 152.470, 163.715 151.861 C 162.868 151.386, 160.970 147.847, 159.498 143.996 C 157.414 138.541, 156.290 136.860, 154.411 136.388 C 153.085 136.056, 152 135.468, 152 135.083 C 152 133.907, 154.411 131.262, 156 130.694 C 156.825 130.399, 155.250 130.139, 152.500 130.117 C 149.490 130.092, 147.025 130.617, 146.306 131.436 M 188.302 133.571 C 189.292 134.763, 190.491 137.035, 190.966 138.619 C 191.694 141.052, 191.841 141.152, 191.914 139.266 C 191.961 138.037, 190.762 135.765, 189.250 134.218 C 187.738 132.670, 187.311 132.379, 188.302 133.571 M 192.168 146.628 C 192.076 148.348, 191.325 150.315, 190.500 151 C 189.508 151.824, 189.057 153.811, 189.168 156.872 L 189.336 161.500 189.719 157.500 C 189.930 155.300, 190.784 152.979, 191.617 152.342 C 192.653 151.549, 193.006 149.969, 192.734 147.342 C 192.383 143.954, 192.316 143.870, 192.168 146.628 M 185.507 150.989 C 185.157 151.555, 185.558 151.723, 186.448 151.382 C 188.180 150.717, 188.497 150, 187.059 150 C 186.541 150, 185.843 150.445, 185.507 150.989 M 193.195 155.500 C 193.215 157.150, 193.439 157.704, 193.693 156.731 C 193.947 155.758, 193.930 154.408, 193.656 153.731 C 193.382 153.054, 193.175 153.850, 193.195 155.500 M 170.697 155.500 C 170.519 156.050, 170.686 157.850, 171.068 159.500 L 171.763 162.500 171.882 159.305 C 171.996 156.224, 172.170 156.098, 176.750 155.792 L 181.500 155.475 176.260 154.987 C 173.206 154.703, 170.886 154.917, 170.697 155.500 M 183.189 154.619 C 184.117 154.896, 185.104 155.883, 185.381 156.811 C 185.747 158.036, 185.829 157.954, 185.681 156.511 C 185.561 155.346, 184.654 154.439, 183.489 154.319 C 182.046 154.171, 181.964 154.253, 183.189 154.619 M 163.252 160.500 C 163.263 162.700, 163.468 163.482, 163.707 162.238 C 163.946 160.994, 163.937 159.194, 163.687 158.238 C 163.437 157.282, 163.241 158.300, 163.252 160.500 M 167.158 160 C 167.158 161.375, 167.385 161.938, 167.662 161.250 C 167.940 160.563, 167.940 159.438, 167.662 158.750 C 167.385 158.063, 167.158 158.625, 167.158 160 M 186.195 163.500 C 186.215 165.150, 186.439 165.704, 186.693 164.731 C 186.947 163.758, 186.930 162.408, 186.656 161.731 C 186.382 161.054, 186.175 161.850, 186.195 163.500 M 190.158 165 C 190.158 166.375, 190.385 166.938, 190.662 166.250 C 190.940 165.563, 190.940 164.438, 190.662 163.750 C 190.385 163.063, 190.158 163.625, 190.158 165 M 329.798 165.979 C 322.667 166.533, 320.597 167.652, 321.165 170.644 C 321.443 172.104, 322.584 172.566, 326.509 172.810 C 333.320 173.233, 333.973 174.361, 329.162 177.398 L 325.095 179.965 327.485 185.233 C 331.707 194.539, 331.670 195.205, 326.788 197.626 C 324.429 198.795, 318.225 201.907, 313 204.542 C 307.775 207.176, 298.885 211.655, 293.245 214.494 C 287.604 217.333, 283.329 220.030, 283.745 220.488 C 284.160 220.946, 283.978 221.022, 283.340 220.657 C 281.954 219.864, 278.820 220.899, 279.462 221.938 C 279.709 222.339, 279.344 222.667, 278.649 222.667 C 276.618 222.667, 268 227.261, 268 228.344 C 268 228.888, 267.716 229.049, 267.369 228.702 C 267.021 228.355, 265.924 228.506, 264.929 229.038 C 263.704 229.694, 262.898 229.643, 262.426 228.881 C 260.916 226.438, 257.302 210.931, 258.125 210.423 C 259.709 209.444, 259.038 208, 257 208 C 255.874 208, 255 207.333, 255 206.475 C 255 205.636, 254.100 202.389, 253 199.260 C 251.900 196.130, 251 193.040, 251 192.393 C 251 190.635, 258.435 188, 263.398 188 C 268.826 188, 271.226 185.799, 268.631 183.200 C 267.176 181.743, 264.205 181.455, 247.814 181.188 C 232.857 180.944, 228.514 181.161, 227.863 182.188 C 226.608 184.167, 226.836 188.624, 228.250 189.752 C 229.331 190.614, 238.504 192.692, 244.434 193.419 C 245.862 193.594, 246.973 195.450, 248.684 200.523 C 251.459 208.750, 251.561 210.703, 249.250 211.321 C 247.742 211.723, 247.799 211.885, 249.665 212.488 C 253.636 213.773, 253.852 221.277, 249.955 222.514 C 248.886 222.854, 247.447 223.664, 246.756 224.316 C 246.065 224.967, 243.596 226.793, 241.268 228.373 L 237.037 231.246 230.461 227.123 C 226.844 224.855, 223.516 223, 223.065 223 C 222.614 223, 221.697 222.340, 221.027 221.533 C 220.127 220.448, 217.032 219.992, 209.155 219.783 C 200.476 219.552, 198.500 219.222, 198.500 218 C 198.500 216.879, 199.925 216.425, 204.137 216.203 C 208.487 215.975, 210.200 215.404, 211.637 213.703 L 213.500 211.500 211.194 213.456 C 209.240 215.113, 208.579 215.218, 206.858 214.143 C 205.741 213.446, 201.966 212.875, 198.469 212.875 C 192.936 212.875, 192.188 212.656, 192.703 211.188 C 193.185 209.813, 193.045 209.732, 191.947 210.750 C 191.206 211.438, 188.408 212, 185.729 212 C 181.300 212, 181 212.143, 182.429 213.571 C 183.997 215.140, 184.481 220.608, 183.405 224.616 C 183.038 225.981, 181.494 227.135, 179.052 227.866 C 172.019 229.973, 172 229.954, 172 220.566 C 172 212.134, 172 212.133, 174.750 211.716 C 177.033 211.370, 176.882 211.274, 173.861 211.150 C 171.043 211.034, 170.254 211.370, 170.361 212.642 C 170.438 213.546, 169.938 214.483, 169.250 214.726 C 168.459 215.005, 168 214.219, 168 212.583 C 168 210.432, 167.540 210, 165.250 209.998 L 162.500 209.995 162.824 217.918 L 163.147 225.840 166.990 225.566 L 170.834 225.292 170.800 232.696 C 170.781 236.767, 171.043 240.377, 171.383 240.716 C 171.722 241.056, 172 238.841, 172 235.794 L 172 230.256 175.750 229.628 C 177.813 229.283, 180.513 228.723, 181.750 228.384 L 184 227.767 184 243.209 C 184 257.949, 183.898 258.745, 181.750 260.701 C 177.831 264.270, 175.338 265, 167.066 265 L 159 265 159 260 C 159 257.250, 158.550 255, 158 255 C 157.450 255, 157 257.250, 157 260 L 157 265 146.968 265 C 136.492 265, 131.813 263.813, 128.251 260.251 C 127.193 259.193, 126.469 257.398, 126.642 256.263 C 126.890 254.637, 126.537 254.308, 124.979 254.716 C 122.577 255.344, 122.524 256.178, 124.624 260.240 C 126.881 264.604, 129.820 266.768, 134.500 267.511 C 141.666 268.649, 141.490 268.456, 141.616 275.327 C 141.738 282.021, 144.345 290.429, 148.521 297.600 C 150.922 301.723, 162.299 313, 164.057 313 C 164.576 313, 165.225 313, 165.500 313 C 165.775 313, 166.935 313.935, 168.077 315.077 C 169.220 316.220, 170.818 316.900, 171.629 316.589 C 172.458 316.271, 172.836 316.456, 172.493 317.011 C 172.157 317.555, 172.739 318, 173.787 318 C 174.835 318, 177.181 318.743, 179 319.650 C 181.413 320.853, 185.176 321.319, 192.904 321.372 C 202.239 321.435, 204.366 321.108, 210.776 318.624 C 214.778 317.074, 218.699 315.158, 219.490 314.367 C 220.281 313.576, 221.057 313.053, 221.214 313.206 C 221.371 313.358, 223.247 312.150, 225.383 310.521 C 229.870 307.099, 238.783 295.714, 239.636 292.315 C 240.015 290.804, 240.961 289.995, 242.358 289.985 C 243.776 289.975, 244.083 289.705, 243.268 289.187 C 242.396 288.633, 242.257 287.100, 242.792 283.952 L 243.549 279.500 250.024 279.258 C 256.333 279.022, 256.551 279.098, 258.500 282.220 C 261.723 287.384, 266.471 290, 272.623 290 L 277.950 290 277.377 292.867 L 276.803 295.733 285.902 295.917 L 295 296.101 295 293.551 C 295 291.126, 294.716 290.994, 289.250 290.882 C 286.087 290.816, 283.050 290.854, 282.500 290.965 C 281.950 291.076, 281.817 290.850, 282.205 290.462 C 283.076 289.590, 275.378 278.082, 273.421 277.331 C 272.639 277.031, 272 276.384, 272 275.893 C 272 274.662, 275.736 274.764, 276.510 276.016 C 276.856 276.575, 277.627 276.731, 278.224 276.362 C 278.890 275.950, 279.020 276.159, 278.559 276.904 C 277.814 278.110, 282.551 286, 284.021 286 C 285.837 286, 288.449 280.129, 288.618 275.670 C 288.817 270.395, 290.037 268.181, 301.380 252.500 C 304.961 247.550, 308.253 243.050, 308.695 242.500 C 309.138 241.950, 310.850 239.475, 312.500 237 C 314.150 234.525, 315.950 231.954, 316.500 231.286 C 317.050 230.619, 320.366 226.092, 323.869 221.228 C 330.141 212.518, 335.824 207.971, 336.796 210.887 C 337.020 211.561, 337.984 212.874, 338.937 213.806 C 340.543 215.375, 342.940 221.110, 353.021 247.500 C 355.122 253, 358.002 260.502, 359.420 264.171 C 360.839 267.839, 362 272.157, 362 273.766 C 362 279.010, 368.727 282.131, 372.310 278.548 C 373.108 277.749, 374.019 277.352, 374.332 277.666 C 375.203 278.536, 376.298 273.219, 375.615 271.439 C 375.284 270.578, 374.612 270.122, 374.120 270.426 C 373.628 270.730, 373.288 270.196, 373.363 269.240 C 373.449 268.144, 372.668 267.383, 371.250 267.181 C 369.486 266.930, 368.985 267.362, 368.932 269.180 L 368.865 271.500 367.780 269.250 C 367.183 268.012, 366.409 267, 366.060 267 C 365.711 267, 365.359 266.117, 365.278 265.038 C 365.197 263.959, 364.466 261.597, 363.653 259.788 C 362.841 257.980, 360.079 251.100, 357.515 244.500 C 354.951 237.900, 352.389 231.375, 351.821 230 C 348.025 220.804, 345.275 212.173, 345.846 211.249 C 346.215 210.652, 348.089 209.973, 350.009 209.741 C 353.061 209.373, 352.916 209.300, 348.859 209.160 L 344.218 209 339.976 199.250 C 337.643 193.887, 335.399 189.050, 334.989 188.500 C 334.580 187.950, 333.934 186.488, 333.555 185.250 C 332.933 183.221, 333.201 183, 336.278 183 C 341.797 183, 345.732 176.606, 341.522 174.477 C 340.273 173.845, 339.382 172.249, 339.192 170.302 C 339.023 168.568, 338.348 166.769, 337.692 166.304 C 337.036 165.839, 333.484 165.693, 329.798 165.979 M 186.823 168.750 C 186.244 170.799, 185.531 171.016, 178.844 171.175 L 171.500 171.351 181 171.925 C 186.225 172.241, 192.300 172.219, 194.500 171.875 C 196.700 171.532, 197.990 171.194, 197.367 171.125 C 196.743 171.056, 195.989 170.066, 195.691 168.925 C 195.231 167.169, 194.830 167.021, 193.074 167.960 C 191.933 168.571, 191 169.505, 191 170.035 C 191 172.050, 188.123 170.895, 187.799 168.750 L 187.459 166.500 186.823 168.750 M 192 170 C 192 170.550, 192.675 171, 193.500 171 C 194.325 171, 195 170.550, 195 170 C 195 169.450, 194.325 169, 193.500 169 C 192.675 169, 192 169.450, 192 170 M 348 172.144 C 348 172.444, 349.178 173.996, 350.617 175.594 C 352.057 177.193, 352.899 177.887, 352.489 177.138 C 352.059 176.352, 352.327 175.407, 353.122 174.904 C 354.168 174.241, 354.006 174.027, 352.450 174.015 C 351.322 174.007, 349.860 173.460, 349.200 172.800 C 348.540 172.140, 348 171.845, 348 172.144 M 122.980 175.524 C 122.284 176.362, 121.909 177.242, 122.145 177.479 C 122.382 177.715, 123.125 177.030, 123.796 175.955 C 125.248 173.630, 124.764 173.375, 122.980 175.524 M 131 176.378 C 131 176.585, 131.685 177.324, 132.523 178.019 C 133.796 179.076, 133.943 179.014, 133.416 177.641 C 132.878 176.240, 131 175.257, 131 176.378 M 199.195 181.500 C 199.215 183.150, 199.439 183.704, 199.693 182.731 C 199.947 181.758, 199.930 180.408, 199.656 179.731 C 199.382 179.054, 199.175 179.850, 199.195 181.500 M 128.079 181.677 C 128.124 182.727, 128.372 182.970, 128.662 182.250 C 129.659 179.780, 130.893 181.074, 131.291 185.007 L 131.696 189.015 131.598 184.766 C 131.524 181.561, 131.070 180.436, 129.750 180.185 C 128.583 179.964, 128.026 180.460, 128.079 181.677 M 119.972 184.052 C 119.368 185.181, 119.075 186.869, 119.321 187.802 C 119.632 188.985, 119.803 188.799, 119.884 187.191 C 119.948 185.921, 120.423 185.143, 120.939 185.463 C 121.456 185.782, 121.810 185.134, 121.727 184.022 C 121.536 181.496, 121.338 181.499, 119.972 184.052 M 134.252 185.500 C 134.263 187.700, 134.468 188.482, 134.707 187.238 C 134.946 185.994, 134.937 184.194, 134.687 183.238 C 134.437 182.282, 134.241 183.300, 134.252 185.500 M 160.195 184.500 C 160.215 186.150, 160.439 186.704, 160.693 185.731 C 160.947 184.758, 160.930 183.408, 160.656 182.731 C 160.382 182.054, 160.175 182.850, 160.195 184.500 M 210.185 185.805 C 210.434 187.504, 210.270 188.667, 209.819 188.388 C 209.369 188.110, 209 188.373, 209 188.973 C 209 189.573, 207.988 190.471, 206.750 190.969 C 205.105 191.630, 204.957 191.890, 206.200 191.937 C 207.135 191.971, 208.379 192.787, 208.964 193.750 C 209.810 195.142, 209.892 194.903, 209.364 192.586 C 208.809 190.147, 208.970 189.774, 210.350 190.304 C 211.684 190.816, 212 190.285, 212 187.528 C 212 185.652, 211.490 183.803, 210.866 183.417 C 210.082 182.932, 209.871 183.670, 210.185 185.805 M 156.158 187 C 156.158 188.375, 156.385 188.938, 156.662 188.250 C 156.940 187.563, 156.940 186.438, 156.662 185.750 C 156.385 185.063, 156.158 185.625, 156.158 187 M 119.500 191.005 C 117.754 191.759, 117.840 191.850, 120.178 191.722 C 121.651 191.642, 122.637 191.221, 122.369 190.788 C 122.101 190.355, 121.796 190.032, 121.691 190.070 C 121.586 190.109, 120.600 190.529, 119.500 191.005 M 154.500 191 C 152.592 191.820, 152.603 191.863, 154.750 191.930 C 158.647 192.051, 157.192 193.702, 152.636 194.326 C 148.833 194.848, 135.241 198.765, 134.083 199.673 C 133.854 199.853, 133.908 200.241, 134.203 200.537 C 134.498 200.832, 137.050 200.163, 139.873 199.050 C 142.696 197.937, 147.592 196.608, 150.753 196.097 C 156.042 195.241, 156.638 195.339, 158.228 197.333 C 159.302 198.680, 159.964 201.278, 159.978 204.198 L 160 208.895 154.750 209.263 L 149.500 209.630 155.152 209.815 L 160.804 210 161.489 204.095 C 161.908 200.487, 162.901 197.410, 164.042 196.185 C 165.648 194.461, 165.697 194.098, 164.392 193.597 C 163.557 193.276, 163.124 192.608, 163.431 192.112 C 164.633 190.167, 158.279 189.376, 154.500 191 M 367.195 192.500 C 367.215 194.150, 367.439 194.704, 367.693 193.731 C 367.947 192.758, 367.930 191.408, 367.656 190.731 C 367.382 190.054, 367.175 190.850, 367.195 192.500 M 174.776 191.733 C 177.128 191.945, 180.728 191.942, 182.776 191.727 C 184.824 191.512, 182.900 191.339, 178.500 191.343 C 174.100 191.346, 172.424 191.522, 174.776 191.733 M 193.500 192 C 193.160 192.550, 193.359 193, 193.941 193 C 194.523 193, 195 192.550, 195 192 C 195 191.450, 194.802 191, 194.559 191 C 194.316 191, 193.840 191.450, 193.500 192 M 199 192 C 199 192.550, 199.450 193, 200 193 C 200.550 193, 201 192.550, 201 192 C 201 191.450, 200.550 191, 200 191 C 199.450 191, 199 191.450, 199 192 M 123 194.218 C 123 195.080, 123.739 196.070, 124.643 196.417 C 126.965 197.308, 127.029 196.795, 124.871 194.575 C 123.324 192.983, 123 192.921, 123 194.218 M 172.789 194.741 C 176.248 194.937, 181.648 194.936, 184.789 194.738 C 187.930 194.540, 185.100 194.380, 178.500 194.382 C 171.900 194.384, 169.330 194.546, 172.789 194.741 M 352.405 196.250 L 350.500 198.500 352.750 196.595 C 354.864 194.805, 355.455 194, 354.655 194 C 354.465 194, 353.453 195.012, 352.405 196.250 M 116.352 195.993 C 115.171 196.470, 113.907 197.341, 113.543 197.930 C 112.449 199.700, 110.732 199.142, 111.452 197.250 C 111.930 195.995, 111.812 195.804, 111.033 196.577 C 110.435 197.169, 109.792 199.869, 109.603 202.577 C 109.414 205.284, 109.451 206.073, 109.685 204.329 C 110.108 201.186, 112.463 198.920, 118 196.331 C 120.892 194.979, 119.548 194.704, 116.352 195.993 M 129 197 C 127.707 197.835, 127.734 197.971, 129.191 197.985 C 130.121 197.993, 131.160 197.550, 131.500 197 C 132.282 195.734, 130.958 195.734, 129 197 M 193.710 198 C 193.423 199.100, 193.595 200, 194.094 200 C 194.592 200, 195 199.100, 195 198 C 195 196.900, 194.827 196, 194.617 196 C 194.406 196, 193.998 196.900, 193.710 198 M 214.006 202.559 C 214.012 208.442, 214.027 208.472, 215.506 205.636 C 217.344 202.111, 217.339 201.032, 215.468 198.559 C 214.124 196.782, 214.001 197.121, 214.006 202.559 M 126.500 201.389 C 128.150 202.110, 131.075 203.983, 133 205.552 L 136.500 208.404 134 205.607 C 131.342 202.633, 126.949 199.974, 124.800 200.039 C 124.085 200.061, 124.850 200.668, 126.500 201.389 M 215.158 202 C 215.158 203.375, 215.385 203.938, 215.662 203.250 C 215.940 202.563, 215.940 201.438, 215.662 200.750 C 215.385 200.063, 215.158 200.625, 215.158 202 M 191.037 205.335 C 187.801 209.226, 187.773 209.318, 190.606 206.736 C 192.274 205.216, 193.945 204.278, 194.319 204.653 C 194.694 205.027, 195 204.358, 195 203.167 C 195 201.975, 194.887 201.038, 194.750 201.085 C 194.613 201.131, 192.941 203.044, 191.037 205.335 M 291.197 220.909 C 277.280 227.948, 265.465 234.135, 264.941 234.659 C 264.338 235.262, 264.496 237.241, 265.371 240.056 C 266.130 242.500, 267.759 247.897, 268.989 252.048 L 271.226 259.597 277.863 261.709 L 284.500 263.821 286.290 261.661 C 287.275 260.472, 290.035 256.575, 292.425 253 C 296.118 247.474, 303.754 237.109, 306.837 233.437 C 307.328 232.852, 308.308 231.277, 309.014 229.937 C 309.721 228.597, 310.609 227.275, 310.988 227 C 311.367 226.725, 314.054 223.029, 316.960 218.786 C 322.433 210.794, 322.915 207.955, 318.781 208.056 C 317.527 208.087, 305.113 213.871, 291.197 220.909 M 354.813 208.683 C 355.534 208.972, 356.397 208.936, 356.729 208.604 C 357.061 208.272, 356.471 208.036, 355.417 208.079 C 354.252 208.127, 354.015 208.364, 354.813 208.683 M 110 209.711 C 110 210.285, 110.787 211.373, 111.750 212.128 C 113.369 213.397, 113.390 213.350, 112.033 211.500 C 111.226 210.400, 110.439 209.313, 110.283 209.083 C 110.127 208.854, 110 209.137, 110 209.711 M 144.621 222.039 C 144.688 229.209, 145.025 235.359, 145.371 235.705 C 145.717 236.050, 146 234.908, 146 233.167 L 146 230 154.500 230 L 163 230 163.168 236.750 L 163.336 243.500 163.918 237.500 C 164.492 231.581, 164.064 225.319, 163.251 227.750 C 162.961 228.618, 160.260 229, 154.417 229 L 146 229 146 219.573 C 146 211.436, 146.239 210.084, 147.750 209.689 C 148.936 209.379, 148.694 209.195, 147 209.117 L 144.500 209.002 144.621 222.039 M 133 212.486 L 129.500 213.821 133.062 213.565 C 135.021 213.425, 137.496 212.804, 138.562 212.185 C 140.464 211.082, 140.463 211.062, 138.500 211.106 C 137.400 211.132, 134.925 211.753, 133 212.486 M 164 213 C 164 214.111, 164.667 215, 165.500 215 C 166.333 215, 167 214.111, 167 213 C 167 211.889, 166.333 211, 165.500 211 C 164.667 211, 164 211.889, 164 213 M 207.507 211.989 C 207.157 212.555, 207.558 212.723, 208.448 212.382 C 210.180 211.717, 210.497 211, 209.059 211 C 208.541 211, 207.843 211.445, 207.507 211.989 M 116.185 219.750 L 116.370 225.500 116.738 220.224 C 116.983 216.708, 117.474 215.175, 118.208 215.628 C 118.871 216.038, 119.025 215.850, 118.595 215.155 C 116.969 212.523, 116.011 214.348, 116.185 219.750 M 123 214.691 C 120.635 215.060, 120.519 215.376, 120.843 220.541 C 121.031 223.543, 121.593 226, 122.093 226 C 122.592 226, 123 229.600, 123 234 L 123 242 119 242 C 116.483 242, 114.989 241.537, 114.970 240.750 C 114.953 240.063, 114.475 240.297, 113.908 241.271 C 113.341 242.245, 112.567 242.849, 112.189 242.613 C 111.810 242.378, 111.654 245.129, 111.841 248.727 C 112.086 253.412, 111.802 255.510, 110.841 256.119 C 109.990 256.659, 111.144 256.969, 114 256.969 C 120.092 256.969, 121.120 256.095, 121.130 250.904 C 121.143 244.490, 121.790 243, 124.567 243 C 126.930 243, 127 242.783, 127 235.421 L 127 227.841 130.250 228.493 L 133.500 229.145 130.225 227.072 C 125.364 223.995, 123.624 218.519, 126.571 215.571 C 128.225 213.918, 128.115 213.891, 123 214.691 M 193 216.941 C 193 218.931, 194.304 220.363, 195.252 219.415 C 196.036 218.631, 194.911 215, 193.883 215 C 193.398 215, 193 215.873, 193 216.941 M 166.667 219.667 C 165.629 220.704, 165.883 224, 167 224 C 167.550 224, 168 222.875, 168 221.500 C 168 218.882, 167.769 218.564, 166.667 219.667 M 302 221.892 C 300.075 222.226, 297.825 222.950, 297 223.500 C 294.822 224.952, 282.669 241.274, 282.668 242.750 C 282.667 243.438, 282.438 243.771, 282.159 243.492 C 281.442 242.776, 278.015 248.180, 278.007 250.038 C 278.003 250.884, 279.318 253.134, 280.929 255.038 L 283.859 258.500 286.889 255 C 288.555 253.075, 289.937 251.156, 289.959 250.736 C 289.982 250.316, 291.913 247.566, 294.250 244.626 C 302.332 234.459, 306.028 228.854, 305.361 227.775 C 304.976 227.153, 305.154 226.977, 305.777 227.362 C 306.940 228.081, 310 224.397, 310 222.277 C 310 220.952, 307.972 220.854, 302 221.892 M 193.667 222.667 C 192.203 224.130, 193.161 225.001, 196.250 225.015 C 204.614 225.053, 215.790 229.047, 224.799 235.219 C 229.295 238.298, 229.541 238.273, 233.746 234.321 C 235.591 232.588, 235.419 232.330, 230.500 229.447 C 228.025 227.997, 226 226.403, 226 225.905 C 226 225.407, 225.662 225.093, 225.250 225.206 C 224.838 225.319, 223.060 224.644, 221.300 223.706 C 218.800 222.373, 215.498 222, 206.216 222 C 199.681 222, 194.033 222.300, 193.667 222.667 M 353 223.151 C 353 224.820, 355.327 230, 356.076 230 C 356.561 230, 356.431 228.762, 355.789 227.250 C 354.618 224.495, 353 222.117, 353 223.151 M 251.821 226.250 C 247.628 230.217, 235.713 237.949, 234.695 237.365 C 234.038 236.988, 233.838 237.052, 234.252 237.509 C 234.666 237.965, 234.333 239.079, 233.513 239.986 C 232.175 241.464, 232.354 242.088, 235.249 246.023 C 237.024 248.437, 237.807 250.017, 236.988 249.534 C 235.959 248.927, 236.041 249.275, 237.252 250.659 C 238.216 251.761, 238.666 253.035, 238.252 253.491 C 237.838 253.948, 238.040 254.011, 238.699 253.633 C 239.491 253.178, 240.504 254.652, 241.684 257.972 C 243.008 261.701, 243.990 263.016, 245.485 263.063 C 247.452 263.125, 247.450 263.147, 245.410 263.972 C 243.757 264.640, 243.415 265.465, 243.773 267.909 C 244.226 270.995, 244.237 271, 250.638 271 C 256.360 271, 257.144 270.758, 257.929 268.750 C 258.939 266.165, 262.299 262.400, 264.144 261.785 C 265.068 261.477, 264.150 256.943, 260.672 244.634 C 258.071 235.430, 256.251 227.403, 256.626 226.796 C 257.038 226.129, 256.851 225.974, 256.155 226.405 C 255.520 226.797, 255 226.641, 255 226.059 C 255 224.628, 253.437 224.722, 251.821 226.250 M 359.750 225.689 C 357.637 226.241, 357.640 226.202, 359.449 230.532 C 360.874 233.943, 360.996 234, 366.900 234 C 379.932 234, 389.597 237.744, 397.768 245.957 C 403.917 252.140, 407.517 258.797, 408.469 265.751 C 408.896 268.869, 409.596 270.749, 410.194 270.380 C 410.794 270.009, 410.757 270.586, 410.100 271.814 C 409.495 272.944, 409 274.929, 409 276.224 C 409 279.770, 406.040 290.453, 404.953 290.833 C 404.429 291.017, 404 291.616, 404 292.165 C 404 296.015, 387.576 310, 383.055 310 C 381.925 310, 381 310.400, 381 310.889 C 381 311.378, 380.438 311.733, 379.750 311.678 C 379.063 311.623, 375.936 311.947, 372.803 312.398 C 369.171 312.920, 365.003 312.798, 361.303 312.061 C 358.111 311.425, 354.503 310.836, 353.283 310.752 C 352.064 310.668, 351.265 310.402, 351.507 310.160 C 351.749 309.918, 350.272 308.825, 348.224 307.732 C 342.773 304.824, 335.146 298.182, 333.418 294.841 C 332.591 293.242, 331.489 292.198, 330.969 292.519 C 330.430 292.852, 330.306 292.365, 330.681 291.388 C 331.164 290.132, 330.985 289.891, 330.015 290.490 C 329.125 291.041, 328.929 290.923, 329.418 290.132 C 329.818 289.485, 329.475 286.828, 328.656 284.228 C 326.286 276.706, 325.909 272.757, 327.004 266.939 C 328.894 256.899, 334.309 248.664, 343.952 241.162 C 346.306 239.331, 346.349 239.089, 345.042 235.127 C 344.293 232.857, 343.495 231, 343.270 231 C 343.045 231, 340.754 232.432, 338.180 234.182 C 324.136 243.729, 315.905 260.231, 317.343 275.958 C 318.230 285.668, 318.859 288.201, 321.173 291.393 C 322.327 292.984, 322.724 293.947, 322.055 293.534 C 321.386 293.121, 321.879 294.369, 323.150 296.308 C 324.421 298.247, 325.877 299.576, 326.385 299.262 C 326.893 298.948, 326.991 299.205, 326.603 299.833 C 325.632 301.405, 332.173 308.257, 338.918 312.734 C 348.510 319.101, 355.913 321.263, 368 321.229 C 384.198 321.183, 393.854 317.313, 404.492 306.604 C 407.281 303.797, 410.851 299.284, 412.426 296.575 C 415.798 290.775, 418.966 279.356, 418.966 273 C 418.966 267.419, 415.981 255.757, 413.267 250.731 C 411.316 247.117, 402 235.998, 402 237.283 C 402 237.625, 400.762 236.754, 399.250 235.348 C 392.708 229.266, 379.512 224.952, 368 225.131 C 364.425 225.186, 360.712 225.438, 359.750 225.689 M 134.986 229.030 C 133.729 229.824, 133.770 229.972, 135.250 229.985 C 136.213 229.993, 137 230.525, 137 231.167 C 137 231.808, 137.266 232.067, 137.592 231.742 C 137.917 231.416, 137.798 230.462, 137.327 229.620 C 136.730 228.553, 136.023 228.374, 134.986 229.030 M 357.293 235.029 C 357.981 237.404, 359.090 239.530, 359.758 239.753 C 360.553 240.018, 360.340 238.745, 359.141 236.067 C 356.586 230.359, 355.816 229.926, 357.293 235.029 M 193.818 244.586 C 194.026 251.651, 193.721 256.152, 192.935 257.621 C 190.073 262.968, 195.119 264.133, 199.706 259.184 C 200.968 257.822, 202 257.002, 202 257.361 C 202 258.281, 219.325 245.013, 220.311 243.337 C 220.757 242.579, 220.757 242.064, 220.311 242.192 C 219.865 242.320, 218.510 241.785, 217.301 241.003 C 215.509 239.846, 215.324 239.297, 216.301 238.041 C 217.329 236.720, 217.271 236.679, 215.890 237.756 C 214.575 238.782, 213.479 238.658, 209.890 237.077 C 207.476 236.013, 202.800 234.839, 199.500 234.468 L 193.500 233.794 193.818 244.586 M 144.738 239.893 C 144.215 241.896, 143.622 242.175, 140.633 241.826 C 138.712 241.601, 137.360 241.774, 137.629 242.209 C 137.898 242.644, 139.681 243, 141.590 243 C 145.052 243, 146.637 241.411, 145.770 238.809 C 145.539 238.117, 145.075 238.605, 144.738 239.893 M 168.813 242.683 C 169.534 242.972, 170.397 242.936, 170.729 242.604 C 171.061 242.272, 170.471 242.036, 169.417 242.079 C 168.252 242.127, 168.015 242.364, 168.813 242.683 M 107.300 249 C 107.300 252.025, 107.487 253.262, 107.716 251.750 C 107.945 250.238, 107.945 247.762, 107.716 246.250 C 107.487 244.738, 107.300 245.975, 107.300 249 M 127.079 248.583 C 127.127 249.748, 127.364 249.985, 127.683 249.188 C 127.972 248.466, 127.936 247.603, 127.604 247.271 C 127.272 246.939, 127.036 247.529, 127.079 248.583 M 214.500 254.068 C 209.550 257.822, 204.932 261.391, 204.237 261.998 C 203.543 262.605, 202.536 262.831, 201.999 262.499 C 201.446 262.158, 201.281 262.569, 201.618 263.448 C 201.946 264.302, 202.953 265.007, 203.857 265.015 C 205.010 265.026, 205.139 265.260, 204.288 265.801 C 203.616 266.228, 203.328 267.539, 203.642 268.739 C 204.189 270.829, 204.766 270.917, 219.887 271.203 L 235.564 271.500 234.174 267 C 231.155 257.230, 229.617 253.899, 226.621 250.638 L 223.500 247.242 214.500 254.068 M 368.143 260.898 C 366.524 261.915, 367.386 262.526, 371.762 263.464 C 375.624 264.293, 379.565 269.073, 380.200 273.697 C 380.441 275.456, 380.352 276.718, 380.003 276.502 C 379.653 276.286, 378.603 277.401, 377.670 278.981 C 374.368 284.571, 365.736 285.265, 360.450 280.366 C 358.169 278.252, 357.759 277.079, 357.853 272.928 C 357.916 270.109, 357.519 268, 356.923 268 C 356.350 268, 356.160 268.450, 356.500 269 C 356.840 269.550, 356.641 270, 356.059 270 C 354.535 270, 354.756 275.171, 356.452 279.232 C 357.251 281.143, 359.035 283.448, 360.417 284.354 C 363.470 286.354, 372.528 286.682, 371.367 284.750 C 370.857 283.901, 371.158 283.940, 372.308 284.872 C 373.501 285.841, 374 285.897, 374 285.063 C 374 284.414, 374.350 284.098, 374.778 284.363 C 376.157 285.215, 379.881 281.602, 381.336 278 C 383.615 272.358, 381.827 266.723, 376.699 263.389 C 372.436 260.617, 369.808 259.852, 368.143 260.898 M 223.484 264.085 C 221.973 264.675, 222.394 264.876, 225.250 264.930 C 227.313 264.968, 229 264.827, 229 264.617 C 229 263.726, 225.313 263.370, 223.484 264.085 M 208.750 265.723 C 210.537 265.945, 213.463 265.945, 215.250 265.723 C 217.037 265.502, 215.575 265.320, 212 265.320 C 208.425 265.320, 206.963 265.502, 208.750 265.723 M 267.487 266.391 C 265.830 267.113, 263.583 269.358, 262.494 271.380 C 260.520 275.046, 260.520 275.067, 262.507 278.697 C 264.932 283.126, 269.078 286.346, 271.620 285.774 C 273.107 285.439, 272.726 284.966, 269.796 283.512 C 265.865 281.561, 262.932 276.974, 263.711 273.996 C 263.970 273.009, 265.458 270.978, 267.018 269.483 C 269.895 266.726, 273.076 266.435, 278.500 268.431 C 280.229 269.068, 280.180 268.885, 278.139 267.084 C 275.454 264.714, 271.871 264.481, 267.487 266.391 M 177.691 267.642 C 177.292 268.042, 172.585 268.305, 167.232 268.226 C 161.880 268.148, 156.037 268.340, 154.250 268.653 C 151.246 269.179, 151 269.514, 151 273.063 C 151 275.174, 151.666 279.458, 152.479 282.581 C 153.292 285.704, 153.670 288.763, 153.319 289.379 C 152.967 289.996, 153.040 290.174, 153.480 289.776 C 153.921 289.378, 155.490 290.958, 156.968 293.288 C 159.966 298.016, 167.481 304.667, 173.386 307.819 C 175.523 308.960, 180.579 310.673, 184.621 311.626 C 190.982 313.126, 192.812 313.190, 198.235 312.103 C 201.681 311.412, 205.510 310.696, 206.745 310.512 C 209.162 310.152, 218.031 304.984, 221.009 302.201 C 224.870 298.593, 229.050 292.574, 228.568 291.316 C 228.289 290.590, 228.732 290, 229.556 290 C 230.416 290, 231.305 288.726, 231.650 287 C 231.980 285.350, 232.531 283.999, 232.875 283.998 C 233.219 283.997, 233.594 282.647, 233.710 280.998 C 233.917 278.032, 233.864 277.999, 228.710 277.931 C 225.844 277.893, 222.150 277.672, 220.500 277.441 C 217.130 276.967, 210.813 276.708, 206.903 276.884 C 205.402 276.951, 202.787 278.476, 200.703 280.500 C 198.721 282.425, 196.177 284, 195.050 284 C 193.922 284, 193.004 284.337, 193.008 284.750 C 193.021 285.977, 198.178 288, 201.293 288 C 203.346 288, 204.339 288.581, 204.710 290 C 205.019 291.180, 206.074 292, 207.283 292 C 208.411 292, 209.085 292.248, 208.782 292.552 C 208.478 292.855, 205.415 293.117, 201.974 293.133 C 194.751 293.168, 191.796 291.182, 191.611 286.169 C 191.550 284.520, 191.275 283.207, 191 283.250 C 190.725 283.293, 189.343 283.001, 187.928 282.600 C 184.282 281.569, 181.784 276.857, 182.160 271.720 C 182.422 268.123, 182.169 267.457, 180.443 267.208 C 179.329 267.047, 178.091 267.243, 177.691 267.642 M 187.291 270.750 C 188.078 276.920, 188.870 278, 192.607 278 C 195.249 278, 196 277.588, 196 276.139 C 196 274.671, 195.447 274.383, 193.389 274.777 C 190.831 275.265, 190.792 275.190, 191.477 271.138 C 192.152 267.142, 192.084 267, 189.495 267 C 186.978 267, 186.843 267.230, 187.291 270.750 M 217.507 274.989 C 217.157 275.555, 217.558 275.723, 218.448 275.382 C 220.180 274.717, 220.497 274, 219.059 274 C 218.541 274, 217.843 274.445, 217.507 274.989 M 249.269 288.693 C 250.242 288.947, 251.592 288.930, 252.269 288.656 C 252.946 288.382, 252.150 288.175, 250.500 288.195 C 248.850 288.215, 248.296 288.439, 249.269 288.693 M 464.856 290.477 C 464.370 290.964, 460.561 291.791, 458.191 291.926 C 457.416 291.970, 457.189 292.510, 457.633 293.250 C 458.230 294.245, 458.072 294.248, 456.859 293.266 C 455.622 292.266, 455.333 292.313, 455.333 293.516 C 455.333 295.331, 459.619 295.532, 460.338 293.750 C 460.741 292.750, 460.858 292.750, 460.921 293.750 C 460.964 294.438, 461.675 295, 462.500 295 C 464.316 295, 464.491 293.365, 462.750 292.662 C 461.980 292.352, 462.150 292.128, 463.191 292.079 C 464.121 292.036, 465.160 291.550, 465.500 291 C 466.135 289.973, 465.708 289.626, 464.856 290.477 M 476.924 292.661 C 475.591 294.125, 475.127 294.958, 475.894 294.513 C 476.661 294.068, 478.573 293.740, 480.144 293.785 C 482.471 293.851, 482.979 293.462, 482.884 291.683 C 482.799 290.078, 482.650 289.949, 482.321 291.195 C 482.063 292.175, 481.272 292.658, 480.443 292.340 C 479.656 292.038, 479.260 291.388, 479.565 290.895 C 480.645 289.148, 479.314 290.038, 476.924 292.661 M 491.613 290.720 C 491.217 291.116, 489.302 291.304, 487.357 291.136 C 484.383 290.880, 483.877 291.123, 484.177 292.666 C 484.373 293.675, 485.200 294.512, 486.016 294.526 C 486.832 294.541, 488.027 294.883, 488.672 295.287 C 489.398 295.742, 490.413 294.879, 491.345 293.011 C 492.862 289.969, 492.928 289.405, 491.613 290.720 M 218.269 291.693 C 219.242 291.947, 220.592 291.930, 221.269 291.656 C 221.946 291.382, 221.150 291.175, 219.500 291.195 C 217.850 291.215, 217.296 291.439, 218.269 291.693 M 485.813 292.683 C 486.534 292.972, 487.397 292.936, 487.729 292.604 C 488.061 292.272, 487.471 292.036, 486.417 292.079 C 485.252 292.127, 485.015 292.364, 485.813 292.683" stroke="none" fill="black" fill-rule="evenodd"/>
</svg>