<svg xmlns="http://www.w3.org/2000/svg" width="612" height="408" viewBox="0 0 612 408" version="1.1">
	<path fill="#3d3630" d="M 265 97.181 C 256.467 101.578, 254.815 111.176, 260.616 122.641 C 262.401 126.170, 263.011 128.389, 262.372 129.028 C 261.834 129.566, 258.828 130.675, 255.693 131.492 C 246.006 134.015, 242.790 136.896, 235.764 149.350 C 231.634 156.671, 229.460 161.652, 229.383 163.976 C 229.319 165.914, 228.834 170.650, 228.305 174.500 C 227.776 178.350, 227.603 184.194, 227.922 187.487 L 228.500 193.474 232.301 194.088 C 234.391 194.425, 236.619 195.219, 237.251 195.851 C 237.883 196.483, 239.376 197, 240.570 197 C 242.409 197, 242.819 197.706, 243.262 201.633 C 243.549 204.181, 243.383 207.665, 242.892 209.376 C 242.401 211.087, 242 213.909, 242 215.647 C 242 218.726, 241.872 218.816, 236.999 219.153 C 232.989 219.431, 231.999 219.191, 231.999 217.941 C 232 217.084, 231.339 215.509, 230.532 214.441 C 229.724 213.374, 229.049 210.869, 229.032 208.875 C 228.976 202.468, 227.898 199, 225.963 199 C 224.651 199, 223.992 197.914, 223.486 194.918 C 223.107 192.673, 222.170 189.636, 221.404 188.168 C 220.639 186.701, 220.010 184.257, 220.006 182.738 C 219.997 178.813, 212.956 131.612, 212.288 131.004 C 211.746 130.510, 212.546 139.840, 213.681 147.250 C 214.146 150.283, 213.944 151, 212.628 151 C 211.733 151, 211 151.400, 211 151.889 C 211 152.378, 211.766 152.715, 212.701 152.639 C 214.146 152.521, 214.751 154.835, 216.717 168 C 217.990 176.525, 219.165 186.968, 219.328 191.206 L 219.624 198.911 214.062 199.206 L 208.500 199.500 208.199 204.163 C 207.923 208.430, 208.154 208.978, 210.911 210.606 C 213.212 211.966, 213.668 212.695, 212.840 213.693 C 211.334 215.507, 207.341 215.331, 206.607 213.418 C 206.273 212.548, 206 209.880, 206 207.490 C 206 205.099, 205.401 202.544, 204.669 201.812 C 203.937 201.080, 203.036 198.280, 202.668 195.591 C 202.299 192.902, 201.599 190.206, 201.112 189.601 C 200.625 188.995, 199.960 186.700, 199.635 184.500 C 198.091 174.059, 189.787 123.034, 189.057 119.500 C 187.383 111.401, 188.048 120.572, 190 132.500 C 192.376 147.018, 192.407 148, 190.500 148 C 189.675 148, 189 148.470, 189 149.044 C 189 149.618, 189.761 149.955, 190.691 149.794 C 191.909 149.582, 192.589 150.478, 193.125 153 C 195.012 161.883, 198.315 186.266, 198.577 193.247 C 198.907 202.019, 199.197 201.732, 189.500 202.239 L 184.500 202.500 184.188 206.285 C 183.925 209.461, 184.369 210.504, 186.938 212.758 C 190.651 216.016, 190.732 216.771, 187.500 218 C 184.673 219.075, 184.261 220.502, 186.528 221.372 C 187.961 221.922, 189.182 220.936, 192.231 216.763 C 193.740 214.698, 200 213.177, 200 214.875 C 200 215.494, 199.264 216, 198.364 216 C 196.990 216, 196.830 216.760, 197.364 220.750 C 198.751 231.115, 200.224 235.825, 202.242 236.353 C 204.387 236.914, 203.756 239, 201.441 239 C 200.648 239, 200 239.675, 200 240.500 C 200 241.728, 201.722 242, 209.500 242 C 214.725 242, 219.002 242.113, 219.003 242.250 C 219.005 242.387, 220.320 245.723, 221.926 249.663 L 224.845 256.825 222.780 263.163 C 221.111 268.289, 220.696 272.272, 220.608 284 C 220.463 303.435, 222.934 314.425, 229.641 324.176 C 233.135 329.255, 237.326 331, 246.033 331 C 255.977 331, 258.931 329.066, 263.502 319.562 C 265.426 315.563, 267 311.797, 267 311.194 C 267 310.592, 267.487 307.826, 268.083 305.049 L 269.166 300 276.460 300 C 282.047 300, 284.076 299.610, 285.128 298.336 C 286.368 296.832, 286.290 296.784, 284.316 297.836 C 281.644 299.260, 270 299.393, 270 298 C 270 297.450, 272.587 296.984, 275.750 296.965 C 282.536 296.923, 285.847 295.347, 287.472 291.388 C 288.626 288.577, 288.676 288.654, 289.342 294.289 C 290.136 301.006, 293.334 308.420, 296.347 310.530 C 297.501 311.339, 300.639 312, 303.321 312 C 307.431 312, 308.630 311.537, 310.953 309.050 C 314.237 305.535, 316.661 297.403, 317.593 286.776 C 318.174 280.162, 318.611 278.830, 320.636 277.503 C 321.998 276.611, 323 274.970, 323 273.632 C 323 271.096, 320.193 268, 317.894 268 C 315.483 268, 312 265.012, 312 262.943 C 312 261.874, 312.659 261, 313.465 261 C 315.565 261, 316.564 258.617, 318.499 249 C 321.918 232.008, 322.895 225.371, 322.947 218.783 C 322.997 212.400, 322.825 211.892, 319.471 208.538 C 317.530 206.597, 313.818 203.903, 311.221 202.551 C 308.625 201.199, 307.218 200.072, 308.095 200.047 C 308.972 200.021, 310.505 199.100, 311.500 198 C 313.576 195.706, 315.226 195.500, 317.939 197.194 C 319.445 198.134, 320.453 198.096, 322.676 197.016 C 324.229 196.261, 327.068 195.458, 328.984 195.231 C 337.252 194.255, 338.547 190.210, 331.606 187.048 C 328.742 185.744, 326.836 184.081, 326.132 182.273 C 325.538 180.748, 323.241 176.606, 321.026 173.069 C 318.812 169.532, 317 165.467, 317 164.036 C 317 162.606, 314.080 156.466, 310.510 150.393 C 305.161 141.290, 303.158 138.791, 299.113 136.170 C 296.404 134.415, 292.194 132.714, 289.717 132.375 C 282.913 131.442, 281.966 130.472, 285.218 127.764 C 288.736 124.834, 290.156 120.827, 289.385 116.004 C 288.780 112.225, 288.836 112.137, 292.057 111.822 C 296.839 111.354, 296.812 109.309, 291.998 107.383 C 289.566 106.410, 287.488 104.783, 286.984 103.459 C 285.560 99.711, 279.729 95.988, 274.361 95.397 C 270.520 94.975, 268.556 95.349, 265 97.181 M 184.500 101 C 184.160 101.550, 184.359 102, 184.941 102 C 185.523 102, 186 101.550, 186 101 C 186 100.450, 185.802 100, 185.559 100 C 185.316 100, 184.840 100.450, 184.500 101 M 186.195 105.500 C 186.215 107.150, 186.439 107.704, 186.693 106.731 C 186.947 105.758, 186.930 104.408, 186.656 103.731 C 186.382 103.054, 186.175 103.850, 186.195 105.500 M 207.543 105.931 C 207.226 106.443, 207.425 107.144, 207.984 107.490 C 208.543 107.835, 209 107.416, 209 106.559 C 209 104.802, 208.400 104.544, 207.543 105.931 M 261.567 107.766 C 261.255 108.078, 261 109.383, 261 110.667 C 261 112.852, 261.381 113, 267 113 C 272.671 113, 273 112.868, 273 110.594 C 273 108.735, 272.574 108.299, 271.130 108.676 C 270.101 108.945, 267.656 108.723, 265.697 108.182 C 263.738 107.641, 261.880 107.454, 261.567 107.766 M 187.158 112 C 187.158 113.375, 187.385 113.938, 187.662 113.250 C 187.940 112.563, 187.940 111.438, 187.662 110.750 C 187.385 110.063, 187.158 110.625, 187.158 112 M 209.195 112.500 C 209.215 114.150, 209.439 114.704, 209.693 113.731 C 209.947 112.758, 209.930 111.408, 209.656 110.731 C 209.382 110.054, 209.175 110.850, 209.195 112.500 M 284.237 115.807 C 282.933 117.270, 282.205 119.071, 282.519 120.058 C 282.839 121.068, 281.986 123.052, 280.442 124.886 C 278.039 127.742, 277.311 128.003, 271.661 128.032 C 266.549 128.058, 265.019 128.487, 262.673 130.550 C 258.493 134.227, 259.611 135.363, 267.564 135.520 C 271.379 135.596, 276.075 135.984, 278 136.382 C 280.951 136.993, 281.708 136.768, 282.824 134.949 C 283.987 133.053, 283.896 132.616, 282.074 131.339 C 279.626 129.624, 279.369 128, 281.545 128 C 282.395 128, 284.195 126.895, 285.545 125.545 C 287.422 123.669, 288 122.035, 288 118.604 C 288 113.120, 287.178 112.508, 284.237 115.807 M 210.079 119.583 C 210.127 120.748, 210.364 120.985, 210.683 120.188 C 210.972 119.466, 210.936 118.603, 210.604 118.271 C 210.272 117.939, 210.036 118.529, 210.079 119.583 M 210.775 124.250 C 210.533 124.938, 210.665 126.625, 211.068 128 C 211.705 130.175, 211.814 130.013, 211.900 126.750 C 212.002 122.942, 211.571 121.985, 210.775 124.250 M 109.407 147.514 C 106.216 154.106, 103.437 159.821, 103.231 160.213 C 103.026 160.605, 103.959 161.203, 105.304 161.540 L 107.750 162.154 102.397 172.327 C 99.452 177.922, 97.033 182.838, 97.021 183.250 C 97.010 183.662, 98.098 184, 99.441 184 C 100.784 184, 102.155 184.442, 102.490 184.983 C 103.069 185.920, 97.044 197.979, 96 197.974 C 95.486 197.971, 90 188.395, 90 187.499 C 90 187.225, 90.900 187, 92 187 C 94.728 187, 94.519 185.254, 91 178.660 C 88.149 173.317, 86.722 168.227, 89.285 172.546 C 89.953 173.671, 91.264 174.430, 92.197 174.233 C 93.641 173.927, 93.373 173.059, 90.402 168.414 C 87.255 163.494, 84.602 158.104, 81.839 151.014 C 80.927 148.675, 80.708 148.910, 78.121 155.014 C 76.609 158.581, 74.163 163.404, 72.686 165.730 C 69.570 170.638, 69.488 171, 71.500 171 C 73.438 171, 73.542 170.564, 69.571 179.115 L 66.142 186.500 69.071 186.813 C 70.682 186.986, 72 187.559, 72 188.088 C 72 188.617, 70.392 192.242, 68.427 196.144 C 64.890 203.169, 64.821 203.233, 61.427 202.682 C 59.542 202.376, 58 202.462, 58 202.874 C 58 203.552, 68.447 204.878, 110.500 209.540 C 144.345 213.292, 150.586 215.026, 166.569 225.119 C 171.996 228.545, 181.364 233.108, 179.944 231.633 C 178.168 229.786, 161.500 219.217, 156 216.449 C 149.542 213.199, 139.364 210.062, 134.856 209.932 L 132.500 209.865 135 208.736 C 136.375 208.115, 137.660 207.498, 137.856 207.364 C 138.052 207.231, 135.689 202.333, 132.606 196.482 C 129.523 190.630, 127 185.652, 127 185.421 C 127 185.189, 128.098 185, 129.441 185 C 130.784 185, 132.124 184.608, 132.420 184.130 C 132.716 183.651, 130.460 178.476, 127.406 172.630 L 121.855 162 125.428 162 C 129.557 162, 129.666 161.744, 127.082 158.115 C 126.027 156.634, 122.925 150.945, 120.187 145.474 L 115.210 135.527 109.407 147.514 M 245.261 137.772 C 241.682 140.533, 230.620 161.169, 231.745 162.986 C 233.051 165.096, 238.959 167.894, 242.231 167.952 C 245.319 168.006, 245.533 167.444, 246.452 156.884 C 246.769 153.245, 247.721 147.937, 248.567 145.087 C 249.989 140.297, 249.806 135.969, 248.183 136.022 C 247.807 136.034, 246.492 136.822, 245.261 137.772 M 292.150 140.157 C 288.925 143.311, 288.922 143.324, 289.450 151.407 C 289.741 155.858, 290.258 163.982, 290.599 169.461 C 291.121 177.860, 291.418 179.149, 292.491 177.682 C 293.191 176.724, 294.359 173.255, 295.088 169.971 C 295.816 166.687, 296.758 164, 297.181 164 C 297.603 164, 298.647 165.350, 299.500 167 C 301.288 170.458, 302.939 170.666, 308.500 168.137 C 314.259 165.517, 315.597 163.616, 314.074 160.220 C 311.104 153.599, 303.573 141.818, 300.839 139.518 C 296.985 136.275, 296.051 136.344, 292.150 140.157 M 539.178 147.432 C 537.351 150.966, 534.313 156.418, 532.428 159.550 C 530.543 162.681, 529 165.413, 529 165.621 C 529 165.830, 530.354 166, 532.009 166 L 535.018 166 530 176 L 524.982 186 528.491 186 C 530.421 186, 532 186.474, 532 187.054 C 532 188.156, 526.339 198.864, 524.963 200.365 C 524.527 200.841, 523.475 199.885, 522.625 198.242 C 520.951 195.005, 521.316 194, 524.167 194 C 526.533 194, 526.531 193.988, 523 188 C 519.437 181.957, 519.123 179.537, 522 180.290 C 524.620 180.975, 524.525 180.237, 521.401 175.639 C 519.971 173.535, 517.234 168.373, 515.317 164.169 L 511.833 156.524 508.858 163.512 C 507.221 167.355, 505.492 170.894, 505.016 171.375 C 504.525 171.871, 502.439 168.849, 500.200 164.400 L 496.251 156.550 492.312 164.378 L 488.373 172.206 485.962 167.127 C 484.636 164.334, 483.231 162.375, 482.840 162.774 C 482.449 163.174, 480.737 166.313, 479.036 169.750 C 476.300 175.280, 475.609 176, 473.029 176 C 470.675 176, 469.638 175.202, 467.644 171.859 L 465.175 167.718 462.224 173.553 L 459.273 179.389 456.887 175.707 C 454.210 171.578, 453.398 171.211, 452.551 173.750 C 452.230 174.713, 451.137 176.576, 450.123 177.891 L 448.279 180.281 446.424 177.141 C 445.404 175.413, 444.276 174, 443.917 174 C 443.254 174, 438 181.528, 438 182.479 C 438 183.202, 481.334 182.944, 493.251 182.150 C 501.829 181.578, 503.001 181.694, 503.001 183.115 C 503 184.003, 502.164 185.803, 501.141 187.115 C 500.119 188.427, 498.505 191.016, 497.554 192.870 L 495.825 196.239 499.412 195.820 C 501.386 195.590, 503 195.785, 503 196.253 C 503 196.879, 491.796 217.100, 490.544 218.734 C 490.445 218.863, 486.795 219.703, 482.432 220.600 C 478.070 221.497, 473.150 222.916, 471.500 223.754 C 467.641 225.713, 461.819 230.774, 462.769 231.342 C 463.171 231.583, 468.675 230.048, 475 227.932 C 495.876 220.949, 523.973 213.909, 543 210.894 C 547.125 210.240, 556.575 209.392, 564 209.010 C 571.425 208.628, 575.197 208.245, 572.383 208.158 L 567.266 208 562.781 201.250 C 560.314 197.537, 557.062 192.363, 555.553 189.750 L 552.810 185 556.874 185 C 561.697 185, 561.684 184.911, 555.311 174.373 C 552.940 170.454, 551 166.966, 551 166.623 C 551 166.281, 552.350 166, 554 166 C 555.650 166, 556.999 165.662, 556.998 165.250 C 556.997 164.838, 554.924 161.350, 552.391 157.500 C 549.859 153.650, 546.702 148.363, 545.376 145.750 C 544.051 143.137, 542.861 141.002, 542.733 141.004 C 542.605 141.006, 541.005 143.898, 539.178 147.432 M 230.083 172.049 C 228.495 179.451, 228.708 186.565, 230.571 188.429 C 234.590 192.448, 238.762 188.814, 240.538 179.748 C 241.211 176.311, 242.065 172.773, 242.436 171.883 C 242.965 170.617, 242.030 169.913, 238.118 168.633 C 235.371 167.735, 232.684 167, 232.145 167 C 231.606 167, 230.678 169.272, 230.083 172.049 M 310 169.121 C 308.075 170.153, 306.106 171.129, 305.624 171.290 C 303.237 172.091, 313.527 187.187, 318.056 189.529 C 320.886 190.993, 321.361 190.994, 323.576 189.542 C 326.955 187.328, 326.639 185.513, 321.489 177.523 C 319.015 173.686, 316.737 169.748, 316.428 168.773 C 315.744 166.618, 314.550 166.682, 310 169.121 M 299.014 179.344 C 299.032 190.411, 299.546 192, 303.102 192 C 304.680 192, 307.973 191.465, 310.419 190.810 L 314.868 189.621 312.064 186.060 C 310.523 184.102, 307.845 180.188, 306.114 177.362 C 304.383 174.537, 302.074 171.991, 300.983 171.706 C 299.125 171.220, 299.001 171.699, 299.014 179.344 M 243.384 174 C 241.243 178.815, 240.776 185.570, 242.486 186.988 C 243.345 187.702, 244.282 188.051, 244.568 187.765 C 244.854 187.479, 244.955 183.702, 244.792 179.372 C 244.538 172.626, 244.336 171.857, 243.384 174 M 294.554 187.473 C 293.532 190.478, 291.753 193.817, 290.598 194.894 C 287.347 197.928, 273.406 200.358, 262.737 199.749 C 254.336 199.270, 253.657 199.060, 250.438 195.939 C 248.563 194.123, 246.803 192.864, 246.525 193.141 C 246.248 193.419, 245.903 195.863, 245.760 198.573 L 245.500 203.500 251 205.433 C 258.108 207.931, 286.323 208.380, 292 206.085 C 298.879 203.305, 299.196 202.638, 298.443 192.542 C 298.072 187.569, 297.463 183.165, 297.090 182.755 C 296.716 182.346, 295.575 184.469, 294.554 187.473 M 304.250 193.732 C 299.607 194.150, 299.522 194.238, 301.035 197.066 C 302.361 199.543, 305.631 199.523, 309.750 197.011 C 313.520 194.713, 313.986 192.923, 310.750 193.175 C 309.512 193.271, 306.587 193.522, 304.250 193.732 M 225 203.382 C 225 205.307, 225.450 207.160, 226 207.500 C 226.594 207.867, 227 206.697, 227 204.618 C 227 202.693, 226.550 200.840, 226 200.500 C 225.406 200.133, 225 201.303, 225 203.382 M 213.250 201.800 C 209.284 202.094, 209 202.312, 209 205.057 C 209 207.740, 209.302 208, 212.418 208 C 217.336 208, 219 207.103, 219 204.452 C 219 201.593, 218.592 201.405, 213.250 201.800 M 202.844 207.161 C 203.143 210.298, 203.464 210.922, 204.149 209.698 C 205.083 208.029, 204.307 203, 203.115 203 C 202.748 203, 202.626 204.872, 202.844 207.161 M 186 206.977 C 186 210.575, 187.197 211.214, 192 210.175 C 194.846 209.559, 195.500 208.958, 195.500 206.959 C 195.500 204.735, 195.046 204.471, 190.750 204.195 C 186.044 203.893, 186 203.919, 186 206.977 M 224 212 C 224 213.111, 224.667 214, 225.500 214 C 226.333 214, 227 213.111, 227 212 C 227 210.889, 226.333 210, 225.500 210 C 224.667 210, 224 210.889, 224 212 M 202 214 C 202 215.111, 202.667 216, 203.500 216 C 204.333 216, 205 215.111, 205 214 C 205 212.889, 204.333 212, 203.500 212 C 202.667 212, 202 212.889, 202 214 M 213.750 216.051 C 211.749 218.943, 211 221.249, 211 224.513 L 211 229 215.609 229 L 220.219 229 219.694 225.750 C 219.405 223.963, 218.847 220.588, 218.453 218.250 C 217.797 214.355, 217.915 214, 219.868 214 C 221.041 214, 222 213.550, 222 213 C 222 212.450, 220.762 212.017, 219.250 212.038 C 217.194 212.066, 215.806 213.079, 213.750 216.051 M 94.780 222.097 C 93.526 223.801, 91.238 225.850, 89.696 226.651 L 86.893 228.107 92.196 233.989 L 97.500 239.872 109.381 239.936 L 121.262 240 120.677 236.394 C 119.801 231, 117.607 228.391, 112.292 226.424 C 109.656 225.449, 105.724 223.380, 103.553 221.826 C 98.567 218.256, 97.585 218.287, 94.780 222.097 M 281.574 229.050 C 281.191 232.438, 281.177 235.500, 281.544 235.855 C 282.191 236.481, 291 227.210, 291 225.902 C 291 225.544, 289.762 225, 288.250 224.695 C 286.738 224.390, 284.773 223.859, 283.885 223.515 C 282.546 222.997, 282.152 223.940, 281.574 229.050 M 294.837 228.782 C 292.910 231.072, 292.496 232.514, 292.812 235.830 C 293.177 239.650, 293.448 240, 296.046 240 C 299.601 240, 299.718 239.787, 300.147 232.516 C 300.567 225.395, 298.757 224.123, 294.837 228.782 M 505.318 230.402 C 499.281 233.427, 494 237.520, 494 239.174 C 494 239.628, 501.200 240, 510 240 C 519.114 240, 526 239.603, 526 239.077 C 526 237.261, 520.888 232.125, 516.554 229.585 C 514.129 228.163, 511.999 227.068, 511.822 227.152 C 511.645 227.235, 508.718 228.698, 505.318 230.402 M 239.250 233.732 C 235.514 234.069, 235 234.411, 235 236.557 C 235 238.967, 235.123 239, 244 239 L 253 239 253 236 C 253 233.063, 252.900 233.004, 248.250 233.175 C 245.637 233.271, 241.588 233.522, 239.250 233.732 M 257 236 L 257 239 263.918 239 C 272.438 239, 274 238.441, 274 235.393 C 274 233.057, 273.799 233, 265.500 233 L 257 233 257 236 M 210.250 235.360 C 206.213 237.360, 207.506 239.141, 212.750 238.805 C 216.803 238.545, 217.547 238.170, 217.820 236.250 C 218.089 234.351, 217.699 234.019, 215.320 234.123 C 213.769 234.190, 211.488 234.747, 210.250 235.360 M 225.750 234.728 C 222.840 235.033, 222 235.555, 222 237.060 C 222 238.657, 222.708 239, 226 239 C 229.600 239, 230 238.750, 230 236.500 C 230 235.125, 229.887 234.076, 229.750 234.168 C 229.613 234.261, 227.813 234.513, 225.750 234.728 M 287.571 237.250 C 287.370 237.938, 286.219 244.575, 285.013 252 C 283.807 259.425, 282.431 267.525, 281.955 270 C 281.237 273.732, 281.380 274.720, 282.788 275.788 C 285.037 277.494, 285.265 276.784, 287.861 260 C 291.423 236.960, 291.493 236, 289.597 236 C 288.684 236, 287.773 236.563, 287.571 237.250 M 419.500 245.406 C 399.603 252.250, 400.674 252.644, 421.731 246.227 C 428.458 244.177, 433.971 242.162, 433.981 241.750 C 434.011 240.571, 432.298 241.004, 419.500 245.406 M 251 242.980 C 251 243.518, 252.825 244.890, 255.055 246.028 C 257.285 247.165, 260.537 250.122, 262.282 252.598 C 265.157 256.677, 265.574 256.936, 266.727 255.358 C 268.572 252.835, 268.479 252.625, 263.065 247.067 C 258.956 242.848, 257.533 242, 254.565 242 C 252.604 242, 251 242.441, 251 242.980 M 223.180 247.250 C 223.468 249.278, 224.132 249.530, 229.898 249.802 C 236.678 250.121, 238.466 249.377, 237.426 246.667 C 236.913 245.332, 235.400 245, 229.823 245 C 223.175 245, 222.875 245.102, 223.180 247.250 M 272.176 246.224 C 271.529 246.871, 270.986 247.873, 270.969 248.450 C 270.952 249.028, 267.633 256.246, 263.593 264.490 C 256.817 278.319, 255.673 282, 258.153 282 C 258.669 282, 262.332 275.363, 266.293 267.250 C 276.677 245.985, 276.135 247.357, 274.641 246.117 C 273.719 245.352, 273.017 245.383, 272.176 246.224 M 273.407 255.513 C 272.829 257.817, 273.193 262.240, 274.662 270.750 C 275.355 274.770, 277.997 275.165, 278.007 271.250 C 278.018 266.458, 275.688 253, 274.846 253 C 274.402 253, 273.754 254.131, 273.407 255.513 M 242.912 258.094 C 238.261 263.073, 235.893 272.476, 235.862 286.087 C 235.834 298.037, 236.847 303.820, 240.076 310.150 C 242.254 314.419, 246.432 318, 249.235 318 C 252.655 318, 257.521 311.982, 259.903 304.807 C 262.058 298.316, 262.237 298.101, 265.813 297.725 C 268.600 297.431, 268.151 297.295, 263.973 297.168 C 259.382 297.028, 257.900 296.501, 255.223 294.056 C 252.295 291.383, 252.001 290.580, 252.015 285.306 C 252.024 281.976, 253.090 276.088, 254.515 271.500 C 257.627 261.481, 257.615 260.963, 254.195 257.687 C 250.377 254.029, 246.582 254.166, 242.912 258.094 M 296.381 256.449 C 295.227 259.456, 295.381 266.256, 296.613 266.686 C 297.225 266.900, 298.293 265.707, 298.986 264.034 C 300.040 261.489, 299.990 260.465, 298.681 257.762 C 297.297 254.902, 297.033 254.751, 296.381 256.449 M 248.122 257.500 C 248.080 258.600, 248.934 262.650, 250.019 266.500 C 251.713 272.511, 251.926 272.864, 251.528 269 C 250.993 263.819, 248.235 254.507, 248.122 257.500 M 481.399 257.540 C 473.644 258.246, 463.484 259.538, 458.822 260.411 C 448.359 262.372, 449.214 262.428, 448.748 259.750 C 448.376 257.608, 448.300 257.635, 447.172 260.331 C 445.880 263.419, 443.705 263.465, 443.153 260.417 C 442.962 259.363, 442.345 258.050, 441.782 257.500 C 441.085 256.820, 440.960 257.645, 441.392 260.082 L 442.027 263.663 431.764 265.954 C 420.990 268.358, 399.593 274.908, 393.863 277.556 C 389.526 279.560, 391.898 279.008, 406 274.730 C 436.940 265.344, 469.440 259.597, 498.935 258.297 C 511.567 257.740, 514.313 257.401, 510.500 256.871 C 503.621 255.914, 497.812 256.048, 481.399 257.540 M 131.500 271.903 C 149.475 278.009, 158.168 281.274, 169.368 286.124 C 179.639 290.571, 178.734 288.633, 168.319 283.876 L 159.300 279.756 161.386 275.948 C 164.178 270.850, 162.768 269.863, 158.542 273.959 L 155.114 277.282 154.785 271.891 C 154.458 266.545, 153.788 266.723, 152.497 272.500 L 151.826 275.500 149.663 272.968 C 148.473 271.575, 146.628 269.775, 145.563 268.968 C 143.853 267.673, 143.690 267.676, 144.176 269 C 146.251 274.659, 146.273 275.319, 144.365 274.580 C 140.591 273.120, 116.468 266.002, 115.500 266.064 C 114.950 266.099, 122.150 268.727, 131.500 271.903 M 243.873 275.653 C 241.978 277.936, 241.524 291.736, 243.236 295 C 244.266 296.965, 245.452 297.566, 248.774 297.808 L 253 298.115 250.889 294.536 C 249.135 291.564, 248.855 289.814, 249.235 284.228 C 249.487 280.528, 250.035 276.712, 250.453 275.750 C 251.082 274.304, 250.695 274, 248.229 274 C 246.588 274, 244.627 274.744, 243.873 275.653 M 297.236 276 C 297.465 277.192, 299.594 277.558, 307.610 277.783 C 316.077 278.021, 318.049 277.780, 319.897 276.283 C 322.036 274.550, 321.744 274.500, 309.523 274.500 C 298.885 274.500, 296.993 274.731, 297.236 276 M 297.579 284.750 C 298.923 296.560, 301.495 303, 304.868 303 C 307.682 303, 309.765 299.999, 311.455 293.511 C 314.146 283.181, 313.037 275.978, 309.797 282.738 C 307.930 286.634, 305.464 286.771, 304.168 283.051 C 303.297 280.554, 302.553 280, 300.071 280 C 297.044 280, 297.039 280.009, 297.579 284.750 M 260.743 283.590 C 260.334 283.999, 260 285.096, 260 286.029 C 260 287.381, 261.322 287.859, 266.543 288.394 C 273.794 289.137, 275 288.787, 275 285.941 C 275 284.354, 274.294 284, 271.125 284 C 268.994 284, 265.953 283.741, 264.368 283.424 C 262.783 283.107, 261.152 283.182, 260.743 283.590 M 422.012 284.977 C 421.182 286.529, 421.246 286.843, 422.310 286.434 C 423.056 286.148, 423.667 285.258, 423.667 284.457 C 423.667 282.498, 423.273 282.622, 422.012 284.977 M 430 283.930 C 430 284.442, 428.988 285.056, 427.750 285.294 L 425.500 285.728 427.809 285.864 C 429.079 285.939, 429.840 286.450, 429.500 287 C 429.139 287.583, 430.156 288, 431.941 288 C 433.623 288, 435 287.523, 435 286.941 C 435 286.359, 435.450 286.160, 436 286.500 C 436.550 286.840, 437 286.641, 437 286.059 C 437 285.477, 436.298 285, 435.441 285 C 434.460 285, 434.160 284.537, 434.633 283.750 C 435.071 283.021, 434.598 283.126, 433.500 284 C 432.402 284.874, 431.929 284.979, 432.367 284.250 C 432.840 283.463, 432.540 283, 431.559 283 C 430.702 283, 430 283.419, 430 283.930" stroke="none" fill="black" fill-rule="evenodd"/>
	<path fill="#a67c5b" d="M 266.500 96.505 C 261.768 98.181, 258.407 102.015, 257.519 106.750 C 256.677 111.238, 257.506 115.239, 260.737 122.271 C 263.899 129.154, 263.438 129.933, 255 131.977 C 245.938 134.171, 243.028 136.800, 235.926 149.208 C 231.444 157.038, 229.471 161.563, 229.289 164.426 C 227.420 193.854, 227.427 193.911, 233 194.016 C 234.375 194.042, 236.374 194.724, 237.441 195.532 C 238.509 196.339, 240.309 197.002, 241.441 197.004 C 243.263 197.007, 243.495 197.612, 243.459 202.254 C 243.436 205.139, 243.052 210.047, 242.605 213.161 L 241.792 218.821 236.941 219.161 C 232.479 219.473, 232.039 219.300, 231.465 217.010 C 231.122 215.641, 230.438 214.271, 229.946 213.967 C 228.806 213.262, 228.169 209.781, 228.074 203.750 C 228.011 199.729, 227.700 199, 226.045 199 C 224.587 199, 223.916 198.071, 223.405 195.343 C 223.027 193.332, 222.161 190.611, 221.479 189.297 L 220.240 186.908 219.586 189.514 C 219.226 190.947, 219.213 193.619, 219.557 195.451 L 220.182 198.783 214.091 199.489 L 208 200.196 208 204.500 C 208 208.202, 208.423 209.072, 211.028 210.721 C 213.895 212.536, 213.962 212.723, 212.278 214.209 C 211.019 215.320, 209.843 215.528, 208.250 214.921 C 206.367 214.204, 206 213.314, 206 209.466 C 206 206.938, 205.449 203.886, 204.775 202.684 C 203.644 200.668, 203.070 198.625, 200.089 186 C 199.504 183.525, 198.095 175.425, 196.957 168 C 193.288 144.063, 188.831 117.512, 188.410 117.083 C 187.677 116.338, 188.003 119.298, 190 131.500 C 192.389 146.102, 192.447 148, 190.500 148 C 189.675 148, 189 148.408, 189 148.906 C 189 149.405, 189.843 149.592, 190.874 149.323 C 192.455 148.909, 192.855 149.589, 193.431 153.666 C 193.806 156.325, 195.034 163.900, 196.158 170.500 C 197.282 177.100, 198.340 186.100, 198.509 190.500 C 198.679 194.900, 198.971 199.175, 199.159 200 C 199.431 201.196, 198.150 201.560, 192.836 201.794 C 189.010 201.962, 185.724 202.628, 185.119 203.357 C 183.317 205.528, 184.978 212.033, 187.645 213.248 C 188.940 213.838, 190 214.662, 190 215.079 C 190 216.983, 188.659 219, 187.393 219 C 186.627 219, 186 219.450, 186 220 C 186 222.151, 189.027 220.832, 191.485 217.608 C 194.255 213.978, 199.502 212.259, 200.430 214.679 C 200.745 215.498, 200.189 216, 198.969 216 C 196.575 216, 196.567 216.308, 198.649 227.174 C 199.942 233.921, 200.721 235.955, 202.155 236.330 C 204.631 236.978, 204.513 239, 202 239 C 200.889 239, 200 239.667, 200 240.500 C 200 241.728, 201.725 242, 209.525 242 C 220.264 242, 218.743 240.852, 223.011 252.175 C 224.713 256.691, 224.706 257.083, 222.800 263.675 C 220.093 273.044, 219.785 295.467, 222.226 305.550 C 224.674 315.663, 228.267 323.149, 232.423 326.798 C 236.903 330.732, 239.201 331.327, 247.981 330.831 C 254.031 330.489, 255.343 330.053, 258.093 327.469 C 262.137 323.669, 265.537 316.426, 267.584 307.250 L 269.201 300 276.350 299.804 L 283.500 299.608 276.750 299.258 C 269.408 298.878, 267.338 297.003, 274.250 296.994 C 281.942 296.984, 285.635 295.378, 287.244 291.344 L 288.687 287.728 289.339 293.971 C 290.101 301.262, 294.013 309.229, 297.642 310.883 C 302.255 312.985, 307.574 312.272, 310.715 309.131 C 314.274 305.572, 315.688 301.152, 317.154 289 C 318.151 280.744, 318.639 279.220, 320.882 277.360 C 323.110 275.511, 323.329 274.842, 322.482 272.463 C 321.457 269.587, 320.621 268.951, 315.250 266.961 C 311.503 265.573, 310.646 261.564, 313.878 260.539 C 315.057 260.165, 316.143 258.371, 316.796 255.721 C 319.475 244.841, 322.128 229.569, 322.668 221.908 C 323.242 213.776, 323.165 213.349, 320.548 210.239 C 319.054 208.464, 315.444 205.583, 312.525 203.837 L 307.218 200.663 310.622 198.352 C 313.384 196.478, 314.849 196.155, 318.382 196.639 C 321.127 197.015, 322.992 196.823, 323.427 196.118 C 323.807 195.503, 325.637 195, 327.494 195 C 336.278 195, 338.746 190.774, 331.971 187.333 C 329.136 185.893, 326.887 183.542, 324.378 179.394 C 318.944 170.408, 317.001 166.303, 316.992 163.790 C 316.988 162.530, 314.176 156.788, 310.742 151.029 C 303.403 138.717, 297.458 133.407, 289.878 132.394 C 282.782 131.446, 282.171 130.675, 285.708 127.138 C 289.028 123.818, 290.089 120.322, 289.283 115.358 C 288.792 112.330, 288.952 112.126, 292.054 111.822 C 296.725 111.365, 296.720 109.628, 292.041 107.518 C 289.687 106.457, 287.195 104.300, 286.019 102.308 C 283.877 98.677, 277.317 95.028, 273 95.066 C 271.625 95.078, 268.700 95.725, 266.500 96.505 M 184.500 101 C 184.160 101.550, 184.359 102, 184.941 102 C 185.523 102, 186 101.550, 186 101 C 186 100.450, 185.802 100, 185.559 100 C 185.316 100, 184.840 100.450, 184.500 101 M 186.079 105.583 C 186.127 106.748, 186.364 106.985, 186.683 106.188 C 186.972 105.466, 186.936 104.603, 186.604 104.271 C 186.272 103.939, 186.036 104.529, 186.079 105.583 M 207.543 105.931 C 207.226 106.443, 207.425 107.144, 207.984 107.490 C 208.543 107.835, 209 107.416, 209 106.559 C 209 104.802, 208.400 104.544, 207.543 105.931 M 261.667 107.667 C 261.300 108.033, 261 109.383, 261 110.667 C 261 112.872, 261.357 113, 267.494 113 C 273.115 113, 273.951 112.765, 273.715 111.250 C 273.208 107.997, 271.963 106.786, 270.432 108.057 C 269.401 108.912, 268.223 108.925, 265.872 108.105 C 262.126 106.799, 262.495 106.838, 261.667 107.667 M 209.079 112.583 C 209.127 113.748, 209.364 113.985, 209.683 113.188 C 209.972 112.466, 209.936 111.603, 209.604 111.271 C 209.272 110.939, 209.036 111.529, 209.079 112.583 M 284.617 115.088 C 283.581 116.096, 282.614 118.008, 282.469 119.336 C 281.781 125.603, 278.587 127.985, 270.816 128.032 C 266.597 128.057, 264.913 128.580, 262.656 130.565 C 258.702 134.042, 259.712 136.472, 264.768 135.646 C 266.820 135.311, 271.287 135.520, 274.692 136.111 C 280.311 137.086, 281.079 137.004, 282.981 135.233 L 285.076 133.280 282.538 131.617 C 279.690 129.751, 279.210 128, 281.545 128 C 282.395 128, 284.195 126.895, 285.545 125.545 C 287.422 123.669, 288 122.035, 288 118.604 C 288 113.373, 287.217 112.558, 284.617 115.088 M 210.079 119.583 C 210.127 120.748, 210.364 120.985, 210.683 120.188 C 210.972 119.466, 210.936 118.603, 210.604 118.271 C 210.272 117.939, 210.036 118.529, 210.079 119.583 M 210.684 124.750 C 210.446 125.162, 210.612 126.400, 211.055 127.500 C 211.757 129.246, 211.868 129.151, 211.930 126.750 C 211.999 124.037, 211.531 123.286, 210.684 124.750 M 212.350 136 C 214.323 150.646, 214.329 151, 212.629 151 C 211.733 151, 211 151.400, 211 151.889 C 211 152.378, 211.766 152.715, 212.702 152.639 C 214.142 152.521, 214.734 154.721, 216.565 167 C 218.974 183.158, 220.148 188.322, 219.519 180 C 218.919 172.056, 213.011 132.669, 212.324 132.035 C 212.005 131.741, 212.016 133.525, 212.350 136 M 109.422 147.673 C 106.215 154.178, 103.439 159.784, 103.252 160.131 C 103.066 160.478, 104.057 161.049, 105.456 161.400 L 107.999 162.038 102.760 172.269 C 99.878 177.896, 97.366 182.838, 97.177 183.250 C 96.988 183.662, 98.146 184, 99.750 184 C 104.673 184, 104.695 183.828, 98.377 194.744 C 97.345 196.528, 96.251 197.990, 95.946 197.994 C 94.898 198.006, 89.942 187.903, 90.529 186.952 C 90.853 186.429, 91.766 186, 92.559 186 C 94.505 186, 94.485 185.922, 90.559 178.263 C 87.304 171.913, 86.660 168.446, 89.442 172.252 C 90.658 173.914, 93 174.673, 93 173.404 C 93 173.077, 92.098 171.542, 90.995 169.993 C 89.892 168.444, 87.157 163.245, 84.916 158.440 L 80.841 149.702 75.671 160.101 C 71.147 169.199, 70.726 170.541, 72.308 170.827 C 73.302 171.007, 73.974 171.457, 73.800 171.827 C 73.627 172.197, 72.026 175.300, 70.243 178.721 C 68.459 182.143, 67 185.406, 67 185.971 C 67 186.537, 68.355 187, 70.011 187 L 73.022 187 68.949 195.102 C 64.918 203.118, 64.839 203.200, 61.437 202.803 C 59.547 202.582, 58 202.761, 58 203.201 C 58 203.640, 59.398 204, 61.107 204 C 62.816 204, 71.253 204.870, 79.857 205.934 C 88.461 206.997, 100.450 208.371, 106.500 208.987 C 141.697 212.569, 150.814 215.044, 168.058 225.693 C 171.665 227.921, 175.715 230.061, 177.058 230.450 C 179.519 231.163, 170.005 224.954, 166.750 223.724 C 165.787 223.360, 165 222.627, 165 222.093 C 165 220.325, 149.627 213.446, 141.500 211.577 C 130.615 209.075, 129.898 208.727, 134.266 208.068 L 138.032 207.500 135.914 203.500 C 134.749 201.300, 132.023 196.261, 129.857 192.303 L 125.918 185.106 129.364 184.459 L 132.811 183.813 127.417 173.293 C 122.339 163.390, 121.553 160.231, 124.442 161.339 C 125.124 161.601, 126.287 161.441, 127.026 160.984 C 128.104 160.318, 128.124 159.855, 127.129 158.656 C 126.446 157.833, 123.494 152.364, 120.569 146.503 L 115.252 135.846 109.422 147.673 M 244.862 138.255 C 241.871 140.801, 231 159.712, 231 162.370 C 231 164.559, 238.993 168.250, 242.786 167.813 C 245.431 167.508, 245.519 167.283, 246.261 159 C 246.680 154.325, 247.713 148.108, 248.558 145.185 C 249.979 140.266, 249.805 135.993, 248.183 136.005 C 247.807 136.008, 246.313 137.020, 244.862 138.255 M 292.472 139.595 L 288.831 143.236 289.436 152.868 C 290.808 174.735, 291.215 179, 291.926 179 C 292.711 179, 296 168.114, 296 165.515 C 296 163.016, 297.845 163.799, 299.500 167 C 300.353 168.650, 301.827 169.996, 302.776 169.990 C 305.382 169.975, 314.626 165.423, 315.209 163.866 C 315.491 163.115, 313.421 158.429, 310.611 153.453 C 303.570 140.990, 302.668 139.750, 299.175 137.727 L 296.113 135.954 292.472 139.595 M 539.019 148.144 C 537.104 152.051, 534.093 157.442, 532.326 160.124 L 529.115 165 532.057 165 C 533.676 165, 535 165.507, 535 166.126 C 535 167.395, 529.561 178.361, 527.405 181.438 C 525.095 184.737, 525.682 186, 529.527 186 L 533.054 186 529.431 193 C 527.438 196.850, 525.452 200.220, 525.017 200.489 C 524.023 201.104, 522.454 199.183, 521.555 196.250 C 520.960 194.311, 521.230 194, 523.506 194 L 526.147 194 523.185 188.750 C 521.556 185.863, 519.898 182.426, 519.501 181.114 C 518.837 178.920, 518.995 178.782, 521.463 179.401 L 524.148 180.075 521.196 175.785 C 519.572 173.425, 516.813 168.346, 515.064 164.497 L 511.883 157.500 508.105 165.500 L 504.327 173.500 500.322 165.590 C 495.867 156.793, 496.338 156.719, 491.323 166.992 L 488.145 173.500 485.939 168.250 C 484.726 165.363, 483.440 163, 483.082 163 C 482.724 163, 481.142 165.715, 479.566 169.033 C 476.411 175.676, 476.613 175.458, 472.809 176.366 C 470.441 176.931, 469.822 176.511, 467.646 172.863 L 465.175 168.718 462.198 174.604 L 459.222 180.490 457.012 176.745 C 455.797 174.685, 454.480 173, 454.085 173 C 453.691 173, 452.328 174.851, 451.057 177.113 L 448.745 181.225 446.774 178.113 C 445.690 176.401, 444.482 175, 444.090 175 C 443.174 175, 439 180.621, 439 181.853 C 439 182.879, 482.454 182.501, 490 181.409 C 492.475 181.051, 495.063 180.738, 495.750 180.713 C 496.438 180.687, 497 180.329, 497 179.917 C 497 179.504, 496.438 178.899, 495.750 178.572 C 495.063 178.245, 495.491 178.160, 496.702 178.383 C 497.913 178.605, 499.151 178.273, 499.452 177.644 C 499.848 176.817, 500.161 176.846, 500.583 177.750 C 500.904 178.438, 501.804 179, 502.583 179 C 503.363 179, 504 179.654, 504 180.453 C 504 182.071, 501.891 187.223, 500.910 188 C 500.563 188.275, 499.530 189.963, 498.614 191.750 L 496.949 195 500.453 195 C 503.907 195, 503.939 195.039, 502.729 197.750 C 502.053 199.262, 500.021 202.975, 498.214 206 C 496.406 209.025, 494.156 213.168, 493.214 215.207 C 491.674 218.537, 490.940 219.029, 486 220.042 C 475.244 222.246, 470.466 224.116, 466.500 227.673 C 461.659 232.014, 461.763 232.002, 480.500 226.063 C 512.011 216.074, 545.541 209, 561.378 209 C 564.470 209, 567 208.771, 567 208.491 C 567 208.211, 564.604 204.273, 561.676 199.741 C 551.584 184.120, 551.752 184.632, 556.699 184.546 C 558.143 184.521, 559.480 184.038, 559.671 183.473 C 559.862 182.908, 557.764 178.877, 555.009 174.514 C 552.254 170.151, 550 166.226, 550 165.791 C 550 165.356, 551.350 165, 553 165 C 554.650 165, 556 164.756, 556 164.457 C 556 164.158, 554.182 161.121, 551.960 157.707 C 549.738 154.293, 546.800 149.137, 545.431 146.250 C 544.062 143.363, 542.842 141.009, 542.721 141.021 C 542.599 141.032, 540.933 144.238, 539.019 148.144 M 230.939 168.115 C 229.233 171.302, 228.504 185.204, 229.905 187.822 C 231.489 190.783, 235.362 190.626, 237.820 187.501 C 239.441 185.441, 241.464 178.057, 242.324 171.065 C 242.428 170.213, 241.282 169.370, 239.500 168.989 C 237.850 168.636, 235.506 167.813, 234.292 167.161 C 232.390 166.139, 231.925 166.271, 230.939 168.115 M 310 169.057 C 308.075 170.070, 306.074 171.063, 305.553 171.265 C 304.281 171.757, 308.366 179.474, 312.736 184.833 C 317.432 190.592, 320.134 191.797, 323.459 189.619 C 324.857 188.703, 326 187.253, 326 186.396 C 326 184.249, 315.737 167.076, 314.500 167.154 C 313.950 167.188, 311.925 168.045, 310 169.057 M 299.014 179.250 C 299.021 183.787, 299.313 188.569, 299.663 189.875 C 300.261 192.110, 300.640 192.220, 306.053 191.729 C 315.212 190.898, 315.810 190.158, 311.494 184.993 C 309.493 182.598, 306.987 178.935, 305.925 176.853 C 304.255 173.579, 301.453 171, 299.566 171 C 299.255 171, 299.006 174.713, 299.014 179.250 M 243.288 173.601 C 242.628 174.757, 241.956 178.070, 241.794 180.964 C 241.566 185.041, 241.883 186.472, 243.202 187.327 C 244.138 187.933, 245.083 188.220, 245.302 187.965 C 245.520 187.709, 245.427 183.900, 245.093 179.500 C 244.572 172.613, 244.321 171.792, 243.288 173.601 M 294.627 187.250 C 293.614 190.137, 292.085 193.292, 291.229 194.260 C 287.883 198.043, 270.596 200.930, 259.550 199.550 C 255.286 199.017, 253.032 198.089, 250.411 195.788 C 248.498 194.108, 246.790 192.906, 246.616 193.117 C 245.685 194.244, 244.360 201.964, 244.938 202.899 C 245.310 203.501, 248.063 204.760, 251.057 205.698 C 259.112 208.220, 286.629 208.222, 293.162 205.701 C 295.726 204.711, 298.109 203.159, 298.457 202.250 C 299.219 200.265, 297.993 182, 297.098 182 C 296.752 182, 295.640 184.363, 294.627 187.250 M 306 193.280 C 302.975 193.840, 300.351 194.417, 300.169 194.563 C 299.987 194.709, 300.368 195.819, 301.016 197.029 C 301.997 198.862, 302.783 199.135, 305.721 198.658 C 309.530 198.040, 313 195.507, 313 193.345 C 313 192.605, 312.663 192.059, 312.250 192.131 C 311.837 192.204, 309.025 192.721, 306 193.280 M 225 204 C 225 206.200, 225.450 208, 226 208 C 226.550 208, 227 206.200, 227 204 C 227 201.800, 226.550 200, 226 200 C 225.450 200, 225 201.800, 225 204 M 209 204.691 L 209 208.110 213.750 207.805 C 218.293 207.513, 218.500 207.370, 218.500 204.500 C 218.500 201.604, 218.336 201.496, 213.750 201.387 L 209 201.273 209 204.691 M 202.393 204.582 C 202.727 205.452, 203.014 207.364, 203.030 208.832 C 203.057 211.195, 203.182 211.292, 204.121 209.678 C 205.341 207.578, 204.487 203, 202.874 203 C 202.276 203, 202.059 203.712, 202.393 204.582 M 186 207.445 C 186 210.545, 186.312 211, 188.435 211 C 193.026 211, 196.166 209.192, 195.819 206.748 C 195.547 204.830, 194.802 204.455, 190.750 204.195 L 186 203.890 186 207.445 M 569.750 208.706 C 570.987 208.944, 573.013 208.944, 574.250 208.706 C 575.487 208.467, 574.475 208.272, 572 208.272 C 569.525 208.272, 568.513 208.467, 569.750 208.706 M 224 212 C 224 213.111, 224.667 214, 225.500 214 C 226.333 214, 227 213.111, 227 212 C 227 210.889, 226.333 210, 225.500 210 C 224.667 210, 224 210.889, 224 212 M 202 214 C 202 215.111, 202.667 216, 203.500 216 C 204.333 216, 205 215.111, 205 214 C 205 212.889, 204.333 212, 203.500 212 C 202.667 212, 202 212.889, 202 214 M 216 212.894 C 216 213.386, 214.688 215.193, 213.085 216.909 C 210.430 219.751, 210.231 220.452, 210.849 224.765 L 211.527 229.500 215.877 229.607 L 220.226 229.714 219.556 223.790 C 219.187 220.531, 218.628 217.193, 218.313 216.373 C 217.943 215.409, 218.495 214.683, 219.870 214.324 C 223.017 213.501, 222.455 212, 219 212 C 217.350 212, 216 212.402, 216 212.894 M 93.083 223.917 L 88.193 228.782 92.092 232.590 C 94.237 234.684, 96.249 237.208, 96.563 238.199 C 97.072 239.803, 98.457 240, 109.198 240 L 121.262 240 120.707 236.581 C 119.851 231.304, 117.320 228.297, 112.294 226.584 C 109.781 225.728, 106.325 223.976, 104.613 222.690 C 99.117 218.563, 98.387 218.641, 93.083 223.917 M 281.651 226.697 C 280.746 232.170, 280.858 236, 281.922 236 C 282.886 236, 290.982 226.963, 290.994 225.875 C 290.997 225.531, 289.762 225, 288.250 224.695 C 286.738 224.390, 284.775 223.859, 283.890 223.517 C 282.635 223.031, 282.140 223.734, 281.651 226.697 M 294.589 229.077 C 291.830 232.355, 291.665 233.073, 292.596 237.729 C 293.143 240.465, 293.449 240.656, 296.346 240.065 C 299.361 239.450, 299.529 239.159, 300.149 233.461 C 300.505 230.182, 300.591 227.162, 300.340 226.750 C 299.383 225.182, 297.084 226.112, 294.589 229.077 M 506.494 230.168 C 503.257 231.734, 500.359 233.361, 500.054 233.781 C 499.749 234.202, 498.262 235.334, 496.750 236.296 C 495.238 237.259, 494.001 238.373, 494.002 238.773 C 494.004 239.173, 501.132 239.500, 509.844 239.500 C 523.432 239.500, 525.628 239.287, 525.289 238 C 524.832 236.263, 521.035 232.849, 515.940 229.593 L 512.381 227.319 506.494 230.168 M 235.667 233.667 C 235.300 234.033, 235 235.383, 235 236.667 C 235 238.938, 235.238 239, 244 239 L 253 239 253 236 L 253 233 244.667 233 C 240.083 233, 236.033 233.300, 235.667 233.667 M 257 236.040 L 257 239.081 265.250 238.790 C 273.425 238.503, 273.503 238.475, 273.816 235.750 L 274.133 233 265.566 233 L 257 233 257 236.040 M 210.250 235.360 C 206.287 237.323, 207.554 239, 213 239 C 217.667 239, 218 238.833, 218 236.500 C 218 234.410, 217.549 234.020, 215.250 234.123 C 213.738 234.190, 211.488 234.747, 210.250 235.360 M 225.250 234.732 C 222.838 235.025, 222 235.626, 222 237.063 C 222 238.656, 222.710 239, 226 239 C 228.889 239, 230 238.583, 230 237.500 C 230 236.675, 230.034 235.674, 230.075 235.275 C 230.171 234.347, 229.260 234.245, 225.250 234.732 M 287.561 237.250 C 287.354 237.938, 286.264 243.900, 285.138 250.500 C 280.929 275.181, 281.005 274.387, 282.723 275.718 C 284.778 277.311, 286 276.469, 286 273.459 C 286 272.127, 287.125 264.181, 288.500 255.803 C 291.440 237.889, 291.532 236, 289.469 236 C 288.626 236, 287.768 236.563, 287.561 237.250 M 252.250 241.662 C 250.035 242.556, 250.906 243.911, 255.055 246.028 C 257.285 247.165, 260.537 250.122, 262.282 252.598 C 265.157 256.677, 265.574 256.936, 266.727 255.358 C 268.482 252.959, 268.462 252.900, 264.311 248.050 C 261.375 244.620, 255.360 240.637, 253.782 241.079 C 253.627 241.122, 252.938 241.385, 252.250 241.662 M 431 242 C 429.718 242.828, 429.754 242.972, 431.250 242.985 C 432.212 242.993, 433 242.550, 433 242 C 433 240.780, 432.887 240.780, 431 242 M 226.189 244.728 C 223.454 245.065, 222.933 245.515, 223.189 247.318 C 223.471 249.299, 224.167 249.527, 230.750 249.794 C 236.600 250.031, 238 249.803, 238 248.615 C 238 247.805, 237.293 246.436, 236.429 245.571 C 234.899 244.042, 233.017 243.887, 226.189 244.728 M 420.500 245.464 C 418.850 246.219, 418.175 246.854, 419 246.874 C 419.825 246.894, 421.850 246.292, 423.500 245.536 C 425.150 244.781, 425.825 244.146, 425 244.126 C 424.175 244.106, 422.150 244.708, 420.500 245.464 M 272.250 245.703 C 271.563 245.958, 271 246.754, 271 247.471 C 271 248.189, 267.599 255.803, 263.442 264.390 C 256.490 278.755, 255.497 282, 258.053 282 C 258.568 282, 262.850 274.287, 267.570 264.861 C 274.615 250.789, 275.913 247.500, 274.825 246.481 C 274.096 245.798, 272.938 245.448, 272.250 245.703 M 409.644 248.631 C 406.974 249.451, 404.990 250.323, 405.236 250.569 C 405.481 250.815, 408.341 250.157, 411.591 249.108 C 414.841 248.058, 416.825 247.186, 416 247.170 C 415.175 247.153, 412.315 247.810, 409.644 248.631 M 273.407 255.513 C 272.829 257.817, 273.193 262.240, 274.662 270.750 C 275.331 274.627, 278.945 275.592, 278.408 271.750 C 276.251 256.313, 275.630 253, 274.897 253 C 274.425 253, 273.754 254.131, 273.407 255.513 M 243.299 257.250 C 237.900 263.178, 235.735 271.594, 235.775 286.500 C 235.816 301.617, 238.158 310.175, 243.546 314.906 C 245.484 316.608, 247.893 318, 248.900 318 C 253.307 318, 258.528 311.181, 260.918 302.303 C 261.954 298.459, 262.349 298.086, 265.773 297.727 C 268.900 297.399, 268.677 297.309, 264.385 297.168 C 259.579 297.010, 255.118 294.847, 252.765 291.534 C 251.535 289.802, 251.915 280.330, 253.398 275.785 C 254.167 273.428, 255.377 269.138, 256.087 266.252 C 257.361 261.068, 257.342 260.966, 254.502 258.002 C 250.921 254.264, 246.301 253.954, 243.299 257.250 M 296.013 257.466 C 294.697 260.927, 295.039 266.195, 296.613 266.711 C 297.225 266.911, 298.293 265.707, 298.986 264.034 C 300.040 261.490, 299.991 260.465, 298.685 257.768 L 297.124 254.545 296.013 257.466 M 248.082 257.583 C 248.205 260.479, 251.753 273.753, 251.885 271.812 C 252.011 269.969, 249.103 256.769, 248.421 256.088 C 248.190 255.856, 248.037 256.529, 248.082 257.583 M 474 258.537 C 452.818 260.908, 424.694 267.031, 404.687 273.630 C 395.356 276.707, 394.845 277.781, 404.052 274.964 C 433.989 265.804, 468.606 259.626, 498.500 258.108 L 514.500 257.295 500 257.273 C 492.025 257.261, 480.325 257.830, 474 258.537 M 153.750 268.332 C 153.338 269.339, 153 271.252, 153 272.582 C 153 275.953, 151.589 275.607, 147.560 271.250 C 144.418 267.853, 144.148 267.735, 144.691 270 C 145.020 271.375, 145.729 273.063, 146.267 273.750 C 147.592 275.444, 144.904 275.402, 140.718 273.664 C 136.804 272.038, 131.277 270.610, 132.104 271.438 C 133.367 272.700, 148.914 277.666, 148.301 276.611 C 147.947 276, 148.521 276.222, 149.578 277.104 C 150.635 277.986, 154.650 279.944, 158.500 281.455 C 162.350 282.966, 167.671 285.068, 170.324 286.125 C 172.977 287.183, 174.863 287.587, 174.515 287.024 C 174.167 286.461, 173.521 286, 173.079 286 C 172.638 286, 169.284 284.643, 165.626 282.984 L 158.975 279.969 161.057 275.888 C 162.203 273.643, 162.952 271.618, 162.722 271.389 C 162.492 271.159, 160.773 272.312, 158.902 273.952 L 155.500 276.933 155 271.716 C 154.653 268.099, 154.270 267.062, 153.750 268.332 M 243.449 277.468 C 242.652 279.375, 242 283.215, 242 286 C 242 288.785, 242.652 292.625, 243.449 294.532 C 244.763 297.677, 245.274 298, 248.934 298 L 252.971 298 250.989 294.750 C 248.798 291.156, 248.239 281.132, 249.975 276.565 C 250.889 274.162, 250.760 274, 247.924 274 C 245.416 274, 244.650 274.594, 243.449 277.468 M 297 276.250 C 297 277.799, 298.140 278, 306.935 278 C 316.368 278, 322.001 276.981, 321.999 275.275 C 321.999 274.849, 316.374 274.500, 309.499 274.500 C 298.261 274.500, 296.999 274.677, 297 276.250 M 297.502 279.997 C 296.669 281.345, 299.053 296.201, 300.575 299.145 C 302.378 302.632, 303.559 303.327, 306.445 302.603 C 309.513 301.833, 311.981 295.615, 312.721 286.790 C 313.336 279.456, 312.152 277.824, 309.791 282.750 C 308.153 286.168, 305.946 286.275, 304.321 283.016 C 303.075 280.517, 298.447 278.468, 297.502 279.997 M 259.965 284.542 C 257.926 286.999, 259.997 288.014, 267.568 288.268 C 273.940 288.481, 274.524 288.330, 274.801 286.395 C 275.065 284.546, 274.457 284.213, 269.801 283.654 C 262.230 282.745, 261.394 282.820, 259.965 284.542" stroke="none" fill="black" fill-rule="evenodd"/>
	<path fill="#8b7355" d="M 266.500 96.881 C 262.403 98.762, 256.812 103.777, 260.306 102.436 C 261.238 102.079, 262 101.481, 262 101.109 C 262 99.494, 268.167 97, 272.154 97.002 C 278.145 97.004, 283.029 99.708, 285.697 104.500 C 286.922 106.700, 288.168 108.379, 288.466 108.232 C 288.765 108.085, 290.189 108.260, 291.630 108.622 C 295.067 109.484, 292.633 111.003, 288.535 110.553 C 286.953 110.380, 284.273 110.641, 282.579 111.135 C 277.176 112.710, 273.688 113.147, 265.709 113.249 L 257.918 113.349 258.568 116.425 C 258.925 118.116, 260.164 121.210, 261.321 123.301 C 264.029 128.192, 262.964 130.004, 256.419 131.642 C 248.667 133.582, 243.773 136.741, 240.234 142.090 C 238.455 144.778, 237 147.250, 237 147.584 C 237 147.918, 236.069 149.498, 234.932 151.096 C 233.794 152.693, 233.320 154, 233.877 154 C 234.435 154, 236.556 150.831, 238.592 146.958 C 241.925 140.614, 245.915 136, 248.067 136 C 249.872 136, 250.083 140.521, 248.551 146.324 C 247.653 149.721, 246.600 155.875, 246.210 160 L 245.500 167.500 242.324 167.808 C 238.519 168.177, 231 164.606, 231 162.430 C 231 161.589, 231.712 159.523, 232.583 157.840 C 233.453 156.157, 233.675 155.083, 233.075 155.453 C 230.981 156.748, 228.890 161.981, 229.810 163.625 C 230.364 164.615, 230.173 166.721, 229.300 169.256 C 227.703 173.891, 227.660 190.785, 229.240 192.750 C 229.793 193.438, 231.710 194, 233.500 194 C 235.290 194, 237.339 194.704, 238.053 195.564 C 238.890 196.572, 240.197 196.916, 241.727 196.532 C 243.975 195.968, 244.067 196.127, 243.438 199.479 C 243.055 201.522, 243.220 203.561, 243.829 204.295 C 244.498 205.100, 244.545 206.106, 243.958 207.034 C 243.448 207.840, 243.024 210.863, 243.015 213.750 L 243 219 239.082 219 C 236.927 219, 234.450 219.274, 233.578 219.608 C 232.407 220.058, 231.835 219.423, 231.384 217.172 C 231.050 215.498, 230.151 213.888, 229.388 213.595 C 228.388 213.212, 228 211.117, 228 206.101 C 228 199.656, 227.834 199.115, 225.763 198.820 C 224.068 198.577, 223.389 197.646, 222.956 194.966 C 221.682 187.078, 218.605 187.841, 219.693 195.775 C 220.018 198.151, 219.883 200.020, 219.392 199.929 C 218.902 199.838, 216.137 199.816, 213.250 199.882 L 208 200 208.015 203.750 C 208.033 207.959, 208.534 208.957, 211.733 211.140 C 213.585 212.405, 213.756 212.938, 212.733 214.270 C 211.900 215.355, 210.607 215.696, 208.750 215.322 C 206.203 214.808, 205.990 214.388, 205.864 209.633 C 205.789 206.810, 205.526 205.625, 205.279 207 C 204.696 210.251, 203.005 212.058, 202.986 209.450 C 202.979 208.378, 202.682 206.412, 202.326 205.081 C 201.797 203.107, 201.983 202.780, 203.339 203.300 C 205.066 203.963, 205.682 202.540, 204.094 201.558 C 203.595 201.250, 202.881 198.771, 202.507 196.049 C 201.755 190.581, 199.574 187.615, 198.589 190.720 C 198.270 191.724, 198.457 194.108, 199.005 196.016 C 200.663 201.799, 200.573 201.889, 192.830 202.206 C 188.886 202.368, 185.506 202.967, 185.317 203.538 C 185.093 204.218, 187.005 204.382, 190.865 204.013 L 196.755 203.450 196.319 206.216 C 195.956 208.519, 196.185 208.887, 197.691 208.416 C 199.385 207.885, 199.389 207.920, 197.756 208.971 C 196.797 209.588, 193.759 210.360, 191.006 210.686 C 186.038 211.274, 185.999 211.257, 185.864 208.389 C 185.747 205.905, 185.665 205.827, 185.283 207.832 C 184.806 210.341, 187.399 214, 189.655 214 C 191.271 214, 191.325 214.525, 189.965 217.066 C 189.395 218.130, 188.270 219, 187.465 219 C 186.659 219, 186 219.450, 186 220 C 186 222.256, 189.131 220.769, 191.241 217.512 C 192.913 214.931, 194.215 214.022, 196.250 214.012 C 197.762 214.006, 199.326 213.966, 199.725 213.925 C 201.437 213.748, 200.931 215.887, 199.125 216.460 C 197.474 216.984, 197.230 217.713, 197.675 220.795 C 198.766 228.348, 199.949 230.739, 199.385 224.250 L 198.841 218 201.839 218 C 203.488 218, 205.482 217.752, 206.270 217.450 C 207.343 217.038, 207.993 218.339, 208.852 222.617 C 209.483 225.761, 210 229.791, 210 231.572 C 210 234.772, 210.046 234.803, 214 234.273 C 217.789 233.765, 218 233.875, 218 236.368 C 218 238.868, 217.743 239, 212.883 239 C 208.259 239, 207.817 238.808, 208.290 237 C 208.746 235.257, 208.320 235, 204.980 235 C 202.170 235, 201.025 234.533, 200.689 233.250 C 200.345 231.933, 200.203 232.057, 200.116 233.750 C 200.032 235.372, 200.558 236, 202 236 C 204.717 236, 204.538 238.571, 201.750 239.584 C 200.217 240.141, 202.419 240.508, 208.658 240.737 C 214.560 240.953, 218.197 241.532, 218.888 242.365 C 219.478 243.076, 221.092 246.664, 222.475 250.337 L 224.989 257.017 222.857 264.759 C 221.236 270.648, 220.709 275.491, 220.658 285 C 220.549 305.355, 225.168 320.773, 233.362 327.406 C 236.953 330.311, 237.694 330.500, 245.519 330.500 C 252.416 330.500, 254.340 330.139, 256.677 328.404 C 262.178 324.319, 265.047 318.057, 268.430 302.750 C 269.019 300.087, 269.248 300, 275.686 300 C 284.907 300, 283.300 299.390, 271.961 298.586 L 262.423 297.910 260.233 304.708 C 258.977 308.607, 256.731 312.943, 254.967 314.875 C 252.266 317.832, 251.453 318.173, 248.321 317.665 C 243.713 316.917, 241.673 314.992, 239.064 308.928 C 234.725 298.841, 234.116 280.748, 237.679 267.771 C 239.277 261.950, 244.156 255.225, 247 254.922 C 251.064 254.491, 252.976 255.279, 255.324 258.358 L 257.886 261.717 254.954 271.108 C 251.200 283.133, 251.057 289.765, 254.480 292.981 C 257.639 295.949, 264.095 296.992, 275 296.297 C 284.291 295.704, 285.523 295.136, 287.411 290.568 L 288.679 287.500 289.425 293.500 C 291.267 308.326, 299.443 315.442, 308.972 310.514 C 312.544 308.667, 315.408 301.493, 316.924 290.594 C 318.808 277.044, 319.237 277.852, 310.250 278.007 C 297.132 278.234, 297 278.214, 297 275.973 C 297 274.061, 297.420 273.983, 304.447 274.595 C 308.543 274.952, 314.368 274.935, 317.391 274.557 C 322.513 273.917, 322.833 273.721, 322.084 271.685 C 321.594 270.355, 319.562 268.863, 316.890 267.873 C 313.475 266.607, 312.432 265.683, 312.192 263.709 C 311.971 261.888, 312.448 260.993, 313.881 260.538 C 315.365 260.067, 316.165 258.441, 316.996 254.202 C 317.611 251.066, 319.010 244.225, 320.106 239 C 321.202 233.775, 322.189 225.577, 322.299 220.783 C 322.532 210.677, 321.980 209.792, 311.559 203.555 C 308.291 201.600, 306.318 200, 307.174 200 C 308.030 200, 309.923 199.062, 311.381 197.915 C 313.514 196.237, 314.818 195.962, 318.051 196.509 C 320.261 196.882, 322.616 196.756, 323.285 196.229 C 323.953 195.702, 326.474 195.019, 328.888 194.712 C 331.301 194.405, 334.001 193.413, 334.888 192.508 C 336.374 190.992, 336.266 190.674, 333.500 188.437 C 331.850 187.102, 329.757 186.008, 328.848 186.005 C 327.895 186.002, 326.729 184.662, 326.094 182.839 C 325.488 181.100, 323.935 178.288, 322.644 176.589 C 319.300 172.189, 317.017 167.481, 316.635 164.198 C 316.211 160.562, 307.410 144.238, 303.713 140.234 C 300.361 136.603, 293.472 133.026, 288.524 132.348 C 283.476 131.656, 282.240 130.621, 283.971 128.535 C 284.894 127.423, 284.714 127.262, 283.042 127.699 C 279.857 128.532, 279.688 129.749, 282.500 131.592 C 284.968 133.209, 284.998 133.345, 283.299 135.222 C 281.780 136.901, 280.766 137.073, 276.017 136.459 C 272.983 136.067, 268.352 135.812, 265.726 135.893 C 259.761 136.075, 258.547 134.076, 262.434 130.473 C 264.656 128.414, 266.107 128, 271.097 128 C 276.128 128, 277.485 127.606, 279.545 125.545 C 281.074 124.017, 282 121.945, 282 120.054 C 282 118.100, 282.713 116.572, 284 115.768 C 285.100 115.081, 286 113.877, 286 113.093 C 286 109.823, 287.507 113.514, 288.131 118.311 L 288.806 123.500 288.702 118.067 C 288.645 115.079, 289.026 112.531, 289.549 112.404 C 290.072 112.278, 291.738 111.902, 293.250 111.568 C 297.168 110.704, 296.660 109.417, 291.646 107.503 C 288.516 106.307, 286.900 104.948, 285.896 102.670 C 284.353 99.166, 277.324 94.985, 273.038 95.022 C 271.642 95.034, 268.700 95.870, 266.500 96.881 M 184.500 101 C 184.160 101.550, 184.359 102, 184.941 102 C 185.523 102, 186 101.550, 186 101 C 186 100.450, 185.802 100, 185.559 100 C 185.316 100, 184.840 100.450, 184.500 101 M 258.079 105.583 C 258.127 106.748, 258.364 106.985, 258.683 106.188 C 258.972 105.466, 258.936 104.603, 258.604 104.271 C 258.272 103.939, 258.036 104.529, 258.079 105.583 M 207.500 106 C 207.160 106.550, 207.359 107, 207.941 107 C 208.523 107, 209 106.550, 209 106 C 209 105.450, 208.802 105, 208.559 105 C 208.316 105, 207.840 105.450, 207.500 106 M 257.079 110.583 C 257.127 111.748, 257.364 111.985, 257.683 111.188 C 257.972 110.466, 257.936 109.603, 257.604 109.271 C 257.272 108.939, 257.036 109.529, 257.079 110.583 M 188.645 123 C 189.436 127.313, 190.005 128.126, 189.985 124.917 C 189.976 123.588, 189.527 121.825, 188.986 121 C 188.294 119.945, 188.193 120.538, 188.645 123 M 211.079 125.583 C 211.127 126.748, 211.364 126.985, 211.683 126.188 C 211.972 125.466, 211.936 124.603, 211.604 124.271 C 211.272 123.939, 211.036 124.529, 211.079 125.583 M 190.232 131 C 190.232 132.925, 190.438 133.713, 190.689 132.750 C 190.941 131.787, 190.941 130.213, 190.689 129.250 C 190.438 128.287, 190.232 129.075, 190.232 131 M 212.158 134 C 212.158 135.375, 212.385 135.938, 212.662 135.250 C 212.940 134.563, 212.940 133.438, 212.662 132.750 C 212.385 132.063, 212.158 132.625, 212.158 134 M 252.750 134.080 C 251.787 134.641, 251 135.788, 251 136.629 C 251 137.829, 251.701 138.011, 254.250 137.474 C 258.099 136.663, 259.476 135.579, 258.554 134.087 C 257.719 132.736, 255.062 132.733, 252.750 134.080 M 287.460 134.026 C 286.344 134.438, 284.901 135.415, 284.253 136.195 C 283.307 137.335, 283.609 137.929, 285.794 139.219 C 288.411 140.765, 288.631 140.719, 291.689 137.987 L 294.865 135.149 292.177 134.212 C 290.699 133.696, 288.576 133.613, 287.460 134.026 M 191.375 141.500 C 191.444 145.350, 191.816 148.738, 192.202 149.029 C 192.588 149.321, 194.092 157.196, 195.544 166.529 C 198.035 182.537, 199 186.949, 199 182.323 C 199 180.361, 193.854 147.950, 192.121 139 C 191.300 134.759, 191.257 134.903, 191.375 141.500 M 292.324 139.476 L 288.746 143.054 289.398 155.277 C 290.342 172.957, 291.118 180.045, 292.050 179.469 C 293.072 178.837, 296 168.926, 296 166.096 C 296 163.153, 297.647 163.489, 299.205 166.750 C 300.905 170.308, 303.683 170.629, 309.425 167.930 C 316.410 164.647, 316.481 163.793, 310.624 153.453 C 303.338 140.589, 302.344 139.229, 298.942 137.470 C 295.948 135.922, 295.848 135.952, 292.324 139.476 M 213.252 140.500 C 213.263 142.700, 213.468 143.482, 213.707 142.238 C 213.946 140.994, 213.937 139.194, 213.687 138.238 C 213.437 137.282, 213.241 138.300, 213.252 140.500 M 257.500 138.506 C 255.300 139.287, 252.713 140.892, 251.750 142.073 C 248.220 146.407, 250.704 156.863, 254.944 155.518 C 257.375 154.746, 259.981 155.885, 259.379 157.455 C 258.287 160.301, 269.706 160.277, 271.299 157.430 C 271.964 156.242, 273.048 155.974, 275.406 156.416 C 278.037 156.910, 279.081 156.525, 281.252 154.259 C 282.705 152.741, 284.619 149.764, 285.505 147.643 C 287.004 144.055, 286.996 143.653, 285.394 141.883 C 281.415 137.486, 265.730 135.588, 257.500 138.506 M 214.116 147.677 C 214.039 149.797, 213.418 151.005, 212.250 151.311 C 210.826 151.683, 210.886 151.790, 212.574 151.884 C 214.459 151.989, 214.806 153.156, 216.394 164.750 C 218.263 178.389, 220.384 188.734, 219.521 180 C 219.021 174.946, 215.167 148.320, 214.599 146 C 214.397 145.175, 214.180 145.930, 214.116 147.677 M 247.570 158.082 C 246.768 165.170, 246.759 181.450, 247.554 187.489 C 248.505 194.722, 249.505 193.058, 249.227 184.705 C 248.872 174.051, 249.219 173.569, 256.299 174.878 C 259.371 175.446, 265.686 175.643, 270.332 175.315 C 278.498 174.738, 278.822 174.798, 280.065 177.109 C 280.772 178.424, 281.554 182.979, 281.802 187.230 C 282.574 200.423, 283.998 194.681, 284.044 178.191 C 284.068 169.561, 284.478 160.475, 284.957 158 C 285.435 155.525, 285.678 153.350, 285.497 153.167 C 285.315 152.983, 284.314 153.686, 283.273 154.727 C 282.231 155.769, 280.488 157.269, 279.400 158.061 C 278.312 158.852, 276.989 161.300, 276.461 163.500 C 275.289 168.377, 272.879 168.786, 271.566 164.330 C 270.672 161.297, 270.378 161.145, 264.814 160.830 C 261.391 160.636, 258.988 160.912, 258.976 161.500 C 258.965 162.050, 258.069 163.625, 256.985 165 C 255.309 167.126, 254.862 167.276, 253.991 166 C 253.428 165.175, 253.069 163.116, 253.193 161.425 C 253.343 159.390, 252.552 157.242, 250.851 155.069 L 248.282 151.787 247.570 158.082 M 272.813 162.683 C 273.534 162.972, 274.397 162.936, 274.729 162.604 C 275.061 162.272, 274.471 162.036, 273.417 162.079 C 272.252 162.127, 272.015 162.364, 272.813 162.683 M 230.795 168.304 C 230.106 169.548, 229.561 174.347, 229.539 179.379 C 229.507 186.666, 229.804 188.452, 231.197 189.340 C 233.996 191.126, 238.129 189.010, 239.677 185 C 240.420 183.075, 240.838 182.518, 240.604 183.763 C 240.204 185.903, 242.290 188, 244.820 188 C 245.354 188, 245.712 184.493, 245.636 180.009 C 245.490 171.433, 244.131 169.570, 242.164 175.250 C 241.045 178.481, 241.341 175.818, 242.609 171.250 C 243.116 169.421, 242.831 169, 241.085 169 C 239.903 169, 237.378 168.349, 235.474 167.554 C 232.197 166.184, 231.948 166.224, 230.795 168.304 M 309.250 169.296 C 306.913 170.421, 305 171.769, 305 172.290 C 305 174.304, 312.212 184.979, 315.555 187.914 C 319.458 191.341, 322.070 191.787, 324.429 189.429 C 326.831 187.026, 326.371 185.010, 321.687 177.413 C 319.315 173.565, 317.079 169.648, 316.718 168.709 C 315.907 166.595, 314.652 166.694, 309.250 169.296 M 299.216 181.750 C 299.470 191.346, 299.688 192.468, 301.250 192.206 C 302.212 192.045, 303 192.382, 303 192.956 C 303 193.530, 302.325 194, 301.500 194 C 299.168 194, 299.735 197.558, 302.250 198.704 C 304.759 199.847, 308.374 198.877, 311.229 196.292 C 314.383 193.438, 313.402 192.217, 308.250 192.584 L 303.500 192.922 308.387 192.024 C 311.074 191.531, 313.676 190.724, 314.167 190.233 C 314.693 189.707, 313.456 187.310, 311.168 184.419 C 309.026 181.714, 306.475 177.925, 305.498 176 C 303.610 172.282, 302.294 171.040, 300.216 171.015 C 299.232 171.004, 298.999 173.512, 299.216 181.750 M 250.772 179.824 C 250.229 184.476, 251.587 194.987, 252.900 196.300 C 255.276 198.676, 277.386 198.949, 279.701 196.632 C 280.844 195.487, 280.359 182.281, 279.058 179.141 L 277.964 176.500 264.562 176.500 L 251.160 176.500 250.772 179.824 M 294.656 186.422 C 293.716 189.404, 292.171 192.794, 291.224 193.954 C 288.054 197.836, 271.278 200.809, 259.961 199.495 C 254.902 198.908, 253.081 198.165, 250.096 195.468 L 246.435 192.160 245.237 197.206 C 244.577 199.982, 244.277 202.640, 244.570 203.113 C 244.862 203.586, 247.666 204.766, 250.801 205.734 C 255.292 207.121, 260.105 207.494, 273.500 207.497 C 289.123 207.500, 290.834 207.321, 294.627 205.293 C 299.635 202.614, 299.978 201.833, 298.937 195.487 C 298.487 192.744, 298.092 188.363, 298.060 185.750 C 298.027 183.137, 297.632 181, 297.183 181 C 296.733 181, 295.596 183.440, 294.656 186.422 M 325.339 189.936 C 321.835 193.125, 322.822 194.099, 328.488 193.042 C 331.733 192.437, 333.149 189.343, 330.848 187.885 C 328.960 186.689, 328.869 186.723, 325.339 189.936 M 225 204 C 225 206.200, 225.450 208, 226 208 C 226.550 208, 227 206.200, 227 204 C 227 201.800, 226.550 200, 226 200 C 225.450 200, 225 201.800, 225 204 M 300.524 201.924 C 298.906 207.022, 289.396 209.522, 272 209.423 C 260.270 209.357, 256.414 208.875, 247.859 206.408 C 245.921 205.849, 244 210.449, 244 215.649 C 244 218.997, 244.004 219, 248.930 219 C 253.282 219, 253.898 218.736, 254.180 216.750 C 254.491 214.562, 254.774 214.509, 264.500 214.835 C 274.599 215.174, 276.893 215.893, 281.014 220.014 C 285.400 224.400, 300.316 225.601, 307.019 222.107 C 309.242 220.948, 311.328 220, 311.653 220 C 313.202 220, 309.577 222.887, 306.006 224.497 C 303.229 225.750, 301.982 226.948, 301.941 228.402 C 301.909 229.556, 301.308 236.125, 300.605 243 C 299.903 249.875, 299.504 256.002, 299.719 256.615 C 300.787 259.659, 311.696 261.276, 313.829 258.706 C 315.136 257.131, 318.532 241.435, 319.932 230.500 C 321.873 215.335, 321.870 214.104, 319.891 211.589 C 317.738 208.852, 310.097 203.774, 304.801 201.561 C 301.341 200.116, 301.091 200.137, 300.524 201.924 M 209 204.500 C 209 207.985, 209.019 208, 213.531 208 C 216.629 208, 218.244 207.527, 218.636 206.506 C 218.952 205.684, 219.570 205.234, 220.011 205.507 C 220.452 205.779, 220.293 204.880, 219.656 203.509 C 218.662 201.365, 217.834 201.015, 213.750 201.008 L 209 201 209 204.500 M 221.754 205.167 C 222.018 206.175, 222.534 207, 222.902 207 C 223.270 207, 223.571 206.175, 223.571 205.167 C 223.571 204.158, 223.055 203.333, 222.423 203.333 C 221.791 203.333, 221.490 204.158, 221.754 205.167 M 223.736 210.598 C 222.762 211.571, 224.099 214, 225.607 214 C 226.373 214, 227 213.100, 227 212 C 227 210.117, 225.052 209.281, 223.736 210.598 M 218.826 211.809 C 217.250 211.991, 215.434 213.223, 214.401 214.809 C 213.438 216.289, 211.992 217.989, 211.187 218.587 C 210.022 219.453, 209.906 220.675, 210.617 224.587 L 211.509 229.500 215.878 229.814 L 220.247 230.127 219.547 222.656 C 218.942 216.197, 219.078 215.056, 220.553 214.230 C 222.988 212.867, 221.974 211.445, 218.826 211.809 M 201.736 212.598 C 200.762 213.571, 202.099 216, 203.607 216 C 204.373 216, 205 215.100, 205 214 C 205 212.117, 203.052 211.281, 201.736 212.598 M 224.250 215.732 C 219.455 216.164, 219.572 215.775, 221.136 226.052 L 222.285 233.604 226.851 233.261 C 229.361 233.072, 231.568 232.766, 231.754 232.579 C 232.301 232.032, 229.652 214.983, 229.050 215.175 C 228.747 215.271, 226.588 215.522, 224.250 215.732 M 236.430 222.799 C 232.543 223.084, 232.380 223.230, 232.794 226.049 L 233.227 229 243.677 229 L 254.127 229 253.813 225.871 L 253.500 222.743 247 222.621 C 243.425 222.555, 238.669 222.634, 236.430 222.799 M 263.250 222.737 C 258.170 223.093, 258 223.201, 258 226.093 L 258 229.081 266.250 228.790 C 274.088 228.515, 274.517 228.381, 274.837 226.113 C 275.213 223.459, 273.533 221.943, 270.500 222.200 C 269.400 222.294, 266.137 222.535, 263.250 222.737 M 281 228.469 C 281 232.693, 280.688 233.817, 279.628 233.411 C 278.760 233.078, 278.089 233.752, 277.804 235.243 C 277.011 239.396, 280.513 238.209, 285.919 232.492 C 288.714 229.537, 291 226.696, 291 226.179 C 291 225.422, 283.805 223, 281.557 223 C 281.251 223, 281 225.461, 281 228.469 M 278 226 C 278 227.100, 278.450 228, 279 228 C 279.550 228, 280 227.100, 280 226 C 280 224.900, 279.550 224, 279 224 C 278.450 224, 278 224.900, 278 226 M 294.188 228.960 C 292.985 230.587, 292 233.117, 292 234.582 C 292 236.636, 291.707 237.001, 290.716 236.180 C 290.011 235.594, 288.949 235.426, 288.357 235.807 C 287.765 236.188, 285.876 245.050, 284.159 255.500 C 281.263 273.129, 281.158 274.590, 282.710 275.750 C 285.209 277.618, 286 277.284, 286 274.361 C 286 272.910, 286.867 266.497, 287.926 260.111 C 288.986 253.725, 290.163 246.062, 290.543 243.083 C 291.005 239.456, 291.506 238.153, 292.058 239.139 C 292.613 240.131, 294.002 240.481, 296.311 240.212 C 299.726 239.813, 299.741 239.788, 300.295 233.689 C 300.600 230.321, 300.632 227.214, 300.366 226.783 C 299.312 225.078, 296.263 226.153, 294.188 228.960 M 235.667 233.667 C 235.300 234.033, 235 235.383, 235 236.667 C 235 238.936, 235.244 239, 243.883 239 C 252.162 239, 252.805 238.852, 253.335 236.826 C 253.648 235.631, 253.674 234.281, 253.393 233.826 C 252.787 232.846, 236.633 232.700, 235.667 233.667 M 256.649 235.233 C 256.328 236.461, 256.431 237.831, 256.878 238.278 C 257.324 238.724, 261.247 238.957, 265.595 238.795 C 273.392 238.504, 273.504 238.462, 273.816 235.750 L 274.133 233 265.683 233 C 257.781 233, 257.195 233.145, 256.649 235.233 M 224.750 234.707 C 222.814 235.007, 222 235.722, 222 237.124 C 222 238.848, 222.570 239.074, 226.250 238.807 C 229.720 238.556, 230.500 238.136, 230.500 236.514 C 230.500 234.413, 229.227 234.013, 224.750 234.707 M 251.011 242.750 C 251.018 243.796, 252.612 245.261, 254.974 246.393 C 257.148 247.434, 260.142 250.041, 261.629 252.186 C 263.116 254.331, 264.879 256.404, 265.549 256.793 C 266.421 257.300, 265.232 260.593, 261.345 268.429 C 258.363 274.441, 256.152 279.953, 256.430 280.679 C 257.691 283.963, 259.987 281.112, 265.455 269.470 C 268.691 262.578, 271.659 257.291, 272.049 257.720 C 272.438 258.149, 273.235 261.832, 273.820 265.905 C 274.810 272.804, 276.473 275.927, 278.225 274.175 C 279.166 273.234, 276.309 253.909, 275.040 252.640 C 274.445 252.045, 274.446 251.035, 275.043 249.919 C 275.566 248.943, 275.713 247.415, 275.371 246.523 C 274.378 243.937, 271.702 245.213, 270.797 248.702 C 270.341 250.462, 269.614 252.121, 269.180 252.389 C 268.746 252.657, 266.841 250.920, 264.946 248.529 C 260.920 243.451, 257.226 241, 253.596 241 C 251.786 241, 251.003 241.530, 251.011 242.750 M 223.667 244.667 C 222.303 246.030, 223.036 249.875, 224.750 250.348 C 226.902 250.942, 236.940 250.393, 237.693 249.640 C 237.994 249.339, 237.953 247.947, 237.601 246.547 C 237.001 244.154, 236.580 244, 230.648 244 C 227.175 244, 224.033 244.300, 223.667 244.667 M 295.609 250.020 C 293.655 254.903, 293.629 255.356, 295.341 254.700 C 296.428 254.282, 296.396 255.209, 295.168 259.620 C 294.064 263.588, 293.954 265.354, 294.761 266.161 C 297.783 269.183, 301.468 262.576, 298.978 258.599 C 298.256 257.445, 297.726 254.137, 297.800 251.250 C 297.875 248.363, 297.774 246, 297.577 246 C 297.379 246, 296.493 247.809, 295.609 250.020 M 248.702 260.500 C 249.022 262.700, 249.642 265.400, 250.079 266.500 L 250.873 268.500 250.860 266.500 C 250.852 265.400, 250.233 262.700, 249.483 260.500 L 248.119 256.500 248.702 260.500 M 251.079 270.583 C 251.127 271.748, 251.364 271.985, 251.683 271.188 C 251.972 270.466, 251.936 269.603, 251.604 269.271 C 251.272 268.939, 251.036 269.529, 251.079 270.583 M 244.631 275.512 C 242.664 277.479, 241.595 284.811, 242.446 290.488 C 243.253 295.868, 245.133 298, 249.071 298 C 251.914 298, 252.961 296.712, 251.068 295.542 C 250.555 295.225, 249.630 292.611, 249.012 289.733 C 248.121 285.585, 248.180 283.411, 249.297 279.250 C 250.697 274.039, 250.690 274, 248.425 274 C 247.170 274, 245.462 274.680, 244.631 275.512 M 291.195 276.500 C 291.215 278.150, 291.439 278.704, 291.693 277.731 C 291.947 276.758, 291.930 275.408, 291.656 274.731 C 291.382 274.054, 291.175 274.850, 291.195 276.500 M 320.559 276.532 C 319.491 277.339, 319.099 278, 319.686 278 C 320.274 278, 321.315 277.325, 322 276.500 C 323.557 274.624, 323.067 274.634, 320.559 276.532 M 297.481 286.098 C 298.264 294.207, 300.986 301.674, 303.513 302.643 C 306.917 303.950, 309.623 301.404, 311.342 295.278 C 313.360 288.085, 313.560 280, 311.719 280 C 311.015 280, 309.929 281.350, 309.306 283 C 308.683 284.650, 307.646 286, 307 286 C 306.354 286, 305.317 284.650, 304.694 283 C 304.048 281.288, 302.832 280, 301.863 280 C 300.928 280, 299.399 279.707, 298.465 279.348 C 296.924 278.757, 296.833 279.382, 297.481 286.098 M 259.910 284.608 C 257.739 287.224, 261.289 289, 268.691 289 C 274.679 289, 275 288.878, 275 286.607 C 275 283.685, 273.394 283, 266.541 283 C 262.895 283, 260.829 283.501, 259.910 284.608" stroke="none" fill="black" fill-rule="evenodd"/>
	<path  d="M 275.490 126.016 C 275.144 126.575, 274.330 126.728, 273.681 126.356 C 273.031 125.984, 272.851 126.065, 273.279 126.535 C 274.573 127.957, 276.667 127.866, 276.667 126.387 C 276.667 124.739, 276.343 124.637, 275.490 126.016 M 281.543 128.931 C 281.226 129.443, 281.350 130.098, 281.817 130.387 C 282.284 130.676, 282.667 130.257, 282.667 129.456 C 282.667 127.770, 282.351 127.623, 281.543 128.931 M 287.564 143.293 C 287.940 144.279, 288.499 144.834, 288.807 144.526 C 289.115 144.219, 288.808 143.412, 288.124 142.733 C 287.136 141.753, 287.022 141.868, 287.564 143.293 M 214.158 148 C 214.158 149.375, 214.385 149.938, 214.662 149.250 C 214.940 148.563, 214.940 147.438, 214.662 146.750 C 214.385 146.063, 214.158 146.625, 214.158 148 M 228.079 183.583 C 228.127 184.748, 228.364 184.985, 228.683 184.188 C 228.972 183.466, 228.936 182.603, 228.604 182.271 C 228.272 181.939, 228.036 182.529, 228.079 183.583 M 204.204 210.045 C 203.431 211.283, 203.365 212, 204.023 212 C 204.595 212, 205.329 211.306, 205.655 210.457 C 206.555 208.111, 205.583 207.836, 204.204 210.045 M 225.165 208.877 C 224.136 209.529, 224.269 209.837, 225.749 210.224 C 226.946 210.537, 227.667 210.214, 227.667 209.363 C 227.667 207.799, 227.054 207.680, 225.165 208.877 M 255.333 273.472 C 255.333 274.264, 255.670 274.704, 256.081 274.450 C 256.493 274.196, 257.057 274.553, 257.336 275.244 C 257.651 276.026, 257.872 276.075, 257.921 275.372 C 257.964 274.752, 257.400 273.747, 256.667 273.138 C 255.661 272.303, 255.333 272.385, 255.333 273.472 M 244.917 275.250 C 244.251 277.248, 244.639 279.667, 245.625 279.667 C 246.508 279.667, 246.616 279.151, 245.981 277.965 C 245.480 277.029, 245.355 275.979, 245.702 275.631 C 246.049 275.284, 246.033 275, 245.667 275 C 245.300 275, 244.963 275.113, 244.917 275.250 M 254.543 276.931 C 254.226 277.443, 254.350 278.098, 254.817 278.387 C 255.284 278.676, 255.667 278.257, 255.667 277.456 C 255.667 275.770, 255.351 275.623, 254.543 276.931 M 304 281.393 C 304 281.609, 304.698 282.054, 305.552 282.382 C 306.442 282.723, 306.843 282.555, 306.493 281.989 C 305.906 281.038, 304 280.583, 304 281.393 M 310.553 297.915 C 310.231 298.436, 310.394 299.125, 310.915 299.447 C 311.436 299.769, 312.125 299.606, 312.447 299.085 C 312.769 298.564, 312.606 297.875, 312.085 297.553 C 311.564 297.231, 310.875 297.394, 310.553 297.915" stroke="none" fill="black" fill-rule="evenodd"/>
</svg>