<svg xmlns="http://www.w3.org/2000/svg" width="612" height="408" viewBox="0 0 612 408" version="1.1">
	<path fill-opacity="0.745" d="M 264.962 97.250 C 256.479 101.528, 254.884 111.147, 260.740 122.712 C 263.907 128.966, 263.585 129.515, 255.529 131.619 C 246.460 133.987, 242.810 137.016, 237.200 146.832 C 229.778 159.816, 229.615 160.185, 229.380 164.500 C 229.261 166.700, 228.776 171.440, 228.302 175.034 C 227.829 178.627, 227.679 184.246, 227.971 187.520 L 228.500 193.474 232.301 194.088 C 234.391 194.425, 236.619 195.219, 237.251 195.851 C 237.883 196.483, 239.547 197.001, 240.950 197.001 C 243.402 197.002, 243.495 197.223, 243.373 202.751 C 243.303 205.913, 242.907 210.823, 242.494 213.662 L 241.742 218.824 236.870 219.162 C 234.066 219.357, 231.996 219.076, 231.993 218.500 C 231.990 217.950, 231.361 216.299, 230.595 214.831 C 229.486 212.705, 228.401 206.299, 228.041 199.750 C 228.019 199.338, 227.120 199, 226.045 199 C 224.587 199, 223.916 198.071, 223.405 195.343 C 223.027 193.332, 222.151 190.593, 221.458 189.256 L 220.197 186.826 219.519 189.913 C 219.146 191.611, 219.138 194.350, 219.500 196 C 220.156 198.986, 220.138 199, 215.661 199 C 208.831 199, 208 199.598, 208 204.509 C 208 208.208, 208.423 209.071, 211.052 210.736 C 213.682 212.401, 213.897 212.840, 212.607 213.911 C 211.784 214.594, 210.073 215.006, 208.805 214.827 C 206.764 214.537, 206.464 213.871, 206.189 209.012 C 206.019 205.993, 205.292 202.843, 204.574 202.012 C 203.857 201.180, 202.983 198.295, 202.633 195.601 C 202.284 192.906, 201.572 190.189, 201.052 189.563 C 200.532 188.936, 199.412 183.716, 198.564 177.962 C 194.843 152.720, 188.524 115.648, 188.210 117.218 C 188.021 118.162, 188.796 124.513, 189.933 131.331 C 192.407 146.168, 192.469 148, 190.500 148 C 189.675 148, 189 148.408, 189 148.906 C 189 149.405, 189.900 149.577, 191 149.290 C 192.279 148.955, 193.001 149.259, 193.003 150.133 C 193.004 150.885, 194.170 158.700, 195.594 167.500 C 197.017 176.300, 198.347 187.662, 198.548 192.750 L 198.914 202 192.024 202 C 185.988 202, 185.055 202.250, 184.493 204.022 C 183.420 207.403, 184.980 212.034, 187.594 213.225 C 188.917 213.828, 189.993 214.811, 189.985 215.411 C 189.958 217.293, 188.370 219.118, 187.033 218.803 C 186.328 218.636, 185.544 219.063, 185.292 219.750 C 184.274 222.526, 189.037 220.819, 191.568 217.500 C 193.507 214.957, 195.009 214, 197.060 214 C 198.612 214, 200.160 214.450, 200.500 215 C 200.840 215.551, 200.132 216, 198.923 216 C 196.882 216, 196.773 216.333, 197.364 220.750 C 198.722 230.893, 200.235 235.828, 202.141 236.327 C 204.628 236.977, 204.521 239, 202 239 C 200.889 239, 200 239.667, 200 240.500 C 200 241.726, 201.704 242, 209.339 242 C 219.865 242, 218.962 241.322, 223.071 252.308 C 224.677 256.601, 224.720 257.543, 223.468 261.091 C 218.279 275.798, 219.554 303.195, 226.108 317.810 C 230.507 327.620, 235.663 331, 246.228 331 C 253.581 331, 256.533 329.923, 259.805 326.046 C 262.446 322.917, 266.010 314.304, 267.584 307.250 L 269.201 300 276.350 299.804 L 283.500 299.608 276.750 299.258 C 268.809 298.847, 267.620 297.020, 275.250 296.955 C 282.556 296.892, 286.098 295.164, 287.509 290.974 L 288.667 287.535 289.315 293.740 C 290.049 300.759, 293.225 308.344, 296.347 310.530 C 297.501 311.339, 300.639 312, 303.321 312 C 311.820 312, 315.057 306.561, 317.338 288.453 C 318.327 280.602, 318.870 278.925, 320.980 277.217 C 323.109 275.493, 323.321 274.820, 322.480 272.458 C 321.941 270.945, 320.825 269.396, 320 269.015 C 313.668 266.094, 312.467 265.203, 312.180 263.217 C 311.969 261.752, 312.381 261, 313.395 261 C 316.147 261, 316.506 259.721, 321.534 232 C 323.235 222.618, 323.349 214.860, 321.833 211.534 C 320.822 209.315, 315.168 204.925, 308.500 201.183 C 307.203 200.455, 307.004 200.050, 307.936 200.030 C 308.725 200.014, 310.428 199.007, 311.720 197.794 C 313.804 195.836, 314.423 195.721, 317.217 196.776 C 319.773 197.740, 320.925 197.685, 323.336 196.482 C 324.970 195.667, 327.618 195, 329.219 195 C 336.992 195, 338.380 190.134, 331.500 187 C 329.025 185.873, 327 184.623, 327 184.223 C 327 183.823, 324.750 179.672, 322 175 C 319.250 170.328, 316.996 165.379, 316.990 164.002 C 316.985 162.626, 314.034 156.550, 310.434 150.500 C 303.009 138.023, 297.845 133.489, 289.805 132.387 C 282.899 131.440, 281.952 130.476, 285.265 127.764 C 288.511 125.106, 290.092 120.342, 289.316 115.557 C 288.787 112.297, 288.909 112.130, 292.054 111.822 C 296.924 111.346, 296.720 109.412, 291.559 107.129 C 289.052 106.020, 287 104.491, 287 103.731 C 287 100.390, 277.891 95, 272.244 95 C 270.693 95, 267.416 96.013, 264.962 97.250 M 184.500 101 C 184.160 101.550, 184.359 102, 184.941 102 C 185.523 102, 186 101.550, 186 101 C 186 100.450, 185.802 100, 185.559 100 C 185.316 100, 184.840 100.450, 184.500 101 M 186.158 106 C 186.158 107.375, 186.385 107.938, 186.662 107.250 C 186.940 106.563, 186.940 105.438, 186.662 104.750 C 186.385 104.063, 186.158 104.625, 186.158 106 M 207.543 105.931 C 207.226 106.443, 207.425 107.144, 207.984 107.490 C 208.543 107.835, 209 107.416, 209 106.559 C 209 104.802, 208.400 104.544, 207.543 105.931 M 261.678 107.656 C 261.305 108.028, 261 109.383, 261 110.667 C 261 112.852, 261.381 113, 267 113 C 272.613 113, 273 112.850, 273 110.675 C 273 108.707, 272.501 108.359, 269.750 108.407 C 267.962 108.439, 265.567 108.130, 264.428 107.721 C 263.288 107.313, 262.050 107.283, 261.678 107.656 M 187.079 111.583 C 187.127 112.748, 187.364 112.985, 187.683 112.188 C 187.972 111.466, 187.936 110.603, 187.604 110.271 C 187.272 109.939, 187.036 110.529, 187.079 111.583 M 209.158 113 C 209.158 114.375, 209.385 114.938, 209.662 114.250 C 209.940 113.563, 209.940 112.438, 209.662 111.750 C 209.385 111.063, 209.158 111.625, 209.158 113 M 284.237 115.807 C 282.842 117.371, 282.198 119.048, 282.557 120.180 C 282.945 121.402, 282.141 123.013, 280.147 125.007 C 277.519 127.635, 276.443 128.004, 271.327 128.032 C 266.562 128.057, 264.982 128.519, 262.656 130.565 C 258.799 133.957, 259.706 136.465, 264.466 135.572 C 266.361 135.217, 270.817 135.432, 274.368 136.050 C 280.341 137.091, 280.976 137.024, 282.843 135.157 L 284.861 133.139 282.431 131.546 C 279.677 129.742, 279.242 128, 281.545 128 C 282.395 128, 284.195 126.895, 285.545 125.545 C 287.422 123.669, 288 122.035, 288 118.604 C 288 113.120, 287.178 112.508, 284.237 115.807 M 210.079 119.583 C 210.127 120.748, 210.364 120.985, 210.683 120.188 C 210.972 119.466, 210.936 118.603, 210.604 118.271 C 210.272 117.939, 210.036 118.529, 210.079 119.583 M 210.684 124.750 C 210.446 125.162, 210.612 126.400, 211.055 127.500 C 211.757 129.246, 211.868 129.151, 211.930 126.750 C 211.999 124.037, 211.531 123.286, 210.684 124.750 M 212.474 136 C 212.744 139.025, 213.258 143.637, 213.618 146.250 C 214.168 150.247, 214.013 151, 212.636 151 C 211.736 151, 211 151.400, 211 151.889 C 211 152.378, 211.766 152.715, 212.702 152.639 C 214.142 152.521, 214.734 154.721, 216.565 167 C 217.754 174.975, 218.961 182.400, 219.247 183.500 C 220.814 189.520, 219.638 178.032, 216.484 156.500 C 213.029 132.922, 211.506 125.135, 212.474 136 M 109.384 147.564 C 106.205 154.129, 103.449 159.784, 103.259 160.131 C 103.069 160.478, 104.040 161.044, 105.419 161.390 L 107.924 162.019 102.462 172.529 C 99.458 178.309, 97 183.255, 97 183.519 C 97 183.784, 98.399 184, 100.108 184 C 102.916 184, 103.157 184.239, 102.596 186.474 C 102.254 187.835, 100.856 190.598, 99.487 192.614 C 98.119 194.630, 97 196.666, 97 197.140 C 97 199.256, 95.283 197.577, 92.750 192.985 C 89.465 187.030, 89.462 187, 92 187 C 94.662 187, 94.538 186.008, 91 179 C 88.146 173.345, 86.716 168.063, 89.297 172.706 C 90.141 174.224, 90.954 174.646, 91.903 174.060 C 93.038 173.358, 92.928 172.700, 91.283 170.353 C 90.182 168.784, 87.392 163.498, 85.082 158.606 L 80.881 149.711 75.619 160.106 C 71.932 167.387, 70.752 170.597, 71.678 170.823 C 73.566 171.285, 73.400 171.967, 69.534 179.630 L 66.069 186.500 69.516 186.809 L 72.963 187.119 68.919 195.161 C 64.920 203.115, 64.837 203.200, 61.437 202.803 C 59.547 202.582, 58 202.658, 58 202.972 C 58 203.547, 76.765 205.917, 102.500 208.591 C 137.104 212.187, 147.630 214.414, 158.647 220.470 C 162.215 222.431, 165.623 223.733, 166.221 223.363 C 166.857 222.970, 167.023 223.154, 166.620 223.806 C 165.878 225.007, 175.407 230.997, 178 230.959 C 178.825 230.947, 177.700 229.870, 175.500 228.566 C 173.300 227.261, 170.316 225.260, 168.870 224.120 C 161.069 217.970, 141.815 210, 134.759 210 C 133.726 210, 133.160 209.550, 133.500 209 C 133.840 208.450, 134.991 208, 136.059 208 C 137.127 208, 138 207.759, 138 207.465 C 138 207.171, 135.525 202.295, 132.500 196.631 C 129.475 190.966, 127 186.032, 127 185.666 C 127 185.300, 128.098 185, 129.441 185 C 130.784 185, 132.123 184.609, 132.419 184.132 C 132.714 183.654, 131.053 179.717, 128.728 175.381 C 126.402 171.046, 123.947 166.262, 123.271 164.750 C 122.083 162.091, 122.141 162, 125.021 162 C 128.397 162, 128.794 160.579, 126.381 157.133 C 125.490 155.862, 122.602 150.503, 119.962 145.224 L 115.163 135.628 109.384 147.564 M 244.495 138.750 C 240.827 142.410, 230.688 160.744, 231.361 162.499 C 232.220 164.736, 236.620 167.139, 240.911 167.715 C 245.479 168.328, 245.452 168.380, 246.452 156.884 C 246.769 153.245, 247.721 147.937, 248.567 145.087 C 250.032 140.154, 249.799 136, 248.058 136 C 247.615 136, 246.011 137.238, 244.495 138.750 M 291.822 140.190 L 288.842 143.381 289.441 152.940 C 291.074 178.996, 291.140 179.529, 292.489 177.684 C 293.190 176.725, 294.359 173.255, 295.088 169.971 C 295.816 166.687, 296.758 164, 297.181 164 C 297.603 164, 298.647 165.350, 299.500 167 C 300.353 168.650, 301.851 170, 302.829 170 C 306.024 170, 315 164.925, 315 163.119 C 315 161.721, 308.807 150.069, 303.821 142.086 C 302.544 140.040, 297.867 137, 295.997 137 C 295.340 137, 293.461 138.436, 291.822 140.190 M 539.178 147.432 C 537.351 150.966, 534.346 156.364, 532.501 159.428 C 529.369 164.630, 529.395 165.497, 532.675 165.092 C 535.392 164.756, 534.763 167.408, 529.981 176.439 L 524.919 186 529.051 186 L 533.184 186 529.500 192.750 C 524.695 201.557, 524.443 201.758, 522.625 198.242 C 520.947 194.996, 521.316 194, 524.196 194 C 525.846 194, 525.655 193.240, 522.529 187.349 C 518.307 179.394, 518.213 178.586, 521.599 179.436 L 524.199 180.088 522.041 177.057 C 520.854 175.390, 518.067 170.152, 515.848 165.417 L 511.813 156.807 508.463 164.514 C 506.620 168.753, 504.886 172.447, 504.610 172.723 C 504.334 172.999, 502.314 169.526, 500.121 165.004 L 496.133 156.783 492.221 164.559 L 488.308 172.336 485.977 167.668 C 484.695 165.101, 483.372 163, 483.037 163 C 482.703 163, 480.987 165.925, 479.224 169.500 C 476.242 175.547, 475.788 176, 472.706 176 C 469.801 176, 469.139 175.478, 467.322 171.750 L 465.250 167.500 462.417 173.250 C 460.858 176.412, 459.316 179, 458.988 179 C 458.661 179, 457.455 177.359, 456.308 175.352 L 454.224 171.705 451.417 175.946 C 448.434 180.454, 448.106 180.406, 445.007 175.008 C 444.535 174.188, 443.986 173.738, 443.785 174.008 C 439.491 179.785, 438 181.992, 438 182.571 C 438 182.959, 451.543 183.059, 468.095 182.793 C 490.902 182.428, 498.380 182.004, 498.974 181.042 C 499.597 180.034, 499.885 180.053, 500.379 181.137 C 500.860 182.192, 501.132 182.218, 501.583 181.250 C 501.904 180.563, 502.548 180, 503.014 180 C 504.324 180, 502.518 185.219, 499.617 189.814 C 496.187 195.248, 496.259 196.322, 500 195.500 C 501.984 195.064, 503 195.233, 503 195.997 C 503 196.633, 500.284 202.028, 496.964 207.984 L 490.928 218.815 483.214 220.516 C 473.924 222.564, 469.829 224.171, 467.200 226.800 C 466.114 227.886, 464.387 229.261, 463.363 229.857 C 459.215 232.267, 465.440 230.936, 479.370 226.434 C 510.587 216.346, 539.643 210.304, 563 209.044 C 570.425 208.643, 574.353 208.245, 571.730 208.158 C 566.985 208.001, 566.937 207.965, 562.632 201.250 C 560.252 197.537, 557.068 192.363, 555.557 189.750 L 552.810 185 556.874 185 C 561.739 185, 561.729 184.946, 554.799 173.773 C 552.160 169.517, 550 165.802, 550 165.518 C 550 165.233, 551.572 165, 553.493 165 L 556.987 165 552.549 158.077 C 550.108 154.269, 546.954 148.869, 545.539 146.077 C 544.124 143.284, 542.861 141.002, 542.733 141.004 C 542.605 141.006, 541.005 143.898, 539.178 147.432 M 230.083 172.049 C 228.618 178.880, 228.718 186.232, 230.306 188.404 C 232.063 190.807, 235.841 190.129, 238.121 187 C 239.123 185.625, 240.347 182.025, 240.840 179 C 241.334 175.975, 242.047 172.773, 242.425 171.883 C 242.964 170.614, 242.040 169.916, 238.118 168.633 C 235.371 167.735, 232.684 167, 232.145 167 C 231.606 167, 230.678 169.272, 230.083 172.049 M 310 169.057 C 308.075 170.070, 306.087 171.059, 305.582 171.255 C 304.428 171.704, 309.214 180.590, 313.239 185.473 C 317.202 190.282, 320.497 191.559, 323.635 189.504 C 326.952 187.330, 326.621 185.484, 321.489 177.523 C 319.015 173.686, 316.737 169.748, 316.428 168.773 C 315.743 166.615, 314.543 166.668, 310 169.057 M 299.014 179.250 C 299.033 191.222, 299.369 192.016, 304.367 191.924 C 306.640 191.882, 309.952 191.320, 311.726 190.674 L 314.952 189.500 311.378 185 C 309.412 182.525, 306.946 178.828, 305.899 176.783 C 304.250 173.567, 301.439 171, 299.566 171 C 299.255 171, 299.006 174.713, 299.014 179.250 M 243.361 174 C 242.763 175.375, 241.969 178.568, 241.598 181.096 C 241.075 184.662, 241.278 185.986, 242.504 187.004 C 244.963 189.044, 245.546 187.156, 244.975 179 C 244.519 172.489, 244.307 171.830, 243.361 174 M 294.446 187.678 C 293.323 190.801, 291.301 194.178, 289.952 195.182 C 285.935 198.175, 273.723 200.250, 263.188 199.731 C 254.268 199.291, 253.732 199.133, 250.453 195.954 C 248.570 194.130, 246.828 192.839, 246.580 193.086 C 246.333 193.334, 245.823 195.855, 245.447 198.688 L 244.763 203.841 248.632 204.930 C 266.427 209.941, 296.126 208.327, 298.468 202.222 C 299.218 200.268, 297.988 182, 297.107 182 C 296.766 182, 295.569 184.555, 294.446 187.678 M 306.500 193.256 C 303.200 193.806, 300.351 194.385, 300.169 194.542 C 299.131 195.441, 302.420 198.999, 304.285 198.996 C 307.278 198.991, 313 195.392, 313 193.515 C 313 192.682, 312.887 192.058, 312.750 192.128 C 312.613 192.199, 309.800 192.706, 306.500 193.256 M 225 204 C 225 206.200, 225.450 208, 226 208 C 226.550 208, 227 206.200, 227 204 C 227 201.800, 226.550 200, 226 200 C 225.450 200, 225 201.800, 225 204 M 210.750 201.766 C 209.569 202.023, 209 203.098, 209 205.073 C 209 207.791, 209.267 207.999, 212.750 207.985 C 217.594 207.965, 219.256 206.846, 218.837 203.887 C 218.570 201.993, 217.881 201.488, 215.500 201.442 C 213.850 201.411, 211.713 201.556, 210.750 201.766 M 202.844 207.161 C 203.143 210.298, 203.464 210.922, 204.149 209.698 C 205.083 208.029, 204.307 203, 203.115 203 C 202.748 203, 202.626 204.872, 202.844 207.161 M 186 206.977 C 186 210.620, 187.532 211.438, 192.128 210.247 C 194.796 209.555, 195.500 208.864, 195.500 206.936 C 195.500 204.739, 195.034 204.470, 190.750 204.195 C 186.044 203.893, 186 203.919, 186 206.977 M 224 212 C 224 213.111, 224.667 214, 225.500 214 C 226.333 214, 227 213.111, 227 212 C 227 210.889, 226.333 210, 225.500 210 C 224.667 210, 224 210.889, 224 212 M 202 214 C 202 215.111, 202.667 216, 203.500 216 C 204.333 216, 205 215.111, 205 214 C 205 212.889, 204.333 212, 203.500 212 C 202.667 212, 202 212.889, 202 214 M 213.750 216.051 C 211.788 218.888, 211 221.264, 211 224.347 C 211 226.723, 211.202 228.868, 211.448 229.115 C 211.694 229.361, 213.773 229.384, 216.068 229.165 L 220.240 228.767 219.639 224.384 C 219.309 221.974, 218.749 218.849, 218.395 217.439 C 217.878 215.378, 218.167 214.769, 219.876 214.322 C 222.919 213.526, 222.498 211.993, 219.250 212.038 C 217.194 212.066, 215.806 213.079, 213.750 216.051 M 94.568 222.322 C 93.175 224.149, 90.895 226.253, 89.503 226.998 L 86.972 228.353 90.507 231.266 C 92.451 232.869, 94.719 235.489, 95.547 237.090 L 97.051 240 109.157 240 L 121.262 240 120.677 236.394 C 119.804 231.017, 117.710 228.539, 112.338 226.526 C 109.677 225.529, 105.724 223.427, 103.553 221.856 C 101.382 220.285, 99.043 219, 98.354 219 C 97.665 219, 95.962 220.495, 94.568 222.322 M 281.574 229.050 C 281.191 232.438, 281.177 235.500, 281.544 235.855 C 282.191 236.481, 291 227.210, 291 225.902 C 291 225.544, 289.762 225, 288.250 224.695 C 286.738 224.390, 284.773 223.859, 283.885 223.515 C 282.546 222.997, 282.152 223.940, 281.574 229.050 M 294.536 229.140 C 293.082 230.867, 292.142 232.929, 292.447 233.722 C 292.751 234.515, 293 236.420, 293 237.955 C 293 240.574, 293.202 240.706, 296.250 240.087 C 299.390 239.448, 299.520 239.225, 300.084 233.463 C 300.405 230.183, 300.491 227.162, 300.275 226.750 C 299.436 225.148, 297.064 226.136, 294.536 229.140 M 505.318 230.402 C 499.281 233.427, 494 237.520, 494 239.174 C 494 239.628, 501.200 240, 510 240 C 519.114 240, 526 239.603, 526 239.077 C 526 237.261, 520.888 232.125, 516.554 229.585 C 514.129 228.163, 511.999 227.068, 511.822 227.152 C 511.645 227.235, 508.718 228.698, 505.318 230.402 M 237.750 233.716 C 235.617 234.039, 235 234.679, 235 236.566 C 235 238.964, 235.132 239, 244 239 L 253 239 253 236 L 253 233 246.750 233.150 C 243.313 233.232, 239.262 233.487, 237.750 233.716 M 257 236.040 L 257 239.081 265.250 238.790 C 273.425 238.503, 273.503 238.475, 273.816 235.750 L 274.133 233 265.566 233 L 257 233 257 236.040 M 210.250 235.360 C 206.213 237.360, 207.506 239.141, 212.750 238.805 C 216.803 238.545, 217.547 238.170, 217.820 236.250 C 218.089 234.351, 217.699 234.019, 215.320 234.123 C 213.769 234.190, 211.488 234.747, 210.250 235.360 M 225.750 234.728 C 222.840 235.033, 222 235.555, 222 237.060 C 222 238.657, 222.708 239, 226 239 C 229.600 239, 230 238.750, 230 236.500 C 230 235.125, 229.887 234.076, 229.750 234.168 C 229.613 234.261, 227.813 234.513, 225.750 234.728 M 287.530 237.250 C 287.305 237.938, 285.774 246.600, 284.128 256.500 C 281.418 272.787, 281.284 274.616, 282.714 275.718 C 284.832 277.350, 285.999 276.455, 286.005 273.191 C 286.008 271.711, 286.873 265.325, 287.927 259 C 291.259 239.006, 291.475 236, 289.584 236 C 288.678 236, 287.754 236.563, 287.530 237.250 M 419.500 245.425 C 399.577 252.234, 400.183 252.718, 420.750 246.422 C 427.488 244.360, 433 242.296, 433 241.836 C 433 240.768, 433.567 240.617, 419.500 245.425 M 251 242.980 C 251 243.518, 252.825 244.890, 255.055 246.028 C 257.285 247.165, 260.537 250.122, 262.282 252.598 C 265.157 256.677, 265.574 256.936, 266.727 255.358 C 268.595 252.805, 268.447 252.458, 263.184 246.997 C 259.117 242.777, 257.795 242, 254.684 242 C 252.658 242, 251 242.441, 251 242.980 M 228.188 244.804 C 223.363 245.081, 222.904 245.311, 223.188 247.304 C 223.467 249.266, 224.182 249.532, 229.898 249.802 C 236.610 250.118, 238.464 249.374, 237.464 246.766 C 236.711 244.804, 234.897 244.420, 228.188 244.804 M 272.250 245.703 C 271.563 245.958, 271 246.798, 271 247.569 C 271 248.340, 267.611 255.973, 263.469 264.531 C 256.523 278.884, 255.554 282, 258.039 282 C 258.546 282, 262.798 274.257, 267.488 264.793 C 274.248 251.151, 275.754 247.343, 274.757 246.413 C 274.066 245.768, 272.938 245.448, 272.250 245.703 M 273.407 255.513 C 272.829 257.817, 273.193 262.240, 274.662 270.750 C 275.041 272.949, 275.782 274, 276.954 274 C 278.566 274, 278.595 273.359, 277.378 264.750 C 276.659 259.663, 276.055 254.938, 276.035 254.250 C 275.972 252.012, 274.055 252.933, 273.407 255.513 M 242.456 258.469 C 237.836 264.526, 235.840 272.988, 235.843 286.500 C 235.846 301.638, 238.162 310.179, 243.546 314.906 C 245.484 316.608, 247.999 318, 249.135 318 C 252.647 318, 257.495 312.060, 259.903 304.807 C 262.058 298.316, 262.237 298.101, 265.813 297.725 C 268.625 297.428, 268.195 297.295, 264 297.163 C 259.377 297.018, 257.982 296.505, 255.250 293.945 C 252.315 291.193, 252.001 290.347, 252.015 285.199 C 252.023 281.983, 253.113 276.014, 254.515 271.500 C 257.627 261.481, 257.615 260.963, 254.195 257.687 C 250.086 253.750, 245.839 254.034, 242.456 258.469 M 296.013 257.466 C 294.697 260.927, 295.039 266.195, 296.613 266.711 C 297.225 266.911, 298.293 265.707, 298.986 264.034 C 300.040 261.490, 299.991 260.465, 298.685 257.768 L 297.124 254.545 296.013 257.466 M 248.122 257.500 C 248.080 258.600, 248.929 262.650, 250.009 266.500 C 251.746 272.696, 251.909 272.956, 251.427 268.766 C 250.795 263.273, 248.234 254.544, 248.122 257.500 M 483 257.497 C 475.025 258.220, 464.450 259.528, 459.500 260.403 C 448.443 262.357, 449.005 262.365, 448.978 260.250 C 448.960 258.824, 448.607 258.954, 447.072 260.951 C 445.470 263.035, 444.952 263.205, 443.605 262.087 C 442.735 261.365, 442.269 260.374, 442.570 259.887 C 442.871 259.399, 442.633 259, 442.040 259 C 441.412 259, 441.205 259.968, 441.544 261.321 C 442.100 263.536, 441.661 263.745, 431.813 265.938 C 426.141 267.201, 415.269 270.238, 407.653 272.687 C 393.312 277.299, 389.248 279.388, 401.514 275.843 C 441.117 264.399, 467.701 259.637, 499.245 258.337 C 507.921 257.979, 514.903 257.586, 514.760 257.464 C 513.537 256.416, 494.703 256.435, 483 257.497 M 115.813 266.683 C 116.534 266.972, 117.397 266.936, 117.729 266.604 C 118.061 266.272, 117.471 266.036, 116.417 266.079 C 115.252 266.127, 115.015 266.364, 115.813 266.683 M 153.750 267.575 C 153.338 267.992, 153 269.533, 153 271 C 153 275.167, 151.956 275.262, 148.236 271.431 C 144.346 267.426, 143.458 267.445, 145 271.500 C 145.581 273.028, 145.915 274.418, 145.743 274.591 C 145.570 274.763, 141.181 273.572, 135.989 271.944 C 130.796 270.316, 126.130 269.123, 125.620 269.293 C 125.110 269.463, 128.699 270.904, 133.596 272.495 C 141.278 274.990, 150.146 278.343, 172.250 287.108 C 174.863 288.144, 177 288.764, 177 288.484 C 177 288.004, 166.160 282.797, 161.186 280.889 L 158.872 280.001 161.114 276.012 C 164.057 270.775, 162.834 269.799, 158.542 273.959 L 155.114 277.282 154.807 272.049 C 154.638 269.171, 154.162 267.157, 153.750 267.575 M 243.872 275.654 C 242.941 276.776, 242.500 280.102, 242.500 286 C 242.500 296.247, 243.462 298, 249.089 298 L 252.933 298 250.855 294.478 C 249.139 291.570, 248.857 289.785, 249.235 284.228 C 249.487 280.528, 250.035 276.712, 250.453 275.750 C 251.082 274.304, 250.695 274, 248.229 274 C 246.588 274, 244.627 274.744, 243.872 275.654 M 297.236 276 C 297.458 277.163, 299.427 277.568, 306.011 277.804 C 315.711 278.152, 320.600 277.485, 321.275 275.723 C 321.629 274.800, 318.706 274.500, 309.346 274.500 C 298.866 274.500, 296.993 274.732, 297.236 276 M 297.358 282.750 C 297.643 284.262, 298.150 288.005, 298.487 291.066 C 300.448 308.927, 311.134 305.714, 312.721 286.786 C 313.335 279.462, 312.152 277.824, 309.797 282.738 C 307.930 286.634, 305.464 286.771, 304.168 283.051 C 303.287 280.526, 302.565 280, 299.973 280 C 297.098 280, 296.883 280.225, 297.358 282.750 M 260.054 284.435 C 257.957 286.962, 259.786 287.887, 267.509 288.209 C 274.100 288.483, 274.518 288.371, 274.820 286.250 C 275.076 284.446, 274.657 284, 272.709 284 C 271.373 284, 268.286 283.727, 265.851 283.393 C 262.429 282.924, 261.111 283.161, 260.054 284.435" stroke="none" fill="black" fill-rule="evenodd"/>
	<path fill-opacity="0.493" d="M 266.500 96.881 C 262.403 98.762, 256.812 103.777, 260.306 102.436 C 261.238 102.079, 262 101.481, 262 101.109 C 262 99.494, 268.167 97, 272.154 97.002 C 278.145 97.004, 283.029 99.708, 285.697 104.500 C 286.922 106.700, 288.168 108.379, 288.466 108.232 C 288.765 108.085, 290.189 108.260, 291.630 108.622 C 295.067 109.484, 292.633 111.003, 288.535 110.553 C 286.953 110.380, 284.273 110.641, 282.579 111.135 C 277.176 112.710, 273.688 113.147, 265.709 113.249 L 257.918 113.349 258.568 116.425 C 258.925 118.116, 260.164 121.210, 261.321 123.301 C 264.029 128.192, 262.964 130.004, 256.419 131.642 C 248.667 133.582, 243.773 136.741, 240.234 142.090 C 238.455 144.778, 237 147.250, 237 147.584 C 237 147.918, 236.069 149.498, 234.932 151.096 C 233.794 152.693, 233.320 154, 233.877 154 C 234.435 154, 236.556 150.831, 238.592 146.958 C 241.925 140.614, 245.915 136, 248.067 136 C 249.872 136, 250.083 140.521, 248.551 146.324 C 247.653 149.721, 246.600 155.875, 246.210 160 L 245.500 167.500 242.324 167.808 C 238.519 168.177, 231 164.606, 231 162.430 C 231 161.589, 231.712 159.523, 232.583 157.840 C 233.453 156.157, 233.675 155.083, 233.075 155.453 C 230.981 156.748, 228.890 161.981, 229.810 163.625 C 230.364 164.615, 230.173 166.721, 229.300 169.256 C 227.703 173.891, 227.660 190.785, 229.240 192.750 C 229.793 193.438, 231.710 194, 233.500 194 C 235.290 194, 237.339 194.704, 238.053 195.564 C 238.890 196.572, 240.197 196.916, 241.727 196.532 C 243.975 195.968, 244.067 196.127, 243.438 199.479 C 243.055 201.522, 243.220 203.561, 243.829 204.295 C 244.498 205.100, 244.545 206.106, 243.958 207.034 C 243.448 207.840, 243.024 210.863, 243.015 213.750 L 243 219 239.082 219 C 236.927 219, 234.450 219.274, 233.578 219.608 C 232.407 220.058, 231.835 219.423, 231.384 217.172 C 231.050 215.498, 230.151 213.888, 229.388 213.595 C 228.388 213.212, 228 211.117, 228 206.101 C 228 199.656, 227.834 199.115, 225.763 198.820 C 224.068 198.577, 223.389 197.646, 222.956 194.966 C 221.682 187.078, 218.605 187.841, 219.693 195.775 C 220.018 198.151, 219.883 200.020, 219.392 199.929 C 218.902 199.838, 216.137 199.816, 213.250 199.882 L 208 200 208.015 203.750 C 208.033 207.959, 208.534 208.957, 211.733 211.140 C 213.585 212.405, 213.756 212.938, 212.733 214.270 C 211.900 215.355, 210.607 215.696, 208.750 215.322 C 206.203 214.808, 205.990 214.388, 205.864 209.633 C 205.789 206.810, 205.526 205.625, 205.279 207 C 204.696 210.251, 203.005 212.058, 202.986 209.450 C 202.979 208.378, 202.682 206.412, 202.326 205.081 C 201.797 203.107, 201.983 202.780, 203.339 203.300 C 205.066 203.963, 205.682 202.540, 204.094 201.558 C 203.595 201.250, 202.881 198.771, 202.507 196.049 C 201.755 190.581, 199.574 187.615, 198.589 190.720 C 198.270 191.724, 198.457 194.108, 199.005 196.016 C 200.663 201.799, 200.573 201.889, 192.830 202.206 C 188.886 202.368, 185.506 202.967, 185.317 203.538 C 185.093 204.218, 187.005 204.382, 190.865 204.013 L 196.755 203.450 196.319 206.216 C 195.956 208.519, 196.185 208.887, 197.691 208.416 C 199.385 207.885, 199.389 207.920, 197.756 208.971 C 196.797 209.588, 193.759 210.360, 191.006 210.686 C 186.038 211.274, 185.999 211.257, 185.864 208.389 C 185.747 205.905, 185.665 205.827, 185.283 207.832 C 184.806 210.341, 187.399 214, 189.655 214 C 191.271 214, 191.325 214.525, 189.965 217.066 C 189.395 218.130, 188.270 219, 187.465 219 C 186.659 219, 186 219.450, 186 220 C 186 222.256, 189.131 220.769, 191.241 217.512 C 192.913 214.931, 194.215 214.022, 196.250 214.012 C 197.762 214.006, 199.326 213.966, 199.725 213.925 C 201.437 213.748, 200.931 215.887, 199.125 216.460 C 197.474 216.984, 197.230 217.713, 197.675 220.795 C 198.766 228.348, 199.949 230.739, 199.385 224.250 L 198.841 218 201.839 218 C 203.488 218, 205.482 217.752, 206.270 217.450 C 207.343 217.038, 207.993 218.339, 208.852 222.617 C 209.483 225.761, 210 229.791, 210 231.572 C 210 234.772, 210.046 234.803, 214 234.273 C 217.789 233.765, 218 233.875, 218 236.368 C 218 238.868, 217.743 239, 212.883 239 C 208.259 239, 207.817 238.808, 208.290 237 C 208.746 235.257, 208.320 235, 204.980 235 C 202.170 235, 201.025 234.533, 200.689 233.250 C 200.345 231.933, 200.203 232.057, 200.116 233.750 C 200.032 235.372, 200.558 236, 202 236 C 204.717 236, 204.538 238.571, 201.750 239.584 C 200.217 240.141, 202.419 240.508, 208.658 240.737 C 214.560 240.953, 218.197 241.532, 218.888 242.365 C 219.478 243.076, 221.092 246.664, 222.475 250.337 L 224.989 257.017 222.857 264.759 C 221.236 270.648, 220.709 275.491, 220.658 285 C 220.549 305.355, 225.168 320.773, 233.362 327.406 C 236.953 330.311, 237.694 330.500, 245.519 330.500 C 252.416 330.500, 254.340 330.139, 256.677 328.404 C 262.178 324.319, 265.047 318.057, 268.430 302.750 C 269.019 300.087, 269.248 300, 275.686 300 C 284.907 300, 283.300 299.390, 271.961 298.586 L 262.423 297.910 260.233 304.708 C 258.977 308.607, 256.731 312.943, 254.967 314.875 C 252.266 317.832, 251.453 318.173, 248.321 317.665 C 243.713 316.917, 241.673 314.992, 239.064 308.928 C 234.725 298.841, 234.116 280.748, 237.679 267.771 C 239.277 261.950, 244.156 255.225, 247 254.922 C 251.064 254.491, 252.976 255.279, 255.324 258.358 L 257.886 261.717 254.954 271.108 C 251.200 283.133, 251.057 289.765, 254.480 292.981 C 257.639 295.949, 264.095 296.992, 275 296.297 C 284.291 295.704, 285.523 295.136, 287.411 290.568 L 288.679 287.500 289.425 293.500 C 291.267 308.326, 299.443 315.442, 308.972 310.514 C 312.544 308.667, 315.408 301.493, 316.924 290.594 C 318.808 277.044, 319.237 277.852, 310.250 278.007 C 297.132 278.234, 297 278.214, 297 275.973 C 297 274.061, 297.420 273.983, 304.447 274.595 C 308.543 274.952, 314.368 274.935, 317.391 274.557 C 322.513 273.917, 322.833 273.721, 322.084 271.685 C 321.594 270.355, 319.562 268.863, 316.890 267.873 C 313.475 266.607, 312.432 265.683, 312.192 263.709 C 311.971 261.888, 312.448 260.993, 313.881 260.538 C 315.365 260.067, 316.165 258.441, 316.996 254.202 C 317.611 251.066, 319.010 244.225, 320.106 239 C 321.202 233.775, 322.189 225.577, 322.299 220.783 C 322.532 210.677, 321.980 209.792, 311.559 203.555 C 308.291 201.600, 306.318 200, 307.174 200 C 308.030 200, 309.923 199.062, 311.381 197.915 C 313.514 196.237, 314.818 195.962, 318.051 196.509 C 320.261 196.882, 322.616 196.756, 323.285 196.229 C 323.953 195.702, 326.474 195.019, 328.888 194.712 C 331.301 194.405, 334.001 193.413, 334.888 192.508 C 336.374 190.992, 336.266 190.674, 333.500 188.437 C 331.850 187.102, 329.757 186.008, 328.848 186.005 C 327.895 186.002, 326.729 184.662, 326.094 182.839 C 325.488 181.100, 323.935 178.288, 322.644 176.589 C 319.300 172.189, 317.017 167.481, 316.635 164.198 C 316.211 160.562, 307.410 144.238, 303.713 140.234 C 300.361 136.603, 293.472 133.026, 288.524 132.348 C 283.476 131.656, 282.240 130.621, 283.971 128.535 C 284.894 127.423, 284.714 127.262, 283.042 127.699 C 279.857 128.532, 279.688 129.749, 282.500 131.592 C 284.968 133.209, 284.998 133.345, 283.299 135.222 C 281.780 136.901, 280.766 137.073, 276.017 136.459 C 272.983 136.067, 268.352 135.812, 265.726 135.893 C 259.761 136.075, 258.547 134.076, 262.434 130.473 C 264.656 128.414, 266.107 128, 271.097 128 C 276.128 128, 277.485 127.606, 279.545 125.545 C 281.074 124.017, 282 121.945, 282 120.054 C 282 118.100, 282.713 116.572, 284 115.768 C 285.100 115.081, 286 113.877, 286 113.093 C 286 109.823, 287.507 113.514, 288.131 118.311 L 288.806 123.500 288.702 118.067 C 288.645 115.079, 289.026 112.531, 289.549 112.404 C 290.072 112.278, 291.738 111.902, 293.250 111.568 C 297.168 110.704, 296.660 109.417, 291.646 107.503 C 288.516 106.307, 286.900 104.948, 285.896 102.670 C 284.353 99.166, 277.324 94.985, 273.038 95.022 C 271.642 95.034, 268.700 95.870, 266.500 96.881 M 184.500 101 C 184.160 101.550, 184.359 102, 184.941 102 C 185.523 102, 186 101.550, 186 101 C 186 100.450, 185.802 100, 185.559 100 C 185.316 100, 184.840 100.450, 184.500 101 M 258.079 105.583 C 258.127 106.748, 258.364 106.985, 258.683 106.188 C 258.972 105.466, 258.936 104.603, 258.604 104.271 C 258.272 103.939, 258.036 104.529, 258.079 105.583 M 207.500 106 C 207.160 106.550, 207.359 107, 207.941 107 C 208.523 107, 209 106.550, 209 106 C 209 105.450, 208.802 105, 208.559 105 C 208.316 105, 207.840 105.450, 207.500 106 M 257.079 110.583 C 257.127 111.748, 257.364 111.985, 257.683 111.188 C 257.972 110.466, 257.936 109.603, 257.604 109.271 C 257.272 108.939, 257.036 109.529, 257.079 110.583 M 188.645 123 C 189.436 127.313, 190.005 128.126, 189.985 124.917 C 189.976 123.588, 189.527 121.825, 188.986 121 C 188.294 119.945, 188.193 120.538, 188.645 123 M 211.079 125.583 C 211.127 126.748, 211.364 126.985, 211.683 126.188 C 211.972 125.466, 211.936 124.603, 211.604 124.271 C 211.272 123.939, 211.036 124.529, 211.079 125.583 M 190.232 131 C 190.232 132.925, 190.438 133.713, 190.689 132.750 C 190.941 131.787, 190.941 130.213, 190.689 129.250 C 190.438 128.287, 190.232 129.075, 190.232 131 M 212.158 134 C 212.158 135.375, 212.385 135.938, 212.662 135.250 C 212.940 134.563, 212.940 133.438, 212.662 132.750 C 212.385 132.063, 212.158 132.625, 212.158 134 M 252.750 134.080 C 251.787 134.641, 251 135.788, 251 136.629 C 251 137.829, 251.701 138.011, 254.250 137.474 C 258.099 136.663, 259.476 135.579, 258.554 134.087 C 257.719 132.736, 255.062 132.733, 252.750 134.080 M 287.460 134.026 C 286.344 134.438, 284.901 135.415, 284.253 136.195 C 283.307 137.335, 283.609 137.929, 285.794 139.219 C 288.411 140.765, 288.631 140.719, 291.689 137.987 L 294.865 135.149 292.177 134.212 C 290.699 133.696, 288.576 133.613, 287.460 134.026 M 191.375 141.500 C 191.444 145.350, 191.816 148.738, 192.202 149.029 C 192.588 149.321, 194.092 157.196, 195.544 166.529 C 198.035 182.537, 199 186.949, 199 182.323 C 199 180.361, 193.854 147.950, 192.121 139 C 191.300 134.759, 191.257 134.903, 191.375 141.500 M 292.324 139.476 L 288.746 143.054 289.398 155.277 C 290.342 172.957, 291.118 180.045, 292.050 179.469 C 293.072 178.837, 296 168.926, 296 166.096 C 296 163.153, 297.647 163.489, 299.205 166.750 C 300.905 170.308, 303.683 170.629, 309.425 167.930 C 316.410 164.647, 316.481 163.793, 310.624 153.453 C 303.338 140.589, 302.344 139.229, 298.942 137.470 C 295.948 135.922, 295.848 135.952, 292.324 139.476 M 213.252 140.500 C 213.263 142.700, 213.468 143.482, 213.707 142.238 C 213.946 140.994, 213.937 139.194, 213.687 138.238 C 213.437 137.282, 213.241 138.300, 213.252 140.500 M 257.500 138.506 C 255.300 139.287, 252.713 140.892, 251.750 142.073 C 248.220 146.407, 250.704 156.863, 254.944 155.518 C 257.375 154.746, 259.981 155.885, 259.379 157.455 C 258.287 160.301, 269.706 160.277, 271.299 157.430 C 271.964 156.242, 273.048 155.974, 275.406 156.416 C 278.037 156.910, 279.081 156.525, 281.252 154.259 C 282.705 152.741, 284.619 149.764, 285.505 147.643 C 287.004 144.055, 286.996 143.653, 285.394 141.883 C 281.415 137.486, 265.730 135.588, 257.500 138.506 M 214.116 147.677 C 214.039 149.797, 213.418 151.005, 212.250 151.311 C 210.826 151.683, 210.886 151.790, 212.574 151.884 C 214.459 151.989, 214.806 153.156, 216.394 164.750 C 218.263 178.389, 220.384 188.734, 219.521 180 C 219.021 174.946, 215.167 148.320, 214.599 146 C 214.397 145.175, 214.180 145.930, 214.116 147.677 M 247.570 158.082 C 246.768 165.170, 246.759 181.450, 247.554 187.489 C 248.505 194.722, 249.505 193.058, 249.227 184.705 C 248.872 174.051, 249.219 173.569, 256.299 174.878 C 259.371 175.446, 265.686 175.643, 270.332 175.315 C 278.498 174.738, 278.822 174.798, 280.065 177.109 C 280.772 178.424, 281.554 182.979, 281.802 187.230 C 282.574 200.423, 283.998 194.681, 284.044 178.191 C 284.068 169.561, 284.478 160.475, 284.957 158 C 285.435 155.525, 285.678 153.350, 285.497 153.167 C 285.315 152.983, 284.314 153.686, 283.273 154.727 C 282.231 155.769, 280.488 157.269, 279.400 158.061 C 278.312 158.852, 276.989 161.300, 276.461 163.500 C 275.289 168.377, 272.879 168.786, 271.566 164.330 C 270.672 161.297, 270.378 161.145, 264.814 160.830 C 261.391 160.636, 258.988 160.912, 258.976 161.500 C 258.965 162.050, 258.069 163.625, 256.985 165 C 255.309 167.126, 254.862 167.276, 253.991 166 C 253.428 165.175, 253.069 163.116, 253.193 161.425 C 253.343 159.390, 252.552 157.242, 250.851 155.069 L 248.282 151.787 247.570 158.082 M 272.813 162.683 C 273.534 162.972, 274.397 162.936, 274.729 162.604 C 275.061 162.272, 274.471 162.036, 273.417 162.079 C 272.252 162.127, 272.015 162.364, 272.813 162.683 M 230.795 168.304 C 230.106 169.548, 229.561 174.347, 229.539 179.379 C 229.507 186.666, 229.804 188.452, 231.197 189.340 C 233.996 191.126, 238.129 189.010, 239.677 185 C 240.420 183.075, 240.838 182.518, 240.604 183.763 C 240.204 185.903, 242.290 188, 244.820 188 C 245.354 188, 245.712 184.493, 245.636 180.009 C 245.490 171.433, 244.131 169.570, 242.164 175.250 C 241.045 178.481, 241.341 175.818, 242.609 171.250 C 243.116 169.421, 242.831 169, 241.085 169 C 239.903 169, 237.378 168.349, 235.474 167.554 C 232.197 166.184, 231.948 166.224, 230.795 168.304 M 309.250 169.296 C 306.913 170.421, 305 171.769, 305 172.290 C 305 174.304, 312.212 184.979, 315.555 187.914 C 319.458 191.341, 322.070 191.787, 324.429 189.429 C 326.831 187.026, 326.371 185.010, 321.687 177.413 C 319.315 173.565, 317.079 169.648, 316.718 168.709 C 315.907 166.595, 314.652 166.694, 309.250 169.296 M 299.216 181.750 C 299.470 191.346, 299.688 192.468, 301.250 192.206 C 302.212 192.045, 303 192.382, 303 192.956 C 303 193.530, 302.325 194, 301.500 194 C 299.168 194, 299.735 197.558, 302.250 198.704 C 304.759 199.847, 308.374 198.877, 311.229 196.292 C 314.383 193.438, 313.402 192.217, 308.250 192.584 L 303.500 192.922 308.387 192.024 C 311.074 191.531, 313.676 190.724, 314.167 190.233 C 314.693 189.707, 313.456 187.310, 311.168 184.419 C 309.026 181.714, 306.475 177.925, 305.498 176 C 303.610 172.282, 302.294 171.040, 300.216 171.015 C 299.232 171.004, 298.999 173.512, 299.216 181.750 M 250.772 179.824 C 250.229 184.476, 251.587 194.987, 252.900 196.300 C 255.276 198.676, 277.386 198.949, 279.701 196.632 C 280.844 195.487, 280.359 182.281, 279.058 179.141 L 277.964 176.500 264.562 176.500 L 251.160 176.500 250.772 179.824 M 294.656 186.422 C 293.716 189.404, 292.171 192.794, 291.224 193.954 C 288.054 197.836, 271.278 200.809, 259.961 199.495 C 254.902 198.908, 253.081 198.165, 250.096 195.468 L 246.435 192.160 245.237 197.206 C 244.577 199.982, 244.277 202.640, 244.570 203.113 C 244.862 203.586, 247.666 204.766, 250.801 205.734 C 255.292 207.121, 260.105 207.494, 273.500 207.497 C 289.123 207.500, 290.834 207.321, 294.627 205.293 C 299.635 202.614, 299.978 201.833, 298.937 195.487 C 298.487 192.744, 298.092 188.363, 298.060 185.750 C 298.027 183.137, 297.632 181, 297.183 181 C 296.733 181, 295.596 183.440, 294.656 186.422 M 325.339 189.936 C 321.835 193.125, 322.822 194.099, 328.488 193.042 C 331.733 192.437, 333.149 189.343, 330.848 187.885 C 328.960 186.689, 328.869 186.723, 325.339 189.936 M 225 204 C 225 206.200, 225.450 208, 226 208 C 226.550 208, 227 206.200, 227 204 C 227 201.800, 226.550 200, 226 200 C 225.450 200, 225 201.800, 225 204 M 300.524 201.924 C 298.906 207.022, 289.396 209.522, 272 209.423 C 260.270 209.357, 256.414 208.875, 247.859 206.408 C 245.921 205.849, 244 210.449, 244 215.649 C 244 218.997, 244.004 219, 248.930 219 C 253.282 219, 253.898 218.736, 254.180 216.750 C 254.491 214.562, 254.774 214.509, 264.500 214.835 C 274.599 215.174, 276.893 215.893, 281.014 220.014 C 285.400 224.400, 300.316 225.601, 307.019 222.107 C 309.242 220.948, 311.328 220, 311.653 220 C 313.202 220, 309.577 222.887, 306.006 224.497 C 303.229 225.750, 301.982 226.948, 301.941 228.402 C 301.909 229.556, 301.308 236.125, 300.605 243 C 299.903 249.875, 299.504 256.002, 299.719 256.615 C 300.787 259.659, 311.696 261.276, 313.829 258.706 C 315.136 257.131, 318.532 241.435, 319.932 230.500 C 321.873 215.335, 321.870 214.104, 319.891 211.589 C 317.738 208.852, 310.097 203.774, 304.801 201.561 C 301.341 200.116, 301.091 200.137, 300.524 201.924 M 209 204.500 C 209 207.985, 209.019 208, 213.531 208 C 216.629 208, 218.244 207.527, 218.636 206.506 C 218.952 205.684, 219.570 205.234, 220.011 205.507 C 220.452 205.779, 220.293 204.880, 219.656 203.509 C 218.662 201.365, 217.834 201.015, 213.750 201.008 L 209 201 209 204.500 M 221.754 205.167 C 222.018 206.175, 222.534 207, 222.902 207 C 223.270 207, 223.571 206.175, 223.571 205.167 C 223.571 204.158, 223.055 203.333, 222.423 203.333 C 221.791 203.333, 221.490 204.158, 221.754 205.167 M 223.736 210.598 C 222.762 211.571, 224.099 214, 225.607 214 C 226.373 214, 227 213.100, 227 212 C 227 210.117, 225.052 209.281, 223.736 210.598 M 218.826 211.809 C 217.250 211.991, 215.434 213.223, 214.401 214.809 C 213.438 216.289, 211.992 217.989, 211.187 218.587 C 210.022 219.453, 209.906 220.675, 210.617 224.587 L 211.509 229.500 215.878 229.814 L 220.247 230.127 219.547 222.656 C 218.942 216.197, 219.078 215.056, 220.553 214.230 C 222.988 212.867, 221.974 211.445, 218.826 211.809 M 201.736 212.598 C 200.762 213.571, 202.099 216, 203.607 216 C 204.373 216, 205 215.100, 205 214 C 205 212.117, 203.052 211.281, 201.736 212.598 M 224.250 215.732 C 219.455 216.164, 219.572 215.775, 221.136 226.052 L 222.285 233.604 226.851 233.261 C 229.361 233.072, 231.568 232.766, 231.754 232.579 C 232.301 232.032, 229.652 214.983, 229.050 215.175 C 228.747 215.271, 226.588 215.522, 224.250 215.732 M 236.430 222.799 C 232.543 223.084, 232.380 223.230, 232.794 226.049 L 233.227 229 243.677 229 L 254.127 229 253.813 225.871 L 253.500 222.743 247 222.621 C 243.425 222.555, 238.669 222.634, 236.430 222.799 M 263.250 222.737 C 258.170 223.093, 258 223.201, 258 226.093 L 258 229.081 266.250 228.790 C 274.088 228.515, 274.517 228.381, 274.837 226.113 C 275.213 223.459, 273.533 221.943, 270.500 222.200 C 269.400 222.294, 266.137 222.535, 263.250 222.737 M 281 228.469 C 281 232.693, 280.688 233.817, 279.628 233.411 C 278.760 233.078, 278.089 233.752, 277.804 235.243 C 277.011 239.396, 280.513 238.209, 285.919 232.492 C 288.714 229.537, 291 226.696, 291 226.179 C 291 225.422, 283.805 223, 281.557 223 C 281.251 223, 281 225.461, 281 228.469 M 278 226 C 278 227.100, 278.450 228, 279 228 C 279.550 228, 280 227.100, 280 226 C 280 224.900, 279.550 224, 279 224 C 278.450 224, 278 224.900, 278 226 M 294.188 228.960 C 292.985 230.587, 292 233.117, 292 234.582 C 292 236.636, 291.707 237.001, 290.716 236.180 C 290.011 235.594, 288.949 235.426, 288.357 235.807 C 287.765 236.188, 285.876 245.050, 284.159 255.500 C 281.263 273.129, 281.158 274.590, 282.710 275.750 C 285.209 277.618, 286 277.284, 286 274.361 C 286 272.910, 286.867 266.497, 287.926 260.111 C 288.986 253.725, 290.163 246.062, 290.543 243.083 C 291.005 239.456, 291.506 238.153, 292.058 239.139 C 292.613 240.131, 294.002 240.481, 296.311 240.212 C 299.726 239.813, 299.741 239.788, 300.295 233.689 C 300.600 230.321, 300.632 227.214, 300.366 226.783 C 299.312 225.078, 296.263 226.153, 294.188 228.960 M 235.667 233.667 C 235.300 234.033, 235 235.383, 235 236.667 C 235 238.936, 235.244 239, 243.883 239 C 252.162 239, 252.805 238.852, 253.335 236.826 C 253.648 235.631, 253.674 234.281, 253.393 233.826 C 252.787 232.846, 236.633 232.700, 235.667 233.667 M 256.649 235.233 C 256.328 236.461, 256.431 237.831, 256.878 238.278 C 257.324 238.724, 261.247 238.957, 265.595 238.795 C 273.392 238.504, 273.504 238.462, 273.816 235.750 L 274.133 233 265.683 233 C 257.781 233, 257.195 233.145, 256.649 235.233 M 224.750 234.707 C 222.814 235.007, 222 235.722, 222 237.124 C 222 238.848, 222.570 239.074, 226.250 238.807 C 229.720 238.556, 230.500 238.136, 230.500 236.514 C 230.500 234.413, 229.227 234.013, 224.750 234.707 M 251.011 242.750 C 251.018 243.796, 252.612 245.261, 254.974 246.393 C 257.148 247.434, 260.142 250.041, 261.629 252.186 C 263.116 254.331, 264.879 256.404, 265.549 256.793 C 266.421 257.300, 265.232 260.593, 261.345 268.429 C 258.363 274.441, 256.152 279.953, 256.430 280.679 C 257.691 283.963, 259.987 281.112, 265.455 269.470 C 268.691 262.578, 271.659 257.291, 272.049 257.720 C 272.438 258.149, 273.235 261.832, 273.820 265.905 C 274.810 272.804, 276.473 275.927, 278.225 274.175 C 279.166 273.234, 276.309 253.909, 275.040 252.640 C 274.445 252.045, 274.446 251.035, 275.043 249.919 C 275.566 248.943, 275.713 247.415, 275.371 246.523 C 274.378 243.937, 271.702 245.213, 270.797 248.702 C 270.341 250.462, 269.614 252.121, 269.180 252.389 C 268.746 252.657, 266.841 250.920, 264.946 248.529 C 260.920 243.451, 257.226 241, 253.596 241 C 251.786 241, 251.003 241.530, 251.011 242.750 M 223.667 244.667 C 222.303 246.030, 223.036 249.875, 224.750 250.348 C 226.902 250.942, 236.940 250.393, 237.693 249.640 C 237.994 249.339, 237.953 247.947, 237.601 246.547 C 237.001 244.154, 236.580 244, 230.648 244 C 227.175 244, 224.033 244.300, 223.667 244.667 M 295.609 250.020 C 293.655 254.903, 293.629 255.356, 295.341 254.700 C 296.428 254.282, 296.396 255.209, 295.168 259.620 C 294.064 263.588, 293.954 265.354, 294.761 266.161 C 297.783 269.183, 301.468 262.576, 298.978 258.599 C 298.256 257.445, 297.726 254.137, 297.800 251.250 C 297.875 248.363, 297.774 246, 297.577 246 C 297.379 246, 296.493 247.809, 295.609 250.020 M 248.702 260.500 C 249.022 262.700, 249.642 265.400, 250.079 266.500 L 250.873 268.500 250.860 266.500 C 250.852 265.400, 250.233 262.700, 249.483 260.500 L 248.119 256.500 248.702 260.500 M 251.079 270.583 C 251.127 271.748, 251.364 271.985, 251.683 271.188 C 251.972 270.466, 251.936 269.603, 251.604 269.271 C 251.272 268.939, 251.036 269.529, 251.079 270.583 M 244.631 275.512 C 242.664 277.479, 241.595 284.811, 242.446 290.488 C 243.253 295.868, 245.133 298, 249.071 298 C 251.914 298, 252.961 296.712, 251.068 295.542 C 250.555 295.225, 249.630 292.611, 249.012 289.733 C 248.121 285.585, 248.180 283.411, 249.297 279.250 C 250.697 274.039, 250.690 274, 248.425 274 C 247.170 274, 245.462 274.680, 244.631 275.512 M 291.195 276.500 C 291.215 278.150, 291.439 278.704, 291.693 277.731 C 291.947 276.758, 291.930 275.408, 291.656 274.731 C 291.382 274.054, 291.175 274.850, 291.195 276.500 M 320.559 276.532 C 319.491 277.339, 319.099 278, 319.686 278 C 320.274 278, 321.315 277.325, 322 276.500 C 323.557 274.624, 323.067 274.634, 320.559 276.532 M 297.481 286.098 C 298.264 294.207, 300.986 301.674, 303.513 302.643 C 306.917 303.950, 309.623 301.404, 311.342 295.278 C 313.360 288.085, 313.560 280, 311.719 280 C 311.015 280, 309.929 281.350, 309.306 283 C 308.683 284.650, 307.646 286, 307 286 C 306.354 286, 305.317 284.650, 304.694 283 C 304.048 281.288, 302.832 280, 301.863 280 C 300.928 280, 299.399 279.707, 298.465 279.348 C 296.924 278.757, 296.833 279.382, 297.481 286.098 M 259.910 284.608 C 257.739 287.224, 261.289 289, 268.691 289 C 274.679 289, 275 288.878, 275 286.607 C 275 283.685, 273.394 283, 266.541 283 C 262.895 283, 260.829 283.501, 259.910 284.608" stroke="none" fill="black" fill-rule="evenodd"/>
</svg>