<svg xmlns="http://www.w3.org/2000/svg" width="612" height="408" viewBox="0 0 612 408" version="1.1">
	<path fill-opacity="0.745" d="M 438.500 34.895 C 436.300 35.271, 433.099 36.409, 431.386 37.425 C 428.204 39.311, 423 46.330, 423 48.735 C 423 49.470, 422.278 51.173, 421.395 52.520 C 419.851 54.877, 419.889 55.007, 422.395 55.960 C 424.596 56.797, 425 57.564, 425 60.910 C 425 70.868, 430.574 87, 434.014 87 C 434.556 87, 435 88.294, 435 89.875 C 435 92.312, 434.510 92.848, 431.786 93.393 C 430.019 93.746, 424.956 95.791, 420.536 97.936 C 414.256 100.984, 411.706 102.892, 408.865 106.668 C 403.588 113.681, 396 128.230, 396 131.333 C 396 133.317, 394.353 135.560, 389.579 140.075 C 386.007 143.454, 382.476 147.853, 381.620 149.991 C 379.923 154.234, 367.280 165.641, 363.117 166.686 C 361.787 167.019, 359.272 166.777, 357.528 166.146 C 353.314 164.623, 343.815 164.685, 341.668 166.250 C 340.222 167.304, 340.860 167.500, 345.726 167.500 C 350.952 167.500, 351.530 167.713, 351.820 169.750 C 352.121 171.872, 351.793 172, 346.045 172 C 340.552 172, 339.861 171.766, 339.049 169.628 C 338.188 167.364, 337.816 167.278, 330.824 167.742 C 322.819 168.272, 320.418 169.592, 321.465 172.888 C 322.038 174.696, 322.917 175, 327.567 175 C 333.833 175, 334.517 176.309, 329.500 178.701 C 327.575 179.619, 326 180.683, 326 181.064 C 326 181.446, 327.075 184.175, 328.390 187.129 C 333.343 198.262, 336.387 195.395, 298.358 215.419 C 279.872 225.153, 264.189 232.903, 263.507 232.641 C 262.825 232.379, 261.452 229.157, 260.457 225.480 C 259.023 220.180, 258.893 218.401, 259.832 216.897 C 260.846 215.274, 260.731 215, 259.036 215 C 257.478 215, 256.714 213.775, 255.453 209.250 C 252.529 198.763, 251.720 196.506, 250.630 195.802 C 248.925 194.700, 258.043 191.046, 262.559 191.022 C 264.791 191.010, 267.491 190.325, 268.559 189.499 C 270.464 188.027, 270.456 187.961, 268.139 185.999 C 266.053 184.233, 264.133 183.974, 251.639 183.780 C 230.192 183.447, 229.859 183.473, 228.310 185.590 C 224.906 190.246, 227.958 192.962, 239 195.101 C 242.575 195.793, 245.998 196.951, 246.606 197.675 C 247.215 198.398, 248.755 202.868, 250.029 207.608 C 252.180 215.614, 252.225 216.295, 250.652 217.175 C 249.720 217.696, 249.223 218.553, 249.548 219.078 C 249.873 219.603, 250.555 219.775, 251.065 219.460 C 251.575 219.145, 252.510 220.024, 253.143 221.414 C 254.553 224.509, 254.228 224.950, 244.944 232.545 L 238.065 238.174 229.644 233.087 L 221.222 228 209.170 228 C 198.091 228, 193.137 226.982, 198.011 225.707 C 200.370 225.091, 200.739 220.858, 198.590 219.075 C 196.885 217.659, 183.982 218.035, 183.982 219.500 C 183.982 220.050, 186.911 220.633, 190.491 220.796 C 199.176 221.190, 198.854 223, 190.099 223 L 183.198 223 183.297 226.500 L 183.396 230 188.198 230 C 194.497 230, 194.368 231.624, 188 232.500 C 183.113 233.172, 183 233.265, 183 236.594 C 183 240.843, 180.012 244.055, 176.250 243.850 L 173.500 243.700 176.146 243.294 C 181.603 242.455, 182.187 240.575, 181.827 224.995 C 181.516 211.496, 181.387 210.728, 179.139 208.909 C 177.323 207.440, 175.178 207, 169.837 207 C 163.021 207, 162.877 206.946, 161.848 203.994 C 160.588 200.379, 158.705 199.801, 149.479 200.199 C 142.704 200.491, 142.456 200.594, 141 203.728 C 139.546 206.858, 139.308 206.957, 133.250 206.978 C 123.499 207.012, 123 207.868, 123 224.566 C 123 232.027, 123.441 238.955, 123.979 239.961 C 125.205 242.252, 130.087 244, 135.258 244 C 139.024 244, 139.185 244.127, 138.563 246.606 C 137.496 250.857, 140.242 254, 145.023 254 C 147.210 254, 149 254.240, 149 254.533 C 149 254.827, 147.833 257.369, 146.407 260.184 C 142.286 268.316, 141.022 273.842, 141.011 283.782 C 140.987 304.161, 151.814 321.197, 171.035 331.022 C 184.784 338.051, 203.954 337.722, 218.500 330.208 C 227.074 325.779, 237.314 315.782, 241.502 307.752 C 244.351 302.290, 244.699 301.996, 248.500 301.834 L 252.500 301.664 248.685 301.268 C 244.970 300.882, 244.888 300.788, 245.562 297.686 C 247.165 290.313, 247.487 290, 253.468 290 C 258.951 290, 259.004 290.029, 262.169 294.812 C 265.651 300.074, 269.629 302, 277.016 302 C 281.178 302, 283.612 304.386, 281.058 305.964 C 280.380 306.383, 279.977 307.800, 280.163 309.113 C 280.485 311.393, 280.888 311.513, 289.171 311.788 C 297.136 312.052, 297.894 311.911, 298.485 310.047 C 299.484 306.898, 298.282 306, 293.068 306 L 288.253 306 283.101 297.287 C 280.268 292.495, 278.183 287.966, 278.468 287.224 C 279.245 285.199, 280.477 286.411, 284.015 292.680 L 287.220 298.360 289.088 295.930 C 291.392 292.934, 292.423 287.992, 291.688 283.465 C 291.186 280.371, 292.862 277.220, 309.078 250.771 C 326.844 221.794, 332.974 212.970, 335.300 213.032 C 338.405 213.114, 340.508 216.893, 345.576 231.493 C 348.568 240.113, 350.790 247.531, 350.513 247.978 C 350.237 248.425, 351.087 251.651, 352.401 255.146 C 357.716 269.275, 361.991 283.453, 361.450 285.158 C 360.605 287.820, 365.190 292, 368.955 292 C 374.909 292, 378.019 285.327, 374.443 280.223 C 372.664 277.683, 368.713 277.088, 369.638 279.500 C 369.955 280.325, 369.975 281, 369.683 281 C 368.899 281, 362.188 263.400, 353.668 239 C 343.693 210.434, 344.270 213.265, 348.196 212.133 C 351.372 211.217, 351.395 211.177, 348.770 211.090 C 346.605 211.019, 345.593 210.122, 343.872 206.750 C 342.680 204.412, 341.775 202.385, 341.861 202.246 C 341.947 202.106, 340.214 198.403, 338.009 194.018 C 335.804 189.632, 334 185.584, 334 185.022 C 334 184.460, 335.160 184, 336.577 184 C 338.107 184, 340.373 182.781, 342.154 181 C 343.804 179.350, 345.780 178, 346.546 178 C 347.311 178, 347.706 177.397, 347.423 176.660 C 346.667 174.691, 349.474 172.808, 352.612 173.178 C 356.280 173.610, 356.790 175.749, 353.521 176.992 C 351.981 177.578, 351.165 178.458, 351.565 179.105 C 352.055 179.899, 352.463 179.869, 353 179 C 353.944 177.473, 356.709 178.321, 361.674 181.659 L 365.500 184.231 363.102 181.643 L 360.704 179.056 365.102 177.180 C 367.521 176.148, 371.300 174.720, 373.500 174.008 C 381.710 171.350, 398.583 163.742, 400.891 161.659 C 403.907 158.935, 409 151.079, 409 149.149 C 409 147.370, 413.730 141, 415.051 141 C 416.405 141, 416.129 166.661, 414.588 184 C 413.880 191.975, 413.644 199.714, 414.065 201.199 C 414.487 202.683, 414.871 211.908, 414.919 221.699 C 415.024 242.873, 415.912 256, 417.238 256 C 417.812 256, 417.939 257.922, 417.553 260.750 C 415.922 272.694, 415.853 278.889, 417.314 282.182 C 418.124 284.007, 419.316 290, 419.963 295.500 C 420.609 301, 421.763 310.675, 422.527 317 C 423.611 325.973, 423.651 328.720, 422.708 329.500 C 422.044 330.050, 420.168 332.300, 418.541 334.500 C 414.813 339.539, 413.485 340.655, 408.368 343.053 C 403.617 345.279, 402.024 348.723, 404.766 350.838 C 406.458 352.145, 417.717 351.984, 432.500 350.442 C 442.147 349.436, 442.280 349.359, 441.614 345.205 C 441.288 343.167, 440.732 339.475, 440.379 337 C 440.027 334.525, 439.286 331.930, 438.734 331.234 C 437.500 329.680, 438.562 312.020, 440.578 300.565 C 442.280 290.892, 442.386 282.899, 440.904 275.988 C 439.648 270.131, 440.986 259.871, 443.309 257.548 C 444.147 256.710, 445.195 251.802, 445.920 245.324 C 446.585 239.371, 447.486 234.137, 447.921 233.694 C 448.356 233.251, 449.524 237.935, 450.517 244.105 C 451.822 252.218, 452.866 255.866, 454.291 257.291 C 456.329 259.329, 457.519 265.837, 458.622 280.972 C 458.921 285.082, 460.526 293.632, 462.189 299.972 C 467.187 319.033, 468.375 327.582, 466.898 333.840 C 466.205 336.777, 464.369 341.180, 462.819 343.625 C 461.268 346.069, 460 349.158, 460 350.489 C 460 352.477, 460.644 353.030, 463.607 353.586 C 470.677 354.912, 484.631 352.021, 487.075 348.724 C 487.897 347.614, 485.836 336.984, 484.909 337.556 C 484.485 337.818, 483.856 337.575, 483.510 337.016 C 483.165 336.457, 483.384 336, 483.998 336 C 484.699 336, 484.556 335.205, 483.613 333.859 C 482.340 332.041, 482.201 328.077, 482.692 307.609 C 483.167 287.850, 482.976 281.799, 481.636 274.074 C 479.717 263.015, 479.503 255, 481.127 255 C 481.943 255, 482.072 250.610, 481.596 239.078 C 481.161 228.530, 481.287 222.941, 481.969 222.519 C 482.536 222.169, 482.955 220.896, 482.900 219.691 C 482.809 217.679, 482.744 217.705, 482.105 220 C 481.723 221.375, 480.755 222.500, 479.955 222.500 C 478.106 222.500, 477.576 218.246, 478.969 214.583 C 479.853 212.256, 480.284 211.991, 481.517 213.014 C 482.332 213.691, 483 214.672, 483 215.194 C 483 215.716, 483.675 216.818, 484.500 217.643 C 485.325 218.468, 486 220.138, 486 221.355 C 486 223.133, 486.540 223.543, 488.750 223.440 C 490.262 223.370, 493.029 223.242, 494.898 223.156 L 498.296 223 497.570 214.750 C 497.171 210.213, 496.888 204.250, 496.942 201.500 C 497.094 193.713, 499.929 175.896, 501.663 171.835 C 504.055 166.231, 503.180 154.919, 499.819 147.994 C 496.629 141.424, 495.628 137.348, 496.996 136.502 C 498.535 135.551, 498.202 131.349, 495.955 123.338 C 493.314 113.928, 490.608 107.877, 487.265 103.903 C 484.716 100.873, 473.390 94.934, 464.683 92.060 C 460.393 90.645, 459 88.133, 459 81.817 C 459 78.862, 459.745 76.871, 461.750 74.466 C 468.064 66.892, 470 62.577, 470 56.071 C 470 49.283, 468.634 45.853, 464.339 41.860 C 458.116 36.074, 447.830 33.301, 438.500 34.895 M 439.582 38.114 C 438.104 39.277, 437.124 40.458, 437.405 40.738 C 437.686 41.019, 439.319 40.068, 441.034 38.624 C 444.738 35.508, 443.464 35.060, 439.582 38.114 M 448.500 43.945 C 443.404 46.357, 443.982 46.372, 452 44.036 C 456.721 42.661, 457.679 42.130, 455.500 42.097 C 453.850 42.073, 450.700 42.904, 448.500 43.945 M 427 48.094 C 427 48.592, 427.900 49, 429 49 C 430.100 49, 431 48.827, 431 48.617 C 431 48.406, 430.100 47.998, 429 47.710 C 427.900 47.423, 427 47.595, 427 48.094 M 457.750 48.392 C 454.934 50.529, 455.710 51.302, 460.083 50.716 C 464.668 50.101, 465.495 49.609, 464.541 48.067 C 463.636 46.602, 459.871 46.782, 457.750 48.392 M 426.242 57.812 C 425.429 59.931, 427.708 75.058, 429.480 79.298 C 431.177 83.360, 436.316 88, 439.117 88 C 442.792 88, 448.670 84.211, 450.009 80.979 C 451.071 78.414, 451.066 76.051, 449.977 67.828 C 449.247 62.314, 448.167 57.656, 447.575 57.476 C 446.984 57.296, 442.075 56.951, 436.667 56.710 C 428.456 56.343, 426.736 56.524, 426.242 57.812 M 451.004 56.677 C 451.012 58.344, 454.086 76.419, 454.417 76.751 C 454.606 76.940, 456.806 75.714, 459.305 74.027 C 464.242 70.695, 465.971 66.683, 464.031 63.059 C 462.607 60.397, 460.505 60.441, 458.592 63.173 C 457.440 64.817, 456.959 65, 456.614 63.923 C 456.364 63.140, 455.748 61.150, 455.246 59.500 C 454.439 56.845, 450.994 54.552, 451.004 56.677 M 453.643 82.614 C 450.797 86.516, 445.989 88.992, 441.250 88.996 C 437.720 88.999, 437 89.327, 437 90.929 C 437 91.989, 436.294 93.563, 435.432 94.426 C 431.474 98.383, 437.690 102.671, 445.965 101.691 C 454.535 100.676, 462.718 95.118, 459.857 92.257 C 459.279 91.679, 458.513 88.835, 458.153 85.935 C 457.401 79.864, 456.261 79.024, 453.643 82.614 M 460.104 97.562 C 456.261 101.453, 450.917 103.300, 443.275 103.376 C 437.365 103.435, 432.725 100.814, 432.175 97.106 C 431.789 94.508, 430.807 94.693, 420.698 99.267 C 413.057 102.723, 410.691 105.269, 403.751 117.500 C 396.880 129.611, 396.867 129.194, 404.245 133.320 C 407.718 135.262, 411.783 137.158, 413.279 137.534 L 416 138.217 416.115 127.858 C 416.206 119.630, 416.400 118.323, 417.057 121.500 C 418.465 128.307, 418.095 160.538, 416.374 180.859 C 415.027 196.784, 414.969 200.363, 416.049 201.030 C 421.553 204.432, 461.590 205.834, 474.382 203.073 L 480.264 201.803 479.608 195.652 C 476.913 170.405, 476.004 159.351, 476.002 151.799 C 476.001 147.013, 475.365 140.658, 474.588 137.676 C 473.811 134.694, 472.919 129.610, 472.604 126.377 L 472.033 120.500 473.516 126 C 474.332 129.025, 475.485 133.245, 476.078 135.378 L 477.157 139.257 482.329 138.633 C 487.921 137.959, 493.772 136.462, 495.716 135.208 C 496.653 134.604, 496.498 132.708, 495.041 126.962 C 491.495 112.971, 488.995 107.174, 484.847 103.318 C 482.577 101.207, 466.621 93.937, 464.530 94.061 C 463.964 94.095, 461.972 95.670, 460.104 97.562 M 396.583 134.643 C 396.237 135.547, 396.076 136.364, 396.226 136.459 C 396.377 136.554, 399.337 138.534, 402.804 140.860 L 409.107 145.089 411.020 142.794 C 412.073 141.532, 412.933 140.275, 412.932 140 C 412.931 139.466, 398.940 132.954, 397.857 132.983 C 397.503 132.992, 396.930 133.739, 396.583 134.643 M 491 139 C 489.625 139.464, 486.363 140.131, 483.750 140.483 C 478.499 141.190, 478.242 141.738, 480.158 148.134 C 480.795 150.260, 481.933 152, 482.687 152 C 483.440 152, 486.744 150.644, 490.029 148.986 C 496.074 145.934, 496.643 145.003, 495.370 140.250 C 494.711 137.792, 494.643 137.773, 491 139 M 393.392 145.179 C 391.530 147.165, 390.933 148.420, 391.717 148.704 C 392.386 148.946, 394.582 150.263, 396.596 151.630 C 400.786 154.473, 402.666 154.177, 403.582 150.530 C 404.312 147.620, 402.952 145.544, 398.964 143.482 C 396.448 142.180, 396.106 142.284, 393.392 145.179 M 478.093 157.500 C 478.052 162.450, 478.891 174.357, 479.958 183.960 C 481.335 196.362, 481.590 201.789, 480.837 202.697 C 480.253 203.400, 480.069 204.738, 480.427 205.671 C 481.017 207.208, 481.275 207.170, 483.181 205.263 C 485.093 203.352, 485.268 202.138, 485.112 191.935 C 485.017 185.762, 484.712 180.343, 484.434 179.893 C 484.156 179.444, 483.570 174.222, 483.132 168.288 C 482.580 160.822, 481.693 156.114, 480.252 153 L 478.169 148.500 478.093 157.500 M 376.913 157.837 C 373.841 160.454, 370.132 163.474, 368.671 164.548 C 366.172 166.384, 366.084 166.722, 367.175 170.250 C 367.813 172.313, 368.833 174, 369.441 174 C 370.970 174, 385.060 168.520, 389.966 166.017 C 393.692 164.116, 394 163.645, 394 159.840 C 394 154.813, 392.058 153.061, 386.500 153.071 C 383.182 153.077, 381.548 153.890, 376.913 157.837 M 484.986 155.948 C 483.884 156.594, 483.573 158.096, 483.841 161.474 C 484.184 165.778, 484.394 166.090, 486.754 165.806 C 490.177 165.394, 491.424 163.075, 490.597 158.663 C 489.891 154.901, 488.183 154.074, 484.986 155.948 M 487.116 172.029 C 484.928 172.952, 484.788 173.422, 485.407 177.767 C 485.778 180.370, 486.355 186.213, 486.689 190.750 L 487.297 199 491.465 199 L 495.633 199 497.381 186.365 C 498.478 178.442, 498.778 173.378, 498.186 172.786 C 496.764 171.364, 489.821 170.889, 487.116 172.029 M 338.682 173.651 C 337.695 174.638, 341.199 176.932, 343.750 176.968 C 345.344 176.991, 346 176.417, 346 175 C 346 173.400, 345.333 173, 342.667 173 C 340.833 173, 339.040 173.293, 338.682 173.651 M 355.079 186.583 C 355.127 187.748, 355.364 187.985, 355.683 187.188 C 355.972 186.466, 355.936 185.603, 355.604 185.271 C 355.272 184.939, 355.036 185.529, 355.079 186.583 M 365.564 186.293 C 365.940 187.279, 366.499 187.834, 366.807 187.526 C 367.115 187.219, 366.808 186.412, 366.124 185.733 C 365.136 184.753, 365.022 184.868, 365.564 186.293 M 355.079 192.583 C 355.127 193.748, 355.364 193.985, 355.683 193.188 C 355.972 192.466, 355.936 191.603, 355.604 191.271 C 355.272 190.939, 355.036 191.529, 355.079 192.583 M 353.450 196.081 C 353.082 196.676, 351.368 198.024, 349.641 199.077 C 347.913 200.131, 347.055 200.994, 347.734 200.996 C 349.014 201, 356.032 195.081, 354.809 195.029 C 354.429 195.013, 353.817 195.486, 353.450 196.081 M 365.500 201.400 C 364.211 204.042, 362.077 206.294, 359.500 207.734 C 357.300 208.962, 355.996 209.975, 356.602 209.984 C 360.061 210.035, 368.860 200.774, 367.837 198.159 C 367.651 197.686, 366.600 199.144, 365.500 201.400 M 143.667 203.667 C 143.300 204.033, 143 204.933, 143 205.667 C 143 206.664, 144.972 207, 150.833 207 C 159.098 207, 160.192 206.665, 159.324 204.402 C 158.931 203.378, 156.837 203, 151.560 203 C 147.585 203, 144.033 203.300, 143.667 203.667 M 127 211 C 125.216 212.784, 125 214.333, 125 225.345 C 125 236.035, 125.245 237.912, 126.829 239.345 C 128.412 240.778, 131.564 241, 150.294 241 C 170.661 241, 171.990 240.887, 172.965 239.066 C 173.534 238.002, 174 231.502, 174 224.622 C 174 208.007, 175.572 209, 149.277 209 C 130.333 209, 128.868 209.132, 127 211 M 175.952 210.442 C 176.796 211.459, 177.053 216.164, 176.825 226.360 C 176.567 237.855, 176.757 240.621, 177.750 239.795 C 178.635 239.059, 179 234.873, 179 225.449 C 179 214.686, 178.700 211.843, 177.429 210.571 C 175.458 208.601, 174.343 208.503, 175.952 210.442 M 303.500 219.076 C 294.150 224.055, 281.663 230.644, 275.750 233.717 C 269.837 236.790, 265 239.731, 265 240.253 C 265 241.298, 270.207 259.704, 272.656 267.318 C 273.757 270.739, 274.621 271.976, 275.639 271.585 C 276.428 271.282, 278.939 271.678, 281.219 272.463 C 283.500 273.249, 285.684 273.696, 286.072 273.455 C 286.461 273.215, 293.905 261.427, 302.615 247.259 C 311.325 233.092, 319.925 219.260, 321.726 216.523 C 323.527 213.785, 325 211.198, 325 210.773 C 325 208.532, 318.815 210.920, 303.500 219.076 M 485.079 225.668 C 485.036 226.311, 484.741 227.661, 484.424 228.668 C 483.877 230.409, 483.906 230.412, 484.995 228.712 C 485.626 227.729, 485.920 226.379, 485.650 225.712 C 485.295 224.837, 485.136 224.825, 485.079 225.668 M 188 227 C 188 227.550, 188.873 228, 189.941 228 C 191.009 228, 192.160 227.550, 192.500 227 C 192.851 226.433, 192.010 226, 190.559 226 C 189.152 226, 188 226.450, 188 227 M 493.924 229.750 L 491.500 232.500 494.250 230.076 C 495.762 228.742, 497 227.505, 497 227.326 C 497 226.541, 496.190 227.180, 493.924 229.750 M 296.830 229.250 C 294.626 231.024, 279 256.274, 279 258.061 C 279 259.741, 284.689 267, 286.006 267 C 286.480 267, 289.854 262.163, 293.506 256.250 C 297.158 250.338, 302.363 241.977, 305.073 237.672 C 307.783 233.367, 310 229.429, 310 228.922 C 310 227.532, 298.612 227.815, 296.830 229.250 M 354.030 228.575 C 353.980 230.358, 358.952 244.352, 360.013 245.413 C 361.431 246.831, 361.293 246.187, 358.408 237.924 C 355.716 230.214, 354.083 226.726, 354.030 228.575 M 196.248 231.250 C 196.477 231.938, 198.928 232.781, 201.695 233.124 C 209.187 234.053, 216.148 236.649, 222.971 241.059 C 226.324 243.227, 229.424 245, 229.859 245 C 230.793 245, 235 240.670, 235 239.710 C 235 239.346, 231.522 237.013, 227.271 234.524 L 219.542 230 207.688 230 C 198.649 230, 195.932 230.297, 196.248 231.250 M 245.886 238.080 C 232.119 249.827, 233.020 247.752, 238.253 255.663 C 240.740 259.423, 243.583 265.087, 244.570 268.250 C 246.119 273.211, 246.718 274.019, 248.933 274.136 C 251.363 274.265, 251.377 274.296, 249.194 274.713 C 247.212 275.092, 246.931 275.669, 247.194 278.827 L 247.500 282.500 253.625 282.794 C 259.747 283.089, 259.751 283.087, 262.109 279.294 C 263.407 277.208, 264.616 275.191, 264.796 274.814 C 264.976 274.437, 263.409 273.950, 261.312 273.732 C 258.113 273.400, 258.347 273.309, 262.769 273.168 C 268.965 272.970, 269.128 275.988, 261.495 249.552 C 258.644 239.681, 255.853 231.451, 255.292 231.264 C 254.731 231.077, 250.498 234.144, 245.886 238.080 M 359.577 232.875 C 359.280 233.356, 359.727 235.778, 360.571 238.255 L 362.106 242.760 370.803 243.191 C 378.076 243.552, 380.640 244.169, 386.464 246.964 C 400.405 253.655, 408.916 266.296, 409.778 281.591 C 410.800 299.714, 401.949 314.392, 385.223 322.315 C 378.974 325.276, 377.760 325.498, 368 325.470 C 358.400 325.442, 356.943 325.177, 351 322.377 C 341.511 317.905, 334.785 311.367, 330.266 302.223 C 326.629 294.865, 326.500 294.241, 326.500 284.031 C 326.500 274.134, 326.707 273.038, 329.734 266.890 C 332.744 260.774, 339.522 253.165, 345.857 248.790 C 348.213 247.163, 348.213 247.158, 346.527 242.081 C 345.599 239.286, 344.629 237, 344.372 237 C 343.637 237, 333.722 243.696, 331.492 245.698 C 317.973 257.835, 311.680 278.208, 315.954 296 C 320.121 313.346, 334.863 328.789, 352.416 334.197 C 362.454 337.289, 377.123 337.199, 385.500 333.994 C 397.907 329.247, 408.836 319.622, 414.604 308.365 C 417.592 302.532, 417.603 302.454, 416.506 294 C 415.899 289.325, 414.862 284.233, 414.201 282.685 C 412.693 279.151, 412.638 267.337, 414.110 263.115 C 415.094 260.291, 414.904 259.453, 412.435 255.715 C 405.350 244.989, 393.697 236.881, 380.540 233.522 C 374.090 231.875, 360.455 231.455, 359.577 232.875 M 485.014 234.414 C 485.662 235.062, 486.338 235.062, 486.986 234.414 C 487.633 233.767, 487.295 233.429, 486 233.429 C 484.705 233.429, 484.367 233.767, 485.014 234.414 M 187.500 243.655 C 186.400 243.888, 184.540 244.281, 183.367 244.529 C 181.314 244.962, 181.444 245.486, 186.840 258.490 C 193.514 274.574, 195.646 276.174, 194.647 264.349 C 194.291 260.141, 194 253.616, 194 249.849 C 194 242.457, 193.849 242.312, 187.500 243.655 M 196.685 243.783 C 195.942 245.140, 197.501 271.024, 198.331 271.110 C 199.791 271.260, 220 254.053, 220 252.659 C 220 249.458, 198.135 241.134, 196.685 243.783 M 140.193 248.250 C 140.481 252.239, 140.699 252.519, 143.750 252.813 C 146.988 253.126, 147 253.109, 147 248.563 C 147 244.001, 146.999 244, 143.443 244 L 139.885 244 140.193 248.250 M 148 248.542 L 148 253.084 155.645 252.792 C 164.389 252.458, 166.274 251.092, 164.217 246.578 C 163.107 244.140, 162.634 244, 155.521 244 L 148 244 148 248.542 M 179 246.552 C 179 247.970, 188.994 271.347, 190.072 272.450 C 191.882 274.302, 190.975 271.413, 186.026 259.563 C 181.473 248.659, 179 244.080, 179 246.552 M 170.787 250.018 C 163.782 254.658, 163.426 255.387, 166.690 258.413 C 168.224 259.836, 169.063 261, 168.554 261 C 168.045 261, 166.549 259.988, 165.230 258.750 L 162.830 256.500 160.770 259 C 159.636 260.375, 157.321 264.425, 155.625 268 C 152.835 273.881, 152.545 275.410, 152.581 284.045 C 152.616 292.568, 152.949 294.295, 155.698 300.169 C 160.946 311.384, 169.003 318.732, 180.714 322.985 C 188.856 325.942, 202.752 325.519, 210.500 322.078 C 220.867 317.474, 233.402 305.132, 229.938 302.940 C 228.822 302.235, 228.998 302.027, 230.722 302.015 C 232.554 302.003, 233.228 301.023, 234.565 296.426 C 235.456 293.360, 235.882 290.548, 235.512 290.176 C 235.142 289.804, 228.282 289.353, 220.268 289.174 L 205.697 288.847 203.384 291.674 C 202.113 293.228, 201.049 295.400, 201.021 296.500 C 200.982 298.008, 200.758 298.167, 200.110 297.143 C 199.492 296.169, 198.298 296.001, 195.875 296.547 L 192.500 297.308 195.500 298.609 C 197.150 299.324, 199.707 299.930, 201.183 299.955 C 202.962 299.985, 204.079 300.673, 204.500 302 C 204.860 303.133, 206.081 304.051, 207.317 304.118 C 210.799 304.307, 204.284 305.741, 199.307 305.882 C 194.520 306.017, 192 303.566, 192 298.777 C 192 297.151, 191.456 296, 190.687 296 C 188.896 296, 184.353 291.097, 183.121 287.835 C 182.442 286.038, 182.448 283.960, 183.140 281.454 C 184.136 277.848, 184.023 277.585, 179.333 272.619 L 174.500 267.500 179.535 272.251 C 184.119 276.575, 184.711 276.860, 186.146 275.425 C 187.581 273.991, 187.254 272.730, 182.501 261.365 C 179.629 254.498, 176.852 248.452, 176.328 247.928 C 175.727 247.327, 173.690 248.095, 170.787 250.018 M 370.195 258.500 C 370.215 260.150, 370.439 260.704, 370.693 259.731 C 370.947 258.758, 370.930 257.408, 370.656 256.731 C 370.382 256.054, 370.175 256.850, 370.195 258.500 M 419.004 257.602 C 419.007 259.265, 419.843 259.516, 425.754 259.632 C 429.464 259.705, 434.188 260.231, 436.250 260.802 C 439.585 261.724, 440 261.638, 440 260.026 C 440 257.567, 437.986 256.951, 427.750 256.279 C 419.621 255.745, 419 255.839, 419.004 257.602 M 460.191 256.850 C 458.921 257.207, 457.909 257.837, 457.941 258.250 C 457.973 258.663, 458 259.622, 458 260.383 C 458 261.556, 458.619 261.553, 462.084 260.359 C 464.331 259.585, 468.831 258.673, 472.084 258.333 C 475.338 257.993, 478 257.329, 478 256.858 C 478 255.876, 463.672 255.869, 460.191 256.850 M 214.366 265.641 C 204.260 274.492, 202.797 276.972, 205.500 280.669 C 206.517 282.059, 209.003 282.328, 221.601 282.407 L 236.500 282.500 236.155 279.500 C 235.966 277.850, 235.429 276.358, 234.961 276.185 C 234.494 276.012, 234.348 275.258, 234.635 274.508 C 235.659 271.840, 227.547 257, 225.065 257 C 224.607 257, 219.793 260.888, 214.366 265.641 M 420.389 264.980 C 419.228 265.449, 417.971 266.633, 417.596 267.610 C 416.953 269.286, 417.022 269.290, 418.786 267.694 C 425.138 261.945, 431.524 272.792, 425.743 279.512 C 423.731 281.851, 423.173 282.016, 420.594 281.036 C 418.044 280.066, 417.852 280.117, 418.974 281.468 C 420.743 283.600, 424.346 283.380, 426.491 281.010 C 427.502 279.893, 428.500 276.855, 428.766 274.085 C 429.180 269.774, 428.914 268.823, 426.666 266.575 C 423.876 263.785, 423.550 263.703, 420.389 264.980 M 466.655 265.829 C 463.383 269.444, 465.360 280.773, 469.542 282.378 C 471.954 283.303, 475.921 282.017, 477.026 279.951 C 477.562 278.950, 478 276.056, 478 273.520 C 478 269.958, 477.442 268.351, 475.545 266.455 C 472.637 263.546, 468.955 263.287, 466.655 265.829 M 467.035 267.934 C 464.469 272.730, 467.266 281, 471.454 281 C 472.776 281, 474.564 280.293, 475.429 279.429 C 477.445 277.412, 477.454 271.093, 475.443 268.223 C 473.445 265.370, 468.498 265.200, 467.035 267.934 M 436.011 269.487 C 434.552 271.244, 435.453 274.346, 437.251 273.756 C 438.717 273.275, 439.576 268, 438.189 268 C 437.670 268, 436.689 268.669, 436.011 269.487 M 459 270.441 C 459 271.848, 459.450 273, 460 273 C 460.550 273, 461 272.127, 461 271.059 C 461 269.991, 460.550 268.840, 460 268.500 C 459.433 268.149, 459 268.990, 459 270.441 M 368.178 272.687 C 368.357 273.615, 369.937 274.745, 371.689 275.199 C 376.069 276.334, 379 280.348, 379 285.212 C 379 293.112, 370.649 297.456, 363.034 293.517 C 359.861 291.877, 357.452 286.302, 358.495 283.016 C 358.847 281.907, 358.822 280.016, 358.441 278.813 C 357.770 276.702, 357.699 276.691, 356.373 278.504 C 354.382 281.227, 354.663 288.935, 356.886 292.580 C 361.880 300.770, 375.169 300.776, 380.532 292.592 C 384.857 285.991, 382.754 276.916, 376.022 273.132 C 371.345 270.504, 367.718 270.298, 368.178 272.687 M 230.813 275.683 C 231.534 275.972, 232.397 275.936, 232.729 275.604 C 233.061 275.272, 232.471 275.036, 231.417 275.079 C 230.252 275.127, 230.015 275.364, 230.813 275.683 M 209.250 276.716 C 210.762 276.945, 213.238 276.945, 214.750 276.716 C 216.262 276.487, 215.025 276.300, 212 276.300 C 208.975 276.300, 207.738 276.487, 209.250 276.716 M 270.217 278.561 C 266.326 281.286, 264.708 285.584, 266.046 289.639 C 267.281 293.381, 272.039 297.045, 275.500 296.920 C 276.873 296.871, 276.473 296.475, 274.225 295.661 C 270.839 294.433, 267.018 289.757, 267.007 286.827 C 266.996 284.197, 271.760 279.212, 274.954 278.510 C 276.782 278.109, 278.991 278.461, 280.927 279.462 C 282.617 280.336, 284 280.826, 284 280.551 C 284 279.466, 277.939 277, 275.272 277 C 273.717 277, 271.442 277.702, 270.217 278.561 M 189.557 280.223 C 186.315 284.851, 188.992 290, 194.640 290 C 197.018 290, 198.030 289.593, 197.747 288.750 C 197.517 288.063, 196.692 287.439, 195.914 287.365 C 195.136 287.291, 193.938 287.179, 193.250 287.115 C 191.503 286.954, 191.685 282.506, 193.500 281 C 195.567 279.284, 195.378 278, 193.057 278 C 191.988 278, 190.413 279, 189.557 280.223 M 460 280.441 C 460 281.298, 460.450 282, 461 282 C 461.550 282, 462 281.577, 462 281.059 C 462 280.541, 461.550 279.840, 461 279.500 C 460.450 279.160, 460 279.584, 460 280.441 M 338.264 286.718 C 339.784 286.947, 342.034 286.941, 343.264 286.704 C 344.494 286.467, 343.250 286.279, 340.500 286.286 C 337.750 286.294, 336.744 286.488, 338.264 286.718 M 399.269 286.693 C 400.242 286.947, 401.592 286.930, 402.269 286.656 C 402.946 286.382, 402.150 286.175, 400.500 286.195 C 398.850 286.215, 398.296 286.439, 399.269 286.693 M 437.500 288.280 C 436.400 288.915, 431.989 289.393, 427.698 289.341 L 419.895 289.247 420.414 291.873 C 421.023 294.956, 423.581 314.750, 424.538 323.779 C 425.174 329.779, 425.359 330.123, 428.706 331.522 C 430.633 332.327, 433.240 332.727, 434.499 332.411 C 436.677 331.864, 436.812 331.290, 437.262 320.668 C 437.523 314.526, 438.490 304.818, 439.413 299.095 C 440.335 293.372, 440.732 288.337, 440.295 287.907 C 439.858 287.477, 438.600 287.644, 437.500 288.280 M 473.500 288.159 C 471.300 288.687, 467.587 288.976, 465.250 288.802 C 459.936 288.406, 459.892 288.920, 464.009 303.121 C 465.664 308.829, 467.558 317.397, 468.218 322.161 L 469.418 330.822 474.793 331.493 C 477.750 331.863, 480.300 332.015, 480.460 331.832 C 480.620 331.650, 481.074 321.488, 481.467 309.250 L 482.183 287 479.841 287.100 C 478.554 287.156, 475.700 287.632, 473.500 288.159 M 256.264 300.718 C 257.784 300.947, 260.034 300.941, 261.264 300.704 C 262.494 300.467, 261.250 300.279, 258.500 300.286 C 255.750 300.294, 254.744 300.488, 256.264 300.718 M 216.762 303.707 C 218.006 303.946, 219.806 303.937, 220.762 303.687 C 221.718 303.437, 220.700 303.241, 218.500 303.252 C 216.300 303.263, 215.518 303.468, 216.762 303.707" stroke="none" fill="black" fill-rule="evenodd"/>
	<path fill-opacity="0.493" d="M 438 35.916 C 438 36.478, 437.360 36.692, 436.578 36.392 C 434.218 35.486, 430.746 37.922, 431.313 40.087 C 431.588 41.141, 431.405 41.751, 430.907 41.442 C 430.408 41.134, 430 41.782, 430 42.882 C 430 43.982, 429.588 45.136, 429.085 45.447 C 427.669 46.323, 427.152 43.730, 428.299 41.500 C 429.202 39.743, 429.134 39.660, 427.737 40.812 C 426.029 42.220, 422.664 50.980, 423.811 51.030 C 424.190 51.047, 423.712 51.519, 422.750 52.080 C 420.440 53.426, 420.535 54.645, 423 55.290 C 424.462 55.672, 425.032 56.712, 425.118 59.156 L 425.237 62.500 425.879 59.500 L 426.521 56.500 438.100 56.500 C 448.228 56.500, 449.627 56.701, 449.261 58.102 C 449.032 58.983, 449.365 62.358, 450.001 65.602 C 452.072 76.160, 451.897 80.632, 449.302 83.430 C 446.068 86.918, 439.810 88.690, 436.329 87.104 C 433.966 86.027, 433.809 86.065, 434.943 87.432 C 436.482 89.286, 435.508 94.432, 433.816 93.386 C 433.162 92.982, 432.967 93.138, 433.352 93.760 C 433.715 94.348, 433.447 95.036, 432.756 95.290 C 431.779 95.648, 431.811 96.056, 432.897 97.125 C 433.798 98.012, 434.041 98.054, 433.583 97.243 C 433.177 96.524, 433.517 95.739, 434.376 95.409 C 435.202 95.092, 436.166 93.521, 436.518 91.916 C 437.095 89.289, 437.554 89, 441.145 89 C 446.266 89, 453.061 85.394, 451.286 83.619 C 450.945 83.279, 451.192 83, 451.833 83 C 452.475 83, 452.888 82.458, 452.750 81.795 C 452.613 81.133, 453.025 80.570, 453.667 80.545 C 454.308 80.520, 455.171 80.162, 455.583 79.750 C 457.156 78.177, 457.898 79.144, 458.268 83.250 C 458.598 86.914, 458.675 86.703, 458.825 81.719 C 458.951 77.573, 459.432 75.771, 460.528 75.351 C 461.368 75.029, 462.559 73.805, 463.173 72.632 C 464.254 70.571, 464.226 70.558, 462.317 72.250 C 461.231 73.213, 459.789 74, 459.112 74 C 458.436 74, 458.160 74.450, 458.500 75 C 458.840 75.550, 458.615 76, 458 76 C 457.385 76, 457.092 76.339, 457.348 76.753 C 457.604 77.168, 456.505 77.524, 454.907 77.545 C 453.308 77.567, 452 77.228, 452 76.792 C 452 76.356, 452.359 76, 452.797 76 C 453.235 76, 453.034 72.287, 452.351 67.750 C 450.685 56.686, 450.705 55, 452.500 55 C 453.325 55, 454 55.477, 454 56.059 C 454 56.641, 454.526 56.793, 455.170 56.395 C 455.952 55.912, 456.132 56.213, 455.714 57.304 C 455.369 58.202, 455.498 59.190, 456 59.500 C 456.502 59.810, 456.659 60.725, 456.349 61.532 C 455.619 63.436, 457.869 63.428, 459.978 61.520 C 462.501 59.237, 465.907 61.944, 465.253 65.714 C 464.772 68.489, 464.781 68.486, 467.426 65 C 469.637 62.087, 470.051 60.577, 469.896 56 C 469.696 50.100, 468.479 46.586, 466.961 47.524 C 466.445 47.843, 466.286 47.417, 466.609 46.578 C 466.931 45.738, 466.476 44.333, 465.597 43.454 C 464.719 42.576, 464 42.093, 464 42.381 C 464 42.669, 462.864 41.852, 461.476 40.566 C 460.088 39.279, 457.588 37.566, 455.920 36.758 C 452.382 35.045, 438 34.369, 438 35.916 M 438.073 38.635 C 435.697 41.655, 435.150 44.950, 437.324 43.146 C 438.193 42.425, 439.051 42.383, 439.824 43.024 C 440.671 43.727, 440.721 43.665, 440 42.800 C 438.383 40.860, 438.791 40.158, 442.750 38.068 L 446.500 36.088 443.323 36.044 C 441.048 36.013, 439.556 36.749, 438.073 38.635 M 452 41.736 C 450.625 41.987, 448.978 42.620, 448.339 43.144 C 447.595 43.755, 446.946 43.721, 446.530 43.049 C 446.174 42.472, 445.346 42.007, 444.691 42.015 C 443.977 42.024, 444.099 42.409, 444.995 42.976 C 446.279 43.788, 446.209 44.149, 444.495 45.535 C 442.549 47.109, 442.561 47.132, 445 46.486 C 446.375 46.122, 448.512 45.859, 449.750 45.901 C 450.988 45.943, 452 45.506, 452 44.930 C 452 44.353, 452.403 44.131, 452.896 44.436 C 453.389 44.740, 455.076 44.320, 456.646 43.501 C 458.216 42.682, 458.974 42.010, 458.332 42.006 C 457.689 42.003, 456.564 41.838, 455.832 41.640 C 455.099 41.443, 453.375 41.486, 452 41.736 M 426.950 47.907 C 427.583 49.089, 428.489 49.816, 428.965 49.522 C 429.440 49.228, 430.085 49.553, 430.397 50.244 C 430.709 50.935, 430.854 50.600, 430.719 49.500 C 430.583 48.400, 430.029 47.493, 429.486 47.485 C 428.944 47.476, 427.893 47.084, 427.150 46.614 C 426.052 45.918, 426.014 46.158, 426.950 47.907 M 459.250 47.031 C 458.012 47.529, 456.986 47.613, 456.970 47.218 C 456.953 46.823, 456.418 47.400, 455.780 48.500 C 455.142 49.600, 454.819 50.693, 455.060 50.928 C 455.550 51.405, 465.310 51.017, 465.831 50.500 C 466.013 50.319, 465.660 49.233, 465.046 48.086 C 463.839 45.831, 462.735 45.630, 459.250 47.031 M 457.628 57.208 C 457.898 57.643, 457.566 58, 456.892 58 C 456.218 58, 455.938 58.271, 456.269 58.602 C 456.600 58.933, 457.867 58.506, 459.085 57.653 C 461.255 56.133, 461.257 56.105, 459.219 56.258 C 458.075 56.345, 457.359 56.772, 457.628 57.208 M 426.079 68.583 C 426.127 69.748, 426.364 69.985, 426.683 69.188 C 426.972 68.466, 426.936 67.603, 426.604 67.271 C 426.272 66.939, 426.036 67.529, 426.079 68.583 M 460.155 92.289 C 461.111 94.075, 460.811 94.780, 458.039 97.257 C 453.929 100.928, 454.691 101.972, 458.897 98.433 C 463.661 94.425, 464.283 92.681, 461.431 91.336 C 459.199 90.282, 459.115 90.345, 460.155 92.289 M 466.211 93.468 C 466.602 93.901, 470.865 96.002, 475.685 98.138 C 480.505 100.273, 483.785 101.387, 482.974 100.612 C 481.739 99.432, 477.783 97.617, 467 93.284 C 466.175 92.953, 465.820 93.035, 466.211 93.468 M 425.500 96 C 425.160 96.550, 425.359 97, 425.941 97 C 426.523 97, 427 96.550, 427 96 C 427 95.450, 426.802 95, 426.559 95 C 426.316 95, 425.840 95.450, 425.500 96 M 421.507 97.989 C 421.157 98.555, 421.558 98.723, 422.448 98.382 C 424.180 97.717, 424.497 97, 423.059 97 C 422.541 97, 421.843 97.445, 421.507 97.989 M 416.937 99.571 C 415.527 100.319, 413.502 101.901, 412.437 103.088 C 411.077 104.603, 411.916 104.294, 415.250 102.052 C 417.863 100.296, 420 98.665, 420 98.429 C 420 97.921, 420.163 97.861, 416.937 99.571 M 434.289 100.717 C 435.552 101.981, 437.923 102.485, 443.253 102.623 L 450.500 102.812 443.798 102.156 C 440.112 101.795, 436.534 100.938, 435.848 100.250 C 435.162 99.563, 434.144 99, 433.586 99 C 433.028 99, 433.344 99.773, 434.289 100.717 M 451.603 100.833 C 451.320 101.292, 451.743 101.667, 452.544 101.667 C 453.345 101.667, 454 101.292, 454 100.833 C 454 100.375, 453.577 100, 453.059 100 C 452.541 100, 451.886 100.375, 451.603 100.833 M 487.515 106.281 C 488.481 107.811, 489.522 108.811, 489.830 108.503 C 490.137 108.196, 489.347 106.944, 488.074 105.722 L 485.759 103.500 487.515 106.281 M 408.500 107 C 408.160 107.550, 408.359 108, 408.941 108 C 409.523 108, 410 107.550, 410 107 C 410 106.450, 409.802 106, 409.559 106 C 409.316 106, 408.840 106.450, 408.500 107 M 490 110.642 C 490 111.179, 490.700 112.491, 491.555 113.559 C 493.022 115.389, 493.042 115.357, 491.920 113 C 490.462 109.939, 490 109.372, 490 110.642 M 405.459 112.067 C 405.096 112.653, 405.014 113.348, 405.276 113.610 C 405.538 113.872, 406.019 113.392, 406.345 112.543 C 407.021 110.781, 406.445 110.471, 405.459 112.067 M 402.388 117.531 C 401.475 118.923, 400.911 120.244, 401.133 120.467 C 401.356 120.689, 402.296 119.550, 403.222 117.935 C 405.286 114.340, 404.673 114.043, 402.388 117.531 M 494.509 122.969 C 494.800 124.877, 495.491 126.891, 496.046 127.446 C 496.724 128.124, 496.743 127.479, 496.106 125.477 C 494.396 120.112, 493.972 119.447, 494.509 122.969 M 416.157 129.143 C 416.045 135.324, 415.619 137.932, 414.662 138.300 C 412.678 139.061, 398 130.251, 398 128.299 C 398 127.401, 397.740 126.927, 397.422 127.245 C 396.564 128.103, 396.163 133.017, 396.993 132.505 C 397.854 131.972, 412.356 139.047, 412.847 140.240 C 413.038 140.704, 413.785 140.593, 414.507 139.994 C 416.684 138.188, 417.262 143.809, 416.707 161.380 C 416.379 171.773, 416.472 174.835, 416.968 170 C 417.940 160.534, 417.977 136.694, 417.033 127.500 L 416.315 120.500 416.157 129.143 M 473 128.500 C 473 129.875, 473.388 131, 473.861 131 C 474.335 131, 474.508 129.875, 474.245 128.500 C 473.982 127.125, 473.594 126, 473.383 126 C 473.173 126, 473 127.125, 473 128.500 M 496.244 131.969 C 496.482 135.199, 496.225 135.532, 492.500 136.807 C 486.188 138.968, 476.977 139.574, 475.916 137.898 C 475.261 136.864, 475.027 136.832, 475.015 137.775 C 474.978 140.856, 483.273 141.156, 492.750 138.417 C 494.302 137.969, 495.002 138.191, 495.006 139.133 C 495.010 139.885, 495.685 139.211, 496.506 137.636 C 498.236 134.318, 498.373 132.111, 496.978 130 C 496.242 128.886, 496.053 129.392, 496.244 131.969 M 395 136.904 C 395 137.572, 394.626 137.887, 394.168 137.604 C 393.711 137.321, 391.123 139.430, 388.418 142.291 C 385.713 145.151, 384.153 146.931, 384.950 146.246 C 385.748 145.561, 386.873 145.008, 387.450 145.017 C 388.028 145.026, 387.074 145.947, 385.332 147.063 C 383.589 148.180, 381.664 150.524, 381.054 152.274 C 380.178 154.787, 380.203 155.197, 381.173 154.227 C 381.848 153.552, 384.550 153, 387.177 153 C 391.165 153, 392.224 153.412, 393.587 155.492 C 394.485 156.863, 394.981 158.608, 394.688 159.370 C 394.396 160.133, 394.684 161.327, 395.328 162.025 C 396.231 163.002, 396.213 163.131, 395.250 162.588 C 394.511 162.170, 394 162.451, 394 163.274 C 394 165.865, 396.969 164.686, 400.778 160.583 C 402.938 158.256, 404.414 155.747, 404.211 154.750 C 404.014 153.787, 404.363 153, 404.986 153 C 405.608 153, 405.803 153.563, 405.418 154.250 C 405.033 154.938, 405.442 154.823, 406.327 153.996 C 408.188 152.257, 409.026 147.406, 407.417 147.694 C 406.821 147.801, 406.333 147.246, 406.333 146.460 C 406.333 145.462, 406.695 145.332, 407.534 146.028 C 408.368 146.720, 409.157 146.486, 410.117 145.262 C 411.342 143.701, 411.319 143.641, 409.913 144.738 C 408.596 145.764, 407.922 145.546, 405.961 143.458 C 404.660 142.074, 403.024 141.161, 402.324 141.429 C 401.625 141.697, 400.703 141.373, 400.276 140.708 C 398.786 138.389, 395 135.659, 395 136.904 M 393.656 141.053 C 393.911 142.672, 393.460 144.397, 392.542 145.315 C 390.281 147.577, 390.579 148.268, 395 151 C 397.200 152.360, 399 153.993, 399 154.629 C 399 155.265, 399.698 156.054, 400.552 156.382 C 401.554 156.766, 401.854 156.573, 401.399 155.837 C 401.012 155.210, 401.396 154.183, 402.254 153.556 C 403.893 152.358, 405.394 146, 404.039 146 C 402.336 146, 393.704 140.599, 394.816 140.228 C 396.451 139.683, 396.307 138.333, 394.614 138.333 C 393.666 138.333, 393.363 139.195, 393.656 141.053 M 496.099 143.500 C 496.337 147.115, 496.018 147.944, 494.601 147.400 C 493.832 147.105, 492.901 147.351, 492.533 147.947 C 491.737 149.235, 485.396 152, 483.238 152 C 482.403 152, 481.061 151.213, 480.255 150.250 C 479.223 149.018, 479.265 149.304, 480.395 151.215 C 481.278 152.708, 482 154.636, 482 155.500 C 482 156.743, 482.404 156.854, 483.934 156.035 C 488.390 153.651, 491.641 155.629, 491.273 160.500 C 490.836 166.292, 490.663 166.808, 489.331 166.297 C 488.597 166.015, 486.933 166.051, 485.634 166.377 C 483.914 166.809, 483.336 167.586, 483.508 169.235 C 483.638 170.481, 483.847 172.625, 483.972 174 L 484.199 176.500 484.894 174.002 C 485.502 171.816, 486.229 171.464, 490.720 171.178 C 494.856 170.914, 496.253 171.253, 497.925 172.925 L 500 175 500 172.941 C 500 171.809, 500.450 171.160, 501 171.500 C 503.200 172.860, 501.871 167.183, 499.588 165.469 C 496.614 163.236, 495.263 156.216, 497.146 152.788 C 498.971 149.467, 499.011 148.228, 497.406 144.679 C 496.457 142.583, 496.012 142.182, 496.099 143.500 M 476.923 146.250 C 476.881 148.037, 476.705 150.227, 476.532 151.116 C 476.358 152.005, 476.611 153.355, 477.093 154.116 C 477.707 155.086, 477.974 154.587, 477.985 152.450 C 477.993 150.773, 478.540 148.860, 479.200 148.200 C 480.021 147.379, 480.050 147, 479.294 147 C 478.680 147, 478.420 146.110, 478.710 145 C 479.003 143.882, 478.741 143, 478.117 143 C 477.502 143, 476.966 144.463, 476.923 146.250 M 499.042 151.974 C 496.171 153.749, 498.693 165, 501.962 165 C 503.007 165, 502.317 152.917, 501.209 151.809 C 500.810 151.410, 499.834 151.484, 499.042 151.974 M 476.717 164.075 C 477.020 168.709, 477.460 172.714, 477.693 172.975 C 478.463 173.838, 477.729 158.179, 476.939 156.901 C 476.513 156.212, 476.413 159.441, 476.717 164.075 M 374.405 159.250 L 372.500 161.500 374.750 159.595 C 376.864 157.805, 377.455 157, 376.655 157 C 376.465 157, 375.453 158.012, 374.405 159.250 M 483.232 163 C 483.232 164.925, 483.438 165.713, 483.689 164.750 C 483.941 163.787, 483.941 162.213, 483.689 161.250 C 483.438 160.287, 483.232 161.075, 483.232 163 M 351.434 167.260 C 353.725 170.755, 352.044 172.265, 345.859 172.271 C 341.312 172.275, 341.030 172.373, 344 172.915 C 345.925 173.266, 349.177 173.266, 351.227 172.915 C 354.379 172.375, 355.050 172.583, 355.584 174.263 C 355.939 175.385, 355.688 176.575, 355.006 176.996 C 354.272 177.450, 355.089 177.933, 357.087 178.226 C 359.196 178.536, 362.371 177.880, 365.938 176.397 C 368.997 175.125, 370.825 174.056, 370 174.021 C 369.175 173.985, 367.825 172.504, 367 170.728 C 365.903 168.368, 364.912 167.561, 363.311 167.727 C 362.108 167.852, 359.239 167.290, 356.936 166.477 C 350.768 164.301, 349.604 164.467, 351.434 167.260 M 389 167 C 388.099 167.582, 387.975 167.975, 388.691 167.985 C 389.346 167.993, 390.160 167.550, 390.500 167 C 391.267 165.758, 390.921 165.758, 389 167 M 329.870 168.463 C 329.625 168.708, 327.754 169.021, 325.712 169.159 C 322.580 169.370, 322 169.767, 322 171.704 C 322 172.967, 322.337 174.057, 322.750 174.128 C 326.019 174.684, 328.128 174.602, 328.560 173.902 C 329.117 173.002, 334 174.890, 334 176.006 C 334 176.382, 333.100 177.505, 332 178.500 C 330.900 179.495, 330 179.999, 330 179.620 C 330 179.240, 329.069 179.428, 327.932 180.036 C 326.071 181.032, 326.005 181.361, 327.274 183.322 C 328.049 184.520, 329.490 188.082, 330.475 191.237 C 332.464 197.608, 331.899 199.307, 327.418 200.431 C 326.043 200.776, 325.159 201.448, 325.453 201.925 C 325.748 202.401, 325.293 203.057, 324.442 203.384 C 323.592 203.710, 323.144 203.576, 323.447 203.085 C 324.312 201.686, 312.658 208.198, 311.176 209.942 C 310.448 210.799, 310.131 210.946, 310.473 210.270 C 311.175 208.878, 304.966 211.868, 303.766 213.500 C 303.362 214.050, 303.024 214.107, 303.015 213.628 C 303.007 213.148, 302.438 213.198, 301.750 213.740 C 300.402 214.803, 288.181 221.393, 273.083 229.199 C 267.904 231.876, 263.347 233.714, 262.956 233.283 C 262.250 232.504, 259.643 224.545, 258.688 220.251 C 258.413 219.014, 258.596 217.750, 259.094 217.442 C 260.599 216.512, 260.117 215.264, 258.046 214.722 C 256.900 214.423, 255.845 213.029, 255.496 211.356 C 254.439 206.283, 252.678 200.567, 251.312 197.780 C 250.089 195.283, 250.175 194.932, 252.354 193.504 C 253.660 192.648, 257.602 191.454, 261.114 190.850 C 269.469 189.413, 270.389 188.913, 268.760 186.691 C 267.657 185.186, 265.139 184.943, 248.534 184.736 L 229.568 184.500 228.344 186.946 C 227.597 188.440, 227.457 189.995, 227.987 190.940 C 228.771 192.342, 235.145 194.260, 243.743 195.681 C 246.718 196.173, 247.143 196.727, 248.873 202.359 C 251.522 210.981, 252.432 217, 251.088 217 C 250.490 217, 250 217.450, 250 218 C 250 218.550, 250.690 219, 251.532 219 C 253.216 219, 255.013 222.775, 254.266 224.740 C 254.006 225.422, 250.803 228.317, 247.147 231.173 C 243.491 234.030, 240.350 236.735, 240.167 237.184 C 239.494 238.831, 236.938 237.890, 228.810 233.002 C 220.875 228.229, 220.173 228.004, 213.250 228.002 C 203.882 227.999, 203.774 229.632, 213.125 229.905 C 220.615 230.124, 227.540 232.911, 233.911 238.271 L 236.732 240.645 233.554 242.823 C 231.806 244.020, 230.073 245, 229.703 245 C 229.333 245, 226.783 243.617, 224.037 241.928 C 221.290 240.238, 218.514 239.182, 217.867 239.582 C 217.178 240.008, 216.957 239.879, 217.333 239.271 C 218.246 237.793, 208.951 234.412, 201.451 233.494 C 194.975 232.702, 193.718 232.635, 188.750 232.822 C 184.191 232.993, 184 233.119, 184 235.965 C 184 240.201, 178.853 245.886, 175.584 245.261 C 173.894 244.938, 172.276 245.590, 170.359 247.368 C 168.551 249.045, 167.345 249.558, 166.901 248.839 C 166.481 248.160, 165.969 248.521, 165.570 249.778 C 165.214 250.902, 163.759 252.583, 162.338 253.514 C 160.917 254.446, 160.061 254.711, 160.436 254.104 C 160.905 253.344, 159.192 253, 154.942 253 C 148.915 253, 148.778 253.059, 149.239 255.470 C 149.499 256.828, 149.374 257.731, 148.962 257.477 C 147.888 256.813, 144.190 265.096, 142.345 272.297 C 139.391 283.831, 141.802 299.205, 148.259 310 C 151.330 315.133, 160.687 324.236, 167.047 328.277 C 171.842 331.324, 181.819 335.208, 183.836 334.813 C 184.201 334.741, 185.374 335.060, 186.443 335.522 C 189.484 336.837, 208.304 334.349, 214.246 331.846 C 220.952 329.022, 226.986 324.947, 232.084 319.797 C 235.984 315.858, 241.934 307.329, 243.279 303.750 C 243.641 302.788, 244.964 301.948, 246.219 301.884 C 247.912 301.798, 248.049 301.650, 246.750 301.311 C 244.672 300.768, 244.640 300.373, 246.207 294.514 L 247.415 290 253.457 290.032 C 259.463 290.063, 263.014 291.496, 262.304 293.600 C 262.100 294.205, 262.623 295.272, 263.467 295.972 C 264.310 296.672, 265 297.815, 265 298.511 C 265 300.091, 271.259 301.644, 278.633 301.894 C 282.242 302.016, 283.510 304.582, 281.394 307.476 C 280.662 308.476, 280.242 309.583, 280.459 309.934 C 280.677 310.286, 284.713 310.660, 289.427 310.765 C 297.936 310.955, 298 310.937, 298 308.478 C 298 306.173, 297.653 306, 293.023 306 C 288.685 306, 287.822 305.647, 286.296 303.250 C 285.334 301.738, 284.302 300.275, 284.003 300 C 283.704 299.725, 282.904 298.237, 282.225 296.694 C 281.547 295.150, 280.594 294.133, 280.109 294.433 C 279.624 294.733, 278.613 294.222, 277.863 293.297 C 276.702 291.866, 276.711 291.743, 277.920 292.472 C 279.030 293.141, 279.168 292.911, 278.552 291.414 C 278.119 290.361, 277.638 288.542, 277.483 287.370 C 277.266 285.724, 277.627 285.351, 279.068 285.728 C 280.940 286.217, 282.971 288.063, 282.669 289 C 282.264 290.254, 287.115 297.047, 288.016 296.490 C 290.146 295.174, 291.935 288.722, 291.721 283.129 C 291.554 278.761, 291.924 276.939, 293.250 275.610 C 295.297 273.559, 295.525 272.611, 293.750 273.528 C 293.063 273.883, 293.423 273.347, 294.552 272.337 C 296.772 270.349, 301.806 262.841, 302.236 260.877 C 302.381 260.211, 303.101 258.954, 303.834 258.083 C 306.175 255.307, 313.205 243.810, 313.408 242.428 C 313.515 241.695, 314.262 240.287, 315.067 239.298 C 317.884 235.839, 320.953 231.137, 321.225 229.863 C 321.376 229.156, 322.287 227.688, 323.249 226.601 C 324.211 225.514, 325.520 223.471, 326.157 222.062 C 326.794 220.653, 329.208 217.925, 331.522 216 C 333.835 214.075, 335.504 212.050, 335.230 211.500 C 334.956 210.950, 336.097 211.850, 337.765 213.500 C 340.667 216.371, 341.970 219.474, 348.667 239.465 C 349.950 243.296, 351 247.583, 351 248.992 C 351 250.402, 351.683 252.530, 352.518 253.723 C 353.353 254.915, 353.955 256.252, 353.854 256.695 C 353.553 258.023, 355.165 263, 355.896 263 C 356.269 263, 356.642 263.891, 356.724 264.981 C 356.806 266.071, 357.997 270.310, 359.372 274.402 C 360.746 278.494, 361.832 283.193, 361.785 284.843 C 361.683 288.440, 363.814 290.813, 367.876 291.625 C 370.235 292.097, 371.410 291.681, 373.434 289.657 C 376.577 286.513, 376.725 282.753, 373.811 280.039 C 371.104 277.517, 370.230 277.476, 369.820 279.852 C 369.561 281.351, 369.074 281.056, 367.262 278.300 C 366.031 276.428, 365.468 275.171, 366.012 275.507 C 366.555 275.843, 367 275.664, 367 275.109 C 367 274.554, 366.438 273.740, 365.750 273.300 C 365.063 272.860, 364.444 271.825, 364.377 271 C 364.309 270.175, 361.665 262.300, 358.502 253.500 C 344.220 213.767, 344.576 214.909, 345.834 212.894 C 346.495 211.835, 346.593 211, 346.055 211 C 345.169 211, 343.057 207.046, 341.614 202.687 C 341.265 201.630, 340.529 201.173, 339.853 201.591 C 339.127 202.040, 338.961 201.872, 339.411 201.145 C 339.806 200.504, 338.526 196.645, 336.565 192.568 C 334.604 188.492, 333 184.936, 333 184.666 C 333 184.396, 334.771 183.877, 336.935 183.511 C 339.498 183.078, 341.417 182.013, 342.435 180.458 C 344.517 177.282, 344.436 177, 341.441 177 C 339.990 177, 339.149 176.567, 339.500 176 C 339.840 175.450, 339.670 175, 339.122 175 C 338.542 175, 338.363 173.538, 338.694 171.500 C 339.257 168.030, 339.230 168, 335.572 168 C 332.886 168, 332.086 168.340, 332.633 169.250 C 333.232 170.247, 333.074 170.249, 331.850 169.259 C 331.006 168.576, 330.115 168.218, 329.870 168.463 M 384.507 168.989 C 384.157 169.555, 384.558 169.723, 385.448 169.382 C 387.180 168.717, 387.497 168, 386.059 168 C 385.541 168, 384.843 168.445, 384.507 168.989 M 415.310 183.500 C 415.315 186.800, 415.502 188.029, 415.725 186.232 C 415.947 184.435, 415.943 181.735, 415.715 180.232 C 415.486 178.729, 415.304 180.200, 415.310 183.500 M 478.195 181.500 C 478.215 183.150, 478.439 183.704, 478.693 182.731 C 478.947 181.758, 478.930 180.408, 478.656 179.731 C 478.382 179.054, 478.175 179.850, 478.195 181.500 M 498.079 181.583 C 498.127 182.748, 498.364 182.985, 498.683 182.188 C 498.972 181.466, 498.936 180.603, 498.604 180.271 C 498.272 179.939, 498.036 180.529, 498.079 181.583 M 485.252 184.500 C 485.263 186.700, 485.468 187.482, 485.707 186.238 C 485.946 184.994, 485.937 183.194, 485.687 182.238 C 485.437 181.282, 485.241 182.300, 485.252 184.500 M 479.232 188 C 479.232 189.925, 479.438 190.713, 479.689 189.750 C 479.941 188.787, 479.941 187.213, 479.689 186.250 C 479.438 185.287, 479.232 186.075, 479.232 188 M 497.079 189.583 C 497.127 190.748, 497.364 190.985, 497.683 190.188 C 497.972 189.466, 497.936 188.603, 497.604 188.271 C 497.272 187.939, 497.036 188.529, 497.079 189.583 M 414.232 193 C 414.232 194.925, 414.438 195.713, 414.689 194.750 C 414.941 193.787, 414.941 192.213, 414.689 191.250 C 414.438 190.287, 414.232 191.075, 414.232 193 M 486.232 194 C 486.232 195.925, 486.438 196.713, 486.689 195.750 C 486.941 194.787, 486.941 193.213, 486.689 192.250 C 486.438 191.287, 486.232 192.075, 486.232 194 M 480.079 195.583 C 480.127 196.748, 480.364 196.985, 480.683 196.188 C 480.972 195.466, 480.936 194.603, 480.604 194.271 C 480.272 193.939, 480.036 194.529, 480.079 195.583 M 485.999 199.685 C 486 200.337, 485.477 202.137, 484.839 203.685 C 484.200 205.233, 483.719 206.744, 483.769 207.042 C 483.820 207.341, 482.935 207.655, 481.802 207.740 C 479.922 207.882, 479.791 207.487, 480.299 203.198 C 480.606 200.614, 480.598 199.175, 480.282 200 C 479.965 200.825, 479.088 201.865, 478.332 202.311 C 477.576 202.758, 477.279 203.658, 477.671 204.311 C 478.205 205.202, 478.022 205.222, 476.942 204.393 C 475.918 203.607, 472.889 203.562, 466.500 204.236 C 454.783 205.473, 427.069 204.485, 420.113 202.582 L 414.726 201.109 415.461 227.804 C 415.964 246.073, 416.559 254.750, 417.348 255.293 C 417.982 255.729, 420.300 255.890, 422.500 255.650 C 424.700 255.410, 429.650 255.762, 433.500 256.433 C 439.541 257.485, 440.453 257.915, 440.155 259.576 C 439.693 262.149, 439.908 262.090, 435.480 260.867 C 433.331 260.274, 429.609 260.009, 427.208 260.280 C 421.754 260.895, 419.232 260.265, 418.670 258.147 C 418.429 257.241, 418.180 258.151, 418.116 260.168 C 418.052 262.186, 417.688 264.661, 417.306 265.668 C 416.640 267.426, 416.684 267.428, 418.412 265.716 C 419.626 264.512, 421.470 264.006, 424.078 264.160 C 426.205 264.285, 427.784 264.550, 427.586 264.748 C 427.388 264.945, 428.010 266.718, 428.967 268.687 C 430.596 272.036, 430.603 272.565, 429.070 276.883 C 428.085 279.659, 426.549 281.894, 425.216 282.487 C 423.997 283.030, 423 283.828, 423 284.260 C 423 284.692, 421.910 284.332, 420.577 283.458 C 418.267 281.945, 418.179 281.967, 418.690 283.924 C 418.986 285.053, 419.621 285.734, 420.102 285.437 C 420.583 285.139, 420.727 285.549, 420.420 286.347 C 419.595 288.497, 421.226 289.068, 428.347 289.123 C 432.327 289.153, 435.926 288.572, 437.818 287.594 C 440.840 286.031, 440.873 286.042, 441.316 288.758 C 441.562 290.266, 441.479 287.900, 441.132 283.500 C 440.041 269.685, 440.458 260.257, 442.248 258.274 C 443.552 256.829, 447 239.304, 447 234.122 C 447 232.346, 448.809 232.818, 449.409 234.750 C 449.708 235.713, 450.197 238.300, 450.495 240.500 C 452.364 254.281, 452.965 257, 454.138 257 C 454.677 257, 454.794 256.438, 454.399 255.750 C 453.981 255.024, 454.061 254.849, 454.590 255.333 C 455.090 255.792, 455.556 256.579, 455.625 257.083 C 455.926 259.289, 456.075 259.430, 456.839 258.227 C 457.855 256.626, 460.509 256.047, 470.250 255.305 C 477.544 254.749, 478 254.833, 478 256.726 C 478 258.518, 477.189 258.789, 470.560 259.214 C 466.092 259.501, 462.124 260.344, 460.629 261.324 C 458.777 262.537, 458.029 262.641, 457.713 261.728 C 457.479 261.053, 457.441 261.400, 457.630 262.500 C 457.818 263.600, 458.040 266.525, 458.123 269 C 458.214 271.742, 458.448 272.524, 458.721 271 C 459.397 267.230, 460.548 266.647, 460.799 269.946 C 460.922 271.553, 460.519 273.179, 459.904 273.559 C 459.116 274.046, 459.187 274.504, 460.143 275.110 C 461.224 275.795, 461.234 275.972, 460.191 275.985 C 459.471 275.993, 459.165 276.457, 459.510 277.016 C 459.856 277.575, 460.557 277.774, 461.069 277.457 C 461.581 277.141, 462.056 277.359, 462.125 277.941 C 462.568 281.690, 462.315 282.489, 460.726 282.361 C 458.857 282.211, 458.653 284.208, 460 289.500 C 460.584 291.795, 460.791 291.990, 460.882 290.332 C 460.988 288.393, 461.553 288.169, 466.250 288.208 C 469.137 288.232, 473.990 287.734, 477.034 287.100 L 482.569 285.948 481.900 280.224 C 481.533 277.076, 480.693 270.541, 480.034 265.701 C 479.247 259.921, 479.173 256.490, 479.817 255.701 C 480.357 255.041, 480.818 247.837, 480.843 239.694 C 480.883 226.653, 480.671 224.671, 479.062 223.062 C 476.957 220.957, 477.152 215.419, 479.410 213.161 C 480.950 211.622, 483 212.359, 483 214.452 C 483 215.186, 483.611 216.020, 484.358 216.307 C 485.105 216.594, 485.999 218.243, 486.344 219.972 C 486.970 223.099, 487.004 223.114, 492.603 222.808 L 498.234 222.500 497.611 216.500 C 497.268 213.200, 496.714 207.952, 496.378 204.839 L 495.767 199.177 490.883 198.839 C 487.595 198.611, 485.999 198.887, 485.999 199.685 M 142.652 201.491 C 141.815 202.328, 140.846 203.909, 140.498 205.006 C 140.052 206.410, 138.924 207.033, 136.683 207.112 C 123.285 207.582, 122.767 208.318, 123.381 226 C 123.639 233.425, 123.884 239.564, 123.925 239.643 C 123.966 239.722, 124.739 240.069, 125.641 240.416 C 126.924 240.908, 127.040 240.753, 126.173 239.708 C 125.522 238.923, 124.946 233.023, 124.781 225.435 C 124.398 207.808, 122.595 209, 149.653 209 C 169.932 209, 171.104 209.104, 173.077 211.077 C 174.220 212.220, 174.900 213.818, 174.589 214.629 C 174.278 215.440, 174.447 215.842, 174.965 215.522 C 175.503 215.189, 176.068 217.633, 176.281 221.220 C 176.646 227.354, 176.656 227.326, 176.695 220 C 176.717 215.875, 176.280 211.927, 175.725 211.226 C 174.257 209.373, 175.788 208.359, 177.485 210.060 C 178.572 211.150, 178.951 214.659, 179.043 224.500 C 179.170 238.148, 178.706 241, 176.358 241 C 175.256 241, 175.166 240.558, 175.965 239.066 C 177.049 237.039, 177.441 228.226, 176.400 229.267 C 176.070 229.597, 175.800 231.470, 175.800 233.431 C 175.800 235.391, 175.443 236.774, 175.007 236.504 C 174.570 236.234, 173.945 237.082, 173.618 238.387 C 172.964 240.992, 170.623 241.932, 164.500 242.050 C 160.978 242.118, 160.780 242.239, 162.842 243.065 C 164.131 243.582, 165.555 243.775, 166.007 243.496 C 166.459 243.216, 167.034 243.553, 167.284 244.244 C 167.648 245.250, 168.160 245.251, 169.856 244.250 C 171.020 243.563, 173.216 242.986, 174.736 242.968 C 180.531 242.902, 181.480 241.018, 181.692 229.169 C 181.896 217.771, 180.990 211.539, 178.824 209.431 C 178.066 208.695, 174.330 207.996, 170.094 207.798 C 164.299 207.527, 162.504 207.076, 161.844 205.726 C 161.380 204.777, 160.622 203.226, 160.160 202.280 C 158.980 199.865, 144.912 199.231, 142.652 201.491 M 149.500 201.975 C 147.300 202.264, 144.621 203.019, 143.547 203.653 C 141.921 204.613, 141.809 205.064, 142.874 206.348 C 143.808 207.474, 145.988 207.872, 150.961 207.825 C 158.409 207.755, 160.591 206.983, 159.725 204.726 C 158.922 202.634, 154.187 201.359, 149.500 201.975 M 319.057 210.673 C 317.304 211.901, 316.888 211.967, 317.495 210.923 C 317.950 210.140, 317.237 210.447, 315.911 211.604 C 314.585 212.761, 306.975 217.090, 299 221.224 C 291.025 225.358, 280.523 230.826, 275.662 233.375 C 270.802 235.924, 266.510 237.815, 266.124 237.577 C 264.626 236.651, 265.112 242.443, 267.149 249.796 C 273.545 272.882, 273.144 271.999, 277.225 272.004 C 279.026 272.006, 281.973 272.906, 283.774 274.004 C 287.015 275.980, 289.890 276.868, 287 275 C 285.910 274.296, 285.858 274.026, 286.809 274.015 C 287.529 274.007, 287.871 273.601, 287.570 273.113 C 287.269 272.626, 287.692 271.671, 288.511 270.991 C 289.330 270.311, 290 269.380, 290 268.922 C 290 267.253, 294.774 261.106, 295.537 261.793 C 295.968 262.182, 295.997 261.938, 295.602 261.251 C 295.184 260.524, 296.891 256.884, 299.692 252.533 C 302.336 248.425, 305.590 243.271, 306.921 241.079 C 308.253 238.887, 309.785 237.367, 310.326 237.701 C 310.901 238.057, 310.988 237.790, 310.537 237.059 C 310.086 236.329, 310.645 234.619, 311.882 232.945 C 313.047 231.370, 314 229.721, 314 229.280 C 314 228.840, 315.039 227.359, 316.309 225.990 C 317.578 224.620, 318.619 223.275, 318.620 223 C 318.621 222.725, 319.891 220.337, 321.440 217.692 C 323.392 214.361, 324.722 213.063, 325.770 213.465 C 327.080 213.968, 327.096 213.808, 325.891 212.273 C 322.991 208.578, 322.284 208.412, 319.057 210.673 M 193 219.658 C 193.825 219.933, 195.175 220.419, 196 220.738 C 196.825 221.057, 197.950 221.240, 198.500 221.144 C 199.050 221.049, 198.626 221.653, 197.559 222.486 C 196.333 223.442, 193.476 224, 189.809 224 C 183.889 224, 183.030 224.555, 185.250 226.947 C 186.260 228.034, 186.235 228.142, 185.120 227.508 C 184.181 226.972, 183.889 227.165, 184.204 228.111 C 184.512 229.032, 186.242 229.500, 189.334 229.500 C 191.900 229.500, 194 229.838, 194 230.250 C 194 231.993, 195.588 230.823, 195.727 228.978 C 195.810 227.866, 195.456 227.218, 194.939 227.537 C 194.423 227.857, 194 227.878, 194 227.585 C 194 227.291, 195.350 226.353, 197 225.500 C 198.650 224.647, 200 223.274, 200 222.450 C 200 220.882, 196.080 218.943, 193.185 219.079 C 191.831 219.142, 191.795 219.256, 193 219.658 M 187.923 225.367 C 187.881 225.440, 187.709 226.202, 187.540 227.060 C 187.306 228.248, 187.903 228.521, 190.049 228.206 C 193.906 227.640, 194.528 225.500, 190.879 225.351 C 189.295 225.287, 187.966 225.294, 187.923 225.367 M 197 229.108 C 197 230.219, 203.698 230.297, 204.380 229.195 C 204.653 228.752, 203.105 228.351, 200.939 228.303 C 198.772 228.255, 197 228.618, 197 229.108 M 296.826 229.750 C 293.943 233.148, 286.728 244.516, 286.698 245.707 C 286.681 246.371, 286.038 247.155, 285.270 247.450 C 284.502 247.745, 284.153 248.439, 284.496 248.993 C 284.838 249.547, 284.627 250, 284.028 250 C 283.428 250, 282.658 250.787, 282.317 251.750 C 281.975 252.713, 281.020 254.287, 280.193 255.250 C 278.941 256.707, 278.925 257.003, 280.095 257.015 C 281.244 257.028, 281.229 257.202, 280.012 257.972 C 278.777 258.752, 279.109 259.517, 281.958 262.456 C 283.847 264.405, 285.690 266, 286.055 266 C 286.875 266, 293.882 255.539, 294.240 253.781 C 294.383 253.076, 294.778 252.275, 295.118 252 C 295.987 251.297, 309.091 230.927, 309.707 229.321 C 310.547 227.131, 298.713 227.525, 296.826 229.750 M 354.071 229.500 C 354.071 230.050, 354.714 231.625, 355.500 233 C 356.286 234.375, 356.929 235.050, 356.929 234.500 C 356.929 233.950, 356.286 232.375, 355.500 231 C 354.714 229.625, 354.071 228.950, 354.071 229.500 M 253.500 231.368 C 252.400 231.991, 251.275 232.762, 251 233.083 C 250.725 233.404, 247.350 236.320, 243.500 239.564 C 239.650 242.808, 235.738 246.111, 234.807 246.904 C 233.549 247.976, 233.366 248.815, 234.093 250.173 C 234.630 251.178, 234.780 252, 234.424 252 C 234.069 252, 234.700 252.787, 235.825 253.750 C 240.015 257.332, 246.073 270.957, 246.529 277.825 C 246.687 280.203, 246.980 282.313, 247.181 282.514 C 248.180 283.513, 260.422 283.234, 260.765 282.204 C 260.974 281.578, 262.205 279.503, 263.502 277.593 C 265.102 275.234, 265.480 273.965, 264.679 273.639 C 264.031 273.374, 264.548 273.122, 265.829 273.079 C 267.915 273.008, 268.091 272.659, 267.510 269.750 C 267.152 267.962, 266.050 263.800, 265.059 260.500 C 262.410 251.676, 259.156 240.093, 257.978 235.292 C 256.768 230.359, 256.185 229.848, 253.500 231.368 M 360.433 233.313 C 360.156 234.036, 360.522 236.398, 361.246 238.563 C 362.235 241.524, 363.050 242.447, 364.531 242.285 C 369.712 241.718, 382.007 244.086, 387.066 246.625 C 392.450 249.327, 405.195 261.122, 405.830 263.991 C 406.012 264.810, 406.462 265.710, 406.830 265.991 C 407.199 266.271, 407.518 266.950, 407.540 267.500 C 407.561 268.050, 408.349 270.944, 409.290 273.932 C 411.477 280.877, 411.449 285.929, 409.176 294.568 C 407.316 301.635, 404.237 307.378, 399.729 312.188 C 398.344 313.667, 397.463 315.129, 397.772 315.438 C 398.081 315.747, 397.824 316, 397.201 316 C 396.579 316, 394.544 317.340, 392.679 318.977 C 390.814 320.615, 388.998 321.665, 388.644 321.311 C 388.290 320.956, 388 321.192, 388 321.833 C 388 322.475, 387.663 322.911, 387.250 322.802 C 385.837 322.429, 381.970 324.143, 382.455 324.928 C 382.722 325.358, 381.828 325.499, 380.470 325.239 C 379.111 324.979, 378.001 325.157, 378.002 325.633 C 378.006 327.362, 357.745 325.516, 352.191 323.282 C 342.039 319.200, 334.874 312.291, 329.327 301.236 C 325.921 294.449, 325.682 293.365, 325.681 284.736 C 325.680 276.950, 326.112 274.446, 328.431 268.787 C 331.489 261.328, 336.990 254.479, 343.546 249.968 L 347.875 246.990 346.344 242.495 C 345.501 240.023, 344.292 238.002, 343.656 238.004 C 340.589 238.016, 326 250.383, 326 252.971 C 326 253.367, 325.100 254.505, 324 255.500 C 322.900 256.495, 322 257.767, 322 258.326 C 322 258.885, 321.290 260.127, 320.422 261.086 C 318.089 263.665, 315.037 276.566, 315.017 283.936 C 314.998 291.016, 318.318 304.498, 320.758 307.250 C 321.612 308.212, 321.977 309, 321.571 309 C 320.286 309, 327.061 317.311, 332.330 322.199 C 338.809 328.208, 345.044 331.576, 354.198 334.011 C 362.483 336.215, 377.268 336.660, 381.685 334.840 C 383.233 334.201, 385.108 333.782, 385.850 333.907 C 386.682 334.047, 386.911 333.665, 386.446 332.912 C 385.957 332.121, 386.108 331.949, 386.875 332.423 C 390.043 334.381, 412.638 315.549, 411.651 311.774 C 411.396 310.797, 411.544 310.218, 411.980 310.488 C 412.904 311.059, 415.073 308.692, 415.359 306.800 C 415.468 306.085, 415.901 304.948, 416.322 304.274 C 417.749 301.991, 415.916 287.706, 413.525 282.462 C 411.355 277.705, 411.296 277.022, 412.464 270.212 C 413.144 266.245, 413.488 263, 413.228 263 C 412.968 263, 413.290 262.355, 413.944 261.567 C 415.581 259.595, 413.367 256.210, 404.956 247.831 C 397.260 240.163, 389.691 235.972, 379.303 233.626 C 370.433 231.622, 361.141 231.469, 360.433 233.313 M 357.031 238.500 C 357.031 239.050, 357.467 240.175, 358 241 C 358.533 241.825, 358.969 242.050, 358.969 241.500 C 358.969 240.950, 358.533 239.825, 358 239 C 357.467 238.175, 357.031 237.950, 357.031 238.500 M 199.015 241.750 C 199.007 242.438, 198.325 243, 197.500 243 C 195.531 243, 195.397 245.836, 196.571 262.750 C 196.928 267.899, 197.661 272, 198.224 272 C 199.292 272, 202.834 269.170, 212.210 260.826 C 215.351 258.031, 218.893 255.063, 220.082 254.230 C 222.013 252.877, 222.069 252.618, 220.601 251.796 C 219.697 251.291, 219.262 250.385, 219.633 249.784 C 220.005 249.183, 219.868 248.964, 219.328 249.297 C 218.234 249.973, 208.810 245.523, 209.620 244.713 C 209.902 244.431, 209.584 243.861, 208.912 243.446 C 208.076 242.929, 207.949 243.108, 208.510 244.015 C 209.113 244.991, 208.865 245.162, 207.571 244.666 C 206.605 244.295, 204.619 243.699, 203.157 243.342 C 201.696 242.984, 200.169 242.199, 199.765 241.596 C 199.259 240.841, 199.026 240.889, 199.015 241.750 M 134.269 242.693 C 135.242 242.947, 136.592 242.930, 137.269 242.656 C 137.946 242.382, 137.150 242.175, 135.500 242.195 C 133.850 242.215, 133.296 242.439, 134.269 242.693 M 139.333 243.456 C 139.333 244.257, 139.708 244.680, 140.167 244.397 C 140.625 244.114, 141 243.459, 141 242.941 C 141 242.423, 140.625 242, 140.167 242 C 139.708 242, 139.333 242.655, 139.333 243.456 M 144.250 242.716 C 145.762 242.945, 147 243.608, 147 244.189 C 147 244.927, 147.386 244.925, 148.280 244.182 C 148.984 243.598, 152.022 242.951, 155.030 242.745 C 158.039 242.539, 156.225 242.354, 151 242.335 C 145.775 242.315, 142.738 242.487, 144.250 242.716 M 182 244.707 C 177.413 246.884, 177.537 246.737, 178.895 248.374 C 179.544 249.156, 180.266 250.629, 180.498 251.648 C 180.731 252.667, 181.181 254.625, 181.498 256 C 181.816 257.375, 181.127 256.250, 179.968 253.500 C 177.176 246.879, 176.606 246.403, 173.277 247.920 C 171.750 248.616, 170.482 249.031, 170.461 248.842 C 170.439 248.654, 168.946 250.009, 167.143 251.853 C 165.340 253.698, 164.087 255.784, 164.358 256.490 C 164.670 257.303, 164.236 257.615, 163.175 257.342 C 162.048 257.052, 160.687 258.233, 159.014 260.955 C 157.647 263.180, 156.158 265, 155.705 265 C 155.252 265, 155.141 265.419, 155.457 265.931 C 155.774 266.443, 155.616 267.119, 155.106 267.434 C 154.596 267.749, 153.635 271.235, 152.970 275.180 C 151.894 281.556, 151.954 284.469, 153.418 297.037 C 153.871 300.924, 162.798 312.408, 169 317.082 C 172.575 319.776, 176.063 321.985, 176.750 321.990 C 177.438 321.996, 178 322.477, 178 323.059 C 178 323.641, 178.430 323.852, 178.956 323.527 C 179.482 323.202, 181.604 323.643, 183.673 324.508 C 185.741 325.372, 189.581 325.981, 192.205 325.861 C 194.830 325.742, 197.278 325.945, 197.646 326.313 C 198.015 326.681, 198.807 326.579, 199.408 326.085 C 200.355 325.307, 203.444 324.513, 209 323.619 C 209.825 323.486, 211.453 322.858, 212.619 322.224 C 213.784 321.589, 215.134 321.392, 215.619 321.785 C 216.103 322.178, 216.171 322.096, 215.769 321.603 C 214.849 320.473, 222.102 314.964, 223.482 315.745 C 224.042 316.062, 224.208 315.994, 223.851 315.595 C 223.494 315.195, 224.951 312.986, 227.088 310.684 C 230.548 306.960, 231.223 305.667, 230.915 303.362 C 230.868 303.011, 231.362 302.394, 232.013 301.992 C 233.500 301.073, 236.998 290.742, 236.137 289.810 C 235.787 289.431, 228.617 288.891, 220.205 288.611 L 204.911 288.102 203.777 290.589 C 203.154 291.958, 202.119 292.876, 201.478 292.630 C 200.706 292.334, 200.471 293.080, 200.781 294.841 C 201.134 296.842, 200.961 297.229, 200.080 296.405 C 199.436 295.802, 197.209 295.479, 195.131 295.687 C 188.286 296.371, 182.871 289.980, 183.513 281.976 C 183.709 279.540, 183.358 276.862, 182.733 276.024 C 181.789 274.758, 181.833 274.711, 182.998 275.750 C 186.628 278.987, 189.090 275.009, 186.526 270.050 C 185.658 268.372, 185.194 267, 185.495 267 C 185.795 267, 185.135 265.224, 184.028 263.054 C 182.797 260.643, 182.401 258.870, 183.007 258.495 C 183.553 258.158, 184 258.719, 184 259.741 C 184 260.763, 184.391 262.028, 184.869 262.550 C 185.346 263.072, 186.532 265.637, 187.504 268.250 C 189.060 272.430, 189.622 273, 192.195 273 L 195.118 273 194.905 258 L 194.692 243 190.096 243.023 C 187.568 243.035, 183.925 243.793, 182 244.707 M 147 251.427 C 147 252.211, 146.213 253.059, 145.250 253.311 C 143.933 253.655, 144.057 253.797, 145.750 253.884 C 147.372 253.968, 148 253.442, 148 252 C 148 250.900, 147.775 250, 147.500 250 C 147.225 250, 147 250.642, 147 251.427 M 183 251.941 C 183 252.459, 183.445 253.157, 183.989 253.493 C 184.555 253.843, 184.723 253.442, 184.382 252.552 C 183.717 250.820, 183 250.503, 183 251.941 M 185 256.941 C 185 257.459, 185.445 258.157, 185.989 258.493 C 186.555 258.843, 186.723 258.442, 186.382 257.552 C 185.717 255.820, 185 255.503, 185 256.941 M 221.468 259.035 C 220.455 260.155, 219.012 260.835, 218.261 260.547 C 217.510 260.259, 217.137 260.412, 217.431 260.888 C 217.725 261.364, 214.486 264.846, 210.233 268.626 L 202.500 275.500 204.351 279.289 L 206.202 283.077 221.851 282.951 L 237.500 282.824 237.500 280.508 C 237.500 279.234, 237.162 278.400, 236.750 278.655 C 236.338 278.909, 235.967 278.529, 235.926 277.809 C 235.737 274.482, 234.760 271.156, 232.563 266.357 C 231.253 263.495, 230.477 260.821, 230.840 260.416 C 231.203 260.011, 230.861 260.050, 230.080 260.504 C 229.013 261.123, 228.824 260.901, 229.319 259.612 C 229.683 258.663, 229.566 258.150, 229.058 258.464 C 228.552 258.777, 227.856 258.575, 227.510 258.016 C 226.479 256.347, 223.436 256.861, 221.468 259.035 M 469.158 264.065 C 467.869 264.582, 466.500 264.809, 466.115 264.571 C 465.297 264.066, 464.734 266.992, 464.651 272.183 C 464.615 274.467, 464.195 275.629, 463.546 275.241 C 462.971 274.897, 463.101 275.358, 463.836 276.264 C 464.571 277.171, 464.839 278.452, 464.432 279.111 C 463.929 279.924, 464.117 280.046, 465.015 279.490 C 465.969 278.901, 466.166 279.124, 465.721 280.285 C 465.312 281.351, 465.539 281.730, 466.391 281.404 C 467.100 281.132, 468.218 281.558, 468.877 282.351 C 470.241 283.996, 473.623 283.476, 476.230 281.222 C 480.243 277.752, 479.184 267.661, 474.485 264.582 C 473.157 263.712, 471.942 263.029, 471.785 263.063 C 471.628 263.098, 470.446 263.549, 469.158 264.065 M 419.720 268.006 C 417.883 269.450, 417.052 269.660, 416.748 268.756 C 416.516 268.065, 416.282 268.987, 416.228 270.804 C 416.122 274.401, 419.469 281, 421.399 281 C 422.059 281, 423.206 280.438, 423.947 279.750 C 425.041 278.734, 425.145 278.781, 424.500 280 C 423.893 281.147, 423.995 281.235, 424.931 280.372 C 426.536 278.894, 428.104 272, 426.836 272 C 426.311 272, 426.178 271.522, 426.539 270.937 C 427.183 269.894, 424.376 266, 422.980 266 C 422.589 266, 421.122 266.903, 419.720 268.006 M 467.655 267.829 C 465.812 269.865, 465.413 274, 467.059 274 C 467.641 274, 467.828 274.470, 467.473 275.044 C 466.616 276.431, 469.667 281, 471.450 281 C 473.270 281, 477 276.253, 477 273.937 C 477 272.950, 476.293 271.436, 475.429 270.571 C 474.564 269.707, 474.169 269, 474.551 269 C 474.933 269, 474.685 268.325, 474 267.500 C 472.318 265.473, 469.662 265.611, 467.655 267.829 M 435.070 269.869 C 434.520 270.896, 434.344 272.010, 434.678 272.344 C 435.012 272.678, 434.680 273.750, 433.941 274.726 C 432.795 276.238, 432.803 276.316, 433.998 275.250 C 434.769 274.563, 436.210 274, 437.200 274 C 438.533 274, 439 273.222, 439 271 C 439 267.558, 436.666 266.886, 435.070 269.869 M 369 272.308 C 369 273.027, 370.733 274.380, 372.851 275.314 C 375.589 276.522, 377.208 278.136, 378.453 280.897 C 380.427 285.273, 380.001 287.657, 376.503 291.814 C 373.460 295.431, 374.566 297.646, 378.016 294.844 C 379.382 293.734, 379.977 293.093, 379.338 293.418 C 378.027 294.085, 378.131 291.492, 379.465 290.279 C 379.935 289.851, 379.997 290.063, 379.601 290.750 C 379.206 291.438, 379.323 292, 379.862 292 C 381.099 292, 382.492 286.407, 382.195 282.633 C 381.888 278.734, 378.745 274.581, 374.619 272.623 C 370.478 270.658, 369 270.575, 369 272.308 M 290 273 C 289.099 273.582, 288.975 273.975, 289.691 273.985 C 290.346 273.993, 291.160 273.550, 291.500 273 C 292.267 271.758, 291.921 271.758, 290 273 M 199.333 275.456 C 199.333 276.257, 199.716 276.676, 200.183 276.387 C 200.650 276.098, 200.774 275.443, 200.457 274.931 C 199.649 273.623, 199.333 273.770, 199.333 275.456 M 271.302 277.667 C 267.560 279.581, 265.049 282.932, 265.022 286.050 C 265.010 287.453, 264.438 289.167, 263.750 289.859 C 262.747 290.869, 262.880 290.974, 264.424 290.386 C 265.930 289.812, 266.213 290.002, 265.729 291.264 C 265.275 292.447, 266.243 293.423, 269.371 294.938 C 271.714 296.072, 274.502 296.971, 275.566 296.937 C 277.138 296.885, 277.032 296.688, 275 295.884 C 268.913 293.475, 266.848 287.890, 269.920 282.150 C 272.151 277.981, 279.390 277.619, 282.750 281.507 C 285.381 284.552, 285.832 283.248, 283.250 280.061 C 280.795 277.031, 274.868 275.843, 271.302 277.667 M 193.500 277.733 C 188.663 278.433, 187.091 280.468, 188.062 284.773 C 188.517 286.793, 189.702 289.040, 190.694 289.766 C 193.128 291.545, 197.400 290.936, 197.815 288.750 C 198.069 287.407, 197.467 287, 195.228 287 C 192.669 287, 192.330 286.661, 192.479 284.250 C 192.599 282.301, 193.156 281.544, 194.391 281.650 C 195.349 281.733, 195.894 281.561, 195.602 281.269 C 195.310 280.976, 195.520 279.896, 196.070 278.869 C 196.620 277.841, 196.942 277.067, 196.785 277.150 C 196.628 277.232, 195.150 277.495, 193.500 277.733 M 356.044 279.918 C 354.805 282.232, 355.294 288.813, 356.932 291.873 C 359.137 295.992, 362.902 297.926, 368.586 297.858 C 372.371 297.813, 374 297.396, 374 296.473 C 374 295.572, 372.649 295.181, 369.750 295.243 C 364.100 295.362, 362.915 294.949, 360.524 292.024 C 359.073 290.250, 358.497 288.075, 358.489 284.346 C 358.476 278.392, 357.655 276.907, 356.044 279.918 M 437.200 279.200 C 435.573 280.827, 435.683 283, 437.393 283 C 438.703 283, 440 280.970, 440 278.918 C 440 277.636, 438.626 277.774, 437.200 279.200 M 206.507 284.989 C 206.157 285.555, 206.558 285.723, 207.448 285.382 C 209.180 284.717, 209.497 284, 208.059 284 C 207.541 284, 206.843 284.445, 206.507 284.989 M 189.564 292.707 C 189.022 294.132, 189.136 294.247, 190.124 293.267 C 190.808 292.588, 191.115 291.781, 190.807 291.474 C 190.499 291.166, 189.940 291.721, 189.564 292.707 M 482.286 296.500 C 482.294 299.250, 482.488 300.256, 482.718 298.736 C 482.947 297.216, 482.941 294.966, 482.704 293.736 C 482.467 292.506, 482.279 293.750, 482.286 296.500 M 440.158 297 C 440.158 298.375, 440.385 298.938, 440.662 298.250 C 440.940 297.563, 440.940 296.438, 440.662 295.750 C 440.385 295.063, 440.158 295.625, 440.158 297 M 420.079 297.583 C 420.127 298.748, 420.364 298.985, 420.683 298.188 C 420.972 297.466, 420.936 296.603, 420.604 296.271 C 420.272 295.939, 420.036 296.529, 420.079 297.583 M 192 298.931 C 192 299.898, 193.027 301.884, 194.282 303.344 C 196.929 306.426, 203.616 307.163, 204.643 304.487 C 205.564 302.089, 202.965 299.778, 199.860 300.234 C 198.345 300.456, 197.279 300.358, 197.491 300.015 C 197.703 299.672, 196.554 298.893, 194.938 298.283 C 192.381 297.318, 192 297.402, 192 298.931 M 421.232 303 C 421.232 304.925, 421.438 305.712, 421.689 304.750 C 421.941 303.788, 421.941 302.212, 421.689 301.250 C 421.438 300.288, 421.232 301.075, 421.232 303 M 439.079 302.583 C 439.127 303.748, 439.364 303.985, 439.683 303.188 C 439.972 302.466, 439.936 301.603, 439.604 301.271 C 439.272 300.939, 439.036 301.529, 439.079 302.583 M 422.158 310 C 422.158 311.375, 422.385 311.938, 422.662 311.250 C 422.940 310.563, 422.940 309.438, 422.662 308.750 C 422.385 308.063, 422.158 308.625, 422.158 310 M 438.232 311 C 438.232 312.925, 438.438 313.712, 438.689 312.750 C 438.941 311.788, 438.941 310.212, 438.689 309.250 C 438.438 308.288, 438.232 309.075, 438.232 311 M 423.079 316.583 C 423.127 317.748, 423.364 317.985, 423.683 317.188 C 423.972 316.466, 423.936 315.603, 423.604 315.271 C 423.272 314.939, 423.036 315.529, 423.079 316.583 M 437.328 322.500 C 437.333 326.350, 437.513 327.802, 437.730 325.728 C 437.946 323.653, 437.943 320.503, 437.722 318.728 C 437.501 316.952, 437.324 318.650, 437.328 322.500 M 481.158 318 C 481.158 319.375, 481.385 319.938, 481.662 319.250 C 481.940 318.563, 481.940 317.438, 481.662 316.750 C 481.385 316.063, 481.158 316.625, 481.158 318 M 467.158 320 C 467.158 321.375, 467.385 321.938, 467.662 321.250 C 467.940 320.563, 467.940 319.438, 467.662 318.750 C 467.385 318.063, 467.158 318.625, 467.158 320 M 481.079 322.583 C 481.127 323.748, 481.364 323.985, 481.683 323.188 C 481.972 322.466, 481.936 321.603, 481.604 321.271 C 481.272 320.939, 481.036 321.529, 481.079 322.583 M 418.408 335.412 C 416.258 338.389, 413.667 341.059, 412.649 341.345 C 411.501 341.668, 411.085 342.329, 411.554 343.087 C 412.014 343.831, 411.893 344.052, 411.245 343.651 C 409.916 342.830, 406.839 343.930, 407.495 344.992 C 407.761 345.422, 407.196 345.712, 406.239 345.637 C 405.050 345.543, 404.402 346.352, 404.189 348.193 C 403.914 350.572, 404.293 350.964, 407.431 351.553 C 411.069 352.235, 419.347 351.771, 433.500 350.092 C 437.900 349.570, 441.640 349.110, 441.810 349.071 C 441.981 349.032, 441.850 347.538, 441.519 345.750 C 441.189 343.962, 440.654 340.822, 440.330 338.771 C 440.007 336.720, 439.355 335.280, 438.883 335.573 C 438.410 335.865, 438.280 335.433, 438.595 334.613 C 438.910 333.793, 438.792 332.466, 438.334 331.664 C 437.621 330.418, 437.313 330.409, 436.211 331.603 C 435.466 332.409, 435.361 333, 435.961 333 C 438.167 333, 436.868 334.575, 434.500 334.771 C 433.125 334.884, 432 334.506, 432 333.930 C 432 333.353, 431.550 333.160, 431 333.500 C 430.450 333.840, 430 333.685, 430 333.157 C 430 332.312, 424.878 330, 423.008 330 C 422.627 330, 420.557 332.436, 418.408 335.412 M 480.495 331.445 C 479.674 332.637, 478.577 332.700, 474.221 331.807 C 468.455 330.624, 468.131 330.723, 467.526 333.865 C 467.177 335.675, 467.601 336.011, 470.307 336.070 C 472.063 336.109, 474.400 336.527, 475.500 337 L 477.500 337.859 475.500 337.945 C 473.832 338.016, 473.749 338.194, 475 339.014 C 476.405 339.935, 474.270 339.796, 467.815 338.547 C 466.888 338.368, 465.880 338.870, 465.576 339.662 C 465.226 340.574, 465.478 340.884, 466.261 340.506 C 466.943 340.177, 466.488 340.658, 465.250 341.576 C 464.012 342.493, 463 343.816, 463 344.515 C 463 345.214, 462.295 346.057, 461.433 346.387 C 460.417 346.777, 459.977 347.943, 460.183 349.705 C 460.449 351.982, 461.147 352.557, 464.500 353.258 C 469.130 354.227, 479.164 352.762, 483.827 350.437 C 486.800 348.953, 486.920 348.662, 486.400 344.190 C 486.069 341.347, 484.999 338.584, 483.681 337.174 C 482.377 335.777, 481.635 333.878, 481.826 332.424 C 482.191 329.635, 481.892 329.415, 480.495 331.445 M 482.500 335 C 482.840 335.550, 483.316 336, 483.559 336 C 483.802 336, 484 335.550, 484 335 C 484 334.450, 483.523 334, 482.941 334 C 482.359 334, 482.160 334.450, 482.500 335 M 469.269 337.693 C 470.242 337.947, 471.592 337.930, 472.269 337.656 C 472.946 337.382, 472.150 337.175, 470.500 337.195 C 468.850 337.215, 468.296 337.439, 469.269 337.693" stroke="none" fill="black" fill-rule="evenodd"/>
</svg>